<?xml version="1.0" encoding="utf-8"?>
<!-- Generator: Adobe Illustrator 19.0.0, SVG Export Plug-In . SVG Version: 6.00 Build 0)  -->
<svg version="1.1" id="Vrstva_1" xmlns="http://www.w3.org/2000/svg" xmlns:xlink="http://www.w3.org/1999/xlink" x="0px" y="0px"
	 viewBox="228 574.1 1536 729" style="enable-background:new 228 574.1 1536 729;" xml:space="preserve">
<style type="text/css">
	.st0{fill:#DEDEDE;}
</style>
<path d="M967.8,657.8c3.2,0,6.3,0,9.5,0.1c55.1,0.3,110.3,1.6,165.4,3c1.3,0,1.3,0,2.7,0.1c18.9,0.5,37.8,1,56.7,1.5
	c1.1,0,1.1,0,2.2,0.1c8.3,0.2,16.6,0.4,25,0.7c1.6,0,3.3,0.1,4.9,0.1c3.1,0.1,6.1,0.2,9.2,0.3c8.4,0.2,16.8,0.4,25.2,0.3
	c13-0.1,25.9,0.6,38.9,1.3c1.2,0.1,2.4,0.1,3.6,0.2c114.7,6.5,114.7,6.5,145.8,38.6c9.4,11.7,15.1,25.9,20.6,39.7
	c0.7,1.7,1.4,3.5,2.1,5.2c5.6,13.9,11,27.9,16,42c0.5,1.4,1,2.8,1.5,4.2c20,56.1,35.3,113.5,49.1,171.4c3,12.7,6.1,25.4,9.3,38.1
	c0.3,1.4,0.7,2.7,1,4.1c1.4,5.6,2.8,11.2,4.1,16.7c3.6,14.4,7.1,28.9,10.4,43.4c0.4,1.6,0.4,1.6,0.8,3.3c2.1,9.6,4.7,21.3-0.1,30.5
	c-11.4,14.4-35.8,15.1-52.4,17.1c-2.1,0.2-4.3,0.5-6.4,0.7c-1.8,0.2-1.8,0.2-3.5,0.4c-11.9,1.3-23.8,2.2-35.8,3
	c-2.4,0.2-4.7,0.3-7.1,0.5c-5.1,0.4-10.3,0.7-15.4,1.1c-6.9,0.5-13.7,0.9-20.6,1.4c-6.7,0.5-13.4,0.9-20.1,1.4
	c-4.1,0.3-8.2,0.6-12.3,0.9c-3.9,0.3-7.8,0.5-11.7,0.8c-1.4,0.1-2.9,0.2-4.3,0.3c-26.6,1.9-26.6,1.9-36.5-2.2c0.3-1,0.7-2,1-3
	c5.6-2.2,11.3-2.5,17.3-2.9c1-0.1,2-0.1,3.1-0.2c3.4-0.2,6.7-0.5,10.1-0.7c2.4-0.2,4.8-0.3,7.2-0.5c6.3-0.4,12.6-0.9,19-1.3
	c11.2-0.8,22.3-1.5,33.5-2.3c1.2-0.1,2.4-0.2,3.7-0.3c24.1-1.7,48.1-3.7,72.2-5.8c0-0.3,0-0.7,0-1c-8.7-2.3-18-0.7-26.8,0.2
	c-2.2,0.2-4.3,0.5-6.5,0.7c-6.1,0.6-12.3,1.3-18.4,1.9c-35,3.7-69.6,5.5-104.8,5.7c-5,0-10.1,0.1-15.1,0.1
	c-9.8,0.1-19.6,0.2-29.4,0.3c0.8,0.2,1.6,0.5,2.4,0.7c3,0.9,6,1.7,9.1,2.6c1.9,0.6,3.9,1.1,5.8,1.6c7.4,2.1,14.7,4.3,22,7.1
	c3.2,1.2,6.5,2.2,9.8,3.1c2.7,1.2,4.1,2.5,5.9,4.9c0.3,3.3,0.3,3.3,0,6.9c-0.1,1.2-0.2,2.4-0.3,3.7c-0.8,3.8-2,5.6-4.8,8.4
	c-5.9,2.9-13.7,0.6-19.8-1c-1.2-0.3-1.2-0.3-2.5-0.6c-1.7-0.4-3.5-0.9-5.2-1.3c-14.8-3.8-29.7-7.3-44.7-10c-6-1.1-11.9-2.3-17.8-3.8
	c-1.1-0.3-2.3-0.6-3.5-0.9c-2.1-0.5-4.2-1.1-6.2-1.6c-7.2-1.8-14-2-21.3-1.9c-1.7,0-1.7,0-3.4,0c-11.5,0.1-22.9,0.2-34.4,0.4
	c-57.2,0.8-114.4,0.7-171.6,0.4c-10.2,0-20.3-0.1-30.5-0.1c-10.1,0-20.1-0.1-30.1-0.1c-5.9,0-11.8-0.1-17.7-0.1
	c-39.1-0.1-78-1.5-117-4.4c-2.4-0.2-4.8-0.4-7.3-0.5c-4.8-0.3-9.5-0.7-14.3-1c-5.1-0.4-10.2-0.8-15.3-1.1c-3.4-0.2-6.9-0.5-10.3-0.8
	c-1.5-0.1-3.1-0.2-4.6-0.3c-8.1-0.6-16.1-1.5-24.2-2.7c-0.8-0.1-1.5-0.2-2.3-0.4c-3.5-0.6-5.8-1.2-8.8-3.2c0-0.7,0-1.3,0-2
	c10.8-3.3,24.4-0.7,35.6,0.1c9.8,0.7,19.6,1.3,29.4,1.9c1.7,0.1,1.7,0.1,3.4,0.2c47.2,2.9,94.3,3.4,141.6,3.7
	c9.2,0.1,18.3,0.1,27.5,0.2c0.7,0,1.4,0,2.2,0c2.9,0,5.8,0,8.7,0.1c71.9,0.6,143.7,0.9,215.6,0.8c-26.5-4.1-26.5-4.1-53-7.6
	c-1.3-0.2-1.3-0.2-2.5-0.3c-19.8-2.4-39.6-3.9-59.5-5.1c-0.8,0-1.7-0.1-2.5-0.2c-74.6-4.5-149.5-3.1-224.1-0.1
	c-5.2,0.2-10.5,0.4-15.7,0.5c-0.7,0-1.4,0.1-2.2,0.1c-3.5,0-5.4-0.3-8.5-2.2c-2.1-2.2-2.1-2.2-2.7-5.6c0.8-4.5,2.1-5.7,5.6-8.6
	c3-0.8,3-0.8,6.5-1.1c1.3-0.1,2.6-0.2,4-0.3s2.9-0.2,4.3-0.3c1.5-0.1,3-0.2,4.5-0.4c4-0.3,8-0.6,12-0.9c3.3-0.2,6.7-0.5,10-0.8
	c10.6-0.8,21.2-1.6,31.7-2.3c1.3-0.1,2.6-0.2,3.9-0.3c14.1-1,28.3-1.8,42.4-2.6c2.6-0.1,5.1-0.3,7.7-0.4c92.2-5.4,184.5-3.6,275,16
	c1.3,0.3,2.5,0.5,3.8,0.8c2.3,0.5,4.7,1,7,1.6c9.9,2.2,18.9,3.2,29,2.2c5.2-0.5,10.4-0.6,15.7-0.8c1.9-0.1,1.9-0.1,3.9-0.1
	c9.1-0.3,18.3-0.4,27.4-0.5c46.9-0.5,93.2-3.8,139.8-8.9c0.8-0.1,1.6-0.2,2.4-0.3c34.6-3.5,34.6-3.5,68.8-9.4
	c2.6-0.5,5.1-0.6,7.7-0.5c0.8,0,1.7,0,2.5,0.1c0.6,0,1.2,0,1.8,0.1c0.6,1.9,0.6,1.9,1,4c-1.4,2.3-1.4,2.3-3,4c1,0,2,0,3,0
	c2.6-3.9,2.2-7.5,2-12c-0.3-0.7-0.7-1.3-1-2c-3.5,0.4-6.6,0.8-9.8,2.1c-5.2,1.4-10.2,0.6-15.4-0.6c-6.1-1.4-11.2-1.6-17.3-0.9
	c-0.9,0.1-1.9,0.2-2.9,0.3c-2.2,0.2-4.4,0.4-6.6,0.7c-7.3,0.8-14.7,1.5-22,2.2c-2.6,0.3-5.2,0.5-7.9,0.8
	c-11.4,1.1-22.7,1.9-34.1,2.4c-0.9,0-1.8,0.1-2.8,0.1c-5.9,0.2-11.8,0.4-17.7,0.6c-2,0.1-4.1,0.1-6.1,0.2c-3,0.1-5.9,0.2-8.9,0.3
	c-1.4,0.1-1.4,0.1-2.7,0.1c-6.2,0.1-6.2,0.1-9.4-2.3c-0.5-0.7-0.9-1.3-1.4-2c3.1-3.7,6.3-3.8,10.9-4.3c12.2-0.8,24.3-1.3,36.5-1.7
	c22.9-0.1,22.9-0.1,45.6-3c-9.4-1.2-18.8-2.5-28.2-3.6c-1.9-0.2-3.9-0.5-5.8-0.7c-28.8-3.7-57.7-7-86.6-9.7c-2-0.2-4-0.4-6-0.6
	c-28.3-2.7-56.5-4.7-85-4.6c-1.7,0-1.7,0-3.5,0c-47.1,0.2-93.1,5.5-139.7,11.7c-0.8,0.1-1.6,0.2-2.5,0.3c-1,0.1-1,0.1-2,0.3
	c-16.3,2.1-32.6,3.7-48.9,4.9c-1.1,0.1-2.2,0.2-3.4,0.3c-27.4,2.1-54.9,3.7-82.3,5.2c-2.7,0.1-5.5,0.3-8.2,0.4
	c-43.7,2.4-87.3,4.3-131.1,5.3c-32.2,0.8-64.4,2-96.5,4.9c-1.9,0.2-3.8,0.3-5.7,0.5c-8.4,0.7-16.7,1.5-25.1,2.3
	c-12.9,1.3-25.6,1.9-38.6,2.2c-1.2,0-2.5,0.1-3.7,0.1c-22.4,0.6-44.7-0.5-67-1.8c-43.2-2.5-86.3-3.5-129.6-1
	c-22.2,1.3-44.5,1.8-66.7-1.3c-0.7,0-1.3,0-2,0c0.3,1.5,0.5,2.9,0.8,4.4c0.2,0.8,0.3,1.6,0.5,2.5c0.6,2.5,0.6,2.5,3.7,4.2
	c0.3-1.3,0.7-2.6,1-4c5.9-1.7,10.7-2.2,16.8-1.8c0.8,0,1.6,0.1,2.5,0.1c2.6,0.2,5.1,0.3,7.7,0.5c2.6,0.2,5.1,0.3,7.7,0.5
	c1.6,0.1,3.2,0.2,4.8,0.3c10.2,1,10.2,1,19.5-2.6c3-1,5.8-1.1,9-1.1c1,0,2,0,3,0c1.6,0,1.6,0,3.2,0c1.1,0,2.2,0,3.4,0
	c11.8,0.1,23.6,0.7,35.4,1.4c2.3,0.1,4.6,0.3,7,0.4c6.1,0.4,12.2,0.7,18.3,1.1c2.5,0.2,5.1,0.3,7.6,0.5c60.2,3.7,60.2,3.7,83.2,7.8
	c0.8,0.1,1.5,0.3,2.3,0.4c8.3,1.5,16.6,3,24.9,4.5c8.9,1.7,17.8,3.3,26.8,4.7c1.2,0.2,1.2,0.2,2.4,0.4c3.7,0.6,7.3,1.2,11,1.8
	c8,1.3,15.9,2.8,23.7,4.6c10.3,2.3,20.7,4.1,31.1,5.8c17.6,2.9,35.2,6.1,52.7,9.5c1,0.2,1.9,0.4,2.9,0.6c2.7,0.5,5.5,1.1,8.2,1.6
	c0.8,0.2,1.6,0.3,2.4,0.5c12.1,2.5,12.1,2.5,15.5,7.5c-0.2,5.1-2.2,9.8-5,14c-3.8,3.4-6.4,3.4-11.3,3.2c-4.1-0.3-8.1-1-12.1-1.8
	c-0.9-0.2-1.8-0.3-2.7-0.5c-2.9-0.6-5.8-1.2-8.8-1.7c-2.1-0.4-4.1-0.8-6.2-1.2c-10.1-2-20.2-4-30.3-6c-4.6-0.9-9.1-1.8-13.7-2.7
	c-3.2-0.6-6.5-1.3-9.7-1.9c-13.8-2.8-27.5-5-41.6-5.8c-1.2-0.1-1.2-0.1-2.4-0.1c-7.2-0.4-14.4-0.6-21.6-0.7
	c-3.9-0.1-7.8-0.2-11.7-0.2c-0.8,0-1.6,0-2.5-0.1c-37.6-0.8-74.9-2.4-112.4-5.4c-1.1-0.1-2.1-0.2-3.2-0.2
	c-34.1-2.7-67.9-6.6-101.6-12.3c-0.8-0.1-1.7-0.3-2.5-0.4c-38.9-6.4-38.9-6.4-48.6-18.5c-4-5.7-2.6-14.3-1.6-20.8
	c0.7-3.4,1.5-6.8,2.3-10.1c0.3-1.3,0.6-2.6,0.9-3.9c1.1-4.5,2.2-9.1,3.3-13.6c0.2-0.9,0.4-1.7,0.7-2.6c6.5-26,13.2-51.8,20.3-77.6
	c1.4-5.3,2.9-10.6,4.3-15.9c20.1-75.4,44-153.7,80.8-222.8c0.3-0.6,0.7-1.3,1-2c15.1-28.2,34-44,64.5-53.4c13.4-4,26.9-6.6,40.7-8.5
	c1.3-0.2,2.5-0.3,3.8-0.5c14.6-1.9,29.2-3.6,43.8-5.1c0.7-0.1,1.4-0.1,2.2-0.2c31.9-3.3,63.9-5.5,96-7.2c2-0.1,4.1-0.2,6.1-0.3
	c59.6-3.1,59.6-3.1,87.5-3.7c2.8-0.1,5.5-0.1,8.3-0.2C907.5,658,937.6,657.6,967.8,657.8z M826.7,668.7c-2.4,0.1-4.9,0.2-7.3,0.4
	c-12.8,0.6-25.5,1.3-38.3,2c-2.9,0.2-5.8,0.3-8.7,0.5c-26.1,1.4-52,3.4-78,5.9c-6.8,0.6-13.5,1.2-20.3,1.8c-3.3,0.3-6.6,0.6-9.9,0.9
	c-2.2,0.2-4.4,0.4-6.6,0.6c-18.2,1.6-35.8,3.7-53.4,8.6c-1.6,0.4-1.6,0.4-3.2,0.9c-12.1,2.9-12.1,2.9-22.8,8.7
	c-2.5,4.9-3.7,10-5.1,15.3c-0.5,1.9-1,3.9-1.6,5.8c-0.6,2.1-1.1,4.3-1.7,6.4c-2.2,8.2-4.4,16.5-6.6,24.7c-0.2,0.9-0.5,1.7-0.7,2.6
	c-3.2,12-6.5,23.9-9.8,35.8c-0.4,1.5-0.9,3.1-1.3,4.6c-0.6,2.1-1.2,4.2-1.8,6.3c-0.3,1.2-0.7,2.4-1,3.6c-1,2.9-1,2.9-3,5.9
	c-1,0.3-2,0.7-3,1c1.4,3.1,3.1,5.6,5.3,8.2c0.7,0.9,1.4,1.8,2.2,2.7c0.9,1.1,1.7,2.1,2.6,3.2c1.1,1.3,2.1,2.6,3.2,3.9
	c7,8.5,14.1,17,21.3,25.3c1.5,1.8,3.1,3.6,4.6,5.3c7.1,8.4,14.6,16.4,22.1,24.4c3.2,3.4,6.4,6.8,9.6,10.3c1.3,1.4,1.3,1.4,2.7,2.9
	c1.6,1.8,3.3,3.6,4.9,5.5c6.2,6.9,12.7,13.6,19.3,20.1c0.9,0.9,1.8,1.8,2.7,2.7c4.5,4.5,9.1,8.8,13.9,13c2.2,1.9,4.2,3.9,6.2,6
	c3.4,3.5,6.9,6.7,10.6,9.8c1.9,1.7,3.6,3.4,5.4,5.2c3,3,6.1,5.8,9.3,8.6c4.1,3.6,8.2,7.3,12.2,10.9c0.7-0.7,1.3-1.4,2-2.1
	c1-1,2-2,3-2.9c0.6-0.6,1.1-1.1,1.7-1.7c10.3-9.5,21-13.7,35-13.2c7.1,0.4,14.1,1.5,21,3c4.7,1,4.7,1,9.2-0.1
	c2.7-3.9,2-8.1,1.7-12.6c-1.1-3.9-3.5-5.8-7-7.7c-0.9-0.4-1.7-0.8-2.6-1.2c-9.7-5.1-18.3-12.8-25.1-21.4c-1.2,2-1.2,2-1.2,4.8
	c-1.1,4.2-3.4,5.8-6.8,8.2c-0.9,0.8-1.9,1.5-2.9,2.3c-0.7,0.6-1.4,1.1-2.1,1.7c-0.1,2.3-0.1,2.3,1,5c2,1.7,4.1,3.1,6.3,4.5
	c0.6,0.5,1.1,1,1.7,1.5c0,1.3,0,2.6,0,4c-5.9-0.4-10.4-2.1-15-6c-2.3-3.7-2.5-6.7-2-11c2.6-4.2,6.2-7,10-10
	c-1.4-3.6-3.1-4.9-6.4-6.9c-4-2.6-6.3-4.4-7.6-9.1c-0.6-7,2.1-11.3,6.4-16.6c1.7-2.6,2.4-4.3,2.6-7.4c-1.5-3-1.5-3-4-6
	c-0.5-0.6-1-1.3-1.5-1.9c-3.4-4.4-3.4-4.4-8.5-6.1c0-2,0-4,0-6c3.3-0.1,5.8-0.1,9,1c-0.3-3.4-0.8-4.8-3.1-7.3
	c-3.7-2.1-5.7-2.4-9.9-1.7c-2.7,2.4-3.8,4.4-4.9,7.8c-0.1,7,2.4,10.8,7,15.7c1,1,2,2.1,3.1,3.1c3.3,3.3,4.6,5.7,4.8,10.4
	c-5.9-0.8-8.8-3.9-13-8c-0.6-0.6-1.3-1.3-2-1.9c-8.9-9.4-8.8-20.9-9.7-33.1c-0.1-1.6-0.3-3.3-0.4-4.9c-0.3-4-0.6-8-0.9-12
	c-2.1,2.1-2.5,3.1-3.5,5.9c-0.3,0.8-0.6,1.7-0.9,2.5c-0.5,1.4-0.5,1.4-0.9,2.8c-0.7,2.1-1.4,4.2-2.1,6.2c-0.6,1.8-0.6,1.8-1.2,3.6
	c-2.5,7.2-5,14.3-7.5,21.4c-0.6,1.7-1.2,3.4-1.8,5.1c-13.7,38.9-13.7,38.9-22.1,44.5c-1-2.6-1.1-3.8-0.2-6.5
	c0.7-1.4,0.7-1.4,1.3-2.8c0.5-1.1,1-2.1,1.5-3.2c0.5-1.1,1.1-2.3,1.6-3.5c1.1-2.5,2.2-4.9,3.3-7.4c0.3-0.6,0.6-1.3,0.9-1.9
	c7.4-16.6,13.3-33.9,19.2-51.1c2.3-6.7,4.7-13.4,7.3-20c3.8-10.1,7.1-19.9,9.4-30.5c2.5-11.4,6.7-21.5,13.4-31.2
	c1.4-1.7,1.4-1.7,1.3-3c-18.7,0.4-38.4,21.3-50.8,33.8c-12.2,12.7-21.8,27.3-30.3,42.7c-7,12.5-13.6,24.4-23.9,34.5
	c3.7-9.2,8.7-17.7,14-26c0.3-0.7,0.7-1.3,1-2c-0.3-0.7-0.7-1.3-1-2c-0.6,0.5-1.1,1-1.7,1.6c-2.7,2.5-5.5,5-8.3,7.4
	c-0.6,0.5-1.1,1-1.7,1.5c-1.7,1.5-3.5,3-5.2,4.6c-0.5,0.5-1.1,1-1.7,1.5c-3.2,2.7-4.1,3.5-8.5,3.5c-0.5-2.5-0.5-2.5-1-5
	c0.6-0.3,1.2-0.5,1.8-0.8c2.3-1.2,3.8-2.5,5.7-4.3c0.6-0.6,1.3-1.2,1.9-1.8c0.7-0.6,1.3-1.3,2-1.9c7.4-7,7.4-7,10.9-9.9
	c2.3-1.9,4.1-3.7,6-6c2.5-3,5.1-5.9,7.8-8.8c4-4.4,7.5-9,11-13.7c15.7-21,35-39.1,58.5-51.2c0.8-0.4,1.6-0.9,2.5-1.3
	c0.7-0.4,1.5-0.7,2.2-1.1c1.9-1.2,1.9-1.2,2.6-3.2c0.2-3-1.3-4.8-2.9-7.3c-3.5-6.3-3.1-15.7-1.3-22.4c7.3-17.5,23.6-27.7,40.4-34.6
	c14.9-5.6,32.1-5.6,46.9,0.3c9.8,5.1,17.3,11.4,21,22c0.5,2.4,1,4.7,1.5,7.1c0.4,2.1,0.4,2.1,2.5,3.9c1.9,0.6,1.9,0.6,4.1,0.9
	c0.8,0.1,1.6,0.3,2.5,0.4c0.9,0.2,1.8,0.3,2.7,0.5c22.6,4.3,46.5,15.4,60,34.9c9,14.1,13.8,29.4,17.8,45.5c0.3,1.4,0.3,1.4,0.7,2.9
	c0.2,0.8,0.4,1.7,0.6,2.5c1,3.5,1.8,5.7,4.9,7.8c0.9,0.5,1.7,0.9,2.6,1.4c5.7,3.3,9.1,6.6,11.1,13.1c1.5,6.1,0.7,10.4-2,16
	c-1.7,2.7-3.6,5.3-5.5,7.9c-2.6,3.5-3.1,5.6-2.5,10.1c0.9,1.5,2,3,3,4.4c2.2,3.1,3,4.5,3.6,8.3c-1.5,8-7.4,11.8-13.6,16.3
	c0.4,2.7,0.8,3.8,2.8,5.7c0.7,0.5,1.4,1,2.2,1.5c0.7,0.5,1.4,1,2.2,1.6c1.8,1.3,1.8,1.3,3.9,1.2c2.1,4.2,2.8,8.3,2,13
	c-2,4.7-4.9,7.3-9.5,9.4c-3.3,1.3-6,2-9.5,1.6c0.2-1.8,0.2-1.8,1-4c2.5-2,5.1-3.5,7.8-5.2c2.3-1.6,2.3-1.6,3.2-3.8
	c0.1-2.7-0.4-3.8-1.9-6c-2.7-1.9-5.5-3.5-8.4-5.1c-2.9-2.1-4.2-3.7-5.6-6.9c0.7-4.7,2.6-6.9,6.3-9.8c1.1-0.8,2.2-1.6,3.4-2.4
	c2.9-2.2,4.2-3.5,5.3-7c0-0.9,0-1.9,0-2.8c-0.7-0.7-1.3-1.3-2-2c-0.7,0.8-1.4,1.5-2.1,2.3c-2.9,2.7-2.9,2.7-6.4,3.8
	c-2.4,1-3.3,1.6-4.6,3.8c-0.9,2.5-1.6,4.9-2.3,7.4c-6.2,19.5-17.3,35.8-35.6,45.8c-8.1,3.8-8.1,3.8-14,9.9c0,2.3,0,4.7,0,7
	c2.8,0.8,4.4,1.2,7.2,0.2c1.1-0.6,1.1-0.6,2.3-1.3c13.3-7.1,26.8-11.3,41.6-6.9c4.6,1.9,8.8,4.2,13,7c6.3,0.3,12.1-1.9,17.8-4.3
	c0.8-0.3,1.6-0.7,2.4-1c2.5-1,5-2.1,7.6-3.2c2.5-1.1,5.1-2.1,7.6-3.2c1.6-0.7,3.1-1.3,4.7-2c6-2.5,10.3-3.6,16.9-3.4
	c1.5,1.5,1.2,2.9,1.2,5c-0.1,4.8-0.9,9.1-2.2,13.7c-0.3,1.2-0.3,1.2-0.6,2.4c-2.1,7.5-4.8,14.7-7.8,21.9c-0.3,0.8-0.7,1.7-1,2.5
	c-0.3,0.7-0.6,1.5-0.9,2.2c-0.8,2.5-0.9,4.6-0.7,7.2c1.4,1.5,1.4,1.5,3.4,2.4c0.7,0.4,1.4,0.8,2.2,1.2c0.8,0.4,1.6,0.9,2.4,1.3
	c1.6,1,3.3,2,4.9,3.1c0.7,0.5,1.5,0.9,2.2,1.4c2.1,1.7,2.9,3,3.9,5.5c0.4,5.6-0.4,9.6-2,15c-0.3,2-0.5,4-0.8,6.1
	c-1,6.7-3.3,17-8.3,21.9c0.1,2.7,0.2,5.5,0.4,8.2c0,0.8,0.1,1.5,0.1,2.3c0.3,4.2,0.8,8.3,1.5,12.5c9.3,0.1,18.6-0.2,27.9-0.8
	c2.2-0.1,4.5-0.3,6.7-0.4c1.4-0.1,2.9-0.2,4.3-0.3c1.3-0.1,2.6-0.2,3.9-0.2c3.2-0.2,3.2-0.2,6.2-1.3c0.9-2.6,1.2-4.3,1.3-7
	c1-14.4,3.9-28,7.3-42c0.8-3.4,1.6-6.9,2.4-10.3c0.5-2.3,1.1-4.6,1.6-6.9c2.2-9.3,4.3-18.6,6.2-27.9c0.5-2.3,1-4.5,1.5-6.8
	c1.4-6.3,2.7-12.6,4-18.8c2.8-13.5,5.9-26.7,17.6-35.3c15.9-10.2,35.5-14.5,53.4-19.9c21.5-6.3,21.5-6.3,41.6-16.1
	c1.7-1,1.7-1,3.4-2c0.9-0.6,1.7-1.3,2.6-2c0-1,0-2,0-3c-1.9-1.6-3.8-3.1-5.9-4.6c-14.5-10.8-26.9-24.7-32-42.5
	c-1.4-5.4-1.4-5.4-5.1-9.1c-1.6-0.4-3.1-0.9-4.7-1.2c-4.1-1.1-6.7-3.4-9.3-6.6c-5.6-9.9-8-20.6-5.3-31.9c2-5.5,4-8.3,9.3-11.1
	c1.4-0.6,1.4-0.6,2.9-1.1c2.3-1.6,2.3-1.6,2.5-3.7c0.1-4.7-0.5-9.4-1.1-14.1c-2.9-22.9-0.4-44.2,6.7-66.1c0.6-2,1.2-3.9,1.8-5.9
	c0.2-0.7,0.5-1.5,0.7-2.2c0.6-2,0.6-2,0.5-4.9c-20.3-1.1-40.6-1.4-60.9-1.6c-4.9-0.1-9.9-0.1-14.8-0.2c-3.8-0.1-7.7-0.1-11.5-0.2
	c-1.8,0-3.6-0.1-5.5-0.1c-2.5,0-5.1-0.1-7.6-0.1c-0.7,0-1.5,0-2.3,0c-3.7,0-5.3,0.1-8.5,2.2c-0.4,4.1-0.3,5.5,2,9
	c2.5,0.3,4.7,0.5,7.2,0.5c0.7,0,1.4,0,2.2,0c2.3,0,4.6,0.1,7,0.1c3,0,6,0.1,9.1,0.2c0.7,0,1.5,0,2.2,0c22.1,0.5,22.1,0.5,28.4,5.2
	c4.3,5.1,5.1,10.2,6.2,16.6c0.2,0.9,0.3,1.9,0.5,2.8c0.3,1.7,0.6,3.5,0.9,5.2s0.6,3.3,0.9,5c0.9,4.6,1.2,8.1-1.1,12.2
	c-4.6,4.1-10.2,4.4-16.2,4.5c-0.7,0-1.3,0-2,0c-2.3,0-4.6,0-6.9,0c-0.8,0-1.6,0-2.5,0c-19-0.1-38-0.6-57-1.1
	c-2.4-0.1-4.8-0.1-7.2-0.2c-16.9-0.4-33.8-1-50.7-1.8c-1.6-0.1-3.3-0.2-4.9-0.2c-2.3-0.1-4.6-0.2-6.8-0.3c-1.3-0.1-2.6-0.1-3.9-0.2
	c-3.1-0.4-3.1-0.4-6.1-2.4c-3.3-9.9-1.5-27.3,2.8-36.8c4.7-6.6,10-8,17.6-9.6c10-1.6,20.4-0.9,30.5-0.8c2.3,0,4.7,0,7,0
	c5.7,0,11.4,0.1,17.1,0.1c0.3-1.9,0.3-1.9,0.6-3.9c0.1-0.7,0.2-1.4,0.4-2.2c0-0.6,0-1.3,0-1.9c-2.5-2.5-4-2.2-7.4-2.3
	c-0.8,0-1.5,0-2.3,0c-1.2,0-1.2,0-2.4,0c-2.7,0-5.4,0-8.1,0c-1.9,0-3.8,0-5.7,0c-5.1,0-10.2,0-15.3,0c-3.2,0-6.4,0-9.6,0
	C892.5,666.6,859.6,667,826.7,668.7z M983.4,668.8c-1.1,5.6-1.2,11.2-1.1,16.9c0,0.9,0,1.7,0,2.6c0,0.8,0,1.6,0,2.5
	c0,0.7,0,1.5,0,2.3c-0.1,1.8-0.1,1.8,1.1,2.7c1.9,0.2,1.9,0.2,4,0.1c0.7,0,1.4,0,2.2,0c1.8,0.1,1.8,0.1,2.8-1.1
	c0.1-1.9,0.1-3.9,0.1-5.8c0-1.2,0-2.3,0-3.5s0-2.5,0-3.7c0-1.2,0-2.5,0-3.7c0-3.1,0-6.1,0-9.2C989.8,667.5,985.6,666.6,983.4,668.8z
	 M1131.4,669.8c0.8,4.2,1.3,6.4,4.8,9.1c1.6,0.9,1.6,0.9,3.3,1.9c2.1,1.6,4,3.3,6,5c-1.4-3.9-3.2-7.3-5.3-10.8
	c-0.9-1.5-0.9-1.5-1.7-3c-1.8-2.5-1.8-2.5-4.7-2.6C1132.9,669.6,1132.2,669.7,1131.4,669.8z M1152.4,669.8c4.4,5.6,9.2,9.8,15,14
	c0.7-0.3,1.3-0.7,2-1c-1.1-2-2.2-4-3.3-5.9c-0.6-1.1-1.2-2.2-1.8-3.3c-1.6-2.8-1.6-2.8-4-3.6
	C1157.7,669.8,1155.1,669.7,1152.4,669.8z M1178.4,670.8c4.4,5.5,9.1,10.1,15,14c0.7,0,1.3,0,2,0c-1.2-2.5-2.5-4.7-4.1-7
	c-1.9-3-1.9-3-2.9-7C1185.1,670.8,1181.8,670.8,1178.4,670.8z M1201.4,671.8c4.1,4.8,7.1,8.2,12,11.9c1,0.8,2,1.5,3,2.3
	c3.1,1.9,5.4,2.5,9,2.8c-0.4-0.8-0.7-1.5-1.1-2.3c-0.5-1-0.9-2-1.4-3s-0.9-2-1.4-3c-1.1-2.6-1.1-2.6-1.1-4.6c3.4,0.5,5.1,1.1,8,3
	c-1.4-3.5-1.4-3.5-3-7C1217.5,671.8,1209.6,671.8,1201.4,671.8z M1236.4,671.8c1.4,5,3.3,9.3,7,13c1.8,1,1.8,1,3.7,1.6
	c3.3,1.4,3.3,1.4,4.8,4.1c0.2,0.8,0.4,1.5,0.6,2.3c2.7-2.7,2.7-5.1,3.2-8.8c1-2.8,2.3-3.7,4.8-5.2c-1.4-1-2.9-2-4.3-3
	c-0.8-0.6-1.6-1.1-2.4-1.7c-2.3-1.6-2.3-1.6-5.3-1.3c0,2,0,4,0,6c-2.8-1.2-4.9-2.7-7.1-4.6C1238.8,671.6,1238.8,671.6,1236.4,671.8z
	 M1274.4,674.8c0.5,0.4,1,0.7,1.5,1.1c10,7.2,16.5,14.1,19,26.7c0.9,6.2,0.6,12.4,0.6,18.6c0,0.7,0,1.4,0,2.2
	c0,9.2-0.2,18.2-1.8,27.3c-0.5,3.8-0.7,7.3-0.4,11.2c2.5,2.4,2.5,2.4,4.5,3.7c4.1,3.4,5,9.3,5.5,14.3c0.8,10.3-1.4,20.9-8,29
	c-4.8,4.5-8.2,5.1-14.7,5.1c-1.2,0-2.4,0-3.6,0c-0.9,0-1.8,0-2.7,0c-0.5,1-1,2.1-1.5,3.1c-7.9,16-16.4,30.5-29.5,42.8
	c-2.2,2-2.2,2-3,5.1c4.3,2.6,8.6,5,13.1,7.4c1.8,1,3.7,2,5.5,3.1c5.4,3.1,10.8,5.5,16.7,7.6c0.6,0.2,1.3,0.5,1.9,0.7
	c13.9,4.8,28.4,7.7,42.8,10.8c2.4,0.5,4.7,1,7.1,1.5c0.7,0.1,1.4,0.3,2.1,0.4c4.3,0.9,7.9,2.3,11.8,4.5c-2.3,4.1-5.1,7.5-8.3,10.9
	c-0.5,0.6-1,1.1-1.6,1.7c-1.7,1.8-3.4,3.6-5.1,5.4c-2.4,2.6-4.9,5.2-7.3,7.8c-0.6,0.6-1.2,1.3-1.8,1.9c-4.7,5-9.3,10.1-13.7,15.5
	c-0.6,0.7-1.2,1.5-1.8,2.2c-0.5,0.7-1.1,1.3-1.6,2c-2.4,2.1-3.5,2.6-6.8,2.6c-2.8-1.3-5.2-3-7.6-4.8c-0.7-0.5-1.3-0.9-2-1.4
	c-1.2-0.9-2.5-1.7-3.7-2.6c-1.5-1.1-3.1-2.1-4.6-3.2c0-1,0-2,0-3c1-0.6,2-1.1,3-1.7c1.3-0.7,2.6-1.5,3.9-2.2c1-0.5,1-0.5,2-1.1
	c2.7-1.5,5-2.8,7.2-5c-0.1-4.9-3-7.9-5.9-11.4c-4.1-5-8-10.1-11.8-15.4c-0.4-0.6-0.9-1.2-1.3-1.9c-1-1.4-2-2.8-3-4.3
	c-0.3,0.7-0.7,1.3-1,2c1.2,2.4,2.5,4.6,3.9,6.9c0.4,0.7,0.8,1.3,1.2,2c3.3,5.3,6.8,10.5,10.4,15.6c1.4,2.5,1.4,2.5,1.4,6.5
	c-0.7,0.3-1.4,0.5-2.1,0.8c-3.4,1.4-6.5,3.1-9.7,4.9c-0.6,0.3-1.2,0.6-1.8,1c-1.5,0.8-2.9,1.6-4.4,2.4c0,1.3,0,2.6,0,4
	c1.5,1.4,1.5,1.4,3.5,2.4c0.7,0.4,1.5,0.8,2.2,1.2c0.8,0.4,1.6,0.8,2.4,1.3c15,8.1,15,8.1,16.9,14c0,0.7,0,1.4,0.1,2.1
	c8.1-6.7,15.3-14,22.2-21.9c2.9-3.3,6-6.5,9.1-9.8c5.1-5.4,10.1-10.9,14.8-16.7c4-4.7,8.1-9.3,12.3-13.8c2.4-2.6,4.8-5.2,7.1-7.8
	c2.8-3.1,5.6-6.2,8.4-9.3c6-6.5,11.8-13.2,17.6-20c1.4-1.7,2.9-3.4,4.3-5.1c6.3-7.4,12.3-14.9,18.1-22.7c0.9-1.1,0.9-1.1,1.7-2.3
	c7.9-10.5,15.7-21,23.3-31.7c0.5-0.5,1-1.1,1.5-1.6c2.8-3.3,2.8-3.3,3.5-7.4c-0.5-2.4-1.2-4.7-2-7c-0.5-2-1-4-1.5-5.9
	c-0.6-2.3-1.2-4.6-1.9-6.9c-0.3-1.3-0.7-2.5-1-3.8c-3.2-11.9-6.5-23.7-9.8-35.6c-0.3-0.9-0.5-1.8-0.8-2.7
	c-1.4-5.2-2.9-10.3-4.4-15.5c-0.7-2.4-1.4-4.9-2-7.3c-0.4-1.5-0.9-3-1.3-4.6c-0.2-0.7-0.4-1.4-0.6-2.1c-1.4-5-3.4-9.9-7.8-12.8
	c-30.2-10.5-65.5-10.3-97.1-11.9c-0.8,0-1.6-0.1-2.4-0.1c-7-0.4-13.9-0.7-20.9-0.8c-1.2,0-1.2,0-2.5,0
	C1278.1,672.8,1276.5,673.6,1274.4,674.8z M1260.4,679.8c0.3,0.7,0.7,1.3,1,2c0.2,1.9,0.4,3.7,0.6,5.6c0.1,1,0.2,2,0.3,3
	c0.1,0.8,0.1,1.5,0.2,2.3c1.3-0.7,2.6-1.3,4-2c3.1,6.3,0.4,15-1,21.5c-0.7,3.3-1.1,5.2,0,8.5c3.8-6.5,4.4-12.8,4.4-20.2
	c0-0.9,0-1.7,0-2.6c-0.1-6.6-1.2-11.5-5.5-16.7C1262.6,679.6,1262.6,679.6,1260.4,679.8z M1130.4,682.8c-0.3,1-0.7,2-1,3
	c0.7,0.7,1.3,1.3,2,2c0.3-1,0.7-2,1-3C1131.7,684.1,1131.1,683.5,1130.4,682.8z M910.4,689.8c-1.3,3.3-1.3,3.3-1.8,7
	c-0.2,1-0.2,1-0.4,2c-1,6-1.1,11.9-0.8,18c3.2,1.9,5.6,2.3,9.3,2.3c1.1,0,2.1,0,3.2,0.1c1.2,0,2.3,0,3.5,0c1.9,0,1.9,0,3.7,0.1
	c3.4,0.1,6.8,0.1,10.2,0.1c3.6,0,7.1,0.1,10.7,0.2c6,0.1,12,0.2,18,0.2c8.4,0.1,16.8,0.2,25.2,0.3c16.4,0.2,32.8,0.5,49.2,0.6
	c1.3,0,1.3,0,2.7,0c2.2,0,4.4,0,6.5,0.1c1.1,0,2.2,0,3.3,0c2.4,0.1,2.4,0.1,4.4-1.1c1.7-4.6,0.5-9.2-0.3-13.9
	c-0.2-1.3-0.2-1.3-0.4-2.7c-0.9-6.3-2-10.5-7.2-14.6c-5.8-3.2-11.8-2.9-18.3-2.9c-0.9,0-1.7,0-2.6,0c-1.8,0-3.6,0-5.4,0
	c-2.8,0-5.5,0-8.3,0c-1.7,0-3.5,0-5.2,0c-0.8,0-1.7,0-2.5,0c-3.8-0.3-3.8-0.3-6.9,1.1c-0.3,3-0.4,6-0.6,9c-0.4,2.8-0.8,4.6-2.4,7
	c-6,3-15.5,1.2-22,0c-1.3-4.2-0.9-8-0.6-12.3c-0.2-2.7-0.2-2.7-1.7-4.8c-4-2.9-7.9-2.4-12.7-2.3c-1.5,0-1.5,0-3,0
	c-2.1,0-4.2,0-6.3,0c-3.2,0-6.4,0-9.6,0c-2,0-4.1,0-6.1,0c-1.4,0-1.4,0-2.9,0C920.2,683.6,920.2,683.6,910.4,689.8z M1120.4,683.8
	c1,3,1,3,1,3L1120.4,683.8z M1121.4,687.8c1,2,1,2,1,2L1121.4,687.8z M1122.4,689.8c1,2,1,2,1,2L1122.4,689.8z M1277.4,689.8
	c-0.2,3.4-0.2,3.4,0,7c0.7,0.7,1.3,1.3,2,2c1,0,2,0,3,0c0.3,0.7,0.7,1.3,1,2c-0.5-3.7-0.9-5.8-3-9c-0.7,0-1.3,0-2,0
	C1278.1,691.1,1277.7,690.5,1277.4,689.8z M767.4,693.8c2.9,2,2.9,2,5.9,3.4c9.2,4.5,16.7,9.6,20.1,19.6c0.7,2.7,1.4,5.3,2,8
	c2.8-0.5,2.8-0.5,5-2c0.5-6-0.1-10.2-4-15C788.4,699.1,779.2,694.4,767.4,693.8z M1113.4,697.8c0.4,4.8,1.3,6.9,5,10
	C1118,703,1117.1,700.9,1113.4,697.8z M743.4,701.1c-2.6,3.5-2.8,5.1-2.5,9.3c1.5,7.7,5.6,13.2,11.4,18.2c2.4,1.5,4.3,2,7.1,2.3
	c1.3-1,1.3-1,1.1-3.3c0-0.9,0-1.8,0-2.8c0-0.9,0-1.8,0-2.8c0-0.7,0-1.4,0-2.2c2.6,2.6,4.9,4.9,7,8c3.1,0.4,5.1,0.5,7.9-1.1
	c1.8-3.1,1.5-5.4,1.1-8.9c-1.7-4.5-4.1-8.2-7-12c-0.3-1-0.7-2-1-3c5.7,2.4,9.5,5.5,11.9,11.3c1.2,3.5,2.2,7.1,3.1,10.8
	c1.3-0.3,2.6-0.7,4-1c0.6-5.1,0.6-8.9-2.5-13.3c-5.9-7-13.6-10.5-22.5-11.8c-2.7-0.2-5.4-0.3-8.1-0.4c-0.7,0-1.4-0.1-2.1-0.1
	C748.3,698.2,746.6,698.7,743.4,701.1z M1203.5,702.5c-1,0.4-2.1,0.9-3.1,1.3c-0.9,0.4-1.7,0.7-2.6,1.1c-10.4,2.8-20.1,1.6-30.6,0
	c-13.4-2.9-13.4-2.9-26.1-0.1c-1.1,0.9-2.1,1.7-3.2,2.6c-0.6,0.5-1.1,0.9-1.7,1.4c-1.1,0.9-2.2,1.8-3.3,2.8c-1.2,1-2.5,2-3.9,3
	c-8.2,6.2-13,17.3-14.6,27.3c-2.9,24.5-4.1,55.6,5,79c1,0.7,2,1.3,3,2c0.3,1.2,0.6,2.3,0.9,3.5c0.4,1.2,0.7,2.3,1.1,3.5
	c0.6,0.3,1.3,0.6,1.9,0.9c3.1,1.6,3.5,4.2,4.5,7.4c0.2,0.6,0.3,1.1,0.5,1.7c1.7-0.3,3.3-0.7,5-1c1,2.6,2,5.3,3,8
	c0.7-0.3,1.3-0.7,2-1c0.4-2.3,0.4-2.3,0.4-5c0.5-7.1,1.9-13.4,6.6-19c0-0.7,0-1.3,0-2c1.3-0.7,2.7-1.3,4-2c0.9-0.5,1.8-1.1,2.7-1.6
	c5-2.1,9.9-2.2,15-0.4c0.8,0.4,1.5,0.7,2.3,1.1c3.1,0.8,3.1,0.8,6,1c0.7-0.7,1.3-1.3,2-2c2.6-0.3,2.6-0.3,5.8-0.5
	c4.2-0.2,7.3-0.9,11.2-2.5c8.4-0.8,14.7,1.9,21.3,7.1c6.8,6.4,9.4,15.1,11.8,23.9c1.7,0,3.3,0,5,0c0.3-0.6,0.5-1.3,0.8-1.9
	c1.2-2.1,1.2-2.1,4.2-3.1c0.3,0.7,0.7,1.3,1,2c0.7-3.3,1.3-6.6,2-10c1.7,0,3.3,0,5,0c0.3,0.7,0.7,1.3,1,2c1-4.3,2-8.6,3-13
	c1.3,0.3,2.6,0.7,4,1c1.8-1.8,1.7-4.6,2.1-7.1c0.2-1.1,0.4-2.2,0.5-3.3c0.1-0.9,0.3-1.7,0.4-2.6c0.6-0.1,1.3-0.2,1.9-0.4
	c0.7-0.2,1.4-0.4,2.1-0.6c1.8-3.5,1.4-7.6,1.6-11.5c0.4-3.5,0.4-3.5,1.4-6.7c1.6-6,1.1-12,0.9-18.2c-0.1-2.3-0.1-4.6-0.1-6.8
	c-0.3-12.6-2.6-21.9-10.8-31.6c-6.9-8.7-10.2-16.9-10.8-28.1c-0.1-2-0.1-2-1.2-4c-1.2,0-2.3,0-3.5,0c-1.5,0-3.1,0-4.6,0
	c-1.2,0-1.2,0-2.3,0c-4,0-7.6-0.2-11.5-1.1C1215.4,697.8,1210,699.8,1203.5,702.5z M1283.4,700.8c1,2,1,2,1,2L1283.4,700.8z
	 M568.4,701.8c-1.2,0.7-2.5,1.4-3.7,2.1c-0.7,0.4-1.4,0.8-2.1,1.2c-6.8,5.1-8.7,10.9-11.1,18.8c-0.5,1.6-0.5,1.6-1,3.3
	c-2.9,9.5-5.6,19-8.3,28.6c-2.3,8-4.7,15.9-7.4,23.7c-1.9,5.7-3.7,11.4-5.4,17.2c-0.2,0.8-0.5,1.5-0.7,2.3c-0.2,0.7-0.4,1.3-0.6,2
	c-0.7,1.8-0.7,1.8-2.7,4.8c-0.7,0-1.3,0-2,0c-1-5.1-0.9-8.6,0.7-13.5c0.2-0.6,0.4-1.2,0.6-1.9c0.6-2,1.3-4.1,1.9-6.1
	c0.4-1.4,0.9-2.9,1.3-4.3c1.2-3.9,2.4-7.8,3.7-11.7c2.2-7.1,4.5-14.2,6.7-21.3c0.8-2.6,1.6-5.2,2.5-7.8c0.5-1.6,1-3.2,1.5-4.8
	c0.2-0.7,0.5-1.5,0.7-2.2c1.3-4.2,1.3-4.2,0.5-8.4c-23.5,35.3-37.8,76.3-52,116c-0.5,1.3-1,2.7-1.5,4c-1.2,3.4-2.5,6.9-3.7,10.3
	c-0.7,1.9-1.4,3.8-2,5.7c-2.6,7.5-5.1,15-7.4,22.5c-1.5,4.9-3.1,9.7-4.6,14.5c-6.3,19.7-12.5,39.3-17.8,59.3
	c-0.9,3.3-1.8,6.5-2.6,9.7c-0.8,2.8-1.5,5.6-2.3,8.4c-0.4,1.3-0.7,2.7-1.1,4c-0.5,1.8-1,3.7-1.5,5.5c-0.3,1.1-0.6,2.1-0.9,3.2
	c-0.7,2.7-0.7,2.7,0.5,5.6c1.2-1.3,2.4-2.6,3.7-4c1.1-1.2,2.1-2.3,3.2-3.5c2.8-3,5.6-6,8.3-9.1c1-1.1,2.1-2.3,3.1-3.4
	c0.5-0.6,1-1.1,1.5-1.7c2.6-2.8,5.2-5.3,8.2-7.6c7.2-5.9,8.6-18,10.8-26.6c0.6-2.4,1.3-4.8,1.9-7.1c0.9-3.5,1.9-7,2.8-10.4
	c6.2-23.3,12.4-46.7,19-69.9c0.6-1.9,1.1-3.9,1.6-5.8c0.3-1.1,0.7-2.3,1-3.5c0.4-1.5,0.4-1.5,0.8-3c1-2.5,1.8-3.8,4-5.4
	c0.7,0,1.3,0,2,0c-1.4,9.1-3.5,17.9-6.1,26.8c-0.6,2.1-1.3,4.3-1.9,6.4c-0.3,1.1-0.7,2.2-1,3.4c-2.8,9.5-5.4,19-8.1,28.6
	c-1,3.7-2.1,7.4-3.1,11.1c-1.6,5.9-3.3,11.7-4.9,17.6c-0.6,2.1-1.1,4.1-1.7,6.2c-0.7,2.7-1.5,5.4-2.2,8c-0.2,0.8-0.4,1.5-0.7,2.3
	c-1.2,4.3-1.2,4.3-0.3,8.6c1.3-1,1.3-1,2.5-2c6.2-5,11.9-9.1,19.5-12c-0.7-3.2-0.7-3.2-3.8-4.8c-4-2.7-7.6-5.3-8.7-10.2
	c-0.2-3.3,0-5.4,2.1-8c2.9-2.3,5.5-3.4,9-4.7c1.4-0.5,2.7-1,4.1-1.6c1.1-0.4,1.1-0.4,2.1-0.8c15.6-6.1,30.5-13.7,44.4-22.9
	c1.7-0.9,1.7-0.9,4.7-0.9c0.3,1.3,0.7,2.6,1,4c-15.1,11.2-30.9,19-48.3,25.9c-3.9,1.6-7.8,3.3-11.7,5.1c0.1,3.8,1.1,5.1,3.6,8
	c6.9,5.5,16.3,7.3,24.7,9.2c0.9,0.2,1.8,0.4,2.8,0.6c1.8,0.4,3.6,0.8,5.4,1.1c6.1,1.3,11,3.5,15.4,8.1c2.4,4.3,3.5,8.2,2.6,13.1
	c-1.3,4-3.6,7-6.2,10.3c-1.4,1.6-1.4,1.6-2.3,3.7c20.8-5.5,33.6-22.5,43.9-40.2c1-1.7,2-3.4,2.9-5.2c0.6-0.8,0.6-0.8,1.3-1.7
	c1,0,2,0,3,0c-1.6,14.3-14.7,30-25.2,38.9c-9,6.8-18.2,11-28.9,14.1c-4.7,1.3-4.7,1.3-7.9,5c4,4.8,7.8,6.9,14,8
	c15.7,1.2,15.7,1.2,29.9-4.3c0.7-0.9,1.4-1.8,2.1-2.8c0.9-1.1,1.9-2.2,2.8-3.3c0.7-0.9,1.4-1.8,2.2-2.7c-0.6,6.1-3.3,10.1-6.6,15.2
	c-1.6,2.6-1.6,2.6-1.2,5.1c1,2.1,2,3.3,3.8,4.7c5.2,1.7,10.2,1.7,15.4-0.3c2.7-1.8,4.1-2.8,5.6-5.8c-0.7-2.6-1.4-4.7-2.6-7.1
	c-0.3-0.7-0.6-1.3-0.9-2c-0.8-2-1.7-3.9-2.6-5.9c-0.8-1.8-1.6-3.7-2.4-5.6c-0.3-0.7-0.7-1.4-1-2.2c-0.7-3-0.2-5.3,0.4-8.2
	c11.4-0.6,22.2,0.7,33.4,2.6c6.3,1,12.2,1.6,18.6,1.4c-2.7-3.4-5.3-6.4-8.6-9.2c-4.7-4.1-9.1-8.4-13.4-12.8
	c-0.8-0.8-1.7-1.7-2.5-2.5c-1.8-1.8-3.5-3.5-5.3-5.3c-2.7-2.7-5.4-5.4-8-8c-1.7-1.7-3.4-3.4-5.2-5.2c-0.8-0.8-1.6-1.6-2.4-2.4
	c-4.2-4.2-8.2-8.5-12.1-13c-1.9-2.2-3.9-4.2-6-6.2c-3.3-3.3-6.5-6.7-9.6-10.3c-1.9-2.2-3.9-4.4-5.9-6.5c-4-4.3-7.8-8.6-11.5-13.2
	c-3.4-4.2-6.9-8.1-10.6-12.1c-4.5-4.8-8.7-9.7-12.8-14.8c-2.3-2.8-4.7-5.5-7.2-8.2c-3.4-3.7-6.7-7.5-10-11.3
	c-0.7-0.9-1.4-1.7-2.2-2.6c-2.6-3.7-3.8-7.1-3.8-11.6c4.3-0.4,7.1-0.2,10.8,2.1c1.1,0.6,2.1,1.3,3.2,1.9c0.7-0.3,1.3-0.7,2-1
	c-0.2-0.5-0.3-1-0.5-1.5c-0.7-3.6-0.6-6.9-0.5-10.5c1-1,1-1,3.2-1.4c4.1,0.5,5.8,2.6,8.8,5.4c-0.1-1.1-0.1-2.2-0.2-3.3
	c0-5.6,1.6-10.6,3.2-16c0.3-1.1,0.6-2.2,1-3.3c1-3.5,2-7,3.1-10.5c0.7-2.3,1.3-4.6,2-6.9c2-7,4.1-14,6.1-21c2.3-8,4.7-16,7-24
	c0.6-2,1.1-4,1.7-5.9c0.7-2.6,1.5-5.1,2.2-7.7c0.2-0.7,0.4-1.5,0.7-2.2C569.3,705.3,569.3,705.3,568.4,701.8z M731,706
	c-4.1,4.2-5.4,6.8-5.9,12.7c0.2,4.4,1.5,7.8,4.4,11.1c4.4,3.7,9,7,15,7c2.3-0.8,2.3-0.8,4-2c-0.6-3.5-1.8-5.2-4.3-7.7
	c-6.6-7.4-8.3-14.5-8.7-24.3C733.5,702.8,732.2,704.7,731,706z M1417.4,690.8c-1.4,3.8-0.6,6.4,0.5,10.2c0.4,1.3,0.7,2.5,1.1,3.8
	c0.4,1.4,0.8,2.8,1.2,4.1c0.4,1.4,0.8,2.9,1.2,4.3c1.1,3.8,2.2,7.6,3.3,11.4c1.7,6,3.4,11.9,5.2,17.9c0.6,2.2,1.3,4.4,1.9,6.6
	c2,6.8,3.9,13.6,5.7,20.5c0.3,1.2,0.6,2.4,0.9,3.6c0.6,2.2,1.1,4.4,1.7,6.7c1.4,5.3,2.6,8.8,6.3,12.9c0.4,2.9,0.4,2.9,0.3,5.8
	c0,1-0.1,2-0.1,3c0,0.7-0.1,1.5-0.1,2.2c1.5-0.5,1.5-0.5,3.1-1c3.7-1.1,7.1-1.3,10.9-1c2,2,2,2,2.3,4.8c-0.4,3.7-1.3,5.2-3.6,8.2
	c-0.7,1-1.5,1.9-2.2,2.9c-3.2,3.9-6.4,7.7-9.7,11.6c-3.9,4.5-7.7,9.1-11.5,13.7c-0.5,0.7-1.1,1.4-1.7,2.1c-1.1,1.3-2.1,2.6-3.2,3.9
	c-9.2,11.4-18.6,22.7-28.4,33.5c-2.4,2.7-4.8,5.5-7.2,8.2c-2,2.3-4.1,4.6-6.2,6.9c-3.1,3.5-6.1,7-9.1,10.7c-3.8,4.7-7.8,8.8-12.1,13
	c-2.5,2.5-4.6,5.1-6.8,7.9c-3.8,4.8-7.9,9.1-12.3,13.3c-3.4,3.3-6.6,6.8-9.7,10.4c-2.4,2.7-5,5.3-7.7,7.8c-2.6,2.7-5,5.5-7.4,8.4
	c-1.5,1.7-1.5,1.7-4.5,3.7c-2.5,0-2.5,0-5.5-0.3c-1.8-0.2-1.8-0.2-3.6-0.3c-2.6-0.3-5.2-0.6-7.8-0.9c-16-1.9-32-2.2-48.1-2.5
	c-2.4-4.7-2.4-9.2-2.5-14.3c-0.1-1.9-0.1-3.8-0.2-5.7c0-1.5,0-1.5-0.1-3c-0.5-14.4-1.1-28.8-2.6-43.2c-0.2-1.6-0.2-1.6-0.3-3.3
	c-0.7-6.3-1.6-12.8-4.2-18.6c-1.5-1-1.5-1-3-2c-0.2,0.7-0.3,1.4-0.5,2.2c-3.5,14.1-12.2,20.4-23.7,28.3c-2.9,2-4.8,3.5-6.7,6.5
	c6.2-1.5,12.3-3,18.3-5.2c4.5-1.5,8-2.6,12.7-1.8c2.2,1.6,2.2,1.6,4,4c0.4,2.6,0.5,4.9,0.5,7.5c0,0.7,0,1.4,0,2.2c0,1.5,0,3,0,4.6
	c0,2.3,0,4.6,0,7c0,1.5,0,3,0,4.4c0,0.7,0,1.4,0,2.1c-0.1,2.9-0.1,4.8-1.8,7.2c-1.7,1-1.7,1-4.8,1c-7.3-1.8-13.5-5.2-19.8-9.1
	c-2.5-1-3.5-0.6-6,0.1c0,1.5,0,1.5-0.1,3c-0.1,3.7-0.2,7.3-0.3,11c0,1.6-0.1,3.2-0.1,4.7c-0.1,2.3-0.1,4.5-0.2,6.8
	c0,0.7,0,1.4-0.1,2.1c-0.1,3-0.3,5.5-1.3,8.4c-1.3,0.3-2.6,0.7-4,1c-0.3-13.5-0.7-27.1-1-41c-5.7-2-5.7-2-11.2-1.8
	c-0.8,0.1-1.7,0.2-2.5,0.3c-2.5,0.4-2.5,0.4-5.3,2.5c-0.5,1.9-0.5,1.9-0.4,4c0,0.8,0,1.7,0,2.5c0,0.9,0,1.8,0,2.7c0,0.9,0,1.8,0,2.8
	c0,2.9-0.1,5.9-0.1,8.8c0,2.9-0.1,5.9-0.1,8.8c0,1.8,0,3.7,0,5.5c0,0.8,0,1.7,0,2.5c0,0.7,0,1.5,0,2.2c-0.3,2.4-1.1,4-2.3,6.1
	c-1,0-2,0-3,0c0-1.2,0-2.3,0-3.5c0-4.3,0-8.6,0-13c0-1.9,0-3.7,0-5.6c0-2.7,0-5.4,0-8.1c0-0.8,0-1.7,0-2.5c0-3.3,0-6.1-1.1-9.3
	c-4.5,0.6-8.1,2.4-12,4.5c-8.2,4.3-8.2,4.3-12,4.5c-2.6-1.1-2.6-1.1-5-3c-0.6-3-0.6-3-0.6-6.7c0-0.6,0-1.3,0-2c0-1.4,0-2.7,0.1-4.1
	c0-2.1,0-4.2,0-6.3c0.1-11.4,0.1-11.4,3.5-16c8.3-4.2,20.6,0.8,29,3c-3-3.9-5.7-6.8-9.9-9.5c-0.9-0.6-1.7-1.2-2.6-1.8
	c-1.5-1-3-2-4.5-3.1c-5.7-4.3-7.7-10.1-10-16.6c-2.6,2.6-3.3,5.2-4.6,8.7c-0.4,1.2-0.9,2.4-1.3,3.6c-3.7,12.3-2.8,25.9-3.1,38.7
	c0,0.9,0,1.8-0.1,2.7c-0.1,6-0.2,12.1-0.3,18.1c0,2-0.1,4.1-0.1,6.1c-0.1,2.9-0.1,5.8-0.1,8.7c0,0.9,0,1.7-0.1,2.6
	c0,4.4,0.1,6.1,3,9.7c0.9,0.7,1.7,1.3,2.6,2c1.3,1,1.3,1,2.6,2.1c5.6,3.8,5.6,3.8,12.1,5.2c2-0.5,2-0.5,4.3-1.3c1-0.3,1.9-0.6,2.9-1
	c1.8-0.6,3.6-1.2,5.4-1.8c26.8-9.1,55.3-14.8,83.7-15.2c1.1,0,2.2-0.1,3.3-0.1c24.5-0.5,49.4,2.8,72.9,9.6c4.4,1.3,4.4,1.3,8.8,0.5
	c-2.2-2.2-3.4-2.6-6.3-3.5c-0.8-0.3-1.7-0.5-2.6-0.8c-1.3-0.4-1.3-0.4-2.7-0.8c-0.9-0.3-1.8-0.6-2.7-0.8c-4.3-1.5-4.3-1.5-8.8-2
	c2.3-4.3,5.3-7.5,8.8-10.8c3.9-3.8,7.7-7.7,11.2-11.9c2.9-3.3,5.9-6.4,8.8-9.6c8.2-8.8,16.3-17.6,24.2-26.7c2.1,0,2.1,0,5,1
	c5.2,5.2,8.4,12.2,11.6,18.7c8.9,17.4,18.7,34.2,28.9,50.8c1,1.6,2,3.3,3,5c6.7,11.1,13.8,20.9,22.5,30.5c11.7,13.1,18.9,26.3,20,44
	c4.9,2.4,10.1,2.8,15.5,3.5c1,0.1,2.1,0.3,3.1,0.4c2.2,0.3,4.4,0.5,6.5,0.8c3.3,0.4,6.6,0.8,9.9,1.2c13.7,1.7,27.2,3.3,41,3.3
	c0.8,0,1.6,0,2.5,0c0.8,0,1.6,0,2.4,0c0.7,0,1.4,0,2.1,0c2.3-0.3,3.9-1.2,6-2.2c0.3-7.6-0.9-14.4-2.7-21.8c-0.3-1.2-0.6-2.4-0.8-3.7
	c-0.7-3.2-1.5-6.4-2.2-9.6c-0.8-3.2-1.5-6.4-2.2-9.7c-1.6-7.1-3.3-14.2-5-21.2c-0.3-1.4-0.3-1.4-0.6-2.7c-0.5-2.3-1.1-4.5-1.6-6.8
	c-0.3-1.2-0.6-2.3-0.9-3.6c-2.8-9.2-11.2-15.1-18.1-21.3c-3.1-2.8-6.1-5.6-9.1-8.5c-0.6-0.6-1.2-1.2-1.9-1.8
	c-3.3-3.1-6.6-6.2-9.9-9.3c-7.4-7-14.9-13.8-22.9-20.1c-1.2-1-2.4-2-3.6-3c-14.7-12-33.2-26.4-53.4-25c-1.5,1-1.5,1-3,2
	c1.5,5.2,3.1,10.2,4.8,15.3c5.3,15.3,9.3,31,13.6,46.6c0.8,3.1,1.7,6.2,2.5,9.3c0.6,2,1.1,4.1,1.6,6.1c0.2,0.9,0.5,1.8,0.8,2.7
	c1.4,5.2,1.9,9.7,1.6,15.1c-10.3-9.4-13.1-30.9-16.9-44c-0.5-1.7-1-3.4-1.5-5.1c-0.7-2.5-1.5-5.1-2.2-7.6c-2.6-9-5.3-17.8-9.5-26.2
	c-0.5-1-0.5-1-1-2c-2.9-5.6-6.6-8.9-11.9-12.1c-5.8-3.6-5.8-3.6-6.9-6.3c0-0.6-0.1-1.2-0.1-1.8c4.2-1.4,6.2-0.5,10.1,1.3
	c4.4,1.7,8.7,1.1,13.1-0.4c14.3-3.5,29,3.5,41.8,9.1c-1.3-8.2-2.9-16.3-4.6-24.3c-0.5-2.3-1-4.6-1.5-6.9c-0.8-3.6-1.6-7.2-2.4-10.7
	s-1.5-7-2.3-10.5c-0.2-1.1-0.5-2.1-0.7-3.2c-1.1-5.1-1.9-9.2-0.5-14.3c2.2,2.2,2.6,3.4,3.4,6.4c0.3,1,0.5,1.9,0.8,2.9
	c0.3,1.1,0.6,2.1,0.8,3.2c0.3,1.1,0.6,2.2,0.9,3.4c2,7.6,3.9,15.3,5.7,23c0.2,0.9,0.4,1.9,0.7,2.8c1.1,4.7,2.2,9.4,3.3,14.1
	c0.4,1.8,0.8,3.5,1.2,5.3c0.3,1.2,0.3,1.2,0.5,2.4c1.8,7.8,4.1,13.7,10.4,19c0.5,0.4,1,0.9,1.5,1.3c1.6,1.4,3.2,2.8,4.8,4.2
	c5.4,4.7,10.8,9.5,16,14.4c0.7,0.7,1.4,1.3,2.1,2c4.7,4.4,9.4,8.9,13.9,13.6c1.7,1.7,3.3,3.3,5,5c1.4,1.4,2.8,2.8,4.2,4.2
	c0.8,0.8,1.5,1.5,2.3,2.3c3.5,3.5,7,7,10.5,10.5c1.4-2.8,0.6-4.4,0-7.4c-0.3-1.2-0.5-2.3-0.8-3.5c-0.3-1.3-0.6-2.6-0.9-3.9
	c-0.2-0.7-0.3-1.3-0.5-2c-1.2-5.4-2.5-10.7-3.8-16.1c-0.2-0.8-0.4-1.7-0.6-2.5c-8.4-35.1-18-69.9-29.3-104.2
	c-0.8-2.4-1.6-4.8-2.4-7.2c-9.8-30.1-19.9-60.2-31.8-89.6c-0.6-1.6-0.6-1.6-1.3-3.1c-3.7-8.9-7.6-17.8-14.3-24.9
	c-0.7-0.8-1.5-1.6-2.2-2.4c-1.1-1.1-1.1-1.1-2.1-2.2c-1.1-1.1-1.1-1.1-2.1-2.3c-1.7-1.9-1.7-1.9-3.9-1.7c0.5,6.8,1.9,12.6,4.1,19.1
	c0.7,2.2,1.4,4.3,2.1,6.5c0.2,0.6,0.4,1.2,0.6,1.9c3.1,9.5,6.1,19,9,28.6c1,3.3,2,6.6,3.1,9.8c0.6,2,1.3,4.1,1.9,6.1
	c0.3,1,0.6,1.9,0.9,2.9c0.3,0.9,0.5,1.8,0.8,2.7c0.4,1.2,0.4,1.2,0.7,2.3c1.5,4.9,1.7,9,1.6,14.1c-1.7,0.3-3.3,0.7-5,1
	c-2.7-5.8-4.9-11.6-6.7-17.8c-0.5-1.8-1-3.5-1.6-5.3c-0.3-1-0.6-1.9-0.8-2.9c-1.6-5.6-3.3-11.3-5-16.9c-0.7-2.5-1.5-4.9-2.2-7.4
	c-0.4-1.2-0.7-2.5-1.1-3.7c-0.7-2.5-1.5-5-2.2-7.6c-1.8-6-3.6-12.1-5.4-18.1c-1.2-3.8-2.3-7.7-3.4-11.5c-0.2-0.7-0.4-1.5-0.7-2.3
	c-0.5-1.9-1.1-3.8-1.6-5.7c-1.5-3.5-3.1-4.8-6.3-6.9C1420.2,691.5,1420.2,691.5,1417.4,690.8z M1109.4,708.8
	c-0.6,5.7-0.6,5.7,2,10.5c0.7,0.5,1.3,1,2,1.5c0.9-2.5,1.1-3.6,0.2-6.1c-0.6-1-0.6-1-1.2-2.1c-0.4-0.7-0.8-1.4-1.2-2.1
	c-0.3-0.5-0.6-1.1-0.9-1.6C1110.1,708.8,1109.7,708.8,1109.4,708.8z M718.4,712.8c-3.1,4.9-4.7,8.9-3.7,14.8
	c2.1,6.5,7.9,12.8,13.7,16.2c2.9,0.1,2.9,0.1,5-1c-0.8-3.3-0.8-3.3-4.3-5.1c-4.9-3.3-7.6-8.3-9.4-13.9c-0.4-2.3-0.5-4.4-0.4-6.8
	c0-0.8,0-1.6,0-2.4c0-0.6,0-1.2,0-1.8C719.1,712.8,718.7,712.8,718.4,712.8z M1276.4,713.8c-0.7,2.4-1.4,4.9-2.1,7.3
	c-0.2,0.7-0.4,1.4-0.6,2.1c-1.2,4.3-1.2,4.3-0.3,8.6c2.9-6.3,4.5-11.1,4-18C1277.1,713.8,1276.7,713.8,1276.4,713.8z M1107.4,727.8
	c1,3,1,3,1,3L1107.4,727.8z M709.4,728.8c0.5,7.4,2.5,11.8,8,16.9c2.7,2.4,2.7,2.4,5.2,1.7c0.6-0.2,1.2-0.4,1.8-0.6
	c-0.5-0.4-1-0.8-1.5-1.1c-6-4.8-9.2-10-12.5-16.9C710.1,728.8,709.7,728.8,709.4,728.8z M773.4,734.8c-0.7,0.2-1.4,0.3-2.1,0.5
	c-21.8,5.4-37.1,16.8-49.4,35.9c-8.7,15.1-15.1,31.2-17.5,48.6c0.3,1,0.7,2,1,3c1.2-2,2.5-3.9,3.7-5.9c0.7-1.1,1.4-2.2,2.1-3.3
	c4.2-6.9,7.5-14.2,10.5-21.6c7.2-17.5,17.6-35.9,35.7-44.2c-0.3,3.4-0.7,4.7-3.2,7.1c-1.4,1-1.4,1-2.8,2.1
	c-14.6,11.5-20.9,26.8-28.1,43.3c-2.5,5.8-5.4,11.3-8.5,16.8c-1.3,2.5-2.4,5-3.4,7.7c3.8-1.4,6.8-3.1,10.1-5.6
	c1-0.7,1.9-1.4,2.9-2.2c1-0.8,2-1.5,3-2.3c1-0.8,2.1-1.5,3.1-2.3c18.8-13.8,27.9-31.9,31.9-54.7c0-1,0-2,0-3c1,0.3,2,0.7,3,1
	c0.8,14.7-2.2,26.9-9.7,39.5c-0.4,0.8-0.9,1.7-1.3,2.5c0.3,0.7,0.7,1.3,1,2c0.7,0,1.3,0,2,0c-1.1,9.1-8.2,14.6-15,20
	c-5.6,4.1-11.3,8.1-17,12c-2.6,1.8-5.2,3.6-7.8,5.4c-0.6,0.4-1.1,0.8-1.7,1.2c-3.5,2.4-6,5-8.5,8.4c2.9-0.1,5.2-0.3,7.5-2.3
	c0.8-0.8,0.8-0.8,1.5-1.7c3.2-3.4,6.6-5.9,10.6-8.3c17.8-11.1,37.3-23.9,42.4-45.7c0.8-4.4,1.1-8.5,1.1-12.9c0-1.3,0-2.6,0-3.9
	c0-1.3,0-2.7,0-4c0-1.4,0-2.7,0-4.1c0-3.3,0-6.7,0-10c3.3,1.4,5,2.9,7.1,5.8c0.6,0.8,1.1,1.5,1.7,2.3c0.6,0.8,1.2,1.6,1.8,2.4
	c19.6,25.8,44.7,33.1,75.5,39.1c11.3,2.2,21.7,5,31.9,10.4c1,0.3,2,0.7,3,1c0-2.9,0-2.9-1-6c-2.7-2-2.7-2-6.3-3.4
	c-0.7-0.3-1.3-0.6-2-0.9c-12.5-5.3-25.3-9.3-38.5-12.3c-19.2-4.4-37.4-11-52.3-24.4c-0.7-0.6-1.3-1.2-2-1.8c-4.3-4-6.6-7.9-9-13.2
	c5,2.3,8.2,5.1,11.9,9.1c10.2,10.7,23.8,18.1,38.1,21.9c1-0.3,2-0.7,3-1c-0.7-0.4-1.4-0.8-2.1-1.2c-23.9-13.4-23.9-13.4-32.9-20
	c-0.6-0.4-1.2-0.9-1.8-1.3c-2.9-2.2-4.9-4-6.2-7.5c5.9,1.8,10.2,4.4,15.1,8c5,3.5,10.3,6.5,15.5,9.6c2.6,1.5,5.2,3.1,7.8,4.7
	c1.9,1.2,3.9,2.3,5.8,3.5c0.9,0.5,1.8,1.1,2.7,1.6c9.2,5.5,18.1,9.9,28.4,13c8.1,2.5,14.8,5.4,21.6,10.6
	c-7.1-19.1-23.4-32.5-41.4-40.9c-12.3-5.1-24.9-7.9-37.9-10.5c-2.4-0.5-4.7-1-7.1-1.5c-10.3-2.2-20.1-2.3-30.6-2c0-0.7,0-1.3,0-2
	c2.6-1.3,5.3-2.6,8-4c-1-0.3-2-0.7-3-1c3.9-4.6,9.3-4.5,15-5c18.5-1.2,35.6,1.7,53,7.9c2.3,0.8,4.6,1.5,7,2.1
	c-8.6-9.6-26.5-13.7-39-15C798.4,731.1,786,731.6,773.4,734.8z M703.4,733.8c0.2,7.2,1.3,12.5,6,18c2.4,2.2,2.4,2.2,5,3
	c2.1-0.9,2.1-0.9,4-2c-0.6-0.5-1.2-1-1.8-1.5c-4.9-4.2-8.4-7.7-11.2-13.5C704.7,736.5,704.1,735.1,703.4,733.8z M1279.4,739.8
	c1,2,1,2,1,2L1279.4,739.8z M788.4,743.8c0.8,0.1,1.5,0.2,2.3,0.3c32.2,5,61.4,11.8,85.7,34.7c0-5.4-4.5-9.1-8-13
	c-11.1-10.9-25.9-18.5-41-22c-1-0.2-1.9-0.4-2.9-0.7c-7.4-1.4-14.8-1.5-22.2-1.6c-1,0-2,0-3.1,0c-1,0-1.9,0-2.9,0
	c-1.3,0-1.3,0-2.6,0C791.1,741.7,791.1,741.7,788.4,743.8z M1278.4,741.8c1,2,1,2,1,2L1278.4,741.8z M1277.4,743.8c1,2,1,2,1,2
	L1277.4,743.8z M720.4,762.8c1,2,1,2,1,2L720.4,762.8z M717.4,766.8c0,3,0,3,0,3V766.8z M1280.4,770.8c-4,5.1-3,10.3-2.3,16.4
	c0.1,0.9,0.2,1.7,0.3,2.6c-1,0.7-2,1.3-3,2c-0.5,5.4-0.3,9.4,3,14c2.8,1.4,2.8,1.4,6,1c6.1-3.5,8-8.5,10-15c1.8-7.7,2.1-15-2-22
	C1288,766.6,1284.6,767.7,1280.4,770.8z M715.4,769.8c0,3,0,3,0,3V769.8z M713.4,772.8c-1.3,2.5-2.6,5.1-3.9,7.6
	c-0.4,0.7-0.7,1.4-1.1,2.2c-3.9,7-3.9,7-4.6,14.6c0.2,0.5,0.4,1.1,0.6,1.6c0.4-1.1,0.8-2.1,1.2-3.2c4.7-12.9,4.7-12.9,7.3-17.7
	c0.5-1,1-2.1,1.6-3.1C714.1,774.1,713.7,773.5,713.4,772.8z M1097.2,774.6c-4.3,5.2-3.2,11.7-2.8,18.2c1,5.7,2.6,11,7,15
	c2.6,1,2.6,1,5,1c0.5-0.5,0.5-0.5,1-1c-0.1-4.1-0.4-8.1-0.7-12.2c-0.1-2-0.3-4.1-0.4-6.1c-0.1-1.3-0.2-2.6-0.3-3.9
	c-0.1-1.2-0.2-2.4-0.2-3.6c-0.4-3.1-1-5.4-2.4-8.2C1100.5,772.1,1099.8,772.5,1097.2,774.6z M778.4,774.8c-0.1,0.8-0.1,0.8-0.3,1.7
	c-3.6,20.4-3.6,20.4-8.7,29.3c-0.5,0.9-1,1.8-1.5,2.7c-7.8,13.5-20.1,21.3-33,29.3c-6.7,4-6.7,4-11.5,9.9
	c-0.1,6.6,1.9,11.1,4.9,16.9c4.5,8.7,7.7,15.8,6.5,25.8c-0.7,6.7,0.6,10.1,4.6,15.4c0.6,0.8,1.2,1.6,1.8,2.5
	c15.6,20.4,37.9,34.2,63.5,38.2c12.4,1.4,22.1-1.6,33.2-6.9c0.8-0.4,1.7-0.8,2.5-1.2c6.1-3,11.7-6.3,17-10.6c1-0.7,2-1.4,3.1-2.2
	c18.2-15.9,26.2-43.5,27.9-66.8c0.3-5.6,0.4-11.2,0.4-16.9c0-1.1,0-1.1,0-2.1c0-2,0-4.1,0-6.1c0-1.2,0-2.4,0-3.6
	c-0.7-4.6-2.7-7.7-6.2-10.8c-10.6-6.4-22-9.3-34.1-11.5c-24.8-4.7-47.8-11.2-65.6-30.4C781.4,775.6,781.4,775.6,778.4,774.8z
	 M702.4,798.8c-1.3,4.1-2.3,7.7-2,12c2.4-3.8,2.6-7.6,3-12C703.1,798.8,702.7,798.8,702.4,798.8z M744.4,808.8
	c-0.6,0.5-1.2,1-1.8,1.5c-6.6,5.4-13.5,10.2-20.6,14.9c-1.1,0.7-2.1,1.4-3.2,2.2c-1,0.7-2,1.4-3.1,2.1c-0.9,0.6-1.8,1.2-2.8,1.8
	c-2.5,1.5-4.9,2.6-7.6,3.6c-1.7-1.6-3.3-3.3-5-5c-1.3,1.1-1.3,1.1-1.1,3.7c0,1.1,0,2.2,0,3.3s0,2.2,0,3.3c0,0.9,0,1.7,0,2.6
	c4-0.6,6.8-2.8,9.9-5.2c4.4-3.2,8.8-6.3,13.4-9.3c0.9-0.6,1.8-1.2,2.8-1.8c1.8-1.2,3.6-2.3,5.4-3.5c5.9-3.8,10.7-8,15.5-13.2
	C745.7,809.5,745.1,809.1,744.4,808.8z M699.4,811.8c1,3,1,3,1,3L699.4,811.8z M1438.4,814.8c-7.1,8.1-13.6,16.5-19.8,25.3
	c-1.9,2.7-3.9,5.4-5.8,8.1c-0.7,0.9-1.3,1.8-2,2.7c-0.5,0.6-0.9,1.3-1.4,1.9c0.3,0.7,0.7,1.3,1,2c7.5-8.6,14.9-17.2,22-26
	c1.7-2.1,3.4-4.1,5.1-6.2c0.8-0.9,1.5-1.8,2.3-2.8c0.5-0.7,1.1-1.3,1.7-2C1440.4,816.8,1439.4,815.8,1438.4,814.8z M898.4,825.8
	c-2.2,1.8-2.2,1.8-2.2,4.4c0,0.9,0,1.8,0.1,2.7c0,0.9,0,1.8,0.1,2.8c0,0.7,0,1.4,0.1,2.1c2,0.7,4,1.3,6,2c-1.3,3.5-2.8,6.1-5,9
	c-1,3-1.2,5.2-1.3,8.3c0,1-0.1,2.1-0.1,3.1c0,1.1-0.1,2.1-0.1,3.2c0,1.1-0.1,2.2-0.1,3.3c-0.1,2.7-0.2,5.4-0.3,8c3-0.5,3-0.5,6-1
	c-0.2-0.5-0.5-1-0.7-1.6c-1.2-3-2.3-5.6-2.4-8.9c2.1-5,5.9-9.1,9.4-13.3c3.5-4.5,3.3-9.7,2.7-15.2c-2.2-4.5-4.5-6.9-9-9
	C900.4,825.8,899.4,825.8,898.4,825.8z M1186.4,824.8c-1,0.7-2,1.3-3,2c-2.3-0.3-4.7-0.7-7-1c-1,0.7-2,1.3-3,2
	c-1.5,0.5-3,0.9-4.6,1.3c-9.6,2.9-15.7,7-21,15.7c-1.5,2.1-1.5,2.1-4.5,3.1c1.6,4,3.3,8,5,12c0.7-1,1.3-2,2-3c1.8,0.2,1.8,0.2,4,1
	c1.7,2.3,1.7,2.3,3.3,5.1c0.5,0.9,1,1.8,1.6,2.8c0.4,0.7,0.8,1.4,1.2,2.2c2.2-1.9,2.2-1.9,3-5c3.5,1.4,4.8,2.9,6.7,6.1
	c0.7,1.3,1.5,2.6,2.3,3.9c0.3,0,0.7,0,1,0c0.7-2.3,1.3-4.6,2-7c3,1,3,1,4.7,4.1c0.4,1,0.9,1.9,1.3,2.9c1.5-2,2.9-3.8,4-6
	c1.9,0.3,1.9,0.3,4,1c1.3,2.1,1.3,2.1,2,4c2.5-2.2,3.4-3.7,4-7c1.7,0,3.3,0,5,0c0.5,3,0.5,3,1,6c2.9-3.6,2.9-3.6,5.6-7.3
	c0.5-0.6,0.9-1.1,1.4-1.7c1,0,2,0,3,0c0.5,3,0.5,3,1,6c4.7-4,6.8-8.3,9-14c2,0.3,4,0.7,6,1c1-4.5,1-4.5,2-9c-1.3,0.3-2.6,0.7-4,1
	c-0.5-0.7-1.1-1.4-1.6-2.1c-1.2-1.5-1.2-1.5-2.4-2.9c-0.4-0.6-0.9-1.2-1.4-1.8c-6.5-8.1-13.1-9.8-22.9-11.4
	c-2.9-0.6-4.9-1.3-7.5-2.5C1188,825.4,1188,825.4,1186.4,824.8z M553.4,843.8c0.3,1,0.7,2,1,3c0-1,0-2,0-3
	C554.1,843.8,553.7,843.8,553.4,843.8z M1229.4,843.8c1,2,1,2,1,2L1229.4,843.8z M556.4,847.8c1.7,3.9,4.2,7,6.8,10.3
	c0.5,0.6,0.9,1.2,1.4,1.8c5.9,7.3,12.3,14.1,18.8,20.9c0-4.1-1.6-5-4.4-8c-4.4-4.6-8.4-9.4-12.4-14.4c-4.4-5.4-4.4-5.4-9.1-10.6
	C557.1,847.8,556.7,847.8,556.4,847.8z M1405.4,857.8c1,2,1,2,1,2L1405.4,857.8z M1230.4,870.8c-2.3,1.2-2.3,1.2-4.8,3.1
	c-12.2,8.1-25.7,12.3-40.4,12.2c-1.3,0-1.3,0-2.6,0c-5.1,0-9.4-0.7-14.3-2.3c-1.3,0-2.6,0-4,0c0.2,4.9,1.7,7.6,4.9,11.1
	c3.4,3,7.1,5.4,11,7.9c3.7,2.4,7.2,5,10.8,7.6c3,1.7,4.9,2.3,8.4,2.3c2.8-1.1,5.2-2.7,7.6-4.4c0.7-0.5,1.4-0.9,2.1-1.4
	c15.1-9.1,15.1-9.1,24.3-23.2c0.2-3.1,0.2-3.1,0.1-6.3c0-1.1,0-2.1-0.1-3.2c0-0.8,0-1.6-0.1-2.4
	C1232.4,871.5,1231.4,871.1,1230.4,870.8z M1378.4,885.8c-1.6,1.6-3.1,3.3-4.6,5c-0.8,0.9-1.6,1.9-2.5,2.8c-0.6,0.7-1.3,1.4-1.9,2.2
	c0.3,0.7,0.7,1.3,1,2c1.3-1.2,2.6-2.5,3.9-3.8c1.1-1,1.1-1,2.2-2.1c1.8-2,2.9-3.7,3.9-6.1C1379.7,885.8,1379.1,885.8,1378.4,885.8z
	 M725.4,898.8c-1.7,1.2-1.7,1.2-3,3c-0.2,2.5-0.2,2.5,1,5c3.7,3.6,7.3,5.9,12,8c-1.4-3.6-3-6.9-5-10.3c-0.5-0.9-1-1.7-1.6-2.6
	C727.6,899.7,727.6,899.7,725.4,898.8z M1125.4,900.8c-3.5,4.4-7,8.7-10.5,13.1c-1.3,1.6-2.5,3.2-3.8,4.7c-0.6,0.8-1.2,1.5-1.9,2.3
	c-0.5,0.7-1.1,1.3-1.6,2c-1.4,2.1-2.1,3.3-2.2,5.8c2.7,3.6,6.2,5.3,10.3,7.3c1.1,0.5,2.2,1,3.3,1.6c0.8,0.4,1.6,0.8,2.5,1.2
	c0,1.3,0,2.6,0,4c-0.5,0.3-1.1,0.6-1.6,0.9c-2.4,1.3-4.8,2.6-7.3,3.9c-0.8,0.5-1.7,0.9-2.6,1.4c-1.2,0.7-1.2,0.7-2.4,1.3
	c-1.1,0.6-1.1,0.6-2.3,1.2c-2.2,1.3-2.2,1.3-3.9,4.3c0.3,6.7,2.4,12.4,4.9,18.6c0.5,1.4,0.5,1.4,1.1,2.8c1.8,4.7,3.7,9.2,6.1,13.6
	c1-0.5,1-0.5,2-1c-1.3-6.9-3.4-13.3-6-19.9c-1.5-4.1-2.7-7.7-2-12.1c3.6-5.3,10.9-8,16.4-11c1.3-0.7,1.3-0.7,2.5-1.4
	c0.8-0.4,1.5-0.8,2.3-1.3c2.1-1.2,2.1-1.2,2.8-4.3c-0.9-0.5-1.9-1.1-2.9-1.6c-1.3-0.7-2.5-1.4-3.8-2.1c-0.6-0.3-1.2-0.7-1.9-1.1
	c-4-2.2-7.7-4.6-11.5-7.2c0.5-4.8,2.8-7.8,5.8-11.4c3.5-4.3,6.7-8.6,9.2-13.6C1126.1,902.1,1125.7,901.5,1125.4,900.8z M737.4,916.8
	c1,2,1,2,1,2L737.4,916.8z M1193.4,921.8c0.3,1.3,0.7,2.6,1,4c2.6,0.9,3.6,1.1,6.3,0.1c0.6-0.4,1.2-0.7,1.8-1.1c0-1,0-2,0-3
	C1197.8,920.8,1197.8,920.8,1193.4,921.8z M1061.4,928.8c-0.3,7,0.9,13.1,2.6,19.8c0.3,1.1,0.5,2.2,0.8,3.4c2,8.6,4.2,17.1,6.4,25.6
	c0.3,1.1,0.6,2.3,0.9,3.5c0.3,1.1,0.6,2.1,0.8,3.2c0.2,0.9,0.5,1.9,0.7,2.8c0.8,2.6,1.7,5.1,2.8,7.6c0.3,0,0.7,0,1,0
	c0.4-8.7-0.6-16.4-2.6-24.8c-0.3-1.2-0.5-2.3-0.8-3.5c-1.8-7.9-3.8-15.8-5.8-23.6c-0.4-1.4-0.4-1.4-0.7-2.9
	c-0.2-0.9-0.5-1.8-0.7-2.7c-0.3-1.2-0.3-1.2-0.6-2.3c-0.7-2.2-1.6-4.1-2.7-6.1C1062.7,928.8,1062.1,928.8,1061.4,928.8z
	 M511.1,943.6c-0.6,0.5-1.2,1-1.9,1.5c-16.9,13.5-32.6,28.2-47.9,43.4c-1.6,1.6-3.3,3.2-4.9,4.8c-2.4,2.3-4.8,4.7-7.2,7
	c-0.7,0.7-1.5,1.4-2.2,2.1c-8.5,8.6-10.3,19.5-12.9,31c-0.4,1.9-0.4,1.9-0.9,3.8c-0.6,2.6-1.2,5.3-1.8,7.9
	c-0.8,3.4-1.5,6.7-2.3,10.1c-0.7,3.2-1.5,6.5-2.2,9.7c-0.3,1.2-0.6,2.4-0.9,3.6c-0.2,1.1-0.5,2.3-0.8,3.4c-0.2,1-0.4,2-0.7,3
	c-0.3,3.4,0.4,5.7,1.8,8.8c7.2,3.6,18.3,2.2,26.2,2.2c0.7,0,1.3,0,2,0c18.9,0,37.7-0.7,56.6-1.4c20.9-0.7,41.8-1.3,62.7-0.3
	c9.9,0.4,19.7,0.6,29.6,0.5c1.3-2.8,1.3-2.8,0.1-4.7c-0.4-0.6-0.9-1.3-1.3-1.9c-2.4-3.6-4.2-7.3-5.9-11.3c-0.9-2.1-0.9-2.1-2-4
	c-1.1-2.4-1.3-4.4-1.4-7c-0.2-2.9-0.5-5-1.6-7.7c-1.4-3.5-1.5-6.7-0.9-10.4c1-1.7,1.9-3.5,3-5.1c1.2-2.2,1.5-4.1,1.9-6.5
	c0.8-3.9,2-5.9,5.3-8.3c2.9-1.7,5.9-3.3,9-4.7c2.1-1.3,2.1-1.3,2.6-4.1c0.1-0.8,0.2-1.5,0.2-2.3c-2.7,0.6-5.1,1.5-7.7,2.6
	c-6.7,2.5-13,2.2-19.5-0.6c-2.8-1.5-4.7-3.7-6.8-6c-4.8-4.1-7.7-5.1-14-5.2c-10.4-0.3-21.2-1.3-28.8-9.2c-1.8-2.6-2.2-3.9-2.9-7.2
	c1.4-7.2,7-10.5,12.5-14.7c3.9-3.1,6.6-6,8.2-10.8c0-3.6-0.8-5.1-3-7.9c-3.2-2.9-6.1-3.7-10.2-4.6c-1.2-0.3-2.4-0.5-3.6-0.8
	c-1.2-0.3-2.5-0.5-3.8-0.8s-2.5-0.5-3.8-0.8C519.2,938.6,519.2,938.6,511.1,943.6z M942.7,949.5c-1.4,0.6-2.8,1.2-4.2,1.8
	c-0.7,0.3-1.5,0.6-2.2,0.9c-21.4,9.1-43.2,16.9-65.4,24.1c-0.7,0.2-1.5,0.5-2.2,0.7c-1.6,0.5-3.1,1-4.7,1.4
	c-0.8,0.2-1.6,0.5-2.4,0.7c-0.7,0.2-1.4,0.4-2.1,0.6c-2.8,1.3-4.2,2.5-6,4.9c-0.7,2.6-1.2,5-1.6,7.7c-0.1,0.8-0.2,1.5-0.4,2.3
	c-0.4,2.3-0.7,4.7-1,7c-0.1,0.7-0.2,1.4-0.3,2.1c-0.7,4.7-1.3,9.4-1.8,14.2c-0.1,0.7-0.2,1.5-0.3,2.2c-1.6,13.9-2.2,27.8-2.3,41.8
	c0,0.8,0,1.5,0,2.3c0,2,0,4.1,0,6.1c-0.2,3.1-0.6,4.7-2.3,7.3c17.9,0.1,35.7,0.1,53.6-0.4c0.7,0,1.4,0,2.2-0.1
	c2-0.1,4.1-0.1,6.1-0.2c1.1,0,2.3-0.1,3.5-0.1c2.7,0,2.7,0,4.7-1.2c1-2.6,1.8-5.1,2.6-7.8c0.2-0.7,0.5-1.4,0.7-2.2
	c1.8-5.4,1.8-5.4,1.7-11.1c-1.7-1.6-1.7-1.6-3.9-2.9c-3.1-2.1-4-2.9-5.6-6.4c-0.2-1.2-0.4-2.4-0.6-3.7c-0.1-0.7-0.3-1.5-0.4-2.3
	c-0.7-4.6-0.6-7.4,1.4-11.7c-0.1-1.4-0.1-1.4-0.2-2.9c0.2-3.4,0.7-4,2.8-6.6c1.4-1.7,1.4-1.7,2.4-3.6c-0.3-2.3-0.7-4.7-1-7
	c3.3-6.4,9.3-8.1,15.6-10.6c6.6-2.7,6.6-2.7,10.4-8.3c0.7-1.7,1.3-3.4,2-5.1c0.4-1,0.7-1.9,1.1-2.9c1.2-3.2,2.4-6.4,3.5-9.6
	c0.6-1.6,0.6-1.6,1.2-3.3c3.8-10.3,3.8-10.3,5.2-21.2C948.7,946.8,946,948.1,942.7,949.5z M782.4,948.8c0,1-0.1,2.1-0.1,3.1
	c-0.1,1.4-0.2,2.7-0.2,4.1c0,1,0,1-0.1,2.1c-0.2,3.6-0.4,6.6-2.5,9.7c-4.7,3.1-9.3,2.5-14.7,1.5c-1.7-0.4-3.5-0.8-5.2-1.2
	c-2.1-0.6-2.1-0.6-4.1,0.7c-0.5,7.7,0.5,14.7,3,22c0.7,0.7,1.3,1.3,2,2c2.4,0,4.6-0.2,7-0.5c0.8-0.1,1.6-0.2,2.4-0.3
	c21.8-2.8,43.2-7.1,64.5-12.5c0.9-0.2,1.8-0.4,2.7-0.7c2.5-0.6,5-1.3,7.5-1.9c1.1-0.3,1.1-0.3,2.3-0.6c3.5-0.9,6.4-2,9.7-3.6
	c-1-5.4-1-5.4-2-11c-3.7,0.4-6.3,1.1-9.4,3.1c-3,1.9-3.6,1.9-7.5,1.6c-1-0.2-2-0.5-3.1-0.8c-3.3-9.4-3.3-9.4-4-14
	c-0.5,0.1-1.1,0.3-1.6,0.4c-5.6,1.4-10.8,1.9-16.6,1.9c-0.8,0-1.6,0-2.5,0c-7-0.1-13.5-1.3-20.3-3.3c-1.3-0.4-2.6-0.7-3.9-1.1
	C784.5,949.4,783.5,949.1,782.4,948.8z M1375.4,952.8c-2.6,7.8-2.6,7.8-3,16c1.3,0.3,2.6,0.7,4,1c1.5-3,1.1-5.8,1.1-9.1
	c0-1.3,0-2.6,0-3.9c0-1,0-2,0-3C1376.7,953.5,1376.1,953.1,1375.4,952.8z M862.4,958.8c-0.3,2.4-0.3,2.4-0.2,5c0,0.9,0,1.8,0,2.7
	c0,2.3,0,2.3,1.2,4.3c11.2-2.1,21.4-5.9,32-10c-4.5-5-9.5-6.4-16.1-7.3C873.5,953.3,866.6,954.6,862.4,958.8z M713.4,976.8
	c-2,1.4-4,2.7-6,4c0.8,2.2,0.8,2.2,3,2.7c0.9,0.2,1.8,0.4,2.7,0.6c1,0.2,1.9,0.5,3,0.7c1,0.2,2.1,0.5,3.2,0.8
	c7.7,1.9,14.7,4,21.9,7.3c3.3,1.3,5.8,1.3,9.3,0.9c1.1-3.3,0.9-4.7,0.3-8c-0.2-1-0.4-1.9-0.5-3c-0.2-1-0.4-2-0.6-3.1
	c-0.2-1-0.4-2-0.6-3.1c-0.8-5.1-0.8-5.1-2.6-9.8C734,962.7,722.8,969.3,713.4,976.8z M608.4,973.8c1.3,3.7,2.7,7.4,4.1,11.1
	c0.7,1.9,1.4,3.7,2,5.6c3.6,10.9,3.6,10.9,9.9,20.3c2.5,0.5,4.9,0.9,7.4,1.3c8.5,1.4,16.9,3.8,23,10.2c1.7,2.5,1.7,2.5,1.5,5.9
	c0.1,4.1,0.5,4.3,3.2,7.1c2.9,3,2.9,3,3,5.6c-0.2,1.4-0.5,2.7-0.8,4.1c-0.5,2.1-0.5,2.1,1,4.7c1,4.8-1.1,7.5-3.5,11.6
	c-3.7,5.3-8.2,8-14.1,10.6c-2,1-2,1-2.6,4c0.5,2.5,0.5,2.5,1.3,5.1c0.4,1.3,0.4,1.3,0.8,2.7c0.8,2.4,0.8,2.4,2.9,4.3
	c2.2,0.3,2.2,0.3,4.9,0.3c1.5,0,1.5,0,3.1,0c1.1,0,2.2,0,3.4,0s2.3,0,3.5,0c3.8,0,7.5,0,11.3,0c1.3,0,2.5,0,3.9,0
	c30.7,1,30.7,1,61-3.2c1-3.4,1.2-6.6,1.3-10.2c0-1.2,0.1-2.5,0.1-3.7c0-1.3,0.1-2.6,0.1-3.9c0.1-1.9,0.1-1.9,0.1-3.8
	c0.3-8.8,0.4-17.6,0.3-26.4c0-0.7,0-1.5,0-2.2c0-4.7-0.1-9.4-0.2-14.1c0-1.6,0-3.2-0.1-4.9c0-2.4-0.1-4.8-0.1-7.1c0-1.1,0-1.1,0-2.2
	c-0.1-3.2-0.2-5-2.4-7.3c-3.3-1.7-6.6-2.8-10.1-3.9c-0.8-0.3-1.6-0.5-2.5-0.8c-28.2-8.5-57.4-14.2-86.6-18.4
	c-0.8-0.1-1.5-0.2-2.3-0.3C626.8,974.3,617.8,973.5,608.4,973.8z M1047.4,974.8c-0.7,7.8,1.9,13.7,4.8,20.8c0.5,1.1,0.9,2.3,1.4,3.4
	c2.5,6.5,2.5,6.5,6.8,11.8c-0.5-7.3-2.3-13.4-4.9-20.3c-0.5-1.5-0.5-1.5-1.1-2.9c-2.5-6.7-2.5-6.7-6.1-12.8
	C1048.1,974.8,1047.7,974.8,1047.4,974.8z M1350.3,993.7c-2.4,4.1-4.8,8.1-7.2,12.2c-0.6,1.1-0.6,1.1-1.3,2.3
	c-3.2,5.7-6,11.3-4.7,18c1.2,2.9,1.2,2.9,4.3,4.6c3.7-0.1,5.4-0.4,8.1-3.1c0.6-0.9,1.2-1.8,1.8-2.7c0.7-1,1.4-2,2.1-3
	s1.4-2.1,2.1-3.2c1.4-2,2.7-4.1,4.1-6.1c1-1.5,1-1.5,2-3c7.8-11.5,7.8-11.5,12-12.9c-0.5,5.6-2.6,9.1-5.6,13.6
	c-0.4,0.7-0.9,1.4-1.3,2.1c-2.1,3.3-4.3,6.5-6.5,9.8c-0.7,1-1.4,2.1-2.2,3.1c-1,1.3-1,1.3-1.9,2.7c-1.7,3-2.2,5.3-2.5,8.6
	c0.8,2.5,0.8,2.5,3,4c4,0.7,6.3,0.9,9.9-1c8.6-7,15.3-17,21.7-25.9c0.8-1,1.6-2,2.4-3.1c1,0,2,0,3,0c-1.8,7-4.8,12-9.3,17.6
	c-0.8,1.1-0.8,1.1-1.7,2.2c-3.2,4-6.5,7.9-9.9,11.7c-1.4,1.6-1.4,1.6-1.2,4.3c1,2.2,1,2.2,2.8,3.6c3.5,0.9,6,1,9.4-0.4
	c6.6-4.8,12.1-11.1,17.4-17.2c1.2-1.3,2.4-2.6,3.6-3.8c0.7,0,1.3,0,2,0c-1.9,9.8-9.5,16.8-16,24c1,1,1,1,2,2
	c8.1-0.6,15.2-7.8,20.5-13.4c3.7-4.4,5.8-8.8,6.5-14.6c-0.7-5.5-2.9-8.3-6.6-12.2c-1.5-2-2.1-3.5-2.7-5.9c-1.5-4.6-4.5-6.1-8.5-8.5
	c-2.9-2-4.4-4.5-6.1-7.4c-2.4-2.4-4.8-3.3-7.9-4.4c-4-1.4-6.2-3.5-9.1-6.6c-2.5-2.6-4.6-3.3-8.1-3.7
	C1361.3,978.5,1354.8,986.7,1350.3,993.7z M1183.4,997.8c0,0.3,0,0.7,0,1c6.9-0.6,13.3-2,20.1-3.8c8.5-2.2,17-4.1,25.7-5.5
	c1-0.2,1.9-0.3,2.9-0.5c11-1.7,21.8-2.4,32.9-2.3c1.1,0,2.3,0,3.4,0c3.6,0,7.2,0,10.8,0c2.5,0,4.9,0,7.4,0c6,0,11.9,0,17.9,0
	c-1-1.5-1-1.5-2-3c-3-0.6-5.7-0.9-8.7-1.2c-1.3-0.1-1.3-0.1-2.7-0.2C1257.4,979.7,1213.9,981.7,1183.4,997.8z M833.3,986.6
	c-1.4,0.4-2.8,0.8-4.3,1.2c-0.7,0.2-1.5,0.4-2.3,0.6c-22.8,6.2-45.8,10.2-69.4,12.4c-1,0.1-2,0.2-3.1,0.3c-0.9,0.1-1.8,0.2-2.7,0.2
	c-2.7,0.6-3.5,1.3-5.3,3.5c-0.4,2.3-0.4,2.3-0.3,5c0,1,0,2,0,3.1c0,1.1,0,2.2,0.1,3.4c0,1.2,0,2.3,0,3.5c0,3.7,0.1,7.5,0.1,11.2
	c0,4.8,0.1,9.7,0.1,14.5c0,1.2,0,2.4,0,3.6c0.1,11.6-0.4,23.1-1,34.7c14.1-0.5,28-1.4,42-3c-1.6-4.1-3.3-8.1-5-12.1
	c-0.5-1.2-1-2.4-1.6-3.7c-1.1-2.5-2.2-4.9-3.4-7.3c-4.2,1.1-7.7,2.9-11.4,5c-4.6,2.6-9.1,5-14.6,5c2.4-5.6,6.7-7.3,11.9-9.9
	c15.1-8,30.1-16.9,42.1-29.1c0.9-0.9,1.8-1.7,2.7-2.6c5.4-5.3,10.4-10.8,15.1-16.7c2.3-2.9,4.7-5.7,7.1-8.4c1.1-1.2,1.1-1.2,2.2-2.5
	c1.8-1.8,1.8-1.8,3.8-1.8c-1.2,9.3-9.6,16.8-15.7,23.5c-2.4,2.7-4.6,5.4-6.9,8.2c-6.3,7.7-13.5,13.2-21.6,18.8
	c-1.6,1.1-3.2,2.3-4.8,3.5c-0.7,0.4-1.3,0.9-2,1.3c-1.5,2.5-1.1,4.7-0.6,7.5c1,3.8,2.7,7.1,4.6,10.6c0.4,0.7,0.7,1.4,1.1,2.2
	c1,1.8,1.9,3.7,2.9,5.5c0.3,0.7,0.7,1.3,1,2c10.8,0.1,21.6,0,32.4-0.4c1.6,0,1.6,0,3.3-0.1c1.5-0.1,1.5-0.1,3.1-0.1
	c0.9,0,1.8-0.1,2.7-0.1c2.5-0.3,4.2-1,6.4-2.3c-0.7,0-1.3,0-2,0c-0.6-24,0.2-47.3,3.6-71.1c0.1-0.8,0.2-1.6,0.3-2.4
	c0.2-1.1,0.2-1.1,0.3-2.3c0.7-5.4,1-10.7,0.8-16.2C841.1,984.6,837.5,985.4,833.3,986.6z M1129.4,988.8c-0.6,1-1.2,1.9-1.8,2.9
	c-2.5,3.5-4.4,4.5-8.3,6.1c-3.5,1.8-4.7,3.5-6,7.2c-1.4,3.6-3.3,4.9-6.4,7c-2.9,2.1-4.2,3.1-5.3,6.6c-0.5,3-0.5,3-0.6,5.8
	c-0.3,1.2-0.3,1.2-0.5,2.4c-1.9,1.1-1.9,1.1-4,2c-4.6,5.9-5.5,10.7-5,18c2,6.5,5.3,9.9,11,13.2c6.7,3.3,13.8,5,21.1,2.9
	c0.9-0.4,1.9-0.7,2.9-1.1c-1.5-3.8-3.8-5.8-6.8-8.4c-1.3-1.2-1.3-1.2-2.7-2.4c-0.8-0.7-1.6-1.4-2.5-2.2c-3-2.7-5.4-5.2-7-9
	c3.8,0,4.5,1,7.4,3.4c4,3.3,8.1,6.5,12.3,9.5c1,0.8,2.1,1.5,3.1,2.3c4.1,2.3,7.9,3.4,12.6,2.2c1.8-1.3,1.8-1.3,2.8-3.5
	c-0.2-4.8-2.9-7.5-6.1-10.9c-3-2.6-6-5.1-9.1-7.6c-4.9-4-8.3-7.5-10.9-13.4c4.4,0.5,6.7,2.1,10.1,4.9c1,0.8,1.9,1.6,2.9,2.4
	c3,2.6,5.8,5.3,8.7,7.9c6.8,6.3,6.8,6.3,15.4,9.1c3.1-0.5,4.5-1.3,6.8-3.4c0-7.5-4.1-11.7-9-17c-3-2.9-6-5.7-9.1-8.4
	c-2.4-2.1-4.7-4.3-7-6.6c-0.5-0.5-1.1-1-1.6-1.6c-1.2-1.4-1.2-1.4-2.2-4.4c4.9,0.5,7.4,1.6,11.1,4.8c0.9,0.8,1.9,1.6,2.9,2.5
	c3.8,3.4,7.5,6.9,11.3,10.3c8.9,8.7,8.9,8.7,19.8,14.4c3.1-0.2,5.2-0.6,7.9-2.1c1.8-3.2,0.9-5.4,0.1-8.9c-1.7-2.7-3.8-5-5.9-7.4
	c-0.6-0.7-1.2-1.3-1.8-2c-8.2-9-17.4-16.5-27.3-23.6c-0.8-0.6-1.6-1.2-2.4-1.9C1143.7,986.3,1136,982.9,1129.4,988.8z M1317.4,986.8
	c0,1,0,2,0,3c2.4,0.7,4.7,1.3,7.1,1.9c0.7,0.2,1.3,0.4,2,0.6c4.3,1.2,8.5,2,12.9,2.5c-0.7-3.1-0.7-3.1-3.2-4.1
	C1329.9,988.4,1324.1,987.1,1317.4,986.8z M922.6,1007.9c-0.4,0.6-0.8,1.2-1.2,1.9c1.7,2.2,1.7,2.2,3.8,2.2c0.7,0,1.5-0.1,2.2-0.1
	c0.8,0,1.6,0,2.5-0.1c1.7-0.1,3.4-0.1,5.1-0.2c6.8-0.2,12.4,1.1,18.4,4.2c0,1,0,2,0,3c-1.2-0.2-2.3-0.3-3.5-0.5
	c-10.2-1.1-21-1.9-30.5,2.5c-0.7,1-1.3,2-2,3c1.5,1.5,3,1.2,5.1,1.4c9.5,0.7,18.2,1.5,26.9,5.6c0,1,0,2,0,3
	c-7.5-0.9-7.5-0.9-10.3-1.5c-3.6-0.6-7.1-0.7-10.7-0.7c-0.7,0-1.4,0-2.1-0.1c-4.5,0-7.4,0.5-10.9,3.3c0,0.7,0,1.3,0,2
	c5.7,2.1,11.4,3,17.5,3.9c4.1,0.6,7.7,1.4,11.5,3.1c0,0.7,0,1.3,0,2c-1.4,0-2.8,0-4.2,0.1c-1.2,0-1.2,0-2.4,0
	c-2.5-0.1-2.5-0.1-4.8-0.6c-3.2-0.6-6.2-0.6-9.4-0.6c-1.2,0-2.3,0-3.5,0c-0.9,0-1.8,0-2.7,0c2.9,3.2,5.3,4.8,9.4,6.1
	c1.5,0.5,1.5,0.5,2.9,1c0.9,0.3,1.8,0.6,2.7,0.9c1.7,0.6,1.7,0.6,3.4,1.3c2.8,0.8,4.8,1,7.6,0.8c9.5-6.7,12.2-25.8,14.6-36.2
	c0.5-3,0.7-5.7,0.4-8.8c-3.1-3.9-6.3-6.4-11-8C939,1000.9,928.5,1000.9,922.6,1007.9z M1224.2,1009.6c-1.9,0.4-1.9,0.4-3.8,0.7
	c-8.7,1.7-16.7,4.3-24.9,7.5c1.4,3.7,1.4,3.7,3.6,6.8c2.1,3.3,2,6.5,1.4,10.2c-2.2,4.5-5.2,5.6-9.6,7.4c-3.8,1.6-6,2.5-7.6,6.4
	c-0.3,1.1-0.5,2.1-0.8,3.2c-1,0-2,0-3,0c-0.7-2.6-1.3-5.3-2-8c-1.7-0.3-3.3-0.7-5-1c-0.4,0.5-0.7,1.1-1.1,1.6
	c-4.3,6.2-8.1,8.2-15.3,10.4c-1.3,0.5-1.3,0.5-2.6,1c-0.3,1-0.7,2-1,3c10.6-0.6,21.2-1.4,31.8-2.6c1.5-0.2,3.1-0.3,4.6-0.5
	c2.3-0.2,4.6-0.5,6.8-0.7c0.7-0.1,1.4-0.1,2.1-0.2c6.5-0.8,10.8-3.9,15.2-8.6c0.6-0.7,1.3-1.4,1.9-2.1c0.7-0.7,1.3-1.4,2-2.2
	c0.7-0.7,1.4-1.5,2.1-2.3c1.4-1.5,2.9-3.1,4.3-4.6c2-2.2,4-4.3,6-6.5c8-8.5,8-8.5,15.7-17.4c3.4-3.3,6.5-3.6,11.2-3.6
	c0.7,0,1.5,0,2.3,0c1.2,0,1.2,0,2.3,0c2.5,0,4.9,0,7.4,0.1c1.7,0,3.3,0,5,0c4.1,0,8.2,0.1,12.2,0.1c-1.2,3.4-2.5,5.8-5,8.5
	c-0.6,0.6-1.2,1.3-1.8,1.9c-0.6,0.7-1.3,1.3-2,2c-1.4,1.4-2.7,2.8-4.1,4.3c-0.7,0.7-1.4,1.4-2.1,2.2c-3.3,3.4-6.5,6.9-9.8,10.4
	c-1.1,1.2-2.3,2.4-3.4,3.6c-0.8,0.8-0.8,0.8-1.5,1.6c-1.2,1.3-2.5,2.5-3.8,3.7c-1.9,1.7-1.9,1.7-1.6,4.8c2.3,0,4.6,0,7,0
	c0.3-1.5,0.3-1.5,0.6-3c1.4-5,4.8-8.1,8.4-11.7c1.4-1.4,2.7-2.8,4.1-4.2c0.7-0.7,1.3-1.4,2-2.1c2.6-2.6,5-5.3,7.5-8.1
	c1.2-1.3,1.2-1.3,2.4-2.6c1.7-1.9,3.3-3.8,4.9-5.8c2.1-2.4,3.2-3.3,6.1-4.4c2.5,0,2.5,0,5.3,0.3c1,0.1,1.9,0.2,2.9,0.3
	c0.9,0.1,1.9,0.2,2.8,0.4c0.8,0.1,1.6,0.2,2.5,0.3c1.8,0.2,3.7,0.5,5.5,0.7c-6.4-6.4-21.4-5.7-30-6c-1.2,0-2.3-0.1-3.5-0.1
	C1260.5,1004.4,1242.2,1006.2,1224.2,1009.6z M1317.4,1010.8c-2.9,8.8-2.9,8.8-3,18c2.1,3.5,4.1,5.7,8,7c1.7,0.1,3.5,0.1,5.2,0.1
	c0.9,0,1.8,0,2.7,0c1,0,1,0,2.1,0c0.3-3.1,0.3-3.1-1.5-5.4c-2.2-5.2-1.7-10-1.5-15.6c-1.1-0.7-2.1-1.3-3.2-2
	c-0.6-0.4-1.2-0.7-1.8-1.1C1322,1010.6,1320,1010.7,1317.4,1010.8z M606.3,1024.1c-1.9,2.9-3.3,5.6-4.5,8.8c-0.4,1-0.8,2-1.3,3.1
	c-2.1,5.3-2.1,5.3-0.6,10.7c1.2,3,1.6,4.3,1.4,7.6c0.2,4.4,1.6,6.7,3.8,10.4c1.2,2,2.1,3.9,2.9,6.1c1.5,3.7,1.5,3.7,4.4,6.1
	c6.6,1.4,10.1,0.7,15.9-2.6c0.7-0.4,1.4-0.7,2.1-1.1c2-1.1,4-2.2,6-3.3c1.1-0.6,2.1-1.2,3.2-1.8c4.6-2.4,4.6-2.4,7.8-6.2
	c-6.5-0.4-12.2,0.8-18.5,2.3c-3.6,0.7-6.8,0.8-10.5,0.7c5.8-7.3,16.8-7.9,25.3-9.4c4.7-0.9,7.6-1.6,10.7-5.6
	c-3.7-2.5-6.5-2.3-10.8-2.3c-1.1,0-1.1,0-2.3,0c-6.5,0.1-12.5,1.2-18.8,2.8c-3.1,0.4-5.1,0.4-8.1-0.6c-0.3-0.7-0.7-1.3-1-2
	c12.4-5.1,24.8-6,38-7c0.5-1.5,0.5-1.5,1-3c-11.4-6.3-25.1-4.6-37.5-2.4c-2.5,0.4-2.5,0.4-4.5,0.4c0-1.3,0-2.6,0-4
	c1.5-0.5,3-1,4.6-1.4c0.8-0.3,1.7-0.5,2.6-0.8c7.5-2,14.6-1.8,22.3-1.5c0.8,0,1.6,0,2.5,0c0.7,0,1.5,0,2.2,0.1
	c0.6-0.1,1.2-0.2,1.9-0.3c0.7-1,1.3-2,2-3c-1.9-1-3.7-2-5.6-2.9c-1-0.5-2.1-1.1-3.2-1.7C629.7,1015.8,614.2,1015.7,606.3,1024.1z
	 M1079.2,1032.8c-6,6.7-8,14.8-7.9,23.6c0.3,6.7,0.3,6.7,3.2,12.4c2.6-0.1,5.2-0.2,7.8-0.4c0.7,0,1.4-0.1,2.2-0.1
	c3.8-0.2,7.4-0.6,11.1-1.5c-1.2-2.7-2.4-4.4-4.4-6.7c-5.9-7-6.3-15.5-5.6-24.3c0.5-2.5,1.1-4.6,2-7
	C1083.4,1028.8,1082.1,1030.2,1079.2,1032.8z M1027.4,1048.7c-1.4,1.6-2.7,3.3-4,5.1c0.3,0.7,0.7,1.3,1,2c0.5-0.3,0.9-0.6,1.4-0.9
	c10.3-6.4,20.8-12.5,31.6-18.1c0-0.3,0-0.7,0-1C1047.1,1035.3,1034.7,1041.5,1027.4,1048.7z M1425.4,1035.8
	c-2.2,2.7-2.2,2.7-1.9,5.1c1.3,4.2,3.4,7.9,5.5,11.7c0.4,0.8,0.8,1.6,1.3,2.4c1,1.9,2.1,3.9,3.2,5.8c0.3,0,0.7,0,1,0
	c0.5-7.8-0.5-15.4-5.4-21.8C1427.6,1037.5,1427.6,1037.5,1425.4,1035.8z M1335.4,1040.8c0,0.3,0,0.7,0,1c0.9,0.1,0.9,0.1,1.9,0.2
	c6.8,0.9,10,3,14.5,8.1c1.5,1.9,1.5,1.9,3.6,2.8c1.5,0.1,3.1,0.1,4.6,0.1c0.8,0,1.6,0,2.5,0c0.6,0,1.3,0,1.9,0
	c-1.6-3.1-1.6-3.1-4-3.6c-0.8-0.1-1.5-0.2-2.3-0.3c-4.6-0.9-6.7-2.5-9.7-6.1c-1.5-1.8-1.5-1.8-3-3
	C1341.9,1039.8,1338.8,1040.2,1335.4,1040.8z M1416.4,1050.8c1,2,1,2,1,2L1416.4,1050.8z M1418.4,1053.8c1,2,1,2,1,2L1418.4,1053.8z
	 M1419.4,1055.8c1,2,1,2,1,2L1419.4,1055.8z M925.4,1057.8c0,1,0,2,0,3c4.2,1.2,4.8,1.1,9-1C929.9,1058.8,929.9,1058.8,925.4,1057.8
	z M946.4,1062.8c-1.7,1-3.4,2-5,3c-4.5,1.5-9.1,1.3-13.8,1.4c-3.2,0.2-3.2,0.2-4.6,2.4c-0.7,2.5-0.7,2.5-0.6,6.2
	c3.8,0,7.5,0,11.3,0.1c1.6,0,1.6,0,3.2,0c1,0,2.1,0,3.1,0c0.9,0,1.9,0,2.9,0c2.6,0,2.6,0,5.5-1.1c1.4-4.1,0.8-6.7,0-11
	C947.7,1063.5,947.1,1063.1,946.4,1062.8z M633.4,1078.8c-5,2.5-5,2.5-10,5c1.8,2.3,1.8,2.3,4.6,2.2c1,0,2,0,3-0.1c1,0,2,0,3-0.1
	c1.2,0,1.2,0,2.3-0.1c0.3-2.4,0.3-2.4,0-5C635.4,1080.1,634.4,1079.5,633.4,1078.8z M979.4,1100.8c0,0.3,0,0.7,0,1
	c45.2,0,90.4,0,137,0c0.3-0.7,0.7-1.3,1-2c-3.1-1.5-6.3-1.1-9.7-1.1c-0.8,0-1.6,0-2.4,0c-2.7,0-5.3,0-8,0c-1.9,0-3.7,0-5.6,0
	c-5,0-10,0-15,0c-3.1,0-6.2,0-9.2,0C1038.1,1098.6,1008.8,1098.9,979.4,1100.8z M1129.4,1101.8c5.2,2.1,9.8,2.3,15.3,2.5
	c1.8,0.1,3.7,0.1,5.5,0.2c1.4,0,1.4,0,2.9,0.1c17,0.5,33.3,1.7,49.9,5.5c3.7,0.8,7.4,1.6,11,2.3c15.5,3.1,30.8,6.7,46,10.6
	c10.6,2.7,21.2,5.1,32,7c7.9,1.5,15.7,3.1,23.5,4.8c1.1,0.2,2.2,0.5,3.3,0.7c5.7,1.3,9.8,2.7,14.4,6.2c1.7,0.8,3.4,1.5,5.1,2.2
	c0.8,0.3,1.7,0.6,2.5,1c4.6,1.6,8.4,1.9,13.4,1.8c0.3-1.7,0.7-3.3,1-5c-2.7-1.8-4.3-2.5-7.4-3.2c-0.9-0.2-1.8-0.4-2.7-0.7
	c-1-0.2-1.9-0.5-2.9-0.7c-10.4-2.6-20.6-5.6-30.9-8.7c-8.9-2.7-17.3-4.9-26.6-5.6c-9.5-0.9-18.4-2.7-27.6-5.1
	c-26.8-6.9-26.8-6.9-54-12c-1.1-0.2-2.2-0.3-3.3-0.5C1163.9,1097.3,1163.9,1097.3,1129.4,1101.8z M509.4,1105.8c0,0.3,0,0.7,0,1
	c2.6,0,5.3,0,8,0c0-0.3,0-0.7,0-1C514.8,1105.8,512.1,1105.8,509.4,1105.8z M1520.4,1108.8c0,0.3,0,0.7,0,1c2.6,0,5.3,0,8,0
	c0-0.3,0-0.7,0-1C1525.8,1108.8,1523.1,1108.8,1520.4,1108.8z M582.4,1111.8c4,1,4,1,4,1L582.4,1111.8z M471.5,1113.8
	c-1.2,0.3-1.2,0.3-2.4,0.6c-0.6,0.1-1.2,0.3-1.8,0.4c2.2,2.6,3.8,3.5,7.2,4.1c1.2,0.2,1.2,0.2,2.5,0.5c0.9,0.2,1.8,0.3,2.7,0.5
	c0.9,0.2,1.9,0.3,2.8,0.5c9.7,1.7,19.4,3.2,29.2,4.5c1.4,0.2,1.4,0.2,2.8,0.4c21.4,2.9,42.8,4.8,64.4,6.4c3.5,0.3,6.9,0.6,10.4,0.8
	c25,2,49.9,2.5,75,2.3c0-0.3,0-0.7,0-1c-7.4-1.2-14.7-2.4-22.1-3.6c-2.5-0.4-5-0.8-7.5-1.2c-30.3-5-60.6-8.4-91.2-11.1
	c-2.9-0.2-5.7-0.5-8.6-0.8c-13.8-1.2-27.5-2.4-41.3-3.5c-1.1-0.1-2.1-0.2-3.2-0.3C481,1112.6,481,1112.6,471.5,1113.8z
	 M588.4,1112.8c0,0.3,0,0.7,0,1c2.6,0,5.3,0,8,0c0-0.3,0-0.7,0-1C593.8,1112.8,591.1,1112.8,588.4,1112.8z M598.4,1113.8
	c0,0.3,0,0.7,0,1c1.9,0.3,1.9,0.3,3.8,0.5c23.5,3.3,47,6.8,70.4,11.2c16.8,3.3,16.8,3.3,33.8,4.3c-3.1-1.7-5.9-2.5-9.4-3.2
	c-1.1-0.2-2.2-0.4-3.3-0.6c-1.2-0.2-2.4-0.4-3.6-0.7c-1.8-0.3-1.8-0.3-3.7-0.7c-3.3-0.6-6.6-1.2-10-1.8c-2.1-0.4-4.1-0.8-6.2-1.1
	c-16.3-3-32.6-5.8-49.1-7.6c-1.1-0.1-1.1-0.1-2.2-0.2C612.1,1114.2,605.3,1113.6,598.4,1113.8z M666.4,1134.8c0,0.3,0,0.7,0,1
	c1.7,0,3.3,0,5,0c0-0.3,0-0.7,0-1C669.7,1134.8,668.1,1134.8,666.4,1134.8z M764.4,1139.8c2.8,1.5,5.3,2.4,8.4,3.1
	c1.3,0.3,1.3,0.3,2.6,0.6c0.9,0.2,1.9,0.4,2.8,0.6c1,0.2,2,0.4,3,0.6c2.1,0.4,4.2,0.9,6.3,1.3c3.1,0.7,6.2,1.3,9.3,2
	c10.3,2.2,20.7,4.3,31.1,6.1c1.4,0.3,1.4,0.3,2.8,0.5c5.3,0.9,10.3,1.3,15.6,1.2c0-0.7,0-1.3,0-2c-0.6-0.1-1.1-0.2-1.7-0.3
	c-4.8-0.9-9.6-1.8-14.4-2.6c-4.5-0.8-9-1.7-13.5-2.5c-19.3-3.5-19.3-3.5-28.5-5.3c-1.2-0.2-2.5-0.5-3.8-0.7
	c-2.2-0.4-4.4-0.8-6.5-1.3C773.4,1140.2,769.1,1139.6,764.4,1139.8z"/>
<path d="M994.7,607.7c5.2,0,10.4,0,15.5,0c22.1,0,44.3,0.1,66.4,0.6c1.5,0,1.5,0,3,0.1c10.8,0.2,21.6,0.5,32.5,1
	c11.1,0.5,22.1,0.5,33.2,0.4c53.7-0.2,107.3,0.9,160.8,5.4c1.2,0.1,2.4,0.2,3.7,0.3c45.9,3.9,45.9,3.9,64.2,7.7
	c1.1,0.2,2.2,0.4,3.3,0.7c35.4,7.2,67.4,20.9,93,46.9c0.7,0.7,1.4,1.3,2.1,2c13.7,13.2,23,29.5,31.1,46.6c0.7,1.4,1.3,2.7,2,4.1
	c14.7,30.9,27.7,62.3,38.8,94.7c0.9,2.6,1.8,5.1,2.7,7.7c9.4,27.3,17.8,54.7,25.1,82.6c0.7,2.6,1.4,5.2,2.1,7.8
	c1.2,4.6,2.4,9.2,3.7,13.8c2.1,7.8,4.1,15.7,6.2,23.5c0.9,3.2,1.7,6.5,2.6,9.7c0.5,2,1.1,4,1.6,6c3.6,13.6,7.1,27.3,10.5,41
	c0.5,2.1,1,4.2,1.6,6.3c1.3,0,2.6,0,4,0c0.1-0.8,0.2-1.6,0.4-2.4c0.4-2.3,0.7-4.6,1.1-6.9c0.4-2.4,0.7-4.8,1-7.2
	c1.2-9.1,2.9-16.3,10.4-22.1c13.6-8.7,30.4-9.9,46.2-10.4c1.6-0.1,1.6-0.1,3.2-0.1c19-0.4,41.9,0.8,56.8,13.9
	c9.7,10,11,24.7,11.2,38c-0.2,10.5-2.4,18.1-9.8,25.9c-25.7,19.4-78.7,18.7-109.1,15.3c-0.9-0.1-1.8-0.2-2.7-0.3
	c-2.2-0.2-4.4-0.5-6.6-0.7c1.5,12.7,8.8,20.7,17,30c11.5,13.1,21.8,27.1,31,42c0.8,1.3,1.7,2.6,2.5,3.9
	c9.3,14.4,17.9,29.3,26.5,44.1c0.7,1.3,0.7,1.3,1.5,2.6c5.2,9,10,18.1,14.6,27.5c0.9,1.9,1.9,3.8,2.8,5.7c0.6,1.2,1.1,2.3,1.7,3.5
	c0.5,1,1,2,1.5,3.1c0.8,2.7,0.8,2.7,0,5c-0.4,0.5-0.8,1.1-1.1,1.6c-1.3,0-2.6,0-4,0c-4.1-5.4-6.9-11.7-9.9-17.7
	c-6-12.1-13.1-23.4-20.6-34.7c-3.6-5.4-7-10.9-10.3-16.5c-4.3-7.4-9.1-14.4-14-21.3c-1-1.4-2-2.9-3-4.3c-8-11.6-16.2-23.2-25.6-33.9
	c-11.8-13.6-19.9-26.3-21.7-44.6c0.9-2.8,1.4-3.7,4-5c1.5-0.1,3.1-0.1,4.6-0.1c0.8,0,1.6,0,2.5,0s0.9,0,1.9,0c-0.3-1-0.6-2-0.9-3
	c-1.2-4.1-1.7-8.2-2.2-12.5c-0.1-1.1-0.1-1.1-0.3-2.2c-0.2-1.8-0.4-3.6-0.6-5.3c-0.6-0.2-1.2-0.3-1.8-0.5c-0.8-0.2-1.6-0.5-2.4-0.7
	c-0.8-0.2-1.6-0.4-2.4-0.7c-4.2-2-6-5.2-7.7-9.5c-0.4-1.3-0.8-2.5-1.1-3.8c-0.2-0.7-0.4-1.4-0.6-2.1c-2.4-8.3-4.5-16.6-6.6-25
	c-0.4-1.7-0.9-3.4-1.3-5.2c-0.9-3.6-1.8-7.2-2.7-10.9c-1.4-5.7-2.8-11.3-4.3-17c-0.5-1.9-0.9-3.8-1.4-5.6c-0.2-0.9-0.5-1.8-0.7-2.8
	c-1.1-4.5-2.3-9.1-3.4-13.6c-0.3-1.3-0.3-1.3-0.6-2.6c-1.2-4.8-2.4-9.6-3.6-14.4c-6.4-25.4-13.9-50.2-22.2-74.9
	c-1-2.8-1.9-5.7-2.8-8.5c-23.3-70.5-23.3-70.5-59.1-135.3c-0.6-0.9-1.3-1.9-1.9-2.9c-26.4-37.7-66-53.8-109.9-61.7
	c-23.3-3.9-47.1-5.3-70.7-7.2c-3.5-0.3-6.9-0.6-10.4-0.8c-2.2-0.2-4.4-0.4-6.7-0.5c-1-0.1-2-0.2-3-0.2c-44.7-3.6-89.8-2.9-134.6-3.2
	c-8.5-0.1-17-0.1-25.4-0.2c-1.2,0-2.4,0-3.6,0c-13.2-0.1-26.5-0.3-39.7-0.8c-21.9-0.8-43.9-0.6-65.9-0.6c-6.2,0-12.5,0-18.7,0
	c-25.4,0-50.8,0.1-76.2,0.8c-10.6,0.3-21.1,0.4-31.7,0.4c-42.3,0-84.5,2.1-126.7,4.7c-2.2,0.1-4.5,0.3-6.7,0.4
	c-9.3,0.6-18.5,1.1-27.8,1.7c-2,0.1-3.9,0.2-5.9,0.4c-25,1.6-50.2,3.2-74.8,7.5c-0.7,0.1-1.5,0.2-2.2,0.4
	c-43.6,7.5-85.1,25.9-111.9,62.6c-0.5,0.8-1.1,1.5-1.7,2.3c-1.1,1.5-1.1,1.5-2.3,3.1c-10,13.6-17.9,28-25.6,43
	c-1.9,3.7-3.8,7.3-5.8,11c-7.5,13.8-13.7,28.1-19.8,42.6c-1.3,3-2.6,6-4,9c-7.4,16.2-13.8,33-20.2,49.7c-0.6,1.6-1.3,3.3-1.9,4.9
	c-4.5,11.6-8.6,23.3-12.4,35.1c-0.8,2.6-1.7,5.2-2.6,7.8c-9.1,27.2-17.7,54.6-24.7,82.4c-0.2,0.8-0.4,1.6-0.6,2.4
	c-1,3.8-1.9,7.6-2.8,11.4c-5.1,20.9-5.1,20.9-11,26.5c-3.6,1.4-6.3,1.3-10.1,1.3c-0.2,1.2-0.4,2.4-0.6,3.7c-0.3,1.6-0.5,3.2-0.8,4.9
	c-0.2,1.2-0.2,1.2-0.4,2.4c-0.8,4.8-1.8,9.4-3.2,14c0.7,0,1.4-0.1,2.1-0.1c0.9,0,1.8-0.1,2.7-0.1s1.8-0.1,2.7-0.1
	c2.5,0.3,2.5,0.3,4.3,1.3c2.2,3.8,1.6,8,0.7,12.1c-0.6,2.3-1.3,4.4-2,6.7c-0.3,0.8-0.5,1.6-0.8,2.4c-2.6,7.2-6.4,12.4-11.8,17.8
	c-0.7,0.7-1.3,1.4-2,2.1c-1.3,1.3-2.6,2.6-4,3.9c-4,4.1-7.5,8.6-11,13.1c-0.5,0.7-1,1.3-1.6,2c-8,10.1-15.7,20.4-23.1,31.1
	c-2.1,3-4.3,6-6.4,9c-5.4,7.6-10.7,15.2-15.9,22.9c-0.5,0.8-1.1,1.6-1.6,2.4c-7.9,11.6-15.4,23.4-22.4,35.5
	c-0.7,1.2-0.7,1.2-1.5,2.5c-1,1.8-2,3.6-3,5.4c-0.5,0.9-1,1.8-1.6,2.8c-0.5,0.8-0.9,1.6-1.4,2.5c-1.5,1.9-1.5,1.9-3.5,2.8
	c-1,0-1,0-1.9,0.1c-0.7-0.7-1.3-1.3-2-2c0.2-5.7,3-10.4,5.6-15.3c0.5-0.9,1-1.8,1.5-2.7c9-16.7,19-32.9,29.5-48.8
	c1.6-2.4,3.2-4.8,4.8-7.3c7.1-10.8,14.4-21.4,22.1-31.8c1.6-2.1,3.1-4.3,4.7-6.4c5.5-7.5,11.2-14.5,17.5-21.2c2.3-2.4,4.3-5,6.4-7.6
	c5-5,5-5,6.7-6.6c5.6-5.7,7.4-11.7,9.3-19.4c-1.8,0.1-1.8,0.1-3.6,0.3c-30.8,2.1-63.9-0.2-94-7.1c-1-0.2-2-0.4-3-0.7
	c-9.3-2.3-18.1-6.3-23.4-14.5c-2.9-6.5-3.5-12.6-3.4-19.6c0-1,0-1.9,0-2.9c0.3-11.7,1.7-23.9,10.4-32.5c0.9-0.9,0.9-0.9,1.8-1.9
	c14.2-13.7,34.9-14.4,53.5-14.4c0.7,0,1.4,0,2.1,0c41.4,0.1,41.4,0.1,54.2,12.6c4.4,5.5,6.4,11.5,6.6,18.6c0.1,1.4,0.1,1.4,0.1,2.8
	c0.1,1.9,0.1,3.9,0.2,5.8c0.1,1.4,0.1,1.4,0.1,2.8c0,0.8,0.1,1.7,0.1,2.5c0.1,2.4,0.1,2.4,1.2,5.2c1.3-0.3,2.6-0.7,4-1
	c1.2-4.3,2.5-8.6,3.7-12.9c0.4-1.6,0.9-3.1,1.3-4.7c2.6-9,5.2-18.1,7.6-27.1c0.2-0.8,0.4-1.6,0.7-2.4c1-3.8,2.1-7.6,3.1-11.3
	c2.7-10,6-19.8,9.6-29.5c0.4-1.1,0.8-2.2,1.2-3.3c0.7-2,1.4-3.9,2.2-5.9c3.7-10,7.1-20,10-30.2c2.7-9.4,6.2-18.5,9.6-27.6
	c0.3-0.8,0.6-1.6,0.9-2.4c16.9-44.7,35.4-89,59.1-130.6c0.6-1,1.1-2,1.7-3.1c9.1-15.9,18.4-31,30.3-44.9c0.6-0.7,1.2-1.5,1.8-2.2
	c4-4.8,8.3-8.8,13.2-12.8c0.5-0.4,1-0.8,1.5-1.2c8.1-6.6,16.4-12.6,25.5-17.8c0.6-0.3,1.2-0.7,1.8-1c57.5-32.9,136-31.9,200.4-34.3
	c1.7-0.1,3.4-0.1,5.1-0.2c0.9,0,1.8-0.1,2.7-0.1c5.7-0.2,11.4-0.5,17.1-0.9c21.8-1.3,43.4-1.9,65.2-2.1c6.7-0.1,13.4-0.1,20.1-0.2
	c1.7,0,3.4,0,5.1,0c13-0.1,26-0.4,39-0.7C947.5,607.8,971.1,607.6,994.7,607.7z M266.7,989.2c-6.7,8.5-6.5,23.2-6.6,33.7
	c0,0.8,0,1.5-0.1,2.3c0,4.9,0.5,8.3,3.3,12.5c17.9,17.3,60.7,14.1,83.3,14.3c1.8,0,1.8,0,3.6,0.1c8.1,0.1,8.1,0.1,15.1-3.4
	c8.5-12.9,6.4-37.9,3.7-52.4c-1.5-5.6-4.2-8.5-8.9-11.7C336.4,971.2,287.3,970.6,266.7,989.2z M1620.5,988.5
	c-9.3,11.9-7,34.3-5.8,48.7c0.6,4.5,1.3,7,4.1,10.7c15.4,11,55.6,1.9,73.6-0.8c9.6-1.6,20.7-3.5,28-10.3c7.3-12.1,4.2-28.6,1.4-41.7
	c-1.6-5.8-4.4-9.2-9.4-12.3c-4.9-2.3-9.5-3.8-14.8-4.7c-0.7-0.1-1.5-0.3-2.2-0.4c-7.8-1.2-15.4-1.4-23.3-1.3c-2.4,0-4.7,0-7.1,0
	C1649.7,976.4,1632.4,977.7,1620.5,988.5z"/>
<path d="M1085.4,794.8c-1.4,4-3.2,6.7-5.9,9.9c-4.2,5.7-6,11.1-7.6,18c-0.6,2.3-1.2,4.7-1.8,7c-5.5,17.2-5.5,17.2-2.7,34.1
	c8.7,4.4,19.5,4.2,29,4c1.9,0,3.8,0,5.7,0c2.9,0,5.9-0.1,8.8-0.1s5.7,0,8.6-0.1c1.3,0,1.3,0,2.6,0c5.4,0,10,0.7,15.2,2.2
	c0.3,1.3,0.7,2.6,1,4c-6.8,3.2-14.3,3.1-21.7,3.3c-0.8,0-1.6,0-2.4,0.1c-3.4,0.1-6.8,0.1-10.2,0.2c-2.5,0.1-5,0.1-7.5,0.2
	c-0.8,0-1.5,0-2.3,0c-3.4,0.1-6.6,0.2-9.9,1.2c0,0.7,0,1.3,0,2c1.1,0.1,2.1,0.2,3.2,0.4c1.4,0.2,2.8,0.3,4.2,0.5
	c0.7,0.1,1.4,0.2,2.1,0.2c5.3,0.7,5.3,0.7,7.5,2.9c-4.1,2.8-7.8,3.7-12.7,4.4c-1.5,0.2-3,0.5-4.5,0.7c-2.4,0.4-4.7,0.7-7.1,1.1
	c-19.1,2.9-37.1,8-49.7,23.8c-8.3,13.1-11.7,29.2-15.5,44.1c-0.4,1.6-0.8,3.1-1.2,4.7c-3.5,14-7,28-9.6,42.3
	c-0.2,1.2-0.4,2.4-0.7,3.7c-0.4,2.3-0.8,4.7-1.2,7c-1.1,6.6-2.8,12.3-5.9,18.3c-0.7,0-1.3,0-2,0c-0.5-10.3,0.1-20.2,1.6-30.4
	c0.2-1.2,0.4-2.3,0.5-3.5c1.9-12,4.3-23.9,7-35.7c0.8-3.6,1.6-7.1,2.3-10.7c9.7-44.3,9.7-44.3,31.4-58.8c9.1-5.4,19.1-8.4,29.2-11
	c1.2-0.3,2.5-0.6,3.8-1c1.1-0.3,2.2-0.5,3.3-0.8c3.4-1.4,4.2-2.9,5.7-6.2c-0.6-0.1-1.3-0.3-1.9-0.4c-6.7-1.7-11.7-4.1-16.1-9.6
	c-5-9.1-3.1-19-0.8-28.6c0.2-1,0.5-1.9,0.7-2.9c7.6-31.4,7.6-31.4,21.1-40.5C1082.4,793.8,1082.4,793.8,1085.4,794.8z"/>
<path d="M1348.2,786.9c2.2,1.2,4.2,2.4,6.2,3.9c1.1,0.8,2.1,1.5,3.3,2.3c5.7,5.6,8.6,12.1,10.8,19.7c0.2,0.9,0.5,1.7,0.8,2.6
	c1.9,6.9,3.3,13.9,4.6,20.9c0.2,1,0.3,1.9,0.5,2.9c1.5,9.5,3.2,20.9-1.9,29.6c-6.4,7.3-13,9.2-22.3,10.5c-1.6,0.2-3.3,0.5-4.9,0.7
	c-0.8,0.1-1.6,0.2-2.5,0.4c-2.2,0.4-4.4,0.9-6.6,1.5c-6.4,1.5-12.8,1-19.2,0.7c-0.7,0-1.3,0-2-0.1c-9.7-0.4-19.3-1-29-2.1
	c-1.1-0.1-2.1-0.2-3.2-0.3c-5.9-0.7-11-1.8-16.4-4.3c-0.7-1-1.3-2-2-3c3.7-2.4,7-2.2,11.3-2.2c0.7,0,1.5,0,2.2,0c1.6,0,3.2,0,4.8,0
	c2.5,0,5,0,7.6,0c6.3,0,12.5,0.1,18.8,0.1c5.3,0,10.6,0.1,15.9,0.1c2.5,0,4.9,0,7.4,0.1c15.7,0.9,15.7,0.9,29.4-4.6
	c5.6-8.3,3.4-22.4,1.8-31.8c-1.2-6-2.5-11.9-4-17.8c-0.2-0.7-0.3-1.4-0.5-2.1c-1.8-7.1-4.4-13.5-10.5-17.9
	c-7.9-3.6-17.2-3.6-25.7-4.2c-4.9-0.4-8.3-0.8-12.3-3.8c0.2-1.9,0.2-1.9,1-4C1321.6,779.6,1337.9,782.8,1348.2,786.9z"/>
<path d="M758.4,746.8c0.3,2.2,0.3,2.2,0,5c-2,2.3-2,2.3-4.7,4.6c-0.9,0.7-1.7,1.5-2.6,2.3c-1.7,1.4-3.5,2.8-5.3,4.2
	c-10.9,9.1-16.3,25.4-21.8,38.2c-3.6,8.3-7.9,16.1-12.6,23.8c29.2-19.7,42.7-35.6,51-70c1.3,0.3,2.6,0.7,4,1c1,17.4-3.7,34.4-15,48
	c-3.5,3.8-7.3,6.9-11.5,9.9c-0.6,0.5-1.3,0.9-1.9,1.4c-5.8,4.2-11.8,8.2-17.7,12.2c-0.9,0.6-1.8,1.2-2.7,1.8s-1.7,1.1-2.6,1.7
	c-0.8,0.5-1.5,1-2.3,1.5c-2.4,1.4-4.7,2.4-7.3,3.3c-2-2.2-3.8-4.3-5-7c0.5-2.8,1.5-4.5,3-7c0.7,0,1.3,0,2,0c1.6-2.3,3-4.5,4.4-6.9
	c0.7-1.1,0.7-1.1,1.3-2.2c4.5-7.9,7.9-16.1,11.2-24.5C727,776.6,742.8,746.8,758.4,746.8z"/>
<path d="M835.8,903.7c0.9,0.7,1.7,1.4,2.6,2.1c0.8,0.6,1.5,1.1,2.3,1.7c2.6,3.5,3,7,2.7,11.3c-2.2,4.5-5.1,5.7-9.7,7.3
	c-4.1,1.2-8.3,1.8-12.5,2.4c-0.9,0.1-1.8,0.2-2.8,0.4c-18.3,2.3-18.3,2.3-23.1-0.1c-2.8-2.2-4.7-4.3-5.2-7.8
	c-0.3-5.8,0.8-9,4.6-13.4C805.6,896.4,822.9,896.3,835.8,903.7z M804.4,921.8c4,1.3,7.4,0.7,11.4,0.2c0.8-0.1,1.5-0.2,2.3-0.3
	c3.8-0.5,7-0.9,10.2-2.9C820.2,914.8,810.9,913.8,804.4,921.8z"/>
<path d="M645.3,721.6c3.6,3.8,5,6.9,5.6,12.1c-0.3,5.9-2.5,10.2-6.6,14.3c-1.6,1.4-3.2,2.7-4.8,4.1c-2.2,1.8-2.2,1.8-4,4.8
	c-0.1,2.3,0.1,4.5,0.2,6.8c-0.2,2.2-0.2,2.2-1.5,3.9c-2.6,2-4.5,1.7-7.7,1.2c-3.3-1.9-4.7-3.4-6.4-6.8c-0.8-4.7,0-8,2.7-12
	c3.4-4.2,7.4-8.1,11.8-11.2c0.7,0,1.3,0,2,0c1.1-4,1.1-4,0-7.8c-3.7-2.2-7.2-2.6-11.4-1.6c-4.7,1.5-4.7,1.5-8.6,4.5
	c-0.3,1.2-0.7,2.3-1,3.5c-1,3.5-1,3.5-3,5.5c-2.9,0.4-2.9,0.4-6,0c-2.4-2.1-2.4-2.1-4-5c-0.2-5.5,1.8-9,5.1-13.1
	C617.7,714.5,633.4,714.2,645.3,721.6z"/>
<path d="M780.4,752.8c3.4,0.6,5.2,1.7,7.7,4.1c1.1,0.9,1.1,0.9,2.1,1.9c1.4,1.3,2.8,2.6,4.3,4c10.7,9.9,22.3,15.4,35.9,20
	c-5.1-3.5-10.2-6.7-15.6-9.7c-8.5-4.7-17.4-10.4-24.4-17.3c0-1,0-2,0-3c5.1,0.5,8.5,2.2,12.6,5.1c1.3,0.8,2.5,1.7,3.8,2.5
	c0.6,0.4,1.2,0.8,1.9,1.3c8.5,5.6,17.3,10.7,26,15.9c0.9,0.5,1.8,1.1,2.8,1.7c9.3,5.5,18.2,9.9,28.5,13c18.4,5.8,18.4,5.8,23.6,13.6
	c0,0.7,0,1.3,0,2c-4.1-0.6-7.5-2-11.3-3.8c-11.1-4.9-22.4-8-34.1-10.7c-23.6-5.5-48-14.8-62.6-35.4
	C780.4,755.8,780.4,755.8,780.4,752.8z"/>
<path d="M861.4,752.8c-1.5,0.5-1.5,0.5-3,1c-0.7,2-0.7,2-1,4c-1.1-0.6-2.2-1.2-3.3-1.8c-8.7-4.8-17-8.9-26.7-11.2
	c-1-0.2-1.9-0.4-2.9-0.7c-10.9-2.1-22.1-1.5-33.1-1.3c4.9,1,9.8,2,14.6,2.9c15.4,2.9,31.7,6,45.4,14.1c-2,3-2,3-3.8,3.8
	c-3,0.2-4.8-0.7-7.6-1.9c-8.7-3.5-17.6-5.4-26.8-7.3c-2.8-0.6-5.5-1.2-8.3-1.8c-11.7-2.5-22.7-3.3-34.6-2.8c0-1.3,0-2.6,0-4
	c2-1,4-2,6-3c0-1.3,0-2.6,0-4C802.8,728.9,838.4,738.3,861.4,752.8z"/>
<path d="M1468.4,813.8c1.8,0.5,1.8,0.5,4,2c1.1,2.6,2,5,2.7,7.8c0.2,0.8,0.5,1.7,0.8,2.5c0.9,2.9,1.7,5.8,2.5,8.7
	c0.3,1.1,0.6,2.2,0.9,3.3c2.5,8.8,4.9,17.7,7.4,26.5c8.6,32.4,8.6,32.4,18.8,64.4c0.9,3.1,0.8,4.7-0.1,7.8c-6.9-3.3-9.1-9.2-12-16
	c-1.6-4.5-2.8-9.1-4.1-13.7c-0.4-1.4-0.7-2.7-1.1-4c-1.1-3.9-2.1-7.7-3.1-11.6c-0.8-2.9-1.5-5.8-2.3-8.6c-3.1-11.5-6.1-23-9.2-34.5
	c-1.2-4.7-2.5-9.3-3.8-14c-0.2-0.9-0.5-1.7-0.7-2.6c-0.4-1.6-0.9-3.2-1.4-4.8c-1.2-4.4-1.6-7.7-0.4-12.1
	C1467.7,814.5,1468.1,814.1,1468.4,813.8z"/>
<path d="M414,1136.7c0.8,0,1.6,0.1,2.4,0.1c0.8,2.2,1.2,3.5,0.4,5.8c-0.4,0.6-0.8,1.3-1.2,1.9c-0.5,0.8-0.9,1.6-1.4,2.4
	c-0.6,1-1.2,1.9-1.8,2.9c-8.5,14.2-16,28.4-22.7,43.6c-8.7,19.7-8.7,19.7-13.9,29.1c-0.4,0.7-0.8,1.5-1.2,2.2
	c-1.9,3.4-3.4,5.9-7.2,7.1c-1-0.7-2-1.3-3-2c0.1-5.1,1.6-8.2,4.3-12.5c3.1-5,5-9.9,6.8-15.5C379.7,1188.1,398,1137.4,414,1136.7z"/>
<path d="M1601.4,1116.8c6.8,1.6,10.3,7.4,13.9,12.9c5.9,9.8,10.4,20.2,15,30.6c5,11.1,10.3,22,15.9,32.7c4.7,9.1,9.4,18.1,13.6,27.5
	c0.5,1.2,0.5,1.2,1.1,2.4c2.8,6.5,2.8,6.5,3.4,9.8c-1.2,1.8-1.2,1.8-3,3c-2,0-2,0-4-1c-2.8-4.1-4.7-8.6-6.6-13.1
	c-5.8-13.2-12-26.2-18.5-39.1c-4.3-8.5-8.3-17.2-12.1-25.9c-4.7-10.5-9.6-20.7-15.3-30.6c-0.4-0.8-0.9-1.6-1.3-2.4
	c-0.4-0.7-0.8-1.4-1.2-2.1C1601.4,1119.8,1601.4,1119.8,1601.4,1116.8z"/>
<path d="M1050.4,869.8c0,1,0,2,0,3c-5.5,1.6-10.2,2.2-15.9,2c-1.6-0.1-3.2-0.1-4.8-0.2c-0.9,0-1.7-0.1-2.6-0.1
	c-14.7-0.5-29.5-0.8-44.2-0.8c-0.7,0-1.4,0-2.1,0c-7.1,0-14.2,0-21.3,0.1c-27.2,0.1-27.2,0.1-40-1c0.3-0.7,0.7-1.3,1-2
	c2.2-0.6,2.2-0.6,5.2-1c1.1-0.2,2.2-0.3,3.3-0.5c1.2-0.2,2.4-0.3,3.7-0.5c1.9-0.3,1.9-0.3,3.8-0.5
	C1021.2,857,1021.2,857,1050.4,869.8z"/>
<path d="M693.4,773.8c-0.4,5.3-3.4,8.7-6.5,12.8c-12.4,17.1-21.4,36.3-30,55.5c-21.2,47.3-21.2,47.3-32.5,58.7c-1,0-2,0-3,0
	c-1-2.7-1.1-3.7,0-6.4c0.8-1.3,0.8-1.3,1.6-2.7c0.6-1,1.1-2,1.7-3c0.9-1.5,0.9-1.5,1.8-3.1c1.2-2,2.3-4,3.5-6c0.6-1,1.1-2,1.7-3
	c7.6-13,14-26.3,20-40.1C679.1,773.8,679.1,773.8,693.4,773.8z"/>
<path d="M834.4,995.8c1,0.3,2,0.7,3,1c-1.2,9.3-9.6,16.8-15.7,23.5c-2.4,2.6-4.6,5.4-6.8,8.2c-7.1,8.7-15.5,14.9-24.6,21.3
	c-2.9,1.9-2.9,1.9-4.9,4.1c0.4,4.4,1.1,8.7,2,13c-1-0.5-1-0.5-2-1c0-1,0-2,0-3c-1.7,1.3-3.3,2.6-5,4c-1-2.6-2-5.3-3-8
	c-4.2,1.1-7.7,2.9-11.4,5c-4.2,2.3-7.9,4.1-12.6,5c-0.7-0.3-1.3-0.7-2-1c0.4-2.4,0.6-3.7,2.5-5.3c0.6-0.4,1.3-0.7,1.9-1.1
	c1.1-0.6,1.1-0.6,2.2-1.3c0.8-0.4,1.6-0.9,2.4-1.3c1.7-1,3.3-1.9,5-2.9c1.3-0.8,1.3-0.8,2.7-1.5c21.1-12.3,39-25.6,54.2-44.9
	C826.1,1004.7,830.3,1000.3,834.4,995.8z"/>
<path d="M1177.9,1187.6c1.4,0.2,2.9,0.4,4.3,0.6c0.8,0.1,1.6,0.2,2.5,0.3c5.3,0.7,10.5,1.3,15.8,1.9c1.6,0.2,1.6,0.2,3.2,0.4
	c14.5,1.7,29,2.3,43.6,2.5c2.1,0,4.2,0.1,6.3,0.1c1.8,0,1.8,0,3.7,0.1c3,0.3,4.7,0.8,7.2,2.3c-0.3,1.7-0.7,3.3-1,5
	c-6.2,0.1-12.4,0.1-18.6,0.1c-2.1,0-4.2,0-6.3,0c-18.3,0.1-36.1-1.1-54.1-4.1c-1-0.2-2-0.3-3.1-0.5c-4.9-0.8-8.9-1.5-13-4.6
	c0.4-1.9,0.4-1.9,1-4C1172.4,1186.3,1174.6,1187.1,1177.9,1187.6z"/>
<path d="M1591.4,1151.8c2.3,0.1,2.3,0.1,5,1c11.5,18.1,15.8,41.8,20.5,62.5c0.2,0.7,0.3,1.4,0.5,2.1c0.8,3.5,1.4,6.8,1,10.4
	c-2,2-2,2-4.5,2.3c-0.8-0.1-1.7-0.2-2.5-0.3c-2.1-3.2-2.7-5.4-3.4-9.1c-0.3-1.3-0.5-2.5-0.8-3.8c-0.2-1-0.2-1-0.4-2
	c-3.5-16.7-7.7-33.2-13.5-49.3c-0.6-1.6-0.6-1.6-1.1-3.2c-0.3-0.9-0.7-1.9-1.1-2.9C1590.3,1156.5,1590.6,1154.7,1591.4,1151.8z"/>
<path d="M375.4,1125.8c-3,10.1-10,18.2-16.5,26.3c-4.6,5.7-8.9,11.6-13.2,17.5s-8.6,11.7-13,17.5c-2.8,3.8-5.6,7.6-8.3,11.4
	c-4.2,6-8.4,11.6-14,16.3c-0.3,0-0.7,0-1,0c-0.8-12,11.1-23.8,18-33c0.5-0.7,1.1-1.4,1.6-2.1c9-11.9,18.2-23.4,27.9-34.6
	c4-4.6,7.8-9.3,11.6-14C372.9,1125.8,372.9,1125.8,375.4,1125.8z"/>
<path d="M1172.4,751.8c2.4,0.2,2.4,0.2,5,1c3.3,5.2,2.7,11.3,1.5,17.2c-1.8,7.6-4,15.2-6.4,22.6c-1.1,3.7-1.4,6.4-0.1,10.2
	c3.6,1.8,7.8,0.4,11.7,0c3.7,0,5.3,0.9,8.3,3c-0.3,1-0.7,2-1,3c-7.1,3-14.5,5.3-22,3c-3.4-2.1-5.7-4.1-7-8
	c-0.8-7.6,1.8-13.4,4.5-20.4c3.5-9.5,5.5-17.5,4.7-27.7c-0.1-1-0.1-1.9-0.2-2.9C1171.7,752.5,1172.1,752.1,1172.4,751.8z"/>
<path d="M1204.4,833.8c0.7,0.7,1.3,1.3,2,2c-0.2,2.8-0.9,3.9-2.8,6c-8.6,7.6-14,9.6-25.6,9.3c-5.7-0.5-9.3-1.9-13.2-6
	c-1.4-1.8-2.5-3.2-3.4-5.3c0.5-3.5,0.5-3.5,2-5c1.1,0.1,2.3,0.3,3.4,0.4C1179.5,836.8,1192.5,832.4,1204.4,833.8z M1174.4,842.8
	c3.7,2.4,6.7,2.6,11,2c1.3-0.7,2.6-1.3,4-2C1184.5,842.8,1179.5,842.8,1174.4,842.8z"/>
<path d="M688.4,872.8c1,0,2,0,3,0c0.3,6.8-0.8,12.9-2.2,19.5c-0.2,1.1-0.5,2.2-0.7,3.3c-0.5,2.3-0.9,4.5-1.4,6.8
	c-0.7,3.3-1.3,6.6-2,10c-4.8,24.7-4.8,24.7-11.7,33.4c-3-1-3-1-3.8-2.6c-0.2-3.6,1.2-6.5,2.4-9.8c3-8.3,4.9-16.6,6.6-25.2
	c0.2-1.3,0.5-2.5,0.8-3.8c0.5-2.4,1-4.9,1.4-7.3c0.9-4.3,1.8-8.5,2.9-12.8c0.3-1.2,0.6-2.3,0.9-3.5
	C685.4,877.7,686.5,875.4,688.4,872.8z"/>
<path d="M671.4,1204.8c0,1.3,0,2.6,0,4c-12.4,9.8-37.5,7.3-52.1,5.6c-8.1-1.2-15.7-2.7-22.9-6.6c0-0.7,0-1.3,0-2
	c2.4,0.1,4.9,0.3,7.3,0.4c0.7,0,1.5,0.1,2.2,0.1c3.9,0.2,7.8,0.6,11.8,1c11.3,1,22.7,0.9,33.9-0.4c1-0.1,1-0.1,2.1-0.2
	c3.3-0.4,6.3-1.1,9.5-2C666.5,1203.8,668.2,1203.8,671.4,1204.8z"/>
<path d="M562.4,1176.8c8.4,0.4,16.5,2.1,24.7,4c11.2,2.5,22.3,4.8,33.9,5.4c5.1,0.3,8.8,1.3,13.4,3.6c0,0.7,0,1.3,0,2
	c-5.8,1.7-10.7,2.3-16.7,1.9c-1.2-0.1-1.2-0.1-2.5-0.1c-18.2-1.4-36.8-7.1-52.8-15.8C562.4,1177.5,562.4,1177.1,562.4,1176.8z"/>
<path d="M532.4,847.8c3,1,3,1,4.3,2.6c1.8,5.8-0.7,13.1-2.1,18.9c-0.2,0.8-0.4,1.6-0.6,2.4c-0.4,1.6-0.8,3.3-1.2,4.9
	c-0.4,1.7-0.8,3.3-1.2,5c-0.6,2.4-1.2,4.8-1.7,7.2c-0.2,0.7-0.3,1.5-0.5,2.2c-1.3,5.1-3,7.5-6.9,10.9c-1-0.3-2-0.7-3-1
	c-0.3-6.4,0.7-11.9,2.3-18.1c0.2-0.9,0.5-1.9,0.7-2.8c0.5-2,1-3.9,1.5-5.9c0.8-3,1.6-6,2.3-9.1c0.5-1.9,1-3.8,1.5-5.8
	c0.2-0.9,0.5-1.8,0.7-2.7c0.2-0.8,0.4-1.7,0.7-2.5c0.2-0.7,0.4-1.5,0.6-2.2C530.4,849.8,530.4,849.8,532.4,847.8z"/>
<path d="M851.7,836.7c3.7,2.4,5.1,6.1,6.3,10.1c1,5.2,0,8.4-2.6,13c-3.6,2.4-4.8,2.7-9,2c-3.9-3.4-6.7-7-7.2-12.3
	c-0.2-5.8,0.2-9.2,4.2-13.7C846.9,834.6,848.4,835.1,851.7,836.7z"/>
<path d="M477.4,1028.8c-0.6,5-2.9,8.8-5.4,13.1c-4.4,7.7-8.4,15.5-12.2,23.5c-0.4,0.8-0.8,1.6-1.2,2.4c-0.3,0.7-0.7,1.4-1,2.1
	c-1.2,2-2.3,3.4-4.1,4.9c-2.2-0.3-2.2-0.3-4-1c-0.8-7,1.9-12.1,5-18.3c0.5-1,1-2,1.5-3.1C467.7,1028.8,467.7,1028.8,477.4,1028.8z"
	/>
<path d="M777.4,846.8c3.6,3,5.8,6.6,6.2,11.3c0.2,8.7,0.2,8.7-3.2,12.7c-3,1.5-4.7,1.5-8,1c-3.8-3.3-6.7-6.9-7.2-12.1
	c-0.1-5.1,0.3-8.5,3.2-12.9C771.7,845.2,773.9,845.9,777.4,846.8z"/>
<path d="M812.4,843.8c0.7,0.3,1.3,0.7,2,1c0.6,2,1.2,3.9,1.8,5.9c2.4,8.1,5.9,14.6,11.6,20.8c2,2.2,2.8,3.5,3.9,6.3
	c-0.2,3.4-1.2,5.2-3.5,7.6c-3.9,3.1-8.1,4.2-13,4.7c-2.7-0.4-2.7-0.4-4.6-1.9c-0.4-0.5-0.7-1-1.1-1.5c3.4-4,7.3-5.9,12-8
	c-0.6-3.8-1.5-6.1-3.8-9.2c-4.9-7.1-8.1-14-7.2-22.8C811.1,845.8,811.7,844.8,812.4,843.8z"/>
<path d="M1215.5,752.6c4,1.6,5,3.3,6.9,7.2c1.5,5.5,1.3,10.1-1,15.3c-1.6,2.7-2.9,3.8-6,4.7c-3.3-0.7-4.6-1-7-3
	c-2.9-4.5-3.3-9-2.5-14.3C1207.3,757.1,1209.4,753,1215.5,752.6z"/>
<path d="M539.4,1007.8c1,0.3,2,0.7,3,1c-0.4,1.4-0.8,2.8-1.3,4.2c-0.3,0.9-0.6,1.9-0.8,2.8c-0.6,1.9-1.2,3.8-1.8,5.6
	c-1.8,5.5-3.3,11-4.5,16.7c-0.3,1.1-0.5,2.3-0.8,3.5c-0.5,2.3-1,4.6-1.5,6.9c-1.4,6.4-2.9,12.4-7.4,17.3c-2.2,1.2-2.2,1.2-4,2
	c0.4-6.1,1.6-11.8,3.3-17.7c1-3.7,2-7.5,2.9-11.3C532.4,1014.1,532.4,1014.1,539.4,1007.8z"/>
<path d="M1221.4,729.4c7.7,2.8,15.9,6.7,21,13.4c-0.2,2.3-0.2,2.3-1,4c-1.7,0.7-1.7,0.7-4,1c-2.6-1.4-2.6-1.4-5.3-3.3
	c-7.8-5.2-14.2-5.9-23.5-6.1c-3.7-0.6-4.9-1.6-7.2-4.5C1204.6,724.8,1213.4,726.9,1221.4,729.4z"/>
<path d="M1150.4,729.6c1.5,0,1.5,0,3.1-0.1c3.2,0.4,4.6,1,6.9,3.3c0.4,2.6,0.4,2.6,0,5c-3.5,2.3-4.5,2.1-8.5,1.9
	c-8.1-0.1-15,2-21.4,6.9c-3.1,2.2-3.1,2.2-5.3,1.8c-0.6-0.2-1.2-0.4-1.8-0.6c-0.8-2.2-0.8-2.2-1-5c2.8-4.5,6.3-6.6,11-8.8
	c0.6-0.3,1.2-0.6,1.9-0.9C1140.6,730.6,1144.6,729.6,1150.4,729.6z"/>
<path d="M929.1,890.7c1.7,0,3.3,0.1,5,0.1c0.9,0,1.8,0,2.7,0c1.9,0,3.7,0.1,5.6,0.1c2.8,0.1,5.7,0.1,8.5,0.1
	c21.7,0.4,21.7,0.4,31.6,5.7c0,1,0,2,0,3c-2.5,1.2-3.6,1-6.3,0.6c-0.8-0.1-1.6-0.2-2.5-0.3c-2.2-0.3-2.2-0.3-4.7-0.9
	c-4.5-0.8-10.4-1.5-14.6,0.6c-6.6,1-12.6-0.5-18.9-2.3c-0.7-0.2-1.5-0.4-2.3-0.6c-3.7-1.1-6.2-2.1-8.8-5
	C925.4,890.8,925.4,890.8,929.1,890.7z"/>
<path d="M1148.4,754.8c4.6,4.7,5.3,8.1,5.2,14.5c-0.3,3.4-1.3,5.7-3.2,8.5c-3,2-3,2-5.9,2c-3.1-1-3.1-1-5.4-3.6
	c-2.2-4.5-3.5-8.5-2.2-13.4C1139.4,756.7,1141.5,753.7,1148.4,754.8z"/>
<path d="M677.4,1043.8c18.8,1.5,37,6.2,52,18c-0.3,1.3-0.7,2.6-1,4c-5.3-1.6-10-3.4-14.8-6c-7.9-4-15.8-5.7-24.6-7
	c-4.3-0.7-8-1.4-11.6-4c-0.9-2.1-0.9-2.1-1-4C676.7,1044.5,677.1,1044.1,677.4,1043.8z"/>
<path d="M725.4,1007.8c-1.8,5.3-7.2,7.4-12,10c-3.8,1.7-7.6,3.1-11.5,4.5c-5.3,2.2-9.4,5.2-13.5,9.2c-2.8,2.5-3.6,3.2-7.5,3.7
	c-0.8-0.1-1.7-0.3-2.5-0.4c0.2-3.6,0.9-4.9,3.4-7.6c1.1-0.9,2.2-1.8,3.3-2.7c0.6-0.5,1.2-0.9,1.8-1.4c7.6-5.7,16.4-9,25.2-12.4
	c2.5-1,2.5-1,5.7-2.7C720.9,1006.6,722.3,1006.8,725.4,1007.8z"/>
<path d="M861.4,995.8c4.6,0.5,6.3,2,9.3,5.4c0.8,0.9,1.6,1.8,2.4,2.8c2.1,2.5,4.1,5.1,6.1,7.7c3.8,4.9,8.2,9,12.9,13
	c3,2.6,4.6,4.2,5.3,8.1c-2.2,0.8-2.2,0.8-5,1c-2.4-1.6-2.4-1.6-4.9-4c-1.3-1.3-1.3-1.3-2.6-2.5c-0.8-0.8-1.6-1.6-2.5-2.5
	c-0.6-0.6-1.3-1.2-2-1.9c-4.3-4.2-8.2-8.6-12-13.1c-0.6-0.7-1.1-1.4-1.7-2.1C863.5,1003.8,861.7,1001,861.4,995.8z"/>
<path d="M1453.4,937.8c2.5,0.4,3.7,0.6,5.4,2.5c19.2,33.2,19.2,33.2,18.6,47.5c-2.8-1-3.9-1.8-5.4-4.4c-0.4-1-0.9-2-1.3-3
	c-0.5-1.1-1-2.2-1.5-3.3c-0.5-1.2-1-2.3-1.5-3.5c-1.1-2.4-2.1-4.7-3.2-7.1c-0.8-1.7-0.8-1.7-1.6-3.5c-2.2-4.9-4.7-9.6-7.3-14.4
	C1453.6,944.9,1453.1,942.1,1453.4,937.8z"/>
<path d="M773.4,822.8c1,1,1,1,1.4,3.3c-0.4,2.7-0.4,2.7-2.9,4.8c-1.7,1-3.4,1.9-5.3,2.7c-5.9,2.6-10,6.5-14.6,11.1
	c-2.7,2.2-4.2,2.8-7.6,3.1c-0.8-2.2-0.8-2.2-1-5C748.7,835.2,763.8,820.3,773.4,822.8z"/>
<path d="M832.4,812.8c7.1,0.4,13.9,2.1,20.8,3.9c1.5,0.4,1.5,0.4,3.1,0.8c1,0.3,2,0.5,3,0.8c0.9,0.2,1.8,0.5,2.7,0.7
	c2.8,1,5.1,2.3,7.5,3.9c-0.3,1.3-0.7,2.6-1,4c-5.5-0.4-10.6-1.1-15.9-2.5c-5.2-1.4-10.2-2-15.5-2.2c-2.6-0.3-4.3-1-6.6-2.3
	c-0.1-2.4-0.1-2.4,0-5C831.1,814.1,831.7,813.5,832.4,812.8z"/>
<path d="M1504.4,1148.8c11.7,2.6,23.2,5.7,34.7,9.3c1.6,0.5,3.2,1,4.9,1.5c0.8,0.2,1.6,0.5,2.4,0.8c0.7,0.2,1.5,0.4,2.2,0.7
	c1.8,0.8,1.8,0.8,3.8,3.8c-1.1,1.6-1.1,1.6-3,3c-6.2-0.4-11.8-2.5-17.6-4.6c-1-0.4-1.9-0.7-2.9-1.1
	C1508.1,1154.3,1508.1,1154.3,1504.4,1148.8z"/>
<path d="M565.4,1019.8c1,0.3,2,0.7,3,1c-0.9,4.5-1.9,8.9-2.8,13.4c-0.3,1.5-0.6,3-1,4.6c-0.5,2.2-0.9,4.4-1.4,6.6
	c-0.2,1-0.2,1-0.4,2c-0.9,4-1.9,7.2-4.4,10.4c-2.2,1.3-2.2,1.3-4,2c-0.3-7.6,0.9-14.3,2.7-21.7c0.2-1.1,0.5-2.2,0.7-3.3
	C559.3,1028.5,560.8,1024.3,565.4,1019.8z"/>
<path d="M633.4,771.2c3.8,0.7,5.4,1.7,8,4.6c1.1,2.9,1.1,2.9,1,6c-1.8,3-3.9,5.4-7,7c-4,0.5-5.6,0.3-8.9-2.1
	c-2.1-2.9-2.1-2.9-2.2-6.4C625.9,775.2,628,772.3,633.4,771.2z"/>
<path d="M1128.4,1166.8c6.3-0.3,11.7,0.7,17.8,2.3c1.8,0.5,3.7,0.9,5.5,1.4c1.4,0.3,1.4,0.3,2.8,0.7c4.5,1.1,9.1,2,13.6,3
	c0.8,0.2,1.6,0.3,2.5,0.5c1.9,0.4,3.8,0.8,5.7,1.2c-0.3,0.7-0.7,1.3-1,2c-14,3.4-32.1-0.9-45-7
	C1129,1168.6,1129,1168.6,1128.4,1166.8z"/>
<path d="M1513.4,1009.8c1,0,2,0,3,0c3,6.3,5.3,12.5,7.3,19.2c0.3,0.9,0.5,1.7,0.8,2.6c1.4,4.5,2.3,8.4,1.9,13.2c-1.3,0-2.6,0-4,0
	c-3.4-5.5-5.4-10.9-7.3-17.1c-0.3-0.9-0.5-1.7-0.8-2.6C1511.1,1014.3,1511.1,1014.3,1513.4,1009.8z"/>
<path d="M1448.4,835.8c3,2.5,3.8,4.9,4.8,8.7c0.3,1.1,0.6,2.2,0.9,3.4s0.6,2.3,0.9,3.6c0.3,1.2,0.6,2.3,0.9,3.5
	c1.7,6.3,2.9,12.4,3.4,18.9c-1.3-0.3-2.6-0.7-4-1c0,2.3,0,4.6,0,7c-2.1-3.6-2.9-7.4-3.8-11.4c-0.2-0.7-0.3-1.4-0.5-2.2
	c-0.3-1.5-0.7-3-1-4.5c-0.5-2.3-1-4.6-1.5-6.8c-0.3-1.5-0.6-2.9-0.9-4.4c-0.2-0.7-0.3-1.3-0.5-2
	C1446.2,843.6,1446.7,840.4,1448.4,835.8z"/>
<path d="M923.4,980.8c-0.2,6.4-3.7,9.7-8,14c-1.4,1.1-1.4,1.1-2.8,2.3c-3.4,4-4.2,8.6-5.3,13.7c-1.3,0.3-2.6,0.7-4,1
	c-1.9-3.7-0.8-8,0-12c2.2-6.2,7-10,12-14c0.6-0.5,1.2-1,1.8-1.6C921.1,980.8,921.1,980.8,923.4,980.8z"/>
<path d="M785.5,704.1c3.3,3,5.8,5.8,7.9,9.8c0,1,0,2,0,3c-0.6,0.2-1.2,0.5-1.9,0.8c-2.5,1.5-3,2.7-4.1,5.3c-0.1-0.7-0.2-1.3-0.3-2
	c-1.1-6.3-2.1-10.4-7.6-14.3c-3.6-2.3-7.1-4.3-11.1-5.7c0-0.3,0-0.7,0-1C776,698.5,779.4,699,785.5,704.1z"/>
<path d="M838.4,742.8c4.6,0.6,8,1.8,12.1,3.9c1,0.5,2,1,3,1.6c2.7,1.5,5.3,3,7.9,4.6c-1,0.3-2,0.7-3,1c-0.7,2-0.7,2-1,4
	c-1.1-0.6-2.2-1.2-3.4-1.9c-1.5-0.8-3-1.6-4.5-2.4c-0.7-0.4-1.5-0.8-2.2-1.2c-5.1-2.8-10.2-4.8-15.8-6.5c0-0.3,0-0.7,0-1
	c2.3,0,4.6,0,7,0C838.4,744.1,838.4,743.5,838.4,742.8z"/>
<path d="M869.4,793.8c7.7,2.1,15.4,5.2,20,12c0,0.7,0,1.3,0,2c-4.3-0.7-8-2.2-11.9-3.9c-4.3-1.9-8.6-3.6-13.1-5.1
	c1.3-0.3,2.6-0.7,4-1C868.7,796.5,869.1,795.2,869.4,793.8z"/>
<path d="M472.7,1160.5c1.6,0.7,3.2,1.5,4.7,2.3c-0.3,1.3-0.7,2.6-1,4c-4.6,1.4-8.3,0.4-12.8-0.9c-0.7-0.2-1.4-0.4-2.1-0.6
	c-1.7-0.5-3.4-1-5.1-1.5c0.3-1,0.7-2,1-3C461.8,1158.6,468.1,1159.1,472.7,1160.5z"/>
<path d="M1500.4,1027.8c3,1,3,1,4.1,2.9c1,2.4,2,4.8,2.9,7.1c0.6,1.5,0.6,1.5,1.3,3.1c0.9,3.4,0.9,6.4,0.8,9.9c-1.3,0-2.6,0-4,0
	C1502.8,1043.1,1500.8,1035.9,1500.4,1027.8z"/>
<path d="M1197.4,949.9c3,0.9,3,0.9,5,2.6c1,2.3,1,2.3,0.2,5.6c-0.4,0.9-0.8,1.8-1.2,2.8c-5.3,1.3-5.3,1.3-8.4-0.1
	c-1.6-1.9-1.6-1.9-2.1-4.9c0.4-3,0.4-3,1.6-4.9C1194.4,949.8,1194.4,949.8,1197.4,949.9z"/>
<path d="M608.4,651.8c6.5,0.3,11.4,2.9,17,6c0,1.3,0,2.6,0,4c-6.3,0.7-10.9-1.1-16-5c-1.3-2.2-1.3-2.2-2-4
	C607.7,652.5,608.1,652.1,608.4,651.8z"/>
<path d="M790.4,752.8c5.5,0.5,8.9,2.5,13.4,5.6c0.6,0.4,1.3,0.8,1.9,1.3c1.6,1,3.1,2.1,4.7,3.2c-1,0.5-1,0.5-2,1
	c-0.3,0.7-0.7,1.3-1,2c-4.8,0-5.9-1.1-9.6-3.9c-1-0.7-1.9-1.4-2.9-2.2c-2.5-1.9-2.5-1.9-4.5-3.9
	C790.4,754.8,790.4,753.8,790.4,752.8z"/>
<path d="M808.4,1015.8c-0.4,4.9-2.4,6.8-6,10c-0.6,0.5-1.2,1.1-1.7,1.6c-5.1,4.6-5.1,4.6-9.3,5.4c0.1-2.2,0.1-2.2,1-5
	c1.4-1.2,2.8-2.5,4.3-3.6c2.5-2,4.3-4.5,6.2-7C804.4,1015.8,804.4,1015.8,808.4,1015.8z"/>
<path d="M595.4,656.8c1.6,0.4,3.2,0.9,4.8,1.3c1.3,0.4,1.3,0.4,2.7,0.7c2.6,1,4.4,2.2,6.6,3.9c-0.3,1.3-0.7,2.6-1,4
	c-5.8-0.4-9.4-1.1-14-5c-0.3-1-0.7-2-1-3C594.1,658.1,594.7,657.5,595.4,656.8z"/>
<path d="M1509.4,1162.8c7,1,12.6,2.2,17,8c-3,2-3,2-5.7,1.9c-4.3-1.2-7.9-3.1-11.3-5.9c-0.3-1-0.7-2-1-3
	C1508.7,1163.5,1509.1,1163.1,1509.4,1162.8z"/>
<path d="M1698.8,1030.8c0.5,0.3,1.1,0.7,1.6,1c-0.2,1.9-0.2,1.9-1,4c-3.9,2.3-6.7,2.1-11,1c-0.7-0.3-1.3-0.7-2-1
	c0.3-1.6,0.7-3.3,1-5C1691.4,1029.5,1694.8,1029.1,1698.8,1030.8z"/>
<path d="M291.2,1030.7c0.8,0.2,1.6,0.4,2.4,0.6c0.9,0.2,0.9,0.2,1.8,0.5c-0.3,1.6-0.7,3.3-1,5c-5.4,1.2-8.2,0.9-13-2
	c0.3-1.3,0.7-2.6,1-4C285.7,1029.7,287.8,1029.9,291.2,1030.7z"/>
<path d="M668.4,777.8c0.7,0.3,1.3,0.7,2,1c-8.6,8.6-17.2,17.2-26,26c-0.7-0.3-1.3-0.7-2-1C650.7,794.7,659.1,785.9,668.4,777.8z"/>
<path d="M812.4,843.8c2,1,2,1,3.2,4.1c0.8,4,0.6,6.9-0.2,10.9c-1,0-2,0-3,0c-2.6-3.9-2.3-7.4-2-12
	C811.1,845.8,811.7,844.8,812.4,843.8z"/>
<path d="M461.4,1171.8c2.4,1.5,2.4,1.5,4,3c-0.3,1-0.7,2-1,3c-6.3,1.2-6.3,1.2-9.4,0.3c-1.6-1.3-1.6-1.3-2.6-4.3
	C455.9,1171.5,457.3,1171.4,461.4,1171.8z"/>
<path d="M929.4,1040.8c0.7,0.2,1.3,0.3,2,0.5c2.5,0.4,4.6,0.5,7.1,0.4c3.9,0.1,3.9,0.1,6.9,2.1c-0.3,1-0.7,2-1,3
	c-8.6,0.7-8.6,0.7-12.6-1.9c-0.8-0.7-1.6-1.4-2.4-2.1C929.4,1042.1,929.4,1041.5,929.4,1040.8z"/>
<path d="M1356.1,880.1c1.1,0.2,2.2,0.5,3.3,0.7c0,4,0,4-1.8,5.8c-2.3,1.2-2.3,1.2-4.4,1.1c-2.4-1.2-2.9-2.5-3.9-4.9
	C1351.5,879.7,1352.2,879.8,1356.1,880.1z"/>
<path d="M1406.4,651.8c-1.5,3.8-3.6,5.8-7,8c-3.3,0.3-3.3,0.3-6,0c0.1-1.8,0.1-1.8,1-4C1398.5,653,1401.3,651.2,1406.4,651.8z"/>
<path d="M840.4,1073.8c0.3,0.7,0.7,1.3,1,2c3.3,1.1,6.2,1.3,9.7,1.6c1.2,0.1,2.4,0.2,3.6,0.3c1.4,0.1,1.4,0.1,2.7,0.2
	c0,0.3,0,0.7,0,1c-9.6,1-19.1,1.1-28.8,1.1c-1.5,0-3,0-4.5,0c-3.6,0-7.2,0-10.8,0c0-0.3,0-0.7,0-1c1.1,0,1.1,0,2.3-0.1
	c3.4-0.1,6.7-0.2,10.1-0.4c1.2,0,2.4-0.1,3.6-0.1c1.1,0,2.2-0.1,3.4-0.1c1,0,2.1-0.1,3.1-0.1c2.5,0,2.5,0,4.5-1.2
	C840.4,1075.8,840.4,1074.8,840.4,1073.8z"/>
<path d="M1175.4,1021.8c2.9,0.3,2.9,0.3,6,1c2,3,2,3,2,7c-1.7,0.8-1.7,0.8-4,1c-2.8-2.2-2.8-2.2-5-5
	C1174.6,1023.5,1174.6,1023.5,1175.4,1021.8z"/>
<path d="M773.4,743.8c5,0,9.9,0,15,0c-1,1.3-2,2.6-3,4c-3.4,0.4-3.4,0.4-7.2,0.3c-1.9-0.1-1.9-0.1-3.9-0.1c-1,0-2-0.1-3-0.1
	C772.1,746.5,772.7,745.2,773.4,743.8z"/>
<path d="M576.4,910.8c-0.1,1.8-0.1,1.8-1,4c-2.8,2.3-2.8,2.3-6,4c-2.4-0.3-2.4-0.3-4-1c0.1-1.8,0.1-1.8,1-4
	C570.1,911.5,572,910.8,576.4,910.8z"/>
<path d="M804.4,1048.8c-0.4,2.7-0.7,4.6-2.3,6.8c-2.3,1.6-4,1.4-6.8,1.2c0-4,0-4,1.3-5.7C799.3,1049.1,801.2,1048.8,804.4,1048.8z"
	/>
<path d="M1181.4,943.8c0.3,0,0.7,0,1,0c0,12.5,0,25.1,0,38c1,0.3,2,0.7,3,1c-1.9,0.6-1.9,0.6-4,1c-1-1-1-1-1-4.7
	c0-1.6,0.1-3.3,0.1-4.9c0-0.9,0-1.7,0.1-2.6c0.1-2.8,0.2-5.5,0.2-8.3c0.1-1.9,0.1-3.7,0.2-5.6C1181.1,953,1181.3,948.4,1181.4,943.8
	z"/>
<path d="M947.4,693.7c1.1,0,1.1,0,2.1,0c1.9,0.1,1.9,0.1,3.9,1.1c-0.3,1.3-0.7,2.6-1,4c-1.3,0-2.5,0.1-3.8,0.1c-0.7,0-1.4,0-2.1,0.1
	c-2-0.2-2-0.2-5-2.2c0-0.7,0-1.3,0-2C943.6,693.7,944.9,693.7,947.4,693.7z"/>
<path d="M1504.4,1148.8c8.4,2,8.4,2,17,4c-1,1.3-2,2.6-3,4c-4-0.6-6.5-1.7-9.8-4c-0.8-0.5-1.6-1.1-2.4-1.6c-0.6-0.5-1.2-0.9-1.8-1.4
	C1504.4,1149.5,1504.4,1149.1,1504.4,1148.8z"/>
<path d="M805.4,1017.8c0.6,1.8,0.6,1.8,1,4c-2.1,2.4-2.1,2.4-5,5c-0.5,0.5-1.1,0.9-1.6,1.4c-4.1,3.6-4.1,3.6-6.4,3.6
	c1.6-3.9,4.1-6.3,7.1-9.3c0.9-0.9,1.8-1.8,2.8-2.7C804,1019.2,804.7,1018.5,805.4,1017.8z"/>
<path d="M615.4,952.8c1,0.3,2,0.7,3,1c-0.3,3.7-0.8,4.8-3.6,7.3c-0.8,0.6-1.6,1.1-2.4,1.7c-0.7-0.3-1.3-0.7-2-1
	C610.9,957.5,612.1,955.6,615.4,952.8z"/>
<path d="M868.4,1056.8c3.9,1.8,3.9,1.8,5,4c0,2.3,0,4.7,0,7c-3.2-1.4-4-2-6-5c-0.2-2.6-0.2-2.6,0-5
	C867.7,1057.5,868.1,1057.1,868.4,1056.8z"/>
<path d="M1390.4,650.8c-1.6,2.4-1.6,2.4-4,5c-3.8,0.8-3.8,0.8-7,1c0.1-1.8,0.1-1.8,1-4C1383.9,650.5,1386.3,649.1,1390.4,650.8z"/>
<path d="M683.4,1067.8c2.4,0.3,2.4,0.3,5,1c1.3,2.1,1.3,2.1,2,4c-1.3,1-2.6,2-4,3c-1.7-1.7-3.3-3.3-5-5
	C682.1,1069.8,682.7,1068.8,683.4,1067.8z"/>
<path d="M573.4,924.8c-0.4,2.7-0.8,3.8-2.8,5.8c-2.2,1.2-2.2,1.2-4.4,0.9c-0.6-0.2-1.2-0.5-1.8-0.7c0.3-1.9,0.3-1.9,1-4
	C568.6,924.6,569.7,924.6,573.4,924.8z"/>
<path d="M815.4,1059.8c3,1,3,1,5,4c0.1,2.7,0.1,2.7,0,5c-1.3,0-2.6,0-4,0c-2.1-3.2-2.3-4.3-2-8
	C814.7,1060.5,815.1,1060.1,815.4,1059.8z"/>
<path d="M1019.4,695.8c0.7,0.3,1.3,0.7,2,1c0,1,0,2,0,3c-2.7,1.4-5,1.1-8,1c-0.7-0.3-1.3-0.7-2-1c0-1,0-2,0-3
	C1014.1,695.4,1016.4,695.7,1019.4,695.8z"/>
<path d="M1354.7,857.1c0.8,0.4,0.8,0.4,1.7,0.8c-0.6,2.9-0.9,3.9-3,6c-2.6,0.1-2.6,0.1-5,0c-0.3-1-0.7-2-1-3
	C1351.8,856.7,1351.8,856.7,1354.7,857.1z"/>
<path d="M1131.4,671.8c2,3,2,3,2,5c0.7,0.3,1.3,0.7,2,1c-1,0.5-1,0.5-2,1c-0.7,3-0.7,3-1,6c-2.4-0.7-2.4-0.7-5-2
	c-0.8-2.6-0.8-2.6-1-5c1.3-0.3,2.6-0.7,4-1C1130.7,675.1,1131.1,673.5,1131.4,671.8z"/>
<path d="M542.4,664.8c0.7,0.3,1.3,0.7,2,1c-5.9,5.9-11.9,11.9-18,18c-0.7-0.3-1.3-0.7-2-1c4.5-5.3,9-10.1,14.3-14.6
	C540.5,666.8,540.5,666.8,542.4,664.8z"/>
<path d="M596.4,1205.8c9,0.5,18,1.1,27,2c0,0.3,0,0.7,0,1c-0.6,0-1.3,0-1.9,0c-2.8,0-5.7,0-8.5,0c-1,0-2,0-3,0c-0.9,0-1.9,0-2.9,0
	c-0.9,0-1.7,0-2.6,0c-2.2,0-2.2,0-4.2,1.1c-2.1-0.9-2.1-0.9-4-2C596.4,1207.1,596.4,1206.5,596.4,1205.8z"/>
<path d="M767.4,1038.8c1,0.3,2,0.7,3,1c-0.8,4.8-0.8,4.8-3,7c-2.6,0.1-2.6,0.1-5,0C765.2,1041.1,765.2,1041.1,767.4,1038.8z"/>
<path d="M663.4,996.8c1.9,0.6,1.9,0.6,4,2c0.8,3.6,0.8,3.6,1,7c-1.9-0.3-1.9-0.3-4-1c-1.3-1.8-1.3-1.8-2-4
	C662.8,998.6,662.8,998.6,663.4,996.8z"/>
<path d="M562.4,1176.8c1.7,0.1,3.5,0.3,5.2,0.4c1.4,0.1,1.4,0.1,2.9,0.2c2.7,0.3,5.3,0.7,7.9,1.3c0,0.3,0,0.7,0,1c-1.7,0-3.3,0-5,0
	c0.3,1,0.7,2,1,3c-4.2-1.3-8.1-2.9-12-5C562.4,1177.5,562.4,1177.1,562.4,1176.8z"/>
<path d="M629.4,956.8c2.1,0.4,2.1,0.4,4,1c-0.6,2.9-0.9,3.9-3,6c-2.6-0.4-2.6-0.4-5-1C628.3,957.9,628.3,957.9,629.4,956.8z"/>
<path d="M1074.4,849.8c3.3,1.2,5.8,2.2,8,5c0,0.7,0,1.3,0,2c-2.3,0.3-2.3,0.3-5,0c-2.3-2-2.3-2-4-4
	C1073.7,851.8,1074.1,850.8,1074.4,849.8z"/>
<path d="M1416.4,655.8c-0.3,1.7-0.7,3.3-1,5c-2,0.7-4,1.3-6,2c-0.3-1.3-0.7-2.6-1-4C1413,655.8,1413,655.8,1416.4,655.8z"/>
<path d="M1074.4,840.8c2.4,0.3,2.4,0.3,5,1c2,3,2,3,2,6c-4.8-0.8-4.8-0.8-7-3C1074.4,843.5,1074.4,842.2,1074.4,840.8z"/>
<path d="M373.4,1125.8c0.7,0,1.3,0,2,0c-1.9,6.7-1.9,6.7-5,9c-1.7,0-3.3,0-5,0c1.3-1.5,2.6-3,3.9-4.5c1.1-1.3,1.1-1.3,2.2-2.5
	C372.1,1127.1,372.7,1126.5,373.4,1125.8z"/>
<path d="M759.7,1119.7c1.9,0,1.9,0,3.8,0c1,0,1.9,0,2.9,0c0,0.3,0,0.7,0,1c-5.4,0.5-5.4,0.5-11,1c0,1,0,2,0,3c-3-0.5-3-0.5-6-1
	c-0.3-1-0.7-2-1-3C752.2,1119.6,755.7,1119.7,759.7,1119.7z"/>
<path d="M606.4,1112.8c0,0.3,0,0.7,0,1c-2.2,0.2-4.5,0.4-6.8,0.6c-1.9,0.2-1.9,0.2-3.8,0.3c-2.9,0.1-4.7,0-7.5-0.9c-1.7,0-3.3,0-5,0
	C589.6,1109.7,599.3,1111.5,606.4,1112.8z"/>
<path d="M889.4,1050.8c1.7,0.3,3.3,0.6,5,1c0,1.3,0,2.6,0,4c-1.7,0.3-3.3,0.7-5,1c-0.4-1.7-0.7-3.3-1-5
	C888.7,1051.5,889.1,1051.1,889.4,1050.8z"/>
<path d="M667.4,1014.8c2.5,0.5,2.5,0.5,5,1c1.1,3.8,1.1,3.8,0,6c-3.9-0.9-3.9-0.9-5-2C667.4,1018.1,667.4,1016.5,667.4,1014.8z"/>
<path d="M414.1,1136.6c0.7,0.1,1.5,0.2,2.3,0.3c0.6,1.8,0.6,1.8,1,4c-1,1.5-1,1.5-2,3c0-2,0-4,0-6c-1,0-2,0-3,0
	c-0.2,0.6-0.5,1.2-0.8,1.8c-1.4,2.6-3.1,4.3-5.3,6.3c-0.7-0.3-1.3-0.7-2-1c1-1.3,2.1-2.7,3.2-4c0.6-0.7,1.2-1.5,1.8-2.3
	C411.4,1136.8,411.4,1136.8,414.1,1136.6z"/>
<path d="M729.4,1040.8c0.3,1.3,0.7,2.6,1,4c-2.4,0.6-2.4,0.6-5,1c-0.7-0.7-1.3-1.3-2-2c0-1,0-2,0-3
	C725.9,1039.6,726.8,1040,729.4,1040.8z"/>
<path d="M1128.4,1166.8c2.6,0,5.3,0,8,0c-0.3,1-0.7,2-1,3c1,1,2,2,3,3c-1.5-0.4-3-0.9-4.4-1.3c-0.8-0.2-1.6-0.5-2.5-0.7
	c-1-0.5-1-0.5-2.1-0.9C1129.1,1168.8,1128.7,1167.8,1128.4,1166.8z"/>
<path d="M671.4,1058.8c2.1,0.4,2.1,0.4,4,1c0,1.3,0,2.6,0,4c-1.7,0.3-3.3,0.7-5,1c-0.6-1.9-0.6-1.9-1-4
	C670.1,1060.1,670.7,1059.5,671.4,1058.8z"/>
<path d="M1247.4,1007.8c0.7,0,1.3,0,2,0c-1.5,3.5-3.4,5.6-6.1,8.3c-0.7,0.7-1.4,1.4-2.2,2.1c-0.6,0.5-1.1,1.1-1.7,1.6
	c-0.7-0.3-1.3-0.7-2-1c1.5-1.6,3-3.3,4.4-4.9c0.8-0.9,1.6-1.8,2.5-2.8C1246.4,1008.8,1246.4,1008.8,1247.4,1007.8z"/>
<path d="M693.4,773.8c-0.8,4.8-0.8,4.8-3,7c-0.3-0.7-0.7-1.3-1-2c-1.3,1.3-2.6,2.6-4,4c-0.7-0.3-1.3-0.7-2-1c1-1.1,1.9-2.3,2.9-3.4
	c0.5-0.6,1.1-1.3,1.6-1.9C689.7,774.5,690.7,773.8,693.4,773.8z"/>
<path d="M863.4,1033.8c1.3,0.7,2.6,1.3,4,2c0,1.3,0,2.6,0,4c-1.7,0-3.3,0-5,0c-0.6-1.9-0.6-1.9-1-4
	C862.1,1035.1,862.7,1034.5,863.4,1033.8z"/>
<path d="M826.4,1038.8c1,0.3,2,0.7,3,1c0.3,1,0.7,2,1,3c-1,1.5-1,1.5-2,3c-1.3-0.3-2.6-0.7-4-1
	C825.3,1039.9,825.3,1039.9,826.4,1038.8z"/>
<path d="M591.4,976.8c1.1,4.3,0.8,5.2-1,9c-0.7-0.7-1.3-1.3-2-2c-1,1-2,2-3,3c-0.7-0.3-1.3-0.7-2-1
	C586,982.8,588.7,979.9,591.4,976.8z"/>
<path d="M896.4,889.8c1,0.3,2,0.7,3,1c-0.5,0.4-1,0.9-1.5,1.3c-4.2,3.9-4.2,3.9-6.4,9.1c0,0.8,0,1.7-0.1,2.6c-2-3-2-3-1.4-5.9
	C891.6,894.4,893.5,892.4,896.4,889.8z"/>
<path d="M812.4,843.8c0.7,0.3,1.3,0.7,2,1c0.4,2.3,0.7,4.7,1,7c-0.3-1-0.7-2-1-3c-1,0.5-1,0.5-2,1c0,2.6,0,5.3,0,8
	c-2-3-2.3-3.6-2.3-7c0-0.7,0-1.4,0-2.1C810.4,846.8,810.4,846.8,812.4,843.8z"/>
<path d="M1507.4,1042.8c0.7,0.3,1.3,0.7,2,1c0,2.3,0,4.6,0,7c-1.3,0-2.6,0-4,0c-0.3-1.3-0.7-2.6-1-4c0.7,0,1.3,0,2,0
	C1506.7,1045.5,1507.1,1044.2,1507.4,1042.8z"/>
<path d="M1404.4,1027.8c1,0.3,2,0.7,3,1c-0.3,1.6-0.7,3.3-1,5c-0.7-0.7-1.3-1.3-2-2c-1.7,1.6-3.3,3.3-5,5c-0.7-0.3-1.3-0.7-2-1
	C1399.7,1033.2,1402,1030.5,1404.4,1027.8z"/>
<path d="M1028.4,899.8c0.7,0.3,1.3,0.7,2,1c-3.6,3.6-7.3,7.3-11,11c-0.7-0.3-1.3-0.7-2-1C1020.8,906.7,1024.1,903,1028.4,899.8z"/>
<path d="M1268.4,671.8c6.3,0,12.5,0,19,0c0,0.3,0,0.7,0,1c-2.4,0.4-4.8,0.8-7.3,1.2c-1,0.2-1,0.2-2.1,0.4c-2,0.3-2,0.3-5.7,0.4
	C1271.1,673.8,1269.8,672.8,1268.4,671.8z"/>
<path d="M611,651.7c1.2,0,1.2,0,2.4,0.1c0.3,1.7,0.7,3.3,1,5c-1.7,0-3.3,0-5,0c-0.7-1.3-1.3-2.6-2-4
	C608.4,651.8,608.4,651.8,611,651.7z"/>
<path d="M770.4,745.8c0.7,0.3,1.3,0.7,2,1c2.4,0.2,4.7,0.4,7.1,0.6c1.3,0.1,2.6,0.2,3.9,0.3c1.5,0.1,1.5,0.1,3,0.2c0,0.3,0,0.7,0,1
	c-7.9,0.5-7.9,0.5-16,1C770.4,748.5,770.4,747.2,770.4,745.8z"/>
<path d="M542.4,967.8c0.7,0.3,1.3,0.7,2,1c-1.5,1.5-2.9,3-4.4,4.5c-0.8,0.8-1.6,1.7-2.5,2.5c-2.2,2-2.2,2-4.2,2
	c1.4-3.2,2.9-5,5.6-7.3c0.6-0.5,1.3-1,1.9-1.6C541.7,968.4,541.7,968.4,542.4,967.8z"/>
<path d="M608,867.7c1.2,0,1.2,0,2.4,0.1c-0.8,1.2-1.6,2.3-2.4,3.5c-0.4,0.6-0.9,1.3-1.3,2c-0.4,0.5-0.9,1-1.3,1.5c-0.7,0-1.3,0-2,0
	C604.4,867.8,604.4,867.8,608,867.7z"/>
<path d="M882.4,802.8c2,0,4,0,6,0c0.3,1.6,0.7,3.3,1,5c-4.8-0.9-4.8-0.9-7-2C882.4,804.8,882.4,803.8,882.4,802.8z"/>
<path d="M1136.4,1167.8c2.6,0.4,2.6,0.4,5,1c0,1.3,0,2.6,0,4c-3-0.6-4.4-1.3-7-3C1135.1,1169.1,1135.7,1168.5,1136.4,1167.8z"/>
<path d="M770.4,1066.8c1,0,2,0,3,0c0.3,1.3,0.7,2.6,1,4c-2,1-2,1-4,2c-0.7-1.3-1.3-2.6-2-4C769.1,1068.1,769.7,1067.5,770.4,1066.8z
	"/>
<path d="M1289.4,1009.8c0.7,0,1.3,0,2,0c-1.7,4.3-4.7,6.9-8,10c-0.7-0.3-1.3-0.7-2-1c1.3-1.5,2.6-3,3.9-4.5c1.1-1.3,1.1-1.3,2.2-2.5
	C1288.1,1011.1,1288.7,1010.5,1289.4,1009.8z"/>
<path d="M1215.5,753.1c1.4,0.4,1.4,0.4,2.9,0.8c0.3,0.7,0.7,1.3,1,2c-1.6-0.1-1.6-0.1-3.2-0.3c-4.4,0.3-5.7,1.3-8.8,4.3
	C1209,755.2,1210.1,752.6,1215.5,753.1z"/>
<path d="M441.4,1047.8c1,0.3,2,0.7,3,1c-0.3,1.6-0.7,3.3-1,5c-1.3-0.3-2.6-0.7-4-1C440.3,1048.9,440.3,1048.9,441.4,1047.8z"/>
<path d="M1168.4,1014.8c2.5,0.5,2.5,0.5,5,1c0.3,1.3,0.7,2.6,1,4c-1.7-0.3-3.3-0.7-5-1C1169.1,1017.5,1168.7,1016.2,1168.4,1014.8z"
	/>
<path d="M614.4,720.8c0,0.7,0,1.3,0,2c-1,0-2,0-3,0c-0.2,0.6-0.5,1.2-0.7,1.8c-1.6,2.8-3.7,4.3-6.3,6.3
	C605.7,726.3,609.2,720.8,614.4,720.8z"/>
<path d="M369.4,1132.8c0.3,1.3,0.7,2.6,1,4c-0.7,0.3-1.5,0.6-2.3,0.9c-2.3,0.9-4.5,2-6.8,3.1
	C363.5,1136.8,365.4,1134.9,369.4,1132.8z"/>
<path d="M799.4,1050.8c1,0,2,0,3,0c-0.3,1.6-0.7,3.3-1,5c-1.7,0-3.3,0-5,0C798.3,1051.9,798.3,1051.9,799.4,1050.8z"/>
<path d="M939.4,1041.8c1.7,0.3,3.3,0.7,5,1c0,1.3,0,2.6,0,4c-3,0-5.9,0-9,0c0-0.3,0-0.7,0-1c2,0,4,0,6,0c0-1,0-2,0-3
	C940.7,1042.5,940.1,1042.1,939.4,1041.8z"/>
<path d="M1474.4,974.8c2.1,3.2,2.3,4.5,2.6,8.2c0.1,0.9,0.1,1.8,0.2,2.7c0,0.7,0.1,1.4,0.1,2.1c-1.9-0.8-1.9-0.8-4-2
	c-0.3-1-0.7-2-1-3c0.7,0,1.3,0,2,0C1474.4,980.2,1474.4,977.5,1474.4,974.8z"/>
<path d="M1616.4,978.8c1,0.3,2,0.7,3,1c-2.6,2.6-5.3,5.3-8,8C1611.4,983.4,1613.5,982,1616.4,978.8z"/>
<path d="M502.4,910.8c0.7,0.3,1.3,0.7,2,1c-0.8,0.7-1.6,1.4-2.4,2.1c-3,3.4-3.3,5.5-3.6,9.9c-0.3,0-0.7,0-1,0
	c-0.6-7.3-0.6-7.3,2.5-11C500.7,912.1,501.6,911.5,502.4,910.8z"/>
<path d="M1129.4,735.8c0.7,0.3,1.3,0.7,2,1c-0.5,0.5-1,0.9-1.5,1.4c-0.9,0.9-0.9,0.9-1.9,1.9c-0.6,0.6-1.3,1.2-1.9,1.9
	c-1.9,1.9-1.9,1.9-3.7,4.8c0.4-4.8,2.5-6.8,6-10C1128.7,736.5,1129.1,736.1,1129.4,735.8z"/>
<path d="M615.4,952.8c0.7,0.3,1.3,0.7,2,1c-2,2.3-4,4.6-6,7c1,0.3,2,0.7,3,1c-1,0.3-2,0.7-3,1c-0.8-2.2-0.8-2.2-1-5
	C612.8,955,612.8,955,615.4,952.8z"/>
<path d="M799.4,904.8c-1.6,4.3-4.5,6.3-8,9C792.7,909.9,794.6,904.8,799.4,904.8z"/>
<path d="M1011.4,696.8c2.3,0,4.6,0,7,0c0,1,0,2,0,3c-2.3,0-4.6,0-7,0C1011.4,698.8,1011.4,697.8,1011.4,696.8z"/>
<path d="M624.4,1059.8c0,2,0,2-1.5,3.6c-0.5,0.5-1,0.9-1.5,1.4c1.3,0.3,2.6,0.7,4,1c-2.3-0.3-4.6-0.7-7-1
	C620.7,1059.8,620.7,1059.8,624.4,1059.8z"/>
<path d="M471.4,1029.8c0.7,0,1.3,0,2,0c-1.4,3.4-3.3,5.5-6,8c-0.7-0.3-1.3-0.7-2-1c1-1.2,1.9-2.3,2.9-3.5c0.5-0.6,1.1-1.3,1.6-2
	C470.6,1030.6,470.6,1030.6,471.4,1029.8z"/>
<path d="M941.4,694.8c2.6,0,5.3,0,8,0c-0.3,1-0.7,2-1,3c-2,0-4,0-6,0C942.1,696.8,941.7,695.8,941.4,694.8z"/>
<path d="M1175.4,1187.8c-2,1-2,1-4,2c0.3,1.3,0.7,2.6,1,4c-1.3-0.7-2.6-1.3-4-2c0.4-1.9,0.4-1.9,1-4
	C1171.9,1186.6,1172.8,1187,1175.4,1187.8z"/>
<path d="M1108.4,1037.8c1.7,1,3.3,2,5,3c-1.3,1-2.6,2-4,3c-1-1-2-2-3-3C1107.1,1039.8,1107.7,1038.8,1108.4,1037.8z"/>
<path d="M718.4,1028.8c1.3,0.7,2.6,1.3,4,2c0,0.7,0,1.3,0,2c-1.3,0.3-2.6,0.7-4,1c-0.7-1-1.3-2-2-3
	C717.1,1030.1,717.7,1029.5,718.4,1028.8z"/>
<path d="M1352.4,856.8c1,0.3,2,0.7,3,1c-1.7,1.3-3.3,2.6-5,4c1,0.7,2,1.3,3,2c-1.7,0-3.3,0-5,0c-0.3-1-0.7-2-1-3
	C1349.7,858.7,1349.7,858.7,1352.4,856.8z"/>
<path d="M1247.4,671.8c1.3,0.3,2.6,0.7,4,1c-1,0-2,0-3,0c0.3,2,0.7,4,1,6c-1.3,0-2.6,0-4,0c-0.3-0.7-0.7-1.3-1-2c0.7,0,1.3,0,2,0
	C1246.7,675.1,1247.1,673.5,1247.4,671.8z"/>
<path d="M629.4,1187.8c2.5,1,2.5,1,5,2c0,0.7,0,1.3,0,2c-2.3,0.3-4.6,0.7-7,1c0.3-0.6,0.7-1.3,1-1.9
	C629.5,1189,629.5,1189,629.4,1187.8z"/>
<path d="M1500.4,1027.8c1,0.3,2,0.7,3,1c-0.3,3-0.7,5.9-1,9C1500.4,1033.8,1500.2,1032.1,1500.4,1027.8z"/>
<path d="M1180.4,976.8c0.7,0,1.3,0,2,0c0,1.6,0,3.3,0,5c1,0.3,2,0.7,3,1c-1.9,0.6-1.9,0.6-4,1c-1-1-1-1-1.1-4.1
	C1180.4,978.8,1180.4,977.8,1180.4,976.8z"/>
<path d="M599.4,923.8c2.1,0.4,2.1,0.4,4,1c-0.3,1.3-0.7,2.6-1,4c0-1,0-2,0-3c-2,1.3-4,2.6-6,4C598.3,924.9,598.3,924.9,599.4,923.8z
	"/>
<path d="M1126.4,677.8c1.3,0.3,2.6,0.7,4,1c0.3,1.3,0.7,2.6,1,4c-1,0.5-1,0.5-2,1c-0.7-0.3-1.3-0.7-2-1
	C1126.8,680.2,1126.8,680.2,1126.4,677.8z"/>
<path d="M562.4,1176.8c3.6,0.3,7.3,0.7,11,1c0,0.3,0,0.7,0,1c-6.4,1.2-6.4,1.2-9.4,0.1c-0.5-0.4-1-0.7-1.6-1.1
	C562.4,1177.5,562.4,1177.1,562.4,1176.8z"/>
<path d="M1504.4,1148.8c4.5,1,4.5,1,9,2c-1,1.5-1,1.5-2,3C1507.7,1152.6,1506.6,1152.1,1504.4,1148.8z"/>
<path d="M521.4,1058.8c0.3,0,0.7,0,1,0c0,2,0,4,0,6c0.7,0.3,1.3,0.7,2,1c-2,1-2,1-4,2C520.7,1064.8,521.1,1061.9,521.4,1058.8z"/>
<path d="M677.4,1043.8c2,0,4,0,6,0c-2,1-2,1-4,2c0.3,1.3,0.7,2.6,1,4c-1.3-0.7-2.6-1.3-4-2C676.7,1046.5,677.1,1045.2,677.4,1043.8z
	"/>
<path d="M1109.4,953.8c0.7,0,1.3,0,2,0c-0.3,0.5-0.6,1.1-0.9,1.6c-1.3,2.7-2.2,5.5-3.1,8.4c-0.3,0-0.7,0-1,0
	c-0.2-3.4-0.3-5.4,1.4-8.4C1108.3,954.9,1108.8,954.4,1109.4,953.8z"/>
<path d="M1163.4,861.8c1,0.3,2,0.7,3,1c-1,0.3-2,0.7-3,1c0,2,0,4,0,6c-1-0.3-2-0.7-3-1C1161.4,866.5,1162.4,864.2,1163.4,861.8z"/>
<path d="M1166,834.7c0.8,0,1.6,0.1,2.4,0.1c-0.6,0.4-1.2,0.8-1.9,1.3c-2.2,1.8-3.1,3.2-4.1,5.8c-0.6-2.4-0.6-2.4-1-5
	C1163.4,834.8,1163.4,834.8,1166,834.7z"/>
<path d="M831.4,1015.8c1,0,2,0,3,0c-0.3,1.3-0.7,2.6-1,4c-0.7,0-1.3,0-2,0c-0.3-1-0.7-2-1-3C830.7,1016.5,831.1,1016.1,831.4,1015.8
	z"/>
<path d="M1353.4,850.8c0.7,0,1.3,0,2,0c-0.3,1-0.7,2-1,3c-1-0.3-2-0.7-3-1C1352.1,852.1,1352.7,851.5,1353.4,850.8z"/>
<path d="M723.4,1030.8c1,0,2,0,3,0c0,0.7,0,1.3,0,2c-1,0-2,0-3,0C723.4,1032.1,723.4,1031.5,723.4,1030.8z"/>
<path class="st0" d="M683.5,335.8"/>
<path class="st0" d="M683.5,335.8"/>
<path class="st0" d="M683.5,335.8"/>
<path class="st0" d="M683.5,335.8"/>
<path class="st0" d="M683.5,335.8"/>
</svg>
