<?xml version="1.0" encoding="utf-8"?>
<!-- Generator: Adobe Illustrator 19.0.0, SVG Export Plug-In . SVG Version: 6.00 Build 0)  -->
<svg version="1.1" id="Vrstva_1" xmlns="http://www.w3.org/2000/svg" xmlns:xlink="http://www.w3.org/1999/xlink" x="0px" y="0px"
	 viewBox="462 -116 1536 1024" style="enable-background:new 462 -116 1536 1024;" xml:space="preserve">
<style type="text/css">
	.st0{fill:#DEDEDE;}
</style>
<path d="M1208.3,90c3.2,0,6.3,0,9.5,0.1c55.1,0.3,110.3,1.6,165.4,3c1.3,0,1.3,0,2.7,0.1c18.9,0.5,37.8,1,56.7,1.5
	c1.1,0,1.1,0,2.2,0.1c8.3,0.2,16.6,0.4,25,0.7c1.6,0,3.3,0.1,4.9,0.1c3.1,0.1,6.1,0.2,9.2,0.3c8.4,0.2,16.8,0.4,25.2,0.3
	c13-0.1,25.9,0.6,38.9,1.3c1.2,0.1,2.4,0.1,3.6,0.2c114.7,6.5,114.7,6.5,145.8,38.6c9.4,11.7,15.1,25.9,20.6,39.7
	c0.7,1.7,1.4,3.5,2.1,5.2c5.6,13.9,11,27.9,16,42c0.5,1.4,1,2.8,1.5,4.2c20,56.1,35.3,113.5,49.1,171.4c3,12.7,6.1,25.4,9.3,38.1
	c0.3,1.4,0.7,2.7,1,4.1c1.4,5.6,2.8,11.2,4.1,16.7c3.6,14.4,7.1,28.9,10.4,43.4c0.4,1.6,0.4,1.6,0.8,3.3c2.1,9.6,4.7,21.3-0.1,30.5
	c-11.4,14.4-35.8,15.1-52.4,17.1c-2.1,0.2-4.3,0.5-6.4,0.7c-1.8,0.2-1.8,0.2-3.5,0.4c-11.9,1.3-23.8,2.2-35.8,3
	c-2.4,0.2-4.7,0.3-7.1,0.5c-5.1,0.4-10.3,0.7-15.4,1.1c-6.9,0.5-13.7,0.9-20.6,1.4c-6.7,0.5-13.4,0.9-20.1,1.4
	c-4.1,0.3-8.2,0.6-12.3,0.9c-3.9,0.3-7.8,0.5-11.7,0.8c-1.4,0.1-2.9,0.2-4.3,0.3c-26.6,1.9-26.6,1.9-36.5-2.2c0.3-1,0.7-2,1-3
	c5.6-2.2,11.3-2.5,17.3-2.9c1-0.1,2-0.1,3.1-0.2c3.4-0.2,6.7-0.5,10.1-0.7c2.4-0.2,4.8-0.3,7.2-0.5c6.3-0.4,12.6-0.9,19-1.3
	c11.2-0.8,22.3-1.5,33.5-2.3c1.2-0.1,2.4-0.2,3.7-0.3c24.1-1.7,48.1-3.7,72.2-5.8c0-0.3,0-0.7,0-1c-8.7-2.3-18-0.7-26.8,0.2
	c-2.2,0.2-4.3,0.5-6.5,0.7c-6.1,0.6-12.3,1.3-18.4,1.9c-35,3.7-69.6,5.5-104.8,5.7c-5,0-10.1,0.1-15.1,0.1
	c-9.8,0.1-19.6,0.2-29.4,0.3c0.8,0.2,1.6,0.5,2.4,0.7c3,0.9,6,1.7,9.1,2.6c1.9,0.6,3.9,1.1,5.8,1.6c7.4,2.1,14.7,4.3,22,7.1
	c3.2,1.2,6.5,2.2,9.8,3.1c2.7,1.2,4.1,2.5,5.9,4.9c0.3,3.3,0.3,3.3,0,6.9c-0.1,1.2-0.2,2.4-0.3,3.7c-0.8,3.8-2,5.6-4.8,8.4
	c-5.9,2.9-13.7,0.6-19.8-1c-1.2-0.3-1.2-0.3-2.5-0.6c-1.7-0.4-3.5-0.9-5.2-1.3c-14.8-3.8-29.7-7.3-44.7-10c-6-1.1-11.9-2.3-17.8-3.8
	c-1.1-0.3-2.3-0.6-3.5-0.9c-2.1-0.5-4.2-1.1-6.2-1.6c-7.2-1.8-14-2-21.3-1.9c-1.7,0-1.7,0-3.4,0c-11.5,0.1-22.9,0.2-34.4,0.4
	c-57.2,0.8-114.4,0.7-171.6,0.4c-10.2,0-20.3-0.1-30.5-0.1c-10.1,0-20.1-0.1-30.1-0.1c-5.9,0-11.8-0.1-17.7-0.1
	c-39.1-0.1-78-1.5-117-4.4c-2.4-0.2-4.8-0.4-7.3-0.5c-4.8-0.3-9.5-0.7-14.3-1c-5.1-0.4-10.2-0.8-15.3-1.1c-3.4-0.2-6.9-0.5-10.3-0.8
	c-1.5-0.1-3.1-0.2-4.6-0.3c-8.1-0.6-16.1-1.5-24.2-2.7c-0.8-0.1-1.5-0.2-2.3-0.4c-3.5-0.6-5.8-1.2-8.8-3.2c0-0.7,0-1.3,0-2
	c10.8-3.3,24.4-0.7,35.6,0.1c9.8,0.7,19.6,1.3,29.4,1.9c1.7,0.1,1.7,0.1,3.4,0.2c47.2,2.9,94.3,3.4,141.6,3.7
	c9.2,0.1,18.3,0.1,27.5,0.2c0.7,0,1.4,0,2.2,0c2.9,0,5.8,0,8.7,0.1c71.9,0.6,143.7,0.9,215.6,0.8c-26.5-4.1-26.5-4.1-53-7.6
	c-1.3-0.2-1.3-0.2-2.5-0.3c-19.8-2.4-39.6-3.9-59.5-5.1c-0.8,0-1.7-0.1-2.5-0.2c-74.6-4.5-149.5-3.1-224.1-0.1
	c-5.2,0.2-10.5,0.4-15.7,0.5c-0.7,0-1.4,0.1-2.2,0.1c-3.5,0-5.4-0.3-8.5-2.2c-2.1-2.2-2.1-2.2-2.7-5.6c0.8-4.5,2.1-5.7,5.6-8.6
	c3-0.8,3-0.8,6.5-1.1c1.3-0.1,2.6-0.2,4-0.3s2.9-0.2,4.3-0.3c1.5-0.1,3-0.2,4.5-0.4c4-0.3,8-0.6,12-0.9c3.3-0.2,6.7-0.5,10-0.8
	c10.6-0.8,21.2-1.6,31.7-2.3c1.3-0.1,2.6-0.2,3.9-0.3c14.1-1,28.3-1.8,42.4-2.6c2.6-0.1,5.1-0.3,7.7-0.4c92.2-5.4,184.5-3.6,275,16
	c1.3,0.3,2.5,0.5,3.8,0.8c2.3,0.5,4.7,1,7,1.6c9.9,2.2,18.9,3.2,29,2.2c5.2-0.5,10.4-0.6,15.7-0.8c1.9-0.1,1.9-0.1,3.9-0.1
	c9.1-0.3,18.3-0.4,27.4-0.5c46.9-0.5,93.2-3.8,139.8-8.9c0.8-0.1,1.6-0.2,2.4-0.3c34.6-3.5,34.6-3.5,68.8-9.4
	c2.6-0.5,5.1-0.6,7.7-0.5c0.8,0,1.7,0,2.5,0.1c0.6,0,1.2,0,1.8,0.1c0.6,1.9,0.6,1.9,1,4c-1.4,2.3-1.4,2.3-3,4c1,0,2,0,3,0
	c2.6-3.9,2.2-7.5,2-12c-0.3-0.7-0.7-1.3-1-2c-3.5,0.4-6.6,0.8-9.8,2.1c-5.2,1.4-10.2,0.6-15.4-0.6c-6.1-1.4-11.2-1.6-17.3-0.9
	c-0.9,0.1-1.9,0.2-2.9,0.3c-2.2,0.2-4.4,0.4-6.6,0.7c-7.3,0.8-14.7,1.5-22,2.2c-2.6,0.3-5.2,0.5-7.9,0.8
	c-11.4,1.1-22.7,1.9-34.1,2.4c-0.9,0-1.8,0.1-2.8,0.1c-5.9,0.2-11.8,0.4-17.7,0.6c-2,0.1-4.1,0.1-6.1,0.2c-3,0.1-5.9,0.2-8.9,0.3
	c-1.4,0.1-1.4,0.1-2.7,0.1c-6.2,0.1-6.2,0.1-9.4-2.3c-0.5-0.7-0.9-1.3-1.4-2c3.1-3.7,6.3-3.8,10.9-4.3c12.2-0.8,24.3-1.3,36.5-1.7
	c22.9-0.1,22.9-0.1,45.6-3c-9.4-1.2-18.8-2.5-28.2-3.6c-1.9-0.2-3.9-0.5-5.8-0.7c-28.8-3.7-57.7-7-86.6-9.7c-2-0.2-4-0.4-6-0.6
	c-28.3-2.7-56.5-4.7-85-4.6c-1.7,0-1.7,0-3.5,0c-47.1,0.2-93.1,5.5-139.7,11.7c-0.8,0.1-1.6,0.2-2.5,0.3c-1,0.1-1,0.1-2,0.3
	c-16.3,2.1-32.6,3.7-48.9,4.9c-1.1,0.1-2.2,0.2-3.4,0.3c-27.4,2.1-54.9,3.7-82.3,5.2c-2.7,0.1-5.5,0.3-8.2,0.4
	c-43.7,2.4-87.3,4.3-131.1,5.3c-32.2,0.8-64.4,2-96.5,4.9c-1.9,0.2-3.8,0.3-5.7,0.5c-8.4,0.7-16.7,1.5-25.1,2.3
	c-12.9,1.3-25.6,1.9-38.6,2.2c-1.2,0-2.5,0.1-3.7,0.1c-22.4,0.6-44.7-0.5-67-1.8c-43.2-2.5-86.3-3.5-129.6-1
	c-22.2,1.3-44.5,1.8-66.7-1.3c-0.7,0-1.3,0-2,0c0.3,1.5,0.5,2.9,0.8,4.4c0.2,0.8,0.3,1.6,0.5,2.5c0.6,2.5,0.6,2.5,3.7,4.2
	c0.3-1.3,0.7-2.6,1-4c5.9-1.7,10.7-2.2,16.8-1.8c0.8,0,1.6,0.1,2.5,0.1c2.6,0.2,5.1,0.3,7.7,0.5c2.6,0.2,5.1,0.3,7.7,0.5
	c1.6,0.1,3.2,0.2,4.8,0.3c10.2,1,10.2,1,19.5-2.6c3-1,5.8-1.1,9-1.1c1,0,2,0,3,0c1.6,0,1.6,0,3.2,0c1.1,0,2.2,0,3.4,0
	c11.8,0.1,23.6,0.7,35.4,1.4c2.3,0.1,4.6,0.3,7,0.4c6.1,0.4,12.2,0.7,18.3,1.1c2.5,0.2,5.1,0.3,7.6,0.5c60.2,3.7,60.2,3.7,83.2,7.8
	c0.8,0.1,1.5,0.3,2.3,0.4c8.3,1.5,16.6,3,24.9,4.5c8.9,1.7,17.8,3.3,26.8,4.7c1.2,0.2,1.2,0.2,2.4,0.4c3.7,0.6,7.3,1.2,11,1.8
	c8,1.3,15.9,2.8,23.7,4.6c10.3,2.3,20.7,4.1,31.1,5.8c17.6,2.9,35.2,6.1,52.7,9.5c1,0.2,1.9,0.4,2.9,0.6c2.7,0.5,5.5,1.1,8.2,1.6
	c0.8,0.2,1.6,0.3,2.4,0.5c12.1,2.5,12.1,2.5,15.5,7.5c-0.2,5.1-2.2,9.8-5,14c-3.8,3.4-6.4,3.4-11.3,3.2c-4.1-0.3-8.1-1-12.1-1.8
	c-0.9-0.2-1.8-0.3-2.7-0.5c-2.9-0.6-5.8-1.2-8.8-1.7c-2.1-0.4-4.1-0.8-6.2-1.2c-10.1-2-20.2-4-30.3-6c-4.6-0.9-9.1-1.8-13.7-2.7
	c-3.2-0.6-6.5-1.3-9.7-1.9c-13.8-2.8-27.5-5-41.6-5.8c-1.2-0.1-1.2-0.1-2.4-0.1c-7.2-0.4-14.4-0.6-21.6-0.7
	c-3.9-0.1-7.8-0.2-11.7-0.2c-0.8,0-1.6,0-2.5-0.1c-37.6-0.8-74.9-2.4-112.4-5.4c-1.1-0.1-2.1-0.2-3.2-0.2
	c-34.1-2.7-67.9-6.6-101.6-12.3c-0.8-0.1-1.7-0.3-2.5-0.4c-38.9-6.4-38.9-6.4-48.6-18.5c-4-5.7-2.6-14.3-1.6-20.8
	c0.7-3.4,1.5-6.8,2.3-10.1c0.3-1.3,0.6-2.6,0.9-3.9c1.1-4.5,2.2-9.1,3.3-13.6c0.2-0.9,0.4-1.7,0.7-2.6c6.5-26,13.2-51.8,20.3-77.6
	c1.4-5.3,2.9-10.6,4.3-15.9c20.1-75.4,44-153.7,80.8-222.8c0.3-0.6,0.7-1.3,1-2c15.1-28.2,34-44,64.5-53.4c13.4-4,26.9-6.6,40.7-8.5
	c1.3-0.2,2.5-0.3,3.8-0.5c14.6-1.9,29.2-3.6,43.8-5.1c0.7-0.1,1.4-0.1,2.2-0.2c31.9-3.3,63.9-5.5,96-7.2c2-0.1,4.1-0.2,6.1-0.3
	c59.6-3.1,59.6-3.1,87.5-3.7c2.8-0.1,5.5-0.1,8.3-0.2C1148,90.2,1178.1,89.8,1208.3,90z M1067.2,100.9c-2.4,0.1-4.9,0.2-7.3,0.4
	c-12.8,0.6-25.5,1.3-38.3,2c-2.9,0.2-5.8,0.3-8.7,0.5c-26.1,1.4-52,3.4-78,5.9c-6.8,0.6-13.5,1.2-20.3,1.8c-3.3,0.3-6.6,0.6-9.9,0.9
	c-2.2,0.2-4.4,0.4-6.6,0.6c-18.2,1.6-35.8,3.7-53.4,8.6c-1.6,0.4-1.6,0.4-3.2,0.9c-12.1,2.9-12.1,2.9-22.8,8.7
	c-2.5,4.9-3.7,10-5.1,15.3c-0.5,1.9-1,3.9-1.6,5.8c-0.6,2.1-1.1,4.3-1.7,6.4c-2.2,8.2-4.4,16.5-6.6,24.7c-0.2,0.9-0.5,1.7-0.7,2.6
	c-3.2,12-6.5,23.9-9.8,35.8c-0.4,1.5-0.9,3.1-1.3,4.6c-0.6,2.1-1.2,4.2-1.8,6.3c-0.3,1.2-0.7,2.4-1,3.6c-1,2.9-1,2.9-3,5.9
	c-1,0.3-2,0.7-3,1c1.4,3.1,3.1,5.6,5.3,8.2c0.7,0.9,1.4,1.8,2.2,2.7c0.9,1.1,1.7,2.1,2.6,3.2c1.1,1.3,2.1,2.6,3.2,3.9
	c7,8.5,14.1,17,21.3,25.3c1.5,1.8,3.1,3.6,4.6,5.3c7.1,8.4,14.6,16.4,22.1,24.4c3.2,3.4,6.4,6.8,9.6,10.3c1.3,1.4,1.3,1.4,2.7,2.9
	c1.6,1.8,3.3,3.6,4.9,5.5c6.2,6.9,12.7,13.6,19.3,20.1c0.9,0.9,1.8,1.8,2.7,2.7c4.5,4.5,9.1,8.8,13.9,13c2.2,1.9,4.2,3.9,6.2,6
	c3.4,3.5,6.9,6.7,10.6,9.8c1.9,1.7,3.6,3.4,5.4,5.2c3,3,6.1,5.8,9.3,8.6c4.1,3.6,8.2,7.3,12.2,10.9c0.7-0.7,1.3-1.4,2-2.1
	c1-1,2-2,3-2.9c0.6-0.6,1.1-1.1,1.7-1.7c10.3-9.5,21-13.7,35-13.2c7.1,0.4,14.1,1.5,21,3c4.7,1,4.7,1,9.2-0.1
	c2.7-3.9,2-8.1,1.7-12.6c-1.1-3.9-3.5-5.8-7-7.7c-0.9-0.4-1.7-0.8-2.6-1.2c-9.7-5.1-18.3-12.8-25.1-21.4c-1.2,2-1.2,2-1.2,4.8
	c-1.1,4.2-3.4,5.8-6.8,8.2c-0.9,0.8-1.9,1.5-2.9,2.3c-0.7,0.6-1.4,1.1-2.1,1.7c-0.1,2.3-0.1,2.3,1,5c2,1.7,4.1,3.1,6.3,4.5
	c0.6,0.5,1.1,1,1.7,1.5c0,1.3,0,2.6,0,4c-5.9-0.4-10.4-2.1-15-6c-2.3-3.7-2.5-6.7-2-11c2.6-4.2,6.2-7,10-10
	c-1.4-3.6-3.1-4.9-6.4-6.9c-4-2.6-6.3-4.4-7.6-9.1c-0.6-7,2.1-11.3,6.4-16.6c1.7-2.6,2.4-4.3,2.6-7.4c-1.5-3-1.5-3-4-6
	c-0.5-0.6-1-1.3-1.5-1.9c-3.4-4.4-3.4-4.4-8.5-6.1c0-2,0-4,0-6c3.3-0.1,5.8-0.1,9,1c-0.3-3.4-0.8-4.8-3.1-7.3
	c-3.7-2.1-5.7-2.4-9.9-1.7c-2.7,2.4-3.8,4.4-4.9,7.8c-0.1,7,2.4,10.8,7,15.7c1,1,2,2.1,3.1,3.1c3.3,3.3,4.6,5.7,4.8,10.4
	c-5.9-0.8-8.8-3.9-13-8c-0.6-0.6-1.3-1.3-2-1.9c-8.9-9.4-8.8-20.9-9.7-33.1c-0.1-1.6-0.3-3.3-0.4-4.9c-0.3-4-0.6-8-0.9-12
	c-2.1,2.1-2.5,3.1-3.5,5.9c-0.3,0.8-0.6,1.7-0.9,2.5c-0.5,1.4-0.5,1.4-0.9,2.8c-0.7,2.1-1.4,4.2-2.1,6.2c-0.6,1.8-0.6,1.8-1.2,3.6
	c-2.5,7.2-5,14.3-7.5,21.4c-0.6,1.7-1.2,3.4-1.8,5.1c-13.7,38.9-13.7,38.9-22.1,44.5c-1-2.6-1.1-3.8-0.2-6.5
	c0.7-1.4,0.7-1.4,1.3-2.8c0.5-1.1,1-2.1,1.5-3.2s1.1-2.3,1.6-3.5c1.1-2.5,2.2-4.9,3.3-7.4c0.3-0.6,0.6-1.3,0.9-1.9
	c7.4-16.6,13.3-33.9,19.2-51.1c2.3-6.7,4.7-13.4,7.3-20c3.8-10.1,7.1-19.9,9.4-30.5c2.5-11.4,6.7-21.5,13.4-31.2
	c1.4-1.7,1.4-1.7,1.3-3c-18.7,0.4-38.4,21.3-50.8,33.8c-12.2,12.7-21.8,27.3-30.3,42.7c-7,12.5-13.6,24.4-23.9,34.5
	c3.7-9.2,8.7-17.7,14-26c0.3-0.7,0.7-1.3,1-2c-0.3-0.7-0.7-1.3-1-2c-0.6,0.5-1.1,1-1.7,1.6c-2.7,2.5-5.5,5-8.3,7.4
	c-0.6,0.5-1.1,1-1.7,1.5c-1.7,1.5-3.5,3-5.2,4.6c-0.5,0.5-1.1,1-1.7,1.5c-3.2,2.7-4.1,3.5-8.5,3.5c-0.5-2.5-0.5-2.5-1-5
	c0.6-0.3,1.2-0.5,1.8-0.8c2.3-1.2,3.8-2.5,5.7-4.3c0.6-0.6,1.3-1.2,1.9-1.8c0.7-0.6,1.3-1.3,2-1.9c7.4-7,7.4-7,10.9-9.9
	c2.3-1.9,4.1-3.7,6-6c2.5-3,5.1-5.9,7.8-8.8c4-4.4,7.5-9,11-13.7c15.7-21,35-39.1,58.5-51.2c0.8-0.4,1.6-0.9,2.5-1.3
	c0.7-0.4,1.5-0.7,2.2-1.1c1.9-1.2,1.9-1.2,2.6-3.2c0.2-3-1.3-4.8-2.9-7.3c-3.5-6.3-3.1-15.7-1.3-22.4c7.3-17.5,23.6-27.7,40.4-34.6
	c14.9-5.6,32.1-5.6,46.9,0.3c9.8,5.1,17.3,11.4,21,22c0.5,2.4,1,4.7,1.5,7.1c0.4,2.1,0.4,2.1,2.5,3.9c1.9,0.6,1.9,0.6,4.1,0.9
	c0.8,0.1,1.6,0.3,2.5,0.4c0.9,0.2,1.8,0.3,2.7,0.5c22.6,4.3,46.5,15.4,60,34.9c9,14.1,13.8,29.4,17.8,45.5c0.3,1.4,0.3,1.4,0.7,2.9
	c0.2,0.8,0.4,1.7,0.6,2.5c1,3.5,1.8,5.7,4.9,7.8c0.9,0.5,1.7,0.9,2.6,1.4c5.7,3.3,9.1,6.6,11.1,13.1c1.5,6.1,0.7,10.4-2,16
	c-1.7,2.7-3.6,5.3-5.5,7.9c-2.6,3.5-3.1,5.6-2.5,10.1c0.9,1.5,2,3,3,4.4c2.2,3.1,3,4.5,3.6,8.3c-1.5,8-7.4,11.8-13.6,16.3
	c0.4,2.7,0.8,3.8,2.8,5.7c0.7,0.5,1.4,1,2.2,1.5c0.7,0.5,1.4,1,2.2,1.6c1.8,1.3,1.8,1.3,3.9,1.2c2.1,4.2,2.8,8.3,2,13
	c-2,4.7-4.9,7.3-9.5,9.4c-3.3,1.3-6,2-9.5,1.6c0.2-1.8,0.2-1.8,1-4c2.5-2,5.1-3.5,7.8-5.2c2.3-1.6,2.3-1.6,3.2-3.8
	c0.1-2.7-0.4-3.8-1.9-6c-2.7-1.9-5.5-3.5-8.4-5.1c-2.9-2.1-4.2-3.7-5.6-6.9c0.7-4.7,2.6-6.9,6.3-9.8c1.1-0.8,2.2-1.6,3.4-2.4
	c2.9-2.2,4.2-3.5,5.3-7c0-0.9,0-1.9,0-2.8c-0.7-0.7-1.3-1.3-2-2c-0.7,0.8-1.4,1.5-2.1,2.3c-2.9,2.7-2.9,2.7-6.4,3.8
	c-2.4,1-3.3,1.6-4.6,3.8c-0.9,2.5-1.6,4.9-2.3,7.4c-6.2,19.5-17.3,35.8-35.6,45.8c-8.1,3.8-8.1,3.8-14,9.9c0,2.3,0,4.7,0,7
	c2.8,0.8,4.4,1.2,7.2,0.2c1.1-0.6,1.1-0.6,2.3-1.3c13.3-7.1,26.8-11.3,41.6-6.9c4.6,1.9,8.8,4.2,13,7c6.3,0.3,12.1-1.9,17.8-4.3
	c0.8-0.3,1.6-0.7,2.4-1c2.5-1,5-2.1,7.6-3.2c2.5-1.1,5.1-2.1,7.6-3.2c1.6-0.7,3.1-1.3,4.7-2c6-2.5,10.3-3.6,16.9-3.4
	c1.5,1.5,1.2,2.9,1.2,5c-0.1,4.8-0.9,9.1-2.2,13.7c-0.3,1.2-0.3,1.2-0.6,2.4c-2.1,7.5-4.8,14.7-7.8,21.9c-0.3,0.8-0.7,1.7-1,2.5
	c-0.3,0.7-0.6,1.5-0.9,2.2c-0.8,2.5-0.9,4.6-0.7,7.2c1.4,1.5,1.4,1.5,3.4,2.4c0.7,0.4,1.4,0.8,2.2,1.2c0.8,0.4,1.6,0.9,2.4,1.3
	c1.6,1,3.3,2,4.9,3.1c0.7,0.5,1.5,0.9,2.2,1.4c2.1,1.7,2.9,3,3.9,5.5c0.4,5.6-0.4,9.6-2,15c-0.3,2-0.5,4-0.8,6.1
	c-1,6.7-3.3,17-8.3,21.9c0.1,2.7,0.2,5.5,0.4,8.2c0,0.8,0.1,1.5,0.1,2.3c0.3,4.2,0.8,8.3,1.5,12.5c9.3,0.1,18.6-0.2,27.9-0.8
	c2.2-0.1,4.5-0.3,6.7-0.4c1.4-0.1,2.9-0.2,4.3-0.3c1.3-0.1,2.6-0.2,3.9-0.2c3.2-0.2,3.2-0.2,6.2-1.3c0.9-2.6,1.2-4.3,1.3-7
	c1-14.4,3.9-28,7.3-42c0.8-3.4,1.6-6.9,2.4-10.3c0.5-2.3,1.1-4.6,1.6-6.9c2.2-9.3,4.3-18.6,6.2-27.9c0.5-2.3,1-4.5,1.5-6.8
	c1.4-6.3,2.7-12.6,4-18.8c2.8-13.5,5.9-26.7,17.6-35.3c15.9-10.2,35.5-14.5,53.4-19.9c21.5-6.3,21.5-6.3,41.6-16.1
	c1.7-1,1.7-1,3.4-2c0.9-0.6,1.7-1.3,2.6-2c0-1,0-2,0-3c-1.9-1.6-3.8-3.1-5.9-4.6c-14.5-10.8-26.9-24.7-32-42.5
	c-1.4-5.4-1.4-5.4-5.1-9.1c-1.6-0.4-3.1-0.9-4.7-1.2c-4.1-1.1-6.7-3.4-9.3-6.6c-5.6-9.9-8-20.6-5.3-31.9c2-5.5,4-8.3,9.3-11.1
	c1.4-0.6,1.4-0.6,2.9-1.1c2.3-1.6,2.3-1.6,2.5-3.7c0.1-4.7-0.5-9.4-1.1-14.1c-2.9-22.9-0.4-44.2,6.7-66.1c0.6-2,1.2-3.9,1.8-5.9
	c0.2-0.7,0.5-1.5,0.7-2.2c0.6-2,0.6-2,0.5-4.9c-20.3-1.1-40.6-1.4-60.9-1.6c-4.9-0.1-9.9-0.1-14.8-0.2c-3.8-0.1-7.7-0.1-11.5-0.2
	c-1.8,0-3.6-0.1-5.5-0.1c-2.5,0-5.1-0.1-7.6-0.1c-0.7,0-1.5,0-2.3,0c-3.7,0-5.3,0.1-8.5,2.2c-0.4,4.1-0.3,5.5,2,9
	c2.5,0.3,4.7,0.5,7.2,0.5c0.7,0,1.4,0,2.2,0c2.3,0,4.6,0.1,7,0.1c3,0,6,0.1,9.1,0.2c0.7,0,1.5,0,2.2,0c22.1,0.5,22.1,0.5,28.4,5.2
	c4.3,5.1,5.1,10.2,6.2,16.6c0.2,0.9,0.3,1.9,0.5,2.8c0.3,1.7,0.6,3.5,0.9,5.2s0.6,3.3,0.9,5c0.9,4.6,1.2,8.1-1.1,12.2
	c-4.6,4.1-10.2,4.4-16.2,4.5c-0.7,0-1.3,0-2,0c-2.3,0-4.6,0-6.9,0c-0.8,0-1.6,0-2.5,0c-19-0.1-38-0.6-57-1.1
	c-2.4-0.1-4.8-0.1-7.2-0.2c-16.9-0.4-33.8-1-50.7-1.8c-1.6-0.1-3.3-0.2-4.9-0.2c-2.3-0.1-4.6-0.2-6.8-0.3c-1.3-0.1-2.6-0.1-3.9-0.2
	c-3.1-0.4-3.1-0.4-6.1-2.4c-3.3-9.9-1.5-27.3,2.8-36.8c4.7-6.6,10-8,17.6-9.6c10-1.6,20.4-0.9,30.5-0.8c2.3,0,4.7,0,7,0
	c5.7,0,11.4,0.1,17.1,0.1c0.3-1.9,0.3-1.9,0.6-3.9c0.1-0.7,0.2-1.4,0.4-2.2c0-0.6,0-1.3,0-1.9c-2.5-2.5-4-2.2-7.4-2.3
	c-0.8,0-1.5,0-2.3,0c-1.2,0-1.2,0-2.4,0c-2.7,0-5.4,0-8.1,0c-1.9,0-3.8,0-5.7,0c-5.1,0-10.2,0-15.3,0c-3.2,0-6.4,0-9.6,0
	C1133,98.8,1100.1,99.2,1067.2,100.9z M1223.9,101c-1.1,5.6-1.2,11.2-1.1,16.9c0,0.9,0,1.7,0,2.6c0,0.8,0,1.6,0,2.5
	c0,0.7,0,1.5,0,2.3c-0.1,1.8-0.1,1.8,1.1,2.7c1.9,0.2,1.9,0.2,4,0.1c0.7,0,1.4,0,2.2,0c1.8,0.1,1.8,0.1,2.8-1.1
	c0.1-1.9,0.1-3.9,0.1-5.8c0-1.2,0-2.3,0-3.5s0-2.5,0-3.7s0-2.5,0-3.7c0-3.1,0-6.1,0-9.2C1230.3,99.7,1226.1,98.8,1223.9,101z
	 M1371.9,102c0.8,4.2,1.3,6.4,4.8,9.1c1.6,0.9,1.6,0.9,3.3,1.9c2.1,1.6,4,3.3,6,5c-1.4-3.9-3.2-7.3-5.3-10.8c-0.9-1.5-0.9-1.5-1.7-3
	c-1.8-2.5-1.8-2.5-4.7-2.6C1373.4,101.8,1372.7,101.9,1371.9,102z M1392.9,102c4.4,5.6,9.2,9.8,15,14c0.7-0.3,1.3-0.7,2-1
	c-1.1-2-2.2-4-3.3-5.9c-0.6-1.1-1.2-2.2-1.8-3.3c-1.6-2.8-1.6-2.8-4-3.6C1398.2,102,1395.6,101.9,1392.9,102z M1418.9,103
	c4.4,5.5,9.1,10.1,15,14c0.7,0,1.3,0,2,0c-1.2-2.5-2.5-4.7-4.1-7c-1.9-3-1.9-3-2.9-7C1425.6,103,1422.3,103,1418.9,103z M1441.9,104
	c4.1,4.8,7.1,8.2,12,11.9c1,0.8,2,1.5,3,2.3c3.1,1.9,5.4,2.5,9,2.8c-0.4-0.8-0.7-1.5-1.1-2.3c-0.5-1-0.9-2-1.4-3s-0.9-2-1.4-3
	c-1.1-2.6-1.1-2.6-1.1-4.6c3.4,0.5,5.1,1.1,8,3c-1.4-3.5-1.4-3.5-3-7C1458,104,1450.1,104,1441.9,104z M1476.9,104
	c1.4,5,3.3,9.3,7,13c1.8,1,1.8,1,3.7,1.6c3.3,1.4,3.3,1.4,4.8,4.1c0.2,0.8,0.4,1.5,0.6,2.3c2.7-2.7,2.7-5.1,3.2-8.8
	c1-2.8,2.3-3.7,4.8-5.2c-1.4-1-2.9-2-4.3-3c-0.8-0.6-1.6-1.1-2.4-1.7c-2.3-1.6-2.3-1.6-5.3-1.3c0,2,0,4,0,6
	c-2.8-1.2-4.9-2.7-7.1-4.6C1479.3,103.8,1479.3,103.8,1476.9,104z M1514.9,107c0.5,0.4,1,0.7,1.5,1.1c10,7.2,16.5,14.1,19,26.7
	c0.9,6.2,0.6,12.4,0.6,18.6c0,0.7,0,1.4,0,2.2c0,9.2-0.2,18.2-1.8,27.3c-0.5,3.8-0.7,7.3-0.4,11.2c2.5,2.4,2.5,2.4,4.5,3.7
	c4.1,3.4,5,9.3,5.5,14.3c0.8,10.3-1.4,20.9-8,29c-4.8,4.5-8.2,5.1-14.7,5.1c-1.2,0-2.4,0-3.6,0c-0.9,0-1.8,0-2.7,0
	c-0.5,1-1,2.1-1.5,3.1c-7.9,16-16.4,30.5-29.5,42.8c-2.2,2-2.2,2-3,5.1c4.3,2.6,8.6,5,13.1,7.4c1.8,1,3.7,2,5.5,3.1
	c5.4,3.1,10.8,5.5,16.7,7.6c0.6,0.2,1.3,0.5,1.9,0.7c13.9,4.8,28.4,7.7,42.8,10.8c2.4,0.5,4.7,1,7.1,1.5c0.7,0.1,1.4,0.3,2.1,0.4
	c4.3,0.9,7.9,2.3,11.8,4.5c-2.3,4.1-5.1,7.5-8.3,10.9c-0.5,0.6-1,1.1-1.6,1.7c-1.7,1.8-3.4,3.6-5.1,5.4c-2.4,2.6-4.9,5.2-7.3,7.8
	c-0.6,0.6-1.2,1.3-1.8,1.9c-4.7,5-9.3,10.1-13.7,15.5c-0.6,0.7-1.2,1.5-1.8,2.2c-0.5,0.7-1.1,1.3-1.6,2c-2.4,2.1-3.5,2.6-6.8,2.6
	c-2.8-1.3-5.2-3-7.6-4.8c-0.7-0.5-1.3-0.9-2-1.4c-1.2-0.9-2.5-1.7-3.7-2.6c-1.5-1.1-3.1-2.1-4.6-3.2c0-1,0-2,0-3c1-0.6,2-1.1,3-1.7
	c1.3-0.7,2.6-1.5,3.9-2.2c1-0.5,1-0.5,2-1.1c2.7-1.5,5-2.8,7.2-5c-0.1-4.9-3-7.9-5.9-11.4c-4.1-5-8-10.1-11.8-15.4
	c-0.4-0.6-0.9-1.2-1.3-1.9c-1-1.4-2-2.8-3-4.3c-0.3,0.7-0.7,1.3-1,2c1.2,2.4,2.5,4.6,3.9,6.9c0.4,0.7,0.8,1.3,1.2,2
	c3.3,5.3,6.8,10.5,10.4,15.6c1.4,2.5,1.4,2.5,1.4,6.5c-0.7,0.3-1.4,0.5-2.1,0.8c-3.4,1.4-6.5,3.1-9.7,4.9c-0.6,0.3-1.2,0.6-1.8,1
	c-1.5,0.8-2.9,1.6-4.4,2.4c0,1.3,0,2.6,0,4c1.5,1.4,1.5,1.4,3.5,2.4c0.7,0.4,1.5,0.8,2.2,1.2c0.8,0.4,1.6,0.8,2.4,1.3
	c15,8.1,15,8.1,16.9,14c0,0.7,0,1.4,0.1,2.1c8.1-6.7,15.3-14,22.2-21.9c2.9-3.3,6-6.5,9.1-9.8c5.1-5.4,10.1-10.9,14.8-16.7
	c4-4.7,8.1-9.3,12.3-13.8c2.4-2.6,4.8-5.2,7.1-7.8c2.8-3.1,5.6-6.2,8.4-9.3c6-6.5,11.8-13.2,17.6-20c1.4-1.7,2.9-3.4,4.3-5.1
	c6.3-7.4,12.3-14.9,18.1-22.7c0.9-1.1,0.9-1.1,1.7-2.3c7.9-10.5,15.7-21,23.3-31.7c0.5-0.5,1-1.1,1.5-1.6c2.8-3.3,2.8-3.3,3.5-7.4
	c-0.5-2.4-1.2-4.7-2-7c-0.5-2-1-4-1.5-5.9c-0.6-2.3-1.2-4.6-1.9-6.9c-0.3-1.3-0.7-2.5-1-3.8c-3.2-11.9-6.5-23.7-9.8-35.6
	c-0.3-0.9-0.5-1.8-0.8-2.7c-1.4-5.2-2.9-10.3-4.4-15.5c-0.7-2.4-1.4-4.9-2-7.3c-0.4-1.5-0.9-3-1.3-4.6c-0.2-0.7-0.4-1.4-0.6-2.1
	c-1.4-5-3.4-9.9-7.8-12.8c-30.2-10.5-65.5-10.3-97.1-11.9c-0.8,0-1.6-0.1-2.4-0.1c-7-0.4-13.9-0.7-20.9-0.8c-1.2,0-1.2,0-2.5,0
	C1518.6,105,1517,105.8,1514.9,107z M1500.9,112c0.3,0.7,0.7,1.3,1,2c0.2,1.9,0.4,3.7,0.6,5.6c0.1,1,0.2,2,0.3,3
	c0.1,0.8,0.1,1.5,0.2,2.3c1.3-0.7,2.6-1.3,4-2c3.1,6.3,0.4,15-1,21.5c-0.7,3.3-1.1,5.2,0,8.5c3.8-6.5,4.4-12.8,4.4-20.2
	c0-0.9,0-1.7,0-2.6c-0.1-6.6-1.2-11.5-5.5-16.7C1503.1,111.8,1503.1,111.8,1500.9,112z M1370.9,115c-0.3,1-0.7,2-1,3
	c0.7,0.7,1.3,1.3,2,2c0.3-1,0.7-2,1-3C1372.2,116.3,1371.6,115.7,1370.9,115z M1150.9,122c-1.3,3.3-1.3,3.3-1.8,7
	c-0.2,1-0.2,1-0.4,2c-1,6-1.1,11.9-0.8,18c3.2,1.9,5.6,2.3,9.3,2.3c1.1,0,2.1,0,3.2,0.1c1.2,0,2.3,0,3.5,0c1.9,0,1.9,0,3.7,0.1
	c3.4,0.1,6.8,0.1,10.2,0.1c3.6,0,7.1,0.1,10.7,0.2c6,0.1,12,0.2,18,0.2c8.4,0.1,16.8,0.2,25.2,0.3c16.4,0.2,32.8,0.5,49.2,0.6
	c1.3,0,1.3,0,2.7,0c2.2,0,4.4,0,6.5,0.1c1.1,0,2.2,0,3.3,0c2.4,0.1,2.4,0.1,4.4-1.1c1.7-4.6,0.5-9.2-0.3-13.9
	c-0.2-1.3-0.2-1.3-0.4-2.7c-0.9-6.3-2-10.5-7.2-14.6c-5.8-3.2-11.8-2.9-18.3-2.9c-0.9,0-1.7,0-2.6,0c-1.8,0-3.6,0-5.4,0
	c-2.8,0-5.5,0-8.3,0c-1.7,0-3.5,0-5.2,0c-0.8,0-1.7,0-2.5,0c-3.8-0.3-3.8-0.3-6.9,1.1c-0.3,3-0.4,6-0.6,9c-0.4,2.8-0.8,4.6-2.4,7
	c-6,3-15.5,1.2-22,0c-1.3-4.2-0.9-8-0.6-12.3c-0.2-2.7-0.2-2.7-1.7-4.8c-4-2.9-7.9-2.4-12.7-2.3c-1.5,0-1.5,0-3,0
	c-2.1,0-4.2,0-6.3,0c-3.2,0-6.4,0-9.6,0c-2,0-4.1,0-6.1,0c-1.4,0-1.4,0-2.9,0C1160.7,115.8,1160.7,115.8,1150.9,122z M1360.9,116
	c1,3,1,3,1,3L1360.9,116z M1361.9,120c1,2,1,2,1,2L1361.9,120z M1362.9,122c1,2,1,2,1,2L1362.9,122z M1517.9,122
	c-0.2,3.4-0.2,3.4,0,7c0.7,0.7,1.3,1.3,2,2c1,0,2,0,3,0c0.3,0.7,0.7,1.3,1,2c-0.5-3.7-0.9-5.8-3-9c-0.7,0-1.3,0-2,0
	C1518.6,123.3,1518.2,122.7,1517.9,122z M1007.9,126c2.9,2,2.9,2,5.9,3.4c9.2,4.5,16.7,9.6,20.1,19.6c0.7,2.7,1.4,5.3,2,8
	c2.8-0.5,2.8-0.5,5-2c0.5-6-0.1-10.2-4-15C1028.9,131.3,1019.7,126.6,1007.9,126z M1353.9,130c0.4,4.8,1.3,6.9,5,10
	C1358.5,135.2,1357.6,133.1,1353.9,130z M983.9,133.3c-2.6,3.5-2.8,5.1-2.5,9.3c1.5,7.7,5.6,13.2,11.4,18.2c2.4,1.5,4.3,2,7.1,2.3
	c1.3-1,1.3-1,1.1-3.3c0-0.9,0-1.8,0-2.8c0-0.9,0-1.8,0-2.8c0-0.7,0-1.4,0-2.2c2.6,2.6,4.9,4.9,7,8c3.1,0.4,5.1,0.5,7.9-1.1
	c1.8-3.1,1.5-5.4,1.1-8.9c-1.7-4.5-4.1-8.2-7-12c-0.3-1-0.7-2-1-3c5.7,2.4,9.5,5.5,11.9,11.3c1.2,3.5,2.2,7.1,3.1,10.8
	c1.3-0.3,2.6-0.7,4-1c0.6-5.1,0.6-8.9-2.5-13.3c-5.9-7-13.6-10.5-22.5-11.8c-2.7-0.2-5.4-0.3-8.1-0.4c-0.7,0-1.4-0.1-2.1-0.1
	C988.8,130.4,987.1,130.9,983.9,133.3z M1444,134.7c-1,0.4-2.1,0.9-3.1,1.3c-0.9,0.4-1.7,0.7-2.6,1.1c-10.4,2.8-20.1,1.6-30.6,0
	c-13.4-2.9-13.4-2.9-26.1-0.1c-1.1,0.9-2.1,1.7-3.2,2.6c-0.6,0.5-1.1,0.9-1.7,1.4c-1.1,0.9-2.2,1.8-3.3,2.8c-1.2,1-2.5,2-3.9,3
	c-8.2,6.2-13,17.3-14.6,27.3c-2.9,24.5-4.1,55.6,5,79c1,0.7,2,1.3,3,2c0.3,1.2,0.6,2.3,0.9,3.5c0.4,1.2,0.7,2.3,1.1,3.5
	c0.6,0.3,1.3,0.6,1.9,0.9c3.1,1.6,3.5,4.2,4.5,7.4c0.2,0.6,0.3,1.1,0.5,1.7c1.7-0.3,3.3-0.7,5-1c1,2.6,2,5.3,3,8
	c0.7-0.3,1.3-0.7,2-1c0.4-2.3,0.4-2.3,0.4-5c0.5-7.1,1.9-13.4,6.6-19c0-0.7,0-1.3,0-2c1.3-0.7,2.7-1.3,4-2c0.9-0.5,1.8-1.1,2.7-1.6
	c5-2.1,9.9-2.2,15-0.4c0.8,0.4,1.5,0.7,2.3,1.1c3.1,0.8,3.1,0.8,6,1c0.7-0.7,1.3-1.3,2-2c2.6-0.3,2.6-0.3,5.8-0.5
	c4.2-0.2,7.3-0.9,11.2-2.5c8.4-0.8,14.7,1.9,21.3,7.1c6.8,6.4,9.4,15.1,11.8,23.9c1.7,0,3.3,0,5,0c0.3-0.6,0.5-1.3,0.8-1.9
	c1.2-2.1,1.2-2.1,4.2-3.1c0.3,0.7,0.7,1.3,1,2c0.7-3.3,1.3-6.6,2-10c1.7,0,3.3,0,5,0c0.3,0.7,0.7,1.3,1,2c1-4.3,2-8.6,3-13
	c1.3,0.3,2.6,0.7,4,1c1.8-1.8,1.7-4.6,2.1-7.1c0.2-1.1,0.4-2.2,0.5-3.3c0.1-0.9,0.3-1.7,0.4-2.6c0.6-0.1,1.3-0.2,1.9-0.4
	c0.7-0.2,1.4-0.4,2.1-0.6c1.8-3.5,1.4-7.6,1.6-11.5c0.4-3.5,0.4-3.5,1.4-6.7c1.6-6,1.1-12,0.9-18.2c-0.1-2.3-0.1-4.6-0.1-6.8
	c-0.3-12.6-2.6-21.9-10.8-31.6c-6.9-8.7-10.2-16.9-10.8-28.1c-0.1-2-0.1-2-1.2-4c-1.2,0-2.3,0-3.5,0c-1.5,0-3.1,0-4.6,0
	c-1.2,0-1.2,0-2.3,0c-4,0-7.6-0.2-11.5-1.1C1455.9,130,1450.5,132,1444,134.7z M1523.9,133c1,2,1,2,1,2L1523.9,133z M808.9,134
	c-1.2,0.7-2.5,1.4-3.7,2.1c-0.7,0.4-1.4,0.8-2.1,1.2c-6.8,5.1-8.7,10.9-11.1,18.8c-0.5,1.6-0.5,1.6-1,3.3c-2.9,9.5-5.6,19-8.3,28.6
	c-2.3,8-4.7,15.9-7.4,23.7c-1.9,5.7-3.7,11.4-5.4,17.2c-0.2,0.8-0.5,1.5-0.7,2.3c-0.2,0.7-0.4,1.3-0.6,2c-0.7,1.8-0.7,1.8-2.7,4.8
	c-0.7,0-1.3,0-2,0c-1-5.1-0.9-8.6,0.7-13.5c0.2-0.6,0.4-1.2,0.6-1.9c0.6-2,1.3-4.1,1.9-6.1c0.4-1.4,0.9-2.9,1.3-4.3
	c1.2-3.9,2.4-7.8,3.7-11.7c2.2-7.1,4.5-14.2,6.7-21.3c0.8-2.6,1.6-5.2,2.5-7.8c0.5-1.6,1-3.2,1.5-4.8c0.2-0.7,0.5-1.5,0.7-2.2
	c1.3-4.2,1.3-4.2,0.5-8.4c-23.5,35.3-37.8,76.3-52,116c-0.5,1.3-1,2.7-1.5,4c-1.2,3.4-2.5,6.9-3.7,10.3c-0.7,1.9-1.4,3.8-2,5.7
	c-2.6,7.5-5.1,15-7.4,22.5c-1.5,4.9-3.1,9.7-4.6,14.5c-6.3,19.7-12.5,39.3-17.8,59.3c-0.9,3.3-1.8,6.5-2.6,9.7
	c-0.8,2.8-1.5,5.6-2.3,8.4c-0.4,1.3-0.7,2.7-1.1,4c-0.5,1.8-1,3.7-1.5,5.5c-0.3,1.1-0.6,2.1-0.9,3.2c-0.7,2.7-0.7,2.7,0.5,5.6
	c1.2-1.3,2.4-2.6,3.7-4c1.1-1.2,2.1-2.3,3.2-3.5c2.8-3,5.6-6,8.3-9.1c1-1.1,2.1-2.3,3.1-3.4c0.5-0.6,1-1.1,1.5-1.7
	c2.6-2.8,5.2-5.3,8.2-7.6c7.2-5.9,8.6-18,10.8-26.6c0.6-2.4,1.3-4.8,1.9-7.1c0.9-3.5,1.9-7,2.8-10.4c6.2-23.3,12.4-46.7,19-69.9
	c0.6-1.9,1.1-3.9,1.6-5.8c0.3-1.1,0.7-2.3,1-3.5c0.4-1.5,0.4-1.5,0.8-3c1-2.5,1.8-3.8,4-5.4c0.7,0,1.3,0,2,0
	c-1.4,9.1-3.5,17.9-6.1,26.8c-0.6,2.1-1.3,4.3-1.9,6.4c-0.3,1.1-0.7,2.2-1,3.4c-2.8,9.5-5.4,19-8.1,28.6c-1,3.7-2.1,7.4-3.1,11.1
	c-1.6,5.9-3.3,11.7-4.9,17.6c-0.6,2.1-1.1,4.1-1.7,6.2c-0.7,2.7-1.5,5.4-2.2,8c-0.2,0.8-0.4,1.5-0.7,2.3c-1.2,4.3-1.2,4.3-0.3,8.6
	c1.3-1,1.3-1,2.5-2c6.2-5,11.9-9.1,19.5-12c-0.7-3.2-0.7-3.2-3.8-4.8c-4-2.7-7.6-5.3-8.7-10.2c-0.2-3.3,0-5.4,2.1-8
	c2.9-2.3,5.5-3.4,9-4.7c1.4-0.5,2.7-1,4.1-1.6c1.1-0.4,1.1-0.4,2.1-0.8c15.6-6.1,30.5-13.7,44.4-22.9c1.7-0.9,1.7-0.9,4.7-0.9
	c0.3,1.3,0.7,2.6,1,4c-15.1,11.2-30.9,19-48.3,25.9c-3.9,1.6-7.8,3.3-11.7,5.1c0.1,3.8,1.1,5.1,3.6,8c6.9,5.5,16.3,7.3,24.7,9.2
	c0.9,0.2,1.8,0.4,2.8,0.6c1.8,0.4,3.6,0.8,5.4,1.1c6.1,1.3,11,3.5,15.4,8.1c2.4,4.3,3.5,8.2,2.6,13.1c-1.3,4-3.6,7-6.2,10.3
	c-1.4,1.6-1.4,1.6-2.3,3.7c20.8-5.5,33.6-22.5,43.9-40.2c1-1.7,2-3.4,2.9-5.2c0.6-0.8,0.6-0.8,1.3-1.7c1,0,2,0,3,0
	c-1.6,14.3-14.7,30-25.2,38.9c-9,6.8-18.2,11-28.9,14.1c-4.7,1.3-4.7,1.3-7.9,5c4,4.8,7.8,6.9,14,8c15.7,1.2,15.7,1.2,29.9-4.3
	c0.7-0.9,1.4-1.8,2.1-2.8c0.9-1.1,1.9-2.2,2.8-3.3c0.7-0.9,1.4-1.8,2.2-2.7c-0.6,6.1-3.3,10.1-6.6,15.2c-1.6,2.6-1.6,2.6-1.2,5.1
	c1,2.1,2,3.3,3.8,4.7c5.2,1.7,10.2,1.7,15.4-0.3c2.7-1.8,4.1-2.8,5.6-5.8c-0.7-2.6-1.4-4.7-2.6-7.1c-0.3-0.7-0.6-1.3-0.9-2
	c-0.8-2-1.7-3.9-2.6-5.9c-0.8-1.8-1.6-3.7-2.4-5.6c-0.3-0.7-0.7-1.4-1-2.2c-0.7-3-0.2-5.3,0.4-8.2c11.4-0.6,22.2,0.7,33.4,2.6
	c6.3,1,12.2,1.6,18.6,1.4c-2.7-3.4-5.3-6.4-8.6-9.2c-4.7-4.1-9.1-8.4-13.4-12.8c-0.8-0.8-1.7-1.7-2.5-2.5c-1.8-1.8-3.5-3.5-5.3-5.3
	c-2.7-2.7-5.4-5.4-8-8c-1.7-1.7-3.4-3.4-5.2-5.2c-0.8-0.8-1.6-1.6-2.4-2.4c-4.2-4.2-8.2-8.5-12.1-13c-1.9-2.2-3.9-4.2-6-6.2
	c-3.3-3.3-6.5-6.7-9.6-10.3c-1.9-2.2-3.9-4.4-5.9-6.5c-4-4.3-7.8-8.6-11.5-13.2c-3.4-4.2-6.9-8.1-10.6-12.1
	c-4.5-4.8-8.7-9.7-12.8-14.8c-2.3-2.8-4.7-5.5-7.2-8.2c-3.4-3.7-6.7-7.5-10-11.3c-0.7-0.9-1.4-1.7-2.2-2.6
	c-2.6-3.7-3.8-7.1-3.8-11.6c4.3-0.4,7.1-0.2,10.8,2.1c1.1,0.6,2.1,1.3,3.2,1.9c0.7-0.3,1.3-0.7,2-1c-0.2-0.5-0.3-1-0.5-1.5
	c-0.7-3.6-0.6-6.9-0.5-10.5c1-1,1-1,3.2-1.4c4.1,0.5,5.8,2.6,8.8,5.4c-0.1-1.1-0.1-2.2-0.2-3.3c0-5.6,1.6-10.6,3.2-16
	c0.3-1.1,0.6-2.2,1-3.3c1-3.5,2-7,3.1-10.5c0.7-2.3,1.3-4.6,2-6.9c2-7,4.1-14,6.1-21c2.3-8,4.7-16,7-24c0.6-2,1.1-4,1.7-5.9
	c0.7-2.6,1.5-5.1,2.2-7.7c0.2-0.7,0.4-1.5,0.7-2.2C809.8,137.5,809.8,137.5,808.9,134z M971.5,138.2c-4.1,4.2-5.4,6.8-5.9,12.7
	c0.2,4.4,1.5,7.8,4.4,11.1c4.4,3.7,9,7,15,7c2.3-0.8,2.3-0.8,4-2c-0.6-3.5-1.8-5.2-4.3-7.7c-6.6-7.4-8.3-14.5-8.7-24.3
	C974,135,972.7,136.9,971.5,138.2z M1657.9,123c-1.4,3.8-0.6,6.4,0.5,10.2c0.4,1.3,0.7,2.5,1.1,3.8c0.4,1.4,0.8,2.8,1.2,4.1
	c0.4,1.4,0.8,2.9,1.2,4.3c1.1,3.8,2.2,7.6,3.3,11.4c1.7,6,3.4,11.9,5.2,17.9c0.6,2.2,1.3,4.4,1.9,6.6c2,6.8,3.9,13.6,5.7,20.5
	c0.3,1.2,0.6,2.4,0.9,3.6c0.6,2.2,1.1,4.4,1.7,6.7c1.4,5.3,2.6,8.8,6.3,12.9c0.4,2.9,0.4,2.9,0.3,5.8c0,1-0.1,2-0.1,3
	c0,0.7-0.1,1.5-0.1,2.2c1.5-0.5,1.5-0.5,3.1-1c3.7-1.1,7.1-1.3,10.9-1c2,2,2,2,2.3,4.8c-0.4,3.7-1.3,5.2-3.6,8.2
	c-0.7,1-1.5,1.9-2.2,2.9c-3.2,3.9-6.4,7.7-9.7,11.6c-3.9,4.5-7.7,9.1-11.5,13.7c-0.5,0.7-1.1,1.4-1.7,2.1c-1.1,1.3-2.1,2.6-3.2,3.9
	c-9.2,11.4-18.6,22.7-28.4,33.5c-2.4,2.7-4.8,5.5-7.2,8.2c-2,2.3-4.1,4.6-6.2,6.9c-3.1,3.5-6.1,7-9.1,10.7c-3.8,4.7-7.8,8.8-12.1,13
	c-2.5,2.5-4.6,5.1-6.8,7.9c-3.8,4.8-7.9,9.1-12.3,13.3c-3.4,3.3-6.6,6.8-9.7,10.4c-2.4,2.7-5,5.3-7.7,7.8c-2.6,2.7-5,5.5-7.4,8.4
	c-1.5,1.7-1.5,1.7-4.5,3.7c-2.5,0-2.5,0-5.5-0.3c-1.8-0.2-1.8-0.2-3.6-0.3c-2.6-0.3-5.2-0.6-7.8-0.9c-16-1.9-32-2.2-48.1-2.5
	c-2.4-4.7-2.4-9.2-2.5-14.3c-0.1-1.9-0.1-3.8-0.2-5.7c0-1.5,0-1.5-0.1-3c-0.5-14.4-1.1-28.8-2.6-43.2c-0.2-1.6-0.2-1.6-0.3-3.3
	c-0.7-6.3-1.6-12.8-4.2-18.6c-1.5-1-1.5-1-3-2c-0.2,0.7-0.3,1.4-0.5,2.2c-3.5,14.1-12.2,20.4-23.7,28.3c-2.9,2-4.8,3.5-6.7,6.5
	c6.2-1.5,12.3-3,18.3-5.2c4.5-1.5,8-2.6,12.7-1.8c2.2,1.6,2.2,1.6,4,4c0.4,2.6,0.5,4.9,0.5,7.5c0,0.7,0,1.4,0,2.2c0,1.5,0,3,0,4.6
	c0,2.3,0,4.6,0,7c0,1.5,0,3,0,4.4c0,0.7,0,1.4,0,2.1c-0.1,2.9-0.1,4.8-1.8,7.2c-1.7,1-1.7,1-4.8,1c-7.3-1.8-13.5-5.2-19.8-9.1
	c-2.5-1-3.5-0.6-6,0.1c0,1.5,0,1.5-0.1,3c-0.1,3.7-0.2,7.3-0.3,11c0,1.6-0.1,3.2-0.1,4.7c-0.1,2.3-0.1,4.5-0.2,6.8
	c0,0.7,0,1.4-0.1,2.1c-0.1,3-0.3,5.5-1.3,8.4c-1.3,0.3-2.6,0.7-4,1c-0.3-13.5-0.7-27.1-1-41c-5.7-2-5.7-2-11.2-1.8
	c-0.8,0.1-1.7,0.2-2.5,0.3c-2.5,0.4-2.5,0.4-5.3,2.5c-0.5,1.9-0.5,1.9-0.4,4c0,0.8,0,1.7,0,2.5c0,0.9,0,1.8,0,2.7c0,0.9,0,1.8,0,2.8
	c0,2.9-0.1,5.9-0.1,8.8s-0.1,5.9-0.1,8.8c0,1.8,0,3.7,0,5.5c0,0.8,0,1.7,0,2.5c0,0.7,0,1.5,0,2.2c-0.3,2.4-1.1,4-2.3,6.1
	c-1,0-2,0-3,0c0-1.2,0-2.3,0-3.5c0-4.3,0-8.6,0-13c0-1.9,0-3.7,0-5.6c0-2.7,0-5.4,0-8.1c0-0.8,0-1.7,0-2.5c0-3.3,0-6.1-1.1-9.3
	c-4.5,0.6-8.1,2.4-12,4.5c-8.2,4.3-8.2,4.3-12,4.5c-2.6-1.1-2.6-1.1-5-3c-0.6-3-0.6-3-0.6-6.7c0-0.6,0-1.3,0-2c0-1.4,0-2.7,0.1-4.1
	c0-2.1,0-4.2,0-6.3c0.1-11.4,0.1-11.4,3.5-16c8.3-4.2,20.6,0.8,29,3c-3-3.9-5.7-6.8-9.9-9.5c-0.9-0.6-1.7-1.2-2.6-1.8
	c-1.5-1-3-2-4.5-3.1c-5.7-4.3-7.7-10.1-10-16.6c-2.6,2.6-3.3,5.2-4.6,8.7c-0.4,1.2-0.9,2.4-1.3,3.6c-3.7,12.3-2.8,25.9-3.1,38.7
	c0,0.9,0,1.8-0.1,2.7c-0.1,6-0.2,12.1-0.3,18.1c0,2-0.1,4.1-0.1,6.1c-0.1,2.9-0.1,5.8-0.1,8.7c0,0.9,0,1.7-0.1,2.6
	c0,4.4,0.1,6.1,3,9.7c0.9,0.7,1.7,1.3,2.6,2c1.3,1,1.3,1,2.6,2.1c5.6,3.8,5.6,3.8,12.1,5.2c2-0.5,2-0.5,4.3-1.3c1-0.3,1.9-0.6,2.9-1
	c1.8-0.6,3.6-1.2,5.4-1.8c26.8-9.1,55.3-14.8,83.7-15.2c1.1,0,2.2-0.1,3.3-0.1c24.5-0.5,49.4,2.8,72.9,9.6c4.4,1.3,4.4,1.3,8.8,0.5
	c-2.2-2.2-3.4-2.6-6.3-3.5c-0.8-0.3-1.7-0.5-2.6-0.8c-1.3-0.4-1.3-0.4-2.7-0.8c-0.9-0.3-1.8-0.6-2.7-0.8c-4.3-1.5-4.3-1.5-8.8-2
	c2.3-4.3,5.3-7.5,8.8-10.8c3.9-3.8,7.7-7.7,11.2-11.9c2.9-3.3,5.9-6.4,8.8-9.6c8.2-8.8,16.3-17.6,24.2-26.7c2.1,0,2.1,0,5,1
	c5.2,5.2,8.4,12.2,11.6,18.7c8.9,17.4,18.7,34.2,28.9,50.8c1,1.6,2,3.3,3,5c6.7,11.1,13.8,20.9,22.5,30.5c11.7,13.1,18.9,26.3,20,44
	c4.9,2.4,10.1,2.8,15.5,3.5c1,0.1,2.1,0.3,3.1,0.4c2.2,0.3,4.4,0.5,6.5,0.8c3.3,0.4,6.6,0.8,9.9,1.2c13.7,1.7,27.2,3.3,41,3.3
	c0.8,0,1.6,0,2.5,0c0.8,0,1.6,0,2.4,0c0.7,0,1.4,0,2.1,0c2.3-0.3,3.9-1.2,6-2.2c0.3-7.6-0.9-14.4-2.7-21.8c-0.3-1.2-0.6-2.4-0.8-3.7
	c-0.7-3.2-1.5-6.4-2.2-9.6c-0.8-3.2-1.5-6.4-2.2-9.7c-1.6-7.1-3.3-14.2-5-21.2c-0.3-1.4-0.3-1.4-0.6-2.7c-0.5-2.3-1.1-4.5-1.6-6.8
	c-0.3-1.2-0.6-2.3-0.9-3.6c-2.8-9.2-11.2-15.1-18.1-21.3c-3.1-2.8-6.1-5.6-9.1-8.5c-0.6-0.6-1.2-1.2-1.9-1.8
	c-3.3-3.1-6.6-6.2-9.9-9.3c-7.4-7-14.9-13.8-22.9-20.1c-1.2-1-2.4-2-3.6-3c-14.7-12-33.2-26.4-53.4-25c-1.5,1-1.5,1-3,2
	c1.5,5.2,3.1,10.2,4.8,15.3c5.3,15.3,9.3,31,13.6,46.6c0.8,3.1,1.7,6.2,2.5,9.3c0.6,2,1.1,4.1,1.6,6.1c0.2,0.9,0.5,1.8,0.8,2.7
	c1.4,5.2,1.9,9.7,1.6,15.1c-10.3-9.4-13.1-30.9-16.9-44c-0.5-1.7-1-3.4-1.5-5.1c-0.7-2.5-1.5-5.1-2.2-7.6c-2.6-9-5.3-17.8-9.5-26.2
	c-0.5-1-0.5-1-1-2c-2.9-5.6-6.6-8.9-11.9-12.1c-5.8-3.6-5.8-3.6-6.9-6.3c0-0.6-0.1-1.2-0.1-1.8c4.2-1.4,6.2-0.5,10.1,1.3
	c4.4,1.7,8.7,1.1,13.1-0.4c14.3-3.5,29,3.5,41.8,9.1c-1.3-8.2-2.9-16.3-4.6-24.3c-0.5-2.3-1-4.6-1.5-6.9c-0.8-3.6-1.6-7.2-2.4-10.7
	s-1.5-7-2.3-10.5c-0.2-1.1-0.5-2.1-0.7-3.2c-1.1-5.1-1.9-9.2-0.5-14.3c2.2,2.2,2.6,3.4,3.4,6.4c0.3,1,0.5,1.9,0.8,2.9
	c0.3,1.1,0.6,2.1,0.8,3.2c0.3,1.1,0.6,2.2,0.9,3.4c2,7.6,3.9,15.3,5.7,23c0.2,0.9,0.4,1.9,0.7,2.8c1.1,4.7,2.2,9.4,3.3,14.1
	c0.4,1.8,0.8,3.5,1.2,5.3c0.3,1.2,0.3,1.2,0.5,2.4c1.8,7.8,4.1,13.7,10.4,19c0.5,0.4,1,0.9,1.5,1.3c1.6,1.4,3.2,2.8,4.8,4.2
	c5.4,4.7,10.8,9.5,16,14.4c0.7,0.7,1.4,1.3,2.1,2c4.7,4.4,9.4,8.9,13.9,13.6c1.7,1.7,3.3,3.3,5,5c1.4,1.4,2.8,2.8,4.2,4.2
	c0.8,0.8,1.5,1.5,2.3,2.3c3.5,3.5,7,7,10.5,10.5c1.4-2.8,0.6-4.4,0-7.4c-0.3-1.2-0.5-2.3-0.8-3.5c-0.3-1.3-0.6-2.6-0.9-3.9
	c-0.2-0.7-0.3-1.3-0.5-2c-1.2-5.4-2.5-10.7-3.8-16.1c-0.2-0.8-0.4-1.7-0.6-2.5c-8.4-35.1-18-69.9-29.3-104.2
	c-0.8-2.4-1.6-4.8-2.4-7.2c-9.8-30.1-19.9-60.2-31.8-89.6c-0.6-1.6-0.6-1.6-1.3-3.1c-3.7-8.9-7.6-17.8-14.3-24.9
	c-0.7-0.8-1.5-1.6-2.2-2.4c-1.1-1.1-1.1-1.1-2.1-2.2c-1.1-1.1-1.1-1.1-2.1-2.3c-1.7-1.9-1.7-1.9-3.9-1.7c0.5,6.8,1.9,12.6,4.1,19.1
	c0.7,2.2,1.4,4.3,2.1,6.5c0.2,0.6,0.4,1.2,0.6,1.9c3.1,9.5,6.1,19,9,28.6c1,3.3,2,6.6,3.1,9.8c0.6,2,1.3,4.1,1.9,6.1
	c0.3,1,0.6,1.9,0.9,2.9c0.3,0.9,0.5,1.8,0.8,2.7c0.4,1.2,0.4,1.2,0.7,2.3c1.5,4.9,1.7,9,1.6,14.1c-1.7,0.3-3.3,0.7-5,1
	c-2.7-5.8-4.9-11.6-6.7-17.8c-0.5-1.8-1-3.5-1.6-5.3c-0.3-1-0.6-1.9-0.8-2.9c-1.6-5.6-3.3-11.3-5-16.9c-0.7-2.5-1.5-4.9-2.2-7.4
	c-0.4-1.2-0.7-2.5-1.1-3.7c-0.7-2.5-1.5-5-2.2-7.6c-1.8-6-3.6-12.1-5.4-18.1c-1.2-3.8-2.3-7.7-3.4-11.5c-0.2-0.7-0.4-1.5-0.7-2.3
	c-0.5-1.9-1.1-3.8-1.6-5.7c-1.5-3.5-3.1-4.8-6.3-6.9C1660.7,123.7,1660.7,123.7,1657.9,123z M1349.9,141c-0.6,5.7-0.6,5.7,2,10.5
	c0.7,0.5,1.3,1,2,1.5c0.9-2.5,1.1-3.6,0.2-6.1c-0.6-1-0.6-1-1.2-2.1c-0.4-0.7-0.8-1.4-1.2-2.1c-0.3-0.5-0.6-1.1-0.9-1.6
	C1350.6,141,1350.2,141,1349.9,141z M958.9,145c-3.1,4.9-4.7,8.9-3.7,14.8c2.1,6.5,7.9,12.8,13.7,16.2c2.9,0.1,2.9,0.1,5-1
	c-0.8-3.3-0.8-3.3-4.3-5.1c-4.9-3.3-7.6-8.3-9.4-13.9c-0.4-2.3-0.5-4.4-0.4-6.8c0-0.8,0-1.6,0-2.4c0-0.6,0-1.2,0-1.8
	C959.6,145,959.2,145,958.9,145z M1516.9,146c-0.7,2.4-1.4,4.9-2.1,7.3c-0.2,0.7-0.4,1.4-0.6,2.1c-1.2,4.3-1.2,4.3-0.3,8.6
	c2.9-6.3,4.5-11.1,4-18C1517.6,146,1517.2,146,1516.9,146z M1347.9,160c1,3,1,3,1,3L1347.9,160z M949.9,161c0.5,7.4,2.5,11.8,8,16.9
	c2.7,2.4,2.7,2.4,5.2,1.7c0.6-0.2,1.2-0.4,1.8-0.6c-0.5-0.4-1-0.8-1.5-1.1c-6-4.8-9.2-10-12.5-16.9C950.6,161,950.2,161,949.9,161z
	 M1013.9,167c-0.7,0.2-1.4,0.3-2.1,0.5c-21.8,5.4-37.1,16.8-49.4,35.9c-8.7,15.1-15.1,31.2-17.5,48.6c0.3,1,0.7,2,1,3
	c1.2-2,2.5-3.9,3.7-5.9c0.7-1.1,1.4-2.2,2.1-3.3c4.2-6.9,7.5-14.2,10.5-21.6c7.2-17.5,17.6-35.9,35.7-44.2c-0.3,3.4-0.7,4.7-3.2,7.1
	c-1.4,1-1.4,1-2.8,2.1c-14.6,11.5-20.9,26.8-28.1,43.3c-2.5,5.8-5.4,11.3-8.5,16.8c-1.3,2.5-2.4,5-3.4,7.7c3.8-1.4,6.8-3.1,10.1-5.6
	c1-0.7,1.9-1.4,2.9-2.2c1-0.8,2-1.5,3-2.3s2.1-1.5,3.1-2.3c18.8-13.8,27.9-31.9,31.9-54.7c0-1,0-2,0-3c1,0.3,2,0.7,3,1
	c0.8,14.7-2.2,26.9-9.7,39.5c-0.4,0.8-0.9,1.7-1.3,2.5c0.3,0.7,0.7,1.3,1,2c0.7,0,1.3,0,2,0c-1.1,9.1-8.2,14.6-15,20
	c-5.6,4.1-11.3,8.1-17,12c-2.6,1.8-5.2,3.6-7.8,5.4c-0.6,0.4-1.1,0.8-1.7,1.2c-3.5,2.4-6,5-8.5,8.4c2.9-0.1,5.2-0.3,7.5-2.3
	c0.8-0.8,0.8-0.8,1.5-1.7c3.2-3.4,6.6-5.9,10.6-8.3c17.8-11.1,37.3-23.9,42.4-45.7c0.8-4.4,1.1-8.5,1.1-12.9c0-1.3,0-2.6,0-3.9
	c0-1.3,0-2.7,0-4c0-1.4,0-2.7,0-4.1c0-3.3,0-6.7,0-10c3.3,1.4,5,2.9,7.1,5.8c0.6,0.8,1.1,1.5,1.7,2.3c0.6,0.8,1.2,1.6,1.8,2.4
	c19.6,25.8,44.7,33.1,75.5,39.1c11.3,2.2,21.7,5,31.9,10.4c1,0.3,2,0.7,3,1c0-2.9,0-2.9-1-6c-2.7-2-2.7-2-6.3-3.4
	c-0.7-0.3-1.3-0.6-2-0.9c-12.5-5.3-25.3-9.3-38.5-12.3c-19.2-4.4-37.4-11-52.3-24.4c-0.7-0.6-1.3-1.2-2-1.8c-4.3-4-6.6-7.9-9-13.2
	c5,2.3,8.2,5.1,11.9,9.1c10.2,10.7,23.8,18.1,38.1,21.9c1-0.3,2-0.7,3-1c-0.7-0.4-1.4-0.8-2.1-1.2c-23.9-13.4-23.9-13.4-32.9-20
	c-0.6-0.4-1.2-0.9-1.8-1.3c-2.9-2.2-4.9-4-6.2-7.5c5.9,1.8,10.2,4.4,15.1,8c5,3.5,10.3,6.5,15.5,9.6c2.6,1.5,5.2,3.1,7.8,4.7
	c1.9,1.2,3.9,2.3,5.8,3.5c0.9,0.5,1.8,1.1,2.7,1.6c9.2,5.5,18.1,9.9,28.4,13c8.1,2.5,14.8,5.4,21.6,10.6
	c-7.1-19.1-23.4-32.5-41.4-40.9c-12.3-5.1-24.9-7.9-37.9-10.5c-2.4-0.5-4.7-1-7.1-1.5c-10.3-2.2-20.1-2.3-30.6-2c0-0.7,0-1.3,0-2
	c2.6-1.3,5.3-2.6,8-4c-1-0.3-2-0.7-3-1c3.9-4.6,9.3-4.5,15-5c18.5-1.2,35.6,1.7,53,7.9c2.3,0.8,4.6,1.5,7,2.1
	c-8.6-9.6-26.5-13.7-39-15C1038.9,163.3,1026.5,163.8,1013.9,167z M943.9,166c0.2,7.2,1.3,12.5,6,18c2.4,2.2,2.4,2.2,5,3
	c2.1-0.9,2.1-0.9,4-2c-0.6-0.5-1.2-1-1.8-1.5c-4.9-4.2-8.4-7.7-11.2-13.5C945.2,168.7,944.6,167.3,943.9,166z M1519.9,172
	c1,2,1,2,1,2L1519.9,172z M1028.9,176c0.8,0.1,1.5,0.2,2.3,0.3c32.2,5,61.4,11.8,85.7,34.7c0-5.4-4.5-9.1-8-13
	c-11.1-10.9-25.9-18.5-41-22c-1-0.2-1.9-0.4-2.9-0.7c-7.4-1.4-14.8-1.5-22.2-1.6c-1,0-2,0-3.1,0c-1,0-1.9,0-2.9,0
	c-1.3,0-1.3,0-2.6,0C1031.6,173.9,1031.6,173.9,1028.9,176z M1518.9,174c1,2,1,2,1,2L1518.9,174z M1517.9,176c1,2,1,2,1,2
	L1517.9,176z M960.9,195c1,2,1,2,1,2L960.9,195z M957.9,199c0,3,0,3,0,3V199z M1520.9,203c-4,5.1-3,10.3-2.3,16.4
	c0.1,0.9,0.2,1.7,0.3,2.6c-1,0.7-2,1.3-3,2c-0.5,5.4-0.3,9.4,3,14c2.8,1.4,2.8,1.4,6,1c6.1-3.5,8-8.5,10-15c1.8-7.7,2.1-15-2-22
	C1528.5,198.8,1525.1,199.9,1520.9,203z M955.9,202c0,3,0,3,0,3V202z M953.9,205c-1.3,2.5-2.6,5.1-3.9,7.6c-0.4,0.7-0.7,1.4-1.1,2.2
	c-3.9,7-3.9,7-4.6,14.6c0.2,0.5,0.4,1.1,0.6,1.6c0.4-1.1,0.8-2.1,1.2-3.2c4.7-12.9,4.7-12.9,7.3-17.7c0.5-1,1-2.1,1.6-3.1
	C954.6,206.3,954.2,205.7,953.9,205z M1337.7,206.8c-4.3,5.2-3.2,11.7-2.8,18.2c1,5.7,2.6,11,7,15c2.6,1,2.6,1,5,1
	c0.5-0.5,0.5-0.5,1-1c-0.1-4.1-0.4-8.1-0.7-12.2c-0.1-2-0.3-4.1-0.4-6.1c-0.1-1.3-0.2-2.6-0.3-3.9c-0.1-1.2-0.2-2.4-0.2-3.6
	c-0.4-3.1-1-5.4-2.4-8.2C1341,204.3,1340.3,204.7,1337.7,206.8z M1018.9,207c-0.1,0.8-0.1,0.8-0.3,1.7c-3.6,20.4-3.6,20.4-8.7,29.3
	c-0.5,0.9-1,1.8-1.5,2.7c-7.8,13.5-20.1,21.3-33,29.3c-6.7,4-6.7,4-11.5,9.9c-0.1,6.6,1.9,11.1,4.9,16.9c4.5,8.7,7.7,15.8,6.5,25.8
	c-0.7,6.7,0.6,10.1,4.6,15.4c0.6,0.8,1.2,1.6,1.8,2.5c15.6,20.4,37.9,34.2,63.5,38.2c12.4,1.4,22.1-1.6,33.2-6.9
	c0.8-0.4,1.7-0.8,2.5-1.2c6.1-3,11.7-6.3,17-10.6c1-0.7,2-1.4,3.1-2.2c18.2-15.9,26.2-43.5,27.9-66.8c0.3-5.6,0.4-11.2,0.4-16.9
	c0-1.1,0-1.1,0-2.1c0-2,0-4.1,0-6.1c0-1.2,0-2.4,0-3.6c-0.7-4.6-2.7-7.7-6.2-10.8c-10.6-6.4-22-9.3-34.1-11.5
	c-24.8-4.7-47.8-11.2-65.6-30.4C1021.9,207.8,1021.9,207.8,1018.9,207z M942.9,231c-1.3,4.1-2.3,7.7-2,12c2.4-3.8,2.6-7.6,3-12
	C943.6,231,943.2,231,942.9,231z M984.9,241c-0.6,0.5-1.2,1-1.8,1.5c-6.6,5.4-13.5,10.2-20.6,14.9c-1.1,0.7-2.1,1.4-3.2,2.2
	c-1,0.7-2,1.4-3.1,2.1c-0.9,0.6-1.8,1.2-2.8,1.8c-2.5,1.5-4.9,2.6-7.6,3.6c-1.7-1.6-3.3-3.3-5-5c-1.3,1.1-1.3,1.1-1.1,3.7
	c0,1.1,0,2.2,0,3.3c0,1.1,0,2.2,0,3.3c0,0.9,0,1.7,0,2.6c4-0.6,6.8-2.8,9.9-5.2c4.4-3.2,8.8-6.3,13.4-9.3c0.9-0.6,1.8-1.2,2.8-1.8
	c1.8-1.2,3.6-2.3,5.4-3.5c5.9-3.8,10.7-8,15.5-13.2C986.2,241.7,985.6,241.3,984.9,241z M939.9,244c1,3,1,3,1,3L939.9,244z
	 M1678.9,247c-7.1,8.1-13.6,16.5-19.8,25.3c-1.9,2.7-3.9,5.4-5.8,8.1c-0.7,0.9-1.3,1.8-2,2.7c-0.5,0.6-0.9,1.3-1.4,1.9
	c0.3,0.7,0.7,1.3,1,2c7.5-8.6,14.9-17.2,22-26c1.7-2.1,3.4-4.1,5.1-6.2c0.8-0.9,1.5-1.8,2.3-2.8c0.5-0.7,1.1-1.3,1.7-2
	C1680.9,249,1679.9,248,1678.9,247z M1138.9,258c-2.2,1.8-2.2,1.8-2.2,4.4c0,0.9,0,1.8,0.1,2.7c0,0.9,0,1.8,0.1,2.8
	c0,0.7,0,1.4,0.1,2.1c2,0.7,4,1.3,6,2c-1.3,3.5-2.8,6.1-5,9c-1,3-1.2,5.2-1.3,8.3c0,1-0.1,2.1-0.1,3.1c0,1.1-0.1,2.1-0.1,3.2
	s-0.1,2.2-0.1,3.3c-0.1,2.7-0.2,5.4-0.3,8c3-0.5,3-0.5,6-1c-0.2-0.5-0.5-1-0.7-1.6c-1.2-3-2.3-5.6-2.4-8.9c2.1-5,5.9-9.1,9.4-13.3
	c3.5-4.5,3.3-9.7,2.7-15.2c-2.2-4.5-4.5-6.9-9-9C1140.9,258,1139.9,258,1138.9,258z M1426.9,257c-1,0.7-2,1.3-3,2
	c-2.3-0.3-4.7-0.7-7-1c-1,0.7-2,1.3-3,2c-1.5,0.5-3,0.9-4.6,1.3c-9.6,2.9-15.7,7-21,15.7c-1.5,2.1-1.5,2.1-4.5,3.1c1.6,4,3.3,8,5,12
	c0.7-1,1.3-2,2-3c1.8,0.2,1.8,0.2,4,1c1.7,2.3,1.7,2.3,3.3,5.1c0.5,0.9,1,1.8,1.6,2.8c0.4,0.7,0.8,1.4,1.2,2.2c2.2-1.9,2.2-1.9,3-5
	c3.5,1.4,4.8,2.9,6.7,6.1c0.7,1.3,1.5,2.6,2.3,3.9c0.3,0,0.7,0,1,0c0.7-2.3,1.3-4.6,2-7c3,1,3,1,4.7,4.1c0.4,1,0.9,1.9,1.3,2.9
	c1.5-2,2.9-3.8,4-6c1.9,0.3,1.9,0.3,4,1c1.3,2.1,1.3,2.1,2,4c2.5-2.2,3.4-3.7,4-7c1.7,0,3.3,0,5,0c0.5,3,0.5,3,1,6
	c2.9-3.6,2.9-3.6,5.6-7.3c0.5-0.6,0.9-1.1,1.4-1.7c1,0,2,0,3,0c0.5,3,0.5,3,1,6c4.7-4,6.8-8.3,9-14c2,0.3,4,0.7,6,1c1-4.5,1-4.5,2-9
	c-1.3,0.3-2.6,0.7-4,1c-0.5-0.7-1.1-1.4-1.6-2.1c-1.2-1.5-1.2-1.5-2.4-2.9c-0.4-0.6-0.9-1.2-1.4-1.8c-6.5-8.1-13.1-9.8-22.9-11.4
	c-2.9-0.6-4.9-1.3-7.5-2.5C1428.5,257.6,1428.5,257.6,1426.9,257z M793.9,276c0.3,1,0.7,2,1,3c0-1,0-2,0-3
	C794.6,276,794.2,276,793.9,276z M1469.9,276c1,2,1,2,1,2L1469.9,276z M796.9,280c1.7,3.9,4.2,7,6.8,10.3c0.5,0.6,0.9,1.2,1.4,1.8
	c5.9,7.3,12.3,14.1,18.8,20.9c0-4.1-1.6-5-4.4-8c-4.4-4.6-8.4-9.4-12.4-14.4c-4.4-5.4-4.4-5.4-9.1-10.6
	C797.6,280,797.2,280,796.9,280z M1645.9,290c1,2,1,2,1,2L1645.9,290z M1470.9,303c-2.3,1.2-2.3,1.2-4.8,3.1
	c-12.2,8.1-25.7,12.3-40.4,12.2c-1.3,0-1.3,0-2.6,0c-5.1,0-9.4-0.7-14.3-2.3c-1.3,0-2.6,0-4,0c0.2,4.9,1.7,7.6,4.9,11.1
	c3.4,3,7.1,5.4,11,7.9c3.7,2.4,7.2,5,10.8,7.6c3,1.7,4.9,2.3,8.4,2.3c2.8-1.1,5.2-2.7,7.6-4.4c0.7-0.5,1.4-0.9,2.1-1.4
	c15.1-9.1,15.1-9.1,24.3-23.2c0.2-3.1,0.2-3.1,0.1-6.3c0-1.1,0-2.1-0.1-3.2c0-0.8,0-1.6-0.1-2.4
	C1472.9,303.7,1471.9,303.3,1470.9,303z M1618.9,318c-1.6,1.6-3.1,3.3-4.6,5c-0.8,0.9-1.6,1.9-2.5,2.8c-0.6,0.7-1.3,1.4-1.9,2.2
	c0.3,0.7,0.7,1.3,1,2c1.3-1.2,2.6-2.5,3.9-3.8c1.1-1,1.1-1,2.2-2.1c1.8-2,2.9-3.7,3.9-6.1C1620.2,318,1619.6,318,1618.9,318z
	 M965.9,331c-1.7,1.2-1.7,1.2-3,3c-0.2,2.5-0.2,2.5,1,5c3.7,3.6,7.3,5.9,12,8c-1.4-3.6-3-6.9-5-10.3c-0.5-0.9-1-1.7-1.6-2.6
	C968.1,331.9,968.1,331.9,965.9,331z M1365.9,333c-3.5,4.4-7,8.7-10.5,13.1c-1.3,1.6-2.5,3.2-3.8,4.7c-0.6,0.8-1.2,1.5-1.9,2.3
	c-0.5,0.7-1.1,1.3-1.6,2c-1.4,2.1-2.1,3.3-2.2,5.8c2.7,3.6,6.2,5.3,10.3,7.3c1.1,0.5,2.2,1,3.3,1.6c0.8,0.4,1.6,0.8,2.5,1.2
	c0,1.3,0,2.6,0,4c-0.5,0.3-1.1,0.6-1.6,0.9c-2.4,1.3-4.8,2.6-7.3,3.9c-0.8,0.5-1.7,0.9-2.6,1.4c-1.2,0.7-1.2,0.7-2.4,1.3
	c-1.1,0.6-1.1,0.6-2.3,1.2c-2.2,1.3-2.2,1.3-3.9,4.3c0.3,6.7,2.4,12.4,4.9,18.6c0.5,1.4,0.5,1.4,1.1,2.8c1.8,4.7,3.7,9.2,6.1,13.6
	c1-0.5,1-0.5,2-1c-1.3-6.9-3.4-13.3-6-19.9c-1.5-4.1-2.7-7.7-2-12.1c3.6-5.3,10.9-8,16.4-11c1.3-0.7,1.3-0.7,2.5-1.4
	c0.8-0.4,1.5-0.8,2.3-1.3c2.1-1.2,2.1-1.2,2.8-4.3c-0.9-0.5-1.9-1.1-2.9-1.6c-1.3-0.7-2.5-1.4-3.8-2.1c-0.6-0.3-1.2-0.7-1.9-1.1
	c-4-2.2-7.7-4.6-11.5-7.2c0.5-4.8,2.8-7.8,5.8-11.4c3.5-4.3,6.7-8.6,9.2-13.6C1366.6,334.3,1366.2,333.7,1365.9,333z M977.9,349
	c1,2,1,2,1,2L977.9,349z M1433.9,354c0.3,1.3,0.7,2.6,1,4c2.6,0.9,3.6,1.1,6.3,0.1c0.6-0.4,1.2-0.7,1.8-1.1c0-1,0-2,0-3
	C1438.3,353,1438.3,353,1433.9,354z M1301.9,361c-0.3,7,0.9,13.1,2.6,19.8c0.3,1.1,0.5,2.2,0.8,3.4c2,8.6,4.2,17.1,6.4,25.6
	c0.3,1.1,0.6,2.3,0.9,3.5c0.3,1.1,0.6,2.1,0.8,3.2c0.2,0.9,0.5,1.9,0.7,2.8c0.8,2.6,1.7,5.1,2.8,7.6c0.3,0,0.7,0,1,0
	c0.4-8.7-0.6-16.4-2.6-24.8c-0.3-1.2-0.5-2.3-0.8-3.5c-1.8-7.9-3.8-15.8-5.8-23.6c-0.4-1.4-0.4-1.4-0.7-2.9
	c-0.2-0.9-0.5-1.8-0.7-2.7c-0.3-1.2-0.3-1.2-0.6-2.3c-0.7-2.2-1.6-4.1-2.7-6.1C1303.2,361,1302.6,361,1301.9,361z M751.6,375.8
	c-0.6,0.5-1.2,1-1.9,1.5c-16.9,13.5-32.6,28.2-47.9,43.4c-1.6,1.6-3.3,3.2-4.9,4.8c-2.4,2.3-4.8,4.7-7.2,7c-0.7,0.7-1.5,1.4-2.2,2.1
	c-8.5,8.6-10.3,19.5-12.9,31c-0.4,1.9-0.4,1.9-0.9,3.8c-0.6,2.6-1.2,5.3-1.8,7.9c-0.8,3.4-1.5,6.7-2.3,10.1
	c-0.7,3.2-1.5,6.5-2.2,9.7c-0.3,1.2-0.6,2.4-0.9,3.6c-0.2,1.1-0.5,2.3-0.8,3.4c-0.2,1-0.4,2-0.7,3c-0.3,3.4,0.4,5.7,1.8,8.8
	c7.2,3.6,18.3,2.2,26.2,2.2c0.7,0,1.3,0,2,0c18.9,0,37.7-0.7,56.6-1.4c20.9-0.7,41.8-1.3,62.7-0.3c9.9,0.4,19.7,0.6,29.6,0.5
	c1.3-2.8,1.3-2.8,0.1-4.7c-0.4-0.6-0.9-1.3-1.3-1.9c-2.4-3.6-4.2-7.3-5.9-11.3c-0.9-2.1-0.9-2.1-2-4c-1.1-2.4-1.3-4.4-1.4-7
	c-0.2-2.9-0.5-5-1.6-7.7c-1.4-3.5-1.5-6.7-0.9-10.4c1-1.7,1.9-3.5,3-5.1c1.2-2.2,1.5-4.1,1.9-6.5c0.8-3.9,2-5.9,5.3-8.3
	c2.9-1.7,5.9-3.3,9-4.7c2.1-1.3,2.1-1.3,2.6-4.1c0.1-0.8,0.2-1.5,0.2-2.3c-2.7,0.6-5.1,1.5-7.7,2.6c-6.7,2.5-13,2.2-19.5-0.6
	c-2.8-1.5-4.7-3.7-6.8-6c-4.8-4.1-7.7-5.1-14-5.2c-10.4-0.3-21.2-1.3-28.8-9.2c-1.8-2.6-2.2-3.9-2.9-7.2c1.4-7.2,7-10.5,12.5-14.7
	c3.9-3.1,6.6-6,8.2-10.8c0-3.6-0.8-5.1-3-7.9c-3.2-2.9-6.1-3.7-10.2-4.6c-1.2-0.3-2.4-0.5-3.6-0.8c-1.2-0.3-2.5-0.5-3.8-0.8
	s-2.5-0.5-3.8-0.8C759.7,370.8,759.7,370.8,751.6,375.8z M1183.2,381.7c-1.4,0.6-2.8,1.2-4.2,1.8c-0.7,0.3-1.5,0.6-2.2,0.9
	c-21.4,9.1-43.2,16.9-65.4,24.1c-0.7,0.2-1.5,0.5-2.2,0.7c-1.6,0.5-3.1,1-4.7,1.4c-0.8,0.2-1.6,0.5-2.4,0.7
	c-0.7,0.2-1.4,0.4-2.1,0.6c-2.8,1.3-4.2,2.5-6,4.9c-0.7,2.6-1.2,5-1.6,7.7c-0.1,0.8-0.2,1.5-0.4,2.3c-0.4,2.3-0.7,4.7-1,7
	c-0.1,0.7-0.2,1.4-0.3,2.1c-0.7,4.7-1.3,9.4-1.8,14.2c-0.1,0.7-0.2,1.5-0.3,2.2c-1.6,13.9-2.2,27.8-2.3,41.8c0,0.8,0,1.5,0,2.3
	c0,2,0,4.1,0,6.1c-0.2,3.1-0.6,4.7-2.3,7.3c17.9,0.1,35.7,0.1,53.6-0.4c0.7,0,1.4,0,2.2-0.1c2-0.1,4.1-0.1,6.1-0.2
	c1.1,0,2.3-0.1,3.5-0.1c2.7,0,2.7,0,4.7-1.2c1-2.6,1.8-5.1,2.6-7.8c0.2-0.7,0.5-1.4,0.7-2.2c1.8-5.4,1.8-5.4,1.7-11.1
	c-1.7-1.6-1.7-1.6-3.9-2.9c-3.1-2.1-4-2.9-5.6-6.4c-0.2-1.2-0.4-2.4-0.6-3.7c-0.1-0.7-0.3-1.5-0.4-2.3c-0.7-4.6-0.6-7.4,1.4-11.7
	c-0.1-1.4-0.1-1.4-0.2-2.9c0.2-3.4,0.7-4,2.8-6.6c1.4-1.7,1.4-1.7,2.4-3.6c-0.3-2.3-0.7-4.7-1-7c3.3-6.4,9.3-8.1,15.6-10.6
	c6.6-2.7,6.6-2.7,10.4-8.3c0.7-1.7,1.3-3.4,2-5.1c0.4-1,0.7-1.9,1.1-2.9c1.2-3.2,2.4-6.4,3.5-9.6c0.6-1.6,0.6-1.6,1.2-3.3
	c3.8-10.3,3.8-10.3,5.2-21.2C1189.2,379,1186.5,380.3,1183.2,381.7z M1022.9,381c0,1-0.1,2.1-0.1,3.1c-0.1,1.4-0.2,2.7-0.2,4.1
	c0,1,0,1-0.1,2.1c-0.2,3.6-0.4,6.6-2.5,9.7c-4.7,3.1-9.3,2.5-14.7,1.5c-1.7-0.4-3.5-0.8-5.2-1.2c-2.1-0.6-2.1-0.6-4.1,0.7
	c-0.5,7.7,0.5,14.7,3,22c0.7,0.7,1.3,1.3,2,2c2.4,0,4.6-0.2,7-0.5c0.8-0.1,1.6-0.2,2.4-0.3c21.8-2.8,43.2-7.1,64.5-12.5
	c0.9-0.2,1.8-0.4,2.7-0.7c2.5-0.6,5-1.3,7.5-1.9c1.1-0.3,1.1-0.3,2.3-0.6c3.5-0.9,6.4-2,9.7-3.6c-1-5.4-1-5.4-2-11
	c-3.7,0.4-6.3,1.1-9.4,3.1c-3,1.9-3.6,1.9-7.5,1.6c-1-0.2-2-0.5-3.1-0.8c-3.3-9.4-3.3-9.4-4-14c-0.5,0.1-1.1,0.3-1.6,0.4
	c-5.6,1.4-10.8,1.9-16.6,1.9c-0.8,0-1.6,0-2.5,0c-7-0.1-13.5-1.3-20.3-3.3c-1.3-0.4-2.6-0.7-3.9-1.1
	C1025,381.6,1024,381.3,1022.9,381z M1615.9,385c-2.6,7.8-2.6,7.8-3,16c1.3,0.3,2.6,0.7,4,1c1.5-3,1.1-5.8,1.1-9.1
	c0-1.3,0-2.6,0-3.9c0-1,0-2,0-3C1617.2,385.7,1616.6,385.3,1615.9,385z M1102.9,391c-0.3,2.4-0.3,2.4-0.2,5c0,0.9,0,1.8,0,2.7
	c0,2.3,0,2.3,1.2,4.3c11.2-2.1,21.4-5.9,32-10c-4.5-5-9.5-6.4-16.1-7.3C1114,385.5,1107.1,386.8,1102.9,391z M953.9,409
	c-2,1.4-4,2.7-6,4c0.8,2.2,0.8,2.2,3,2.7c0.9,0.2,1.8,0.4,2.7,0.6c1,0.2,1.9,0.5,3,0.7c1,0.2,2.1,0.5,3.2,0.8
	c7.7,1.9,14.7,4,21.9,7.3c3.3,1.3,5.8,1.3,9.3,0.9c1.1-3.3,0.9-4.7,0.3-8c-0.2-1-0.4-1.9-0.5-3c-0.2-1-0.4-2-0.6-3.1
	c-0.2-1-0.4-2-0.6-3.1c-0.8-5.1-0.8-5.1-2.6-9.8C974.5,394.9,963.3,401.5,953.9,409z M848.9,406c1.3,3.7,2.7,7.4,4.1,11.1
	c0.7,1.9,1.4,3.7,2,5.6c3.6,10.9,3.6,10.9,9.9,20.3c2.5,0.5,4.9,0.9,7.4,1.3c8.5,1.4,16.9,3.8,23,10.2c1.7,2.5,1.7,2.5,1.5,5.9
	c0.1,4.1,0.5,4.3,3.2,7.1c2.9,3,2.9,3,3,5.6c-0.2,1.4-0.5,2.7-0.8,4.1c-0.5,2.1-0.5,2.1,1,4.7c1,4.8-1.1,7.5-3.5,11.6
	c-3.7,5.3-8.2,8-14.1,10.6c-2,1-2,1-2.6,4c0.5,2.5,0.5,2.5,1.3,5.1c0.4,1.3,0.4,1.3,0.8,2.7c0.8,2.4,0.8,2.4,2.9,4.3
	c2.2,0.3,2.2,0.3,4.9,0.3c1.5,0,1.5,0,3.1,0c1.1,0,2.2,0,3.4,0s2.3,0,3.5,0c3.8,0,7.5,0,11.3,0c1.3,0,2.5,0,3.9,0
	c30.7,1,30.7,1,61-3.2c1-3.4,1.2-6.6,1.3-10.2c0-1.2,0.1-2.5,0.1-3.7c0-1.3,0.1-2.6,0.1-3.9c0.1-1.9,0.1-1.9,0.1-3.8
	c0.3-8.8,0.4-17.6,0.3-26.4c0-0.7,0-1.5,0-2.2c0-4.7-0.1-9.4-0.2-14.1c0-1.6,0-3.2-0.1-4.9c0-2.4-0.1-4.8-0.1-7.1c0-1.1,0-1.1,0-2.2
	c-0.1-3.2-0.2-5-2.4-7.3c-3.3-1.7-6.6-2.8-10.1-3.9c-0.8-0.3-1.6-0.5-2.5-0.8c-28.2-8.5-57.4-14.2-86.6-18.4
	c-0.8-0.1-1.5-0.2-2.3-0.3C867.3,406.5,858.3,405.7,848.9,406z M1287.9,407c-0.7,7.8,1.9,13.7,4.8,20.8c0.5,1.1,0.9,2.3,1.4,3.4
	c2.5,6.5,2.5,6.5,6.8,11.8c-0.5-7.3-2.3-13.4-4.9-20.3c-0.5-1.5-0.5-1.5-1.1-2.9c-2.5-6.7-2.5-6.7-6.1-12.8
	C1288.6,407,1288.2,407,1287.9,407z M1590.8,425.9c-2.4,4.1-4.8,8.1-7.2,12.2c-0.6,1.1-0.6,1.1-1.3,2.3c-3.2,5.7-6,11.3-4.7,18
	c1.2,2.9,1.2,2.9,4.3,4.6c3.7-0.1,5.4-0.4,8.1-3.1c0.6-0.9,1.2-1.8,1.8-2.7c0.7-1,1.4-2,2.1-3s1.4-2.1,2.1-3.2
	c1.4-2,2.7-4.1,4.1-6.1c1-1.5,1-1.5,2-3c7.8-11.5,7.8-11.5,12-12.9c-0.5,5.6-2.6,9.1-5.6,13.6c-0.4,0.7-0.9,1.4-1.3,2.1
	c-2.1,3.3-4.3,6.5-6.5,9.8c-0.7,1-1.4,2.1-2.2,3.1c-1,1.3-1,1.3-1.9,2.7c-1.7,3-2.2,5.3-2.5,8.6c0.8,2.5,0.8,2.5,3,4
	c4,0.7,6.3,0.9,9.9-1c8.6-7,15.3-17,21.7-25.9c0.8-1,1.6-2,2.4-3.1c1,0,2,0,3,0c-1.8,7-4.8,12-9.3,17.6c-0.8,1.1-0.8,1.1-1.7,2.2
	c-3.2,4-6.5,7.9-9.9,11.7c-1.4,1.6-1.4,1.6-1.2,4.3c1,2.2,1,2.2,2.8,3.6c3.5,0.9,6,1,9.4-0.4c6.6-4.8,12.1-11.1,17.4-17.2
	c1.2-1.3,2.4-2.6,3.6-3.8c0.7,0,1.3,0,2,0c-1.9,9.8-9.5,16.8-16,24c1,1,1,1,2,2c8.1-0.6,15.2-7.8,20.5-13.4
	c3.7-4.4,5.8-8.8,6.5-14.6c-0.7-5.5-2.9-8.3-6.6-12.2c-1.5-2-2.1-3.5-2.7-5.9c-1.5-4.6-4.5-6.1-8.5-8.5c-2.9-2-4.4-4.5-6.1-7.4
	c-2.4-2.4-4.8-3.3-7.9-4.4c-4-1.4-6.2-3.5-9.1-6.6c-2.5-2.6-4.6-3.3-8.1-3.7C1601.8,410.7,1595.3,418.9,1590.8,425.9z M1423.9,430
	c0,0.3,0,0.7,0,1c6.9-0.6,13.3-2,20.1-3.8c8.5-2.2,17-4.1,25.7-5.5c1-0.2,1.9-0.3,2.9-0.5c11-1.7,21.8-2.4,32.9-2.3
	c1.1,0,2.3,0,3.4,0c3.6,0,7.2,0,10.8,0c2.5,0,4.9,0,7.4,0c6,0,11.9,0,17.9,0c-1-1.5-1-1.5-2-3c-3-0.6-5.7-0.9-8.7-1.2
	c-1.3-0.1-1.3-0.1-2.7-0.2C1497.9,411.9,1454.4,413.9,1423.9,430z M1073.8,418.8c-1.4,0.4-2.8,0.8-4.3,1.2c-0.7,0.2-1.5,0.4-2.3,0.6
	c-22.8,6.2-45.8,10.2-69.4,12.4c-1,0.1-2,0.2-3.1,0.3c-0.9,0.1-1.8,0.2-2.7,0.2c-2.7,0.6-3.5,1.3-5.3,3.5c-0.4,2.3-0.4,2.3-0.3,5
	c0,1,0,2,0,3.1s0,2.2,0.1,3.4c0,1.2,0,2.3,0,3.5c0,3.7,0.1,7.5,0.1,11.2c0,4.8,0.1,9.7,0.1,14.5c0,1.2,0,2.4,0,3.6
	c0.1,11.6-0.4,23.1-1,34.7c14.1-0.5,28-1.4,42-3c-1.6-4.1-3.3-8.1-5-12.1c-0.5-1.2-1-2.4-1.6-3.7c-1.1-2.5-2.2-4.9-3.4-7.3
	c-4.2,1.1-7.7,2.9-11.4,5c-4.6,2.6-9.1,5-14.6,5c2.4-5.6,6.7-7.3,11.9-9.9c15.1-8,30.1-16.9,42.1-29.1c0.9-0.9,1.8-1.7,2.7-2.6
	c5.4-5.3,10.4-10.8,15.1-16.7c2.3-2.9,4.7-5.7,7.1-8.4c1.1-1.2,1.1-1.2,2.2-2.5c1.8-1.8,1.8-1.8,3.8-1.8
	c-1.2,9.3-9.6,16.8-15.7,23.5c-2.4,2.7-4.6,5.4-6.9,8.2c-6.3,7.7-13.5,13.2-21.6,18.8c-1.6,1.1-3.2,2.3-4.8,3.5
	c-0.7,0.4-1.3,0.9-2,1.3c-1.5,2.5-1.1,4.7-0.6,7.5c1,3.8,2.7,7.1,4.6,10.6c0.4,0.7,0.7,1.4,1.1,2.2c1,1.8,1.9,3.7,2.9,5.5
	c0.3,0.7,0.7,1.3,1,2c10.8,0.1,21.6,0,32.4-0.4c1.6,0,1.6,0,3.3-0.1c1.5-0.1,1.5-0.1,3.1-0.1c0.9,0,1.8-0.1,2.7-0.1
	c2.5-0.3,4.2-1,6.4-2.3c-0.7,0-1.3,0-2,0c-0.6-24,0.2-47.3,3.6-71.1c0.1-0.8,0.2-1.6,0.3-2.4c0.2-1.1,0.2-1.1,0.3-2.3
	c0.7-5.4,1-10.7,0.8-16.2C1081.6,416.8,1078,417.6,1073.8,418.8z M1369.9,421c-0.6,1-1.2,1.9-1.8,2.9c-2.5,3.5-4.4,4.5-8.3,6.1
	c-3.5,1.8-4.7,3.5-6,7.2c-1.4,3.6-3.3,4.9-6.4,7c-2.9,2.1-4.2,3.1-5.3,6.6c-0.5,3-0.5,3-0.6,5.8c-0.3,1.2-0.3,1.2-0.5,2.4
	c-1.9,1.1-1.9,1.1-4,2c-4.6,5.9-5.5,10.7-5,18c2,6.5,5.3,9.9,11,13.2c6.7,3.3,13.8,5,21.1,2.9c0.9-0.4,1.9-0.7,2.9-1.1
	c-1.5-3.8-3.8-5.8-6.8-8.4c-1.3-1.2-1.3-1.2-2.7-2.4c-0.8-0.7-1.6-1.4-2.5-2.2c-3-2.7-5.4-5.2-7-9c3.8,0,4.5,1,7.4,3.4
	c4,3.3,8.1,6.5,12.3,9.5c1,0.8,2.1,1.5,3.1,2.3c4.1,2.3,7.9,3.4,12.6,2.2c1.8-1.3,1.8-1.3,2.8-3.5c-0.2-4.8-2.9-7.5-6.1-10.9
	c-3-2.6-6-5.1-9.1-7.6c-4.9-4-8.3-7.5-10.9-13.4c4.4,0.5,6.7,2.1,10.1,4.9c1,0.8,1.9,1.6,2.9,2.4c3,2.6,5.8,5.3,8.7,7.9
	c6.8,6.3,6.8,6.3,15.4,9.1c3.1-0.5,4.5-1.3,6.8-3.4c0-7.5-4.1-11.7-9-17c-3-2.9-6-5.7-9.1-8.4c-2.4-2.1-4.7-4.3-7-6.6
	c-0.5-0.5-1.1-1-1.6-1.6c-1.2-1.4-1.2-1.4-2.2-4.4c4.9,0.5,7.4,1.6,11.1,4.8c0.9,0.8,1.9,1.6,2.9,2.5c3.8,3.4,7.5,6.9,11.3,10.3
	c8.9,8.7,8.9,8.7,19.8,14.4c3.1-0.2,5.2-0.6,7.9-2.1c1.8-3.2,0.9-5.4,0.1-8.9c-1.7-2.7-3.8-5-5.9-7.4c-0.6-0.7-1.2-1.3-1.8-2
	c-8.2-9-17.4-16.5-27.3-23.6c-0.8-0.6-1.6-1.2-2.4-1.9C1384.2,418.5,1376.5,415.1,1369.9,421z M1557.9,419c0,1,0,2,0,3
	c2.4,0.7,4.7,1.3,7.1,1.9c0.7,0.2,1.3,0.4,2,0.6c4.3,1.2,8.5,2,12.9,2.5c-0.7-3.1-0.7-3.1-3.2-4.1
	C1570.4,420.6,1564.6,419.3,1557.9,419z M1163.1,440.1c-0.4,0.6-0.8,1.2-1.2,1.9c1.7,2.2,1.7,2.2,3.8,2.2c0.7,0,1.5-0.1,2.2-0.1
	c0.8,0,1.6,0,2.5-0.1c1.7-0.1,3.4-0.1,5.1-0.2c6.8-0.2,12.4,1.1,18.4,4.2c0,1,0,2,0,3c-1.2-0.2-2.3-0.3-3.5-0.5
	c-10.2-1.1-21-1.9-30.5,2.5c-0.7,1-1.3,2-2,3c1.5,1.5,3,1.2,5.1,1.4c9.5,0.7,18.2,1.5,26.9,5.6c0,1,0,2,0,3
	c-7.5-0.9-7.5-0.9-10.3-1.5c-3.6-0.6-7.1-0.7-10.7-0.7c-0.7,0-1.4,0-2.1-0.1c-4.5,0-7.4,0.5-10.9,3.3c0,0.7,0,1.3,0,2
	c5.7,2.1,11.4,3,17.5,3.9c4.1,0.6,7.7,1.4,11.5,3.1c0,0.7,0,1.3,0,2c-1.4,0-2.8,0-4.2,0.1c-1.2,0-1.2,0-2.4,0
	c-2.5-0.1-2.5-0.1-4.8-0.6c-3.2-0.6-6.2-0.6-9.4-0.6c-1.2,0-2.3,0-3.5,0c-0.9,0-1.8,0-2.7,0c2.9,3.2,5.3,4.8,9.4,6.1
	c1.5,0.5,1.5,0.5,2.9,1c0.9,0.3,1.8,0.6,2.7,0.9c1.7,0.6,1.7,0.6,3.4,1.3c2.8,0.8,4.8,1,7.6,0.8c9.5-6.7,12.2-25.8,14.6-36.2
	c0.5-3,0.7-5.7,0.4-8.8c-3.1-3.9-6.3-6.4-11-8C1179.5,433.1,1169,433.1,1163.1,440.1z M1464.7,441.8c-1.9,0.4-1.9,0.4-3.8,0.7
	c-8.7,1.7-16.7,4.3-24.9,7.5c1.4,3.7,1.4,3.7,3.6,6.8c2.1,3.3,2,6.5,1.4,10.2c-2.2,4.5-5.2,5.6-9.6,7.4c-3.8,1.6-6,2.5-7.6,6.4
	c-0.3,1.1-0.5,2.1-0.8,3.2c-1,0-2,0-3,0c-0.7-2.6-1.3-5.3-2-8c-1.7-0.3-3.3-0.7-5-1c-0.4,0.5-0.7,1.1-1.1,1.6
	c-4.3,6.2-8.1,8.2-15.3,10.4c-1.3,0.5-1.3,0.5-2.6,1c-0.3,1-0.7,2-1,3c10.6-0.6,21.2-1.4,31.8-2.6c1.5-0.2,3.1-0.3,4.6-0.5
	c2.3-0.2,4.6-0.5,6.8-0.7c0.7-0.1,1.4-0.1,2.1-0.2c6.5-0.8,10.8-3.9,15.2-8.6c0.6-0.7,1.3-1.4,1.9-2.1c0.7-0.7,1.3-1.4,2-2.2
	c0.7-0.7,1.4-1.5,2.1-2.3c1.4-1.5,2.9-3.1,4.3-4.6c2-2.2,4-4.3,6-6.5c8-8.5,8-8.5,15.7-17.4c3.4-3.3,6.5-3.6,11.2-3.6
	c0.7,0,1.5,0,2.3,0c1.2,0,1.2,0,2.3,0c2.5,0,4.9,0,7.4,0.1c1.7,0,3.3,0,5,0c4.1,0,8.2,0.1,12.2,0.1c-1.2,3.4-2.5,5.8-5,8.5
	c-0.6,0.6-1.2,1.3-1.8,1.9c-0.6,0.7-1.3,1.3-2,2c-1.4,1.4-2.7,2.8-4.1,4.3c-0.7,0.7-1.4,1.4-2.1,2.2c-3.3,3.4-6.5,6.9-9.8,10.4
	c-1.1,1.2-2.3,2.4-3.4,3.6c-0.8,0.8-0.8,0.8-1.5,1.6c-1.2,1.3-2.5,2.5-3.8,3.7c-1.9,1.7-1.9,1.7-1.6,4.8c2.3,0,4.6,0,7,0
	c0.3-1.5,0.3-1.5,0.6-3c1.4-5,4.8-8.1,8.4-11.7c1.4-1.4,2.7-2.8,4.1-4.2c0.7-0.7,1.3-1.4,2-2.1c2.6-2.6,5-5.3,7.5-8.1
	c1.2-1.3,1.2-1.3,2.4-2.6c1.7-1.9,3.3-3.8,4.9-5.8c2.1-2.4,3.2-3.3,6.1-4.4c2.5,0,2.5,0,5.3,0.3c1,0.1,1.9,0.2,2.9,0.3
	c0.9,0.1,1.9,0.2,2.8,0.4c0.8,0.1,1.6,0.2,2.5,0.3c1.8,0.2,3.7,0.5,5.5,0.7c-6.4-6.4-21.4-5.7-30-6c-1.2,0-2.3-0.1-3.5-0.1
	C1501,436.6,1482.7,438.4,1464.7,441.8z M1557.9,443c-2.9,8.8-2.9,8.8-3,18c2.1,3.5,4.1,5.7,8,7c1.7,0.1,3.5,0.1,5.2,0.1
	c0.9,0,1.8,0,2.7,0c1,0,1,0,2.1,0c0.3-3.1,0.3-3.1-1.5-5.4c-2.2-5.2-1.7-10-1.5-15.6c-1.1-0.7-2.1-1.3-3.2-2
	c-0.6-0.4-1.2-0.7-1.8-1.1C1562.5,442.8,1560.5,442.9,1557.9,443z M846.8,456.3c-1.9,2.9-3.3,5.6-4.5,8.8c-0.4,1-0.8,2-1.3,3.1
	c-2.1,5.3-2.1,5.3-0.6,10.7c1.2,3,1.6,4.3,1.4,7.6c0.2,4.4,1.6,6.7,3.8,10.4c1.2,2,2.1,3.9,2.9,6.1c1.5,3.7,1.5,3.7,4.4,6.1
	c6.6,1.4,10.1,0.7,15.9-2.6c0.7-0.4,1.4-0.7,2.1-1.1c2-1.1,4-2.2,6-3.3c1.1-0.6,2.1-1.2,3.2-1.8c4.6-2.4,4.6-2.4,7.8-6.2
	c-6.5-0.4-12.2,0.8-18.5,2.3c-3.6,0.7-6.8,0.8-10.5,0.7c5.8-7.3,16.8-7.9,25.3-9.4c4.7-0.9,7.6-1.6,10.7-5.6
	c-3.7-2.5-6.5-2.3-10.8-2.3c-1.1,0-1.1,0-2.3,0c-6.5,0.1-12.5,1.2-18.8,2.8c-3.1,0.4-5.1,0.4-8.1-0.6c-0.3-0.7-0.7-1.3-1-2
	c12.4-5.1,24.8-6,38-7c0.5-1.5,0.5-1.5,1-3c-11.4-6.3-25.1-4.6-37.5-2.4c-2.5,0.4-2.5,0.4-4.5,0.4c0-1.3,0-2.6,0-4
	c1.5-0.5,3-1,4.6-1.4c0.8-0.3,1.7-0.5,2.6-0.8c7.5-2,14.6-1.8,22.3-1.5c0.8,0,1.6,0,2.5,0c0.7,0,1.5,0,2.2,0.1
	c0.6-0.1,1.2-0.2,1.9-0.3c0.7-1,1.3-2,2-3c-1.9-1-3.7-2-5.6-2.9c-1-0.5-2.1-1.1-3.2-1.7C870.2,448,854.7,447.9,846.8,456.3z
	 M1319.7,465c-6,6.7-8,14.8-7.9,23.6c0.3,6.7,0.3,6.7,3.2,12.4c2.6-0.1,5.2-0.2,7.8-0.4c0.7,0,1.4-0.1,2.2-0.1
	c3.8-0.2,7.4-0.6,11.1-1.5c-1.2-2.7-2.4-4.4-4.4-6.7c-5.9-7-6.3-15.5-5.6-24.3c0.5-2.5,1.1-4.6,2-7
	C1323.9,461,1322.6,462.4,1319.7,465z M1267.9,480.9c-1.4,1.6-2.7,3.3-4,5.1c0.3,0.7,0.7,1.3,1,2c0.5-0.3,0.9-0.6,1.4-0.9
	c10.3-6.4,20.8-12.5,31.6-18.1c0-0.3,0-0.7,0-1C1287.6,467.5,1275.2,473.7,1267.9,480.9z M1665.9,468c-2.2,2.7-2.2,2.7-1.9,5.1
	c1.3,4.2,3.4,7.9,5.5,11.7c0.4,0.8,0.8,1.6,1.3,2.4c1,1.9,2.1,3.9,3.2,5.8c0.3,0,0.7,0,1,0c0.5-7.8-0.5-15.4-5.4-21.8
	C1668.1,469.7,1668.1,469.7,1665.9,468z M1575.9,473c0,0.3,0,0.7,0,1c0.9,0.1,0.9,0.1,1.9,0.2c6.8,0.9,10,3,14.5,8.1
	c1.5,1.9,1.5,1.9,3.6,2.8c1.5,0.1,3.1,0.1,4.6,0.1c0.8,0,1.6,0,2.5,0c0.6,0,1.3,0,1.9,0c-1.6-3.1-1.6-3.1-4-3.6
	c-0.8-0.1-1.5-0.2-2.3-0.3c-4.6-0.9-6.7-2.5-9.7-6.1c-1.5-1.8-1.5-1.8-3-3C1582.4,472,1579.3,472.4,1575.9,473z M1656.9,483
	c1,2,1,2,1,2L1656.9,483z M1658.9,486c1,2,1,2,1,2L1658.9,486z M1659.9,488c1,2,1,2,1,2L1659.9,488z M1165.9,490c0,1,0,2,0,3
	c4.2,1.2,4.8,1.1,9-1C1170.4,491,1170.4,491,1165.9,490z M1186.9,495c-1.7,1-3.4,2-5,3c-4.5,1.5-9.1,1.3-13.8,1.4
	c-3.2,0.2-3.2,0.2-4.6,2.4c-0.7,2.5-0.7,2.5-0.6,6.2c3.8,0,7.5,0,11.3,0.1c1.6,0,1.6,0,3.2,0c1,0,2.1,0,3.1,0c0.9,0,1.9,0,2.9,0
	c2.6,0,2.6,0,5.5-1.1c1.4-4.1,0.8-6.7,0-11C1188.2,495.7,1187.6,495.3,1186.9,495z M873.9,511c-5,2.5-5,2.5-10,5
	c1.8,2.3,1.8,2.3,4.6,2.2c1,0,2,0,3-0.1c1,0,2,0,3-0.1c1.2,0,1.2,0,2.3-0.1c0.3-2.4,0.3-2.4,0-5C875.9,512.3,874.9,511.7,873.9,511z
	 M1219.9,533c0,0.3,0,0.7,0,1c45.2,0,90.4,0,137,0c0.3-0.7,0.7-1.3,1-2c-3.1-1.5-6.3-1.1-9.7-1.1c-0.8,0-1.6,0-2.4,0
	c-2.7,0-5.3,0-8,0c-1.9,0-3.7,0-5.6,0c-5,0-10,0-15,0c-3.1,0-6.2,0-9.2,0C1278.6,530.8,1249.3,531.1,1219.9,533z M1369.9,534
	c5.2,2.1,9.8,2.3,15.3,2.5c1.8,0.1,3.7,0.1,5.5,0.2c1.4,0,1.4,0,2.9,0.1c17,0.5,33.3,1.7,49.9,5.5c3.7,0.8,7.4,1.6,11,2.3
	c15.5,3.1,30.8,6.7,46,10.6c10.6,2.7,21.2,5.1,32,7c7.9,1.5,15.7,3.1,23.5,4.8c1.1,0.2,2.2,0.5,3.3,0.7c5.7,1.3,9.8,2.7,14.4,6.2
	c1.7,0.8,3.4,1.5,5.1,2.2c0.8,0.3,1.7,0.6,2.5,1c4.6,1.6,8.4,1.9,13.4,1.8c0.3-1.7,0.7-3.3,1-5c-2.7-1.8-4.3-2.5-7.4-3.2
	c-0.9-0.2-1.8-0.4-2.7-0.7c-1-0.2-1.9-0.5-2.9-0.7c-10.4-2.6-20.6-5.6-30.9-8.7c-8.9-2.7-17.3-4.9-26.6-5.6
	c-9.5-0.9-18.4-2.7-27.6-5.1c-26.8-6.9-26.8-6.9-54-12c-1.1-0.2-2.2-0.3-3.3-0.5C1404.4,529.5,1404.4,529.5,1369.9,534z M749.9,538
	c0,0.3,0,0.7,0,1c2.6,0,5.3,0,8,0c0-0.3,0-0.7,0-1C755.3,538,752.6,538,749.9,538z M1760.9,541c0,0.3,0,0.7,0,1c2.6,0,5.3,0,8,0
	c0-0.3,0-0.7,0-1C1766.3,541,1763.6,541,1760.9,541z M822.9,544c4,1,4,1,4,1L822.9,544z M712,546c-1.2,0.3-1.2,0.3-2.4,0.6
	c-0.6,0.1-1.2,0.3-1.8,0.4c2.2,2.6,3.8,3.5,7.2,4.1c1.2,0.2,1.2,0.2,2.5,0.5c0.9,0.2,1.8,0.3,2.7,0.5s1.9,0.3,2.8,0.5
	c9.7,1.7,19.4,3.2,29.2,4.5c1.4,0.2,1.4,0.2,2.8,0.4c21.4,2.9,42.8,4.8,64.4,6.4c3.5,0.3,6.9,0.6,10.4,0.8c25,2,49.9,2.5,75,2.3
	c0-0.3,0-0.7,0-1c-7.4-1.2-14.7-2.4-22.1-3.6c-2.5-0.4-5-0.8-7.5-1.2c-30.3-5-60.6-8.4-91.2-11.1c-2.9-0.2-5.7-0.5-8.6-0.8
	c-13.8-1.2-27.5-2.4-41.3-3.5c-1.1-0.1-2.1-0.2-3.2-0.3C721.5,544.8,721.5,544.8,712,546z M828.9,545c0,0.3,0,0.7,0,1
	c2.6,0,5.3,0,8,0c0-0.3,0-0.7,0-1C834.3,545,831.6,545,828.9,545z M838.9,546c0,0.3,0,0.7,0,1c1.9,0.3,1.9,0.3,3.8,0.5
	c23.5,3.3,47,6.8,70.4,11.2c16.8,3.3,16.8,3.3,33.8,4.3c-3.1-1.7-5.9-2.5-9.4-3.2c-1.1-0.2-2.2-0.4-3.3-0.6
	c-1.2-0.2-2.4-0.4-3.6-0.7c-1.8-0.3-1.8-0.3-3.7-0.7c-3.3-0.6-6.6-1.2-10-1.8c-2.1-0.4-4.1-0.8-6.2-1.1c-16.3-3-32.6-5.8-49.1-7.6
	c-1.1-0.1-1.1-0.1-2.2-0.2C852.6,546.4,845.8,545.8,838.9,546z M906.9,567c0,0.3,0,0.7,0,1c1.7,0,3.3,0,5,0c0-0.3,0-0.7,0-1
	C910.2,567,908.6,567,906.9,567z M1004.9,572c2.8,1.5,5.3,2.4,8.4,3.1c1.3,0.3,1.3,0.3,2.6,0.6c0.9,0.2,1.9,0.4,2.8,0.6
	c1,0.2,2,0.4,3,0.6c2.1,0.4,4.2,0.9,6.3,1.3c3.1,0.7,6.2,1.3,9.3,2c10.3,2.2,20.7,4.3,31.1,6.1c1.4,0.3,1.4,0.3,2.8,0.5
	c5.3,0.9,10.3,1.3,15.6,1.2c0-0.7,0-1.3,0-2c-0.6-0.1-1.1-0.2-1.7-0.3c-4.8-0.9-9.6-1.8-14.4-2.6c-4.5-0.8-9-1.7-13.5-2.5
	c-19.3-3.5-19.3-3.5-28.5-5.3c-1.2-0.2-2.5-0.5-3.8-0.7c-2.2-0.4-4.4-0.8-6.5-1.3C1013.9,572.4,1009.6,571.8,1004.9,572z"/>
<path d="M1235.2,39.9c5.2,0,10.4,0,15.5,0c22.1,0,44.3,0.1,66.4,0.6c1.5,0,1.5,0,3,0.1c10.8,0.2,21.6,0.5,32.5,1
	c11.1,0.5,22.1,0.5,33.2,0.4c53.7-0.2,107.3,0.9,160.8,5.4c1.2,0.1,2.4,0.2,3.7,0.3c45.9,3.9,45.9,3.9,64.2,7.7
	c1.1,0.2,2.2,0.4,3.3,0.7c35.4,7.2,67.4,20.9,93,46.9c0.7,0.7,1.4,1.3,2.1,2c13.7,13.2,23,29.5,31.1,46.6c0.7,1.4,1.3,2.7,2,4.1
	c14.7,30.9,27.7,62.3,38.8,94.7c0.9,2.6,1.8,5.1,2.7,7.7c9.4,27.3,17.8,54.7,25.1,82.6c0.7,2.6,1.4,5.2,2.1,7.8
	c1.2,4.6,2.4,9.2,3.7,13.8c2.1,7.8,4.1,15.7,6.2,23.5c0.9,3.2,1.7,6.5,2.6,9.7c0.5,2,1.1,4,1.6,6c3.6,13.6,7.1,27.3,10.5,41
	c0.5,2.1,1,4.2,1.6,6.3c1.3,0,2.6,0,4,0c0.1-0.8,0.2-1.6,0.4-2.4c0.4-2.3,0.7-4.6,1.1-6.9c0.4-2.4,0.7-4.8,1-7.2
	c1.2-9.1,2.9-16.3,10.4-22.1c13.6-8.7,30.4-9.9,46.2-10.4c1.6-0.1,1.6-0.1,3.2-0.1c19-0.4,41.9,0.8,56.8,13.9
	c9.7,10,11,24.7,11.2,38c-0.2,10.5-2.4,18.1-9.8,25.9c-25.7,19.4-78.7,18.7-109.1,15.3c-0.9-0.1-1.8-0.2-2.7-0.3
	c-2.2-0.2-4.4-0.5-6.6-0.7c1.5,12.7,8.8,20.7,17,30c11.5,13.1,21.8,27.1,31,42c0.8,1.3,1.7,2.6,2.5,3.9
	c9.3,14.4,17.9,29.3,26.5,44.1c0.7,1.3,0.7,1.3,1.5,2.6c5.2,9,10,18.1,14.6,27.5c0.9,1.9,1.9,3.8,2.8,5.7c0.6,1.2,1.1,2.3,1.7,3.5
	c0.5,1,1,2,1.5,3.1c0.8,2.7,0.8,2.7,0,5c-0.4,0.5-0.8,1.1-1.1,1.6c-1.3,0-2.6,0-4,0c-4.1-5.4-6.9-11.7-9.9-17.7
	c-6-12.1-13.1-23.4-20.6-34.7c-3.6-5.4-7-10.9-10.3-16.5c-4.3-7.4-9.1-14.4-14-21.3c-1-1.4-2-2.9-3-4.3c-8-11.6-16.2-23.2-25.6-33.9
	c-11.8-13.6-19.9-26.3-21.7-44.6c0.9-2.8,1.4-3.7,4-5c1.5-0.1,3.1-0.1,4.6-0.1c0.8,0,1.6,0,2.5,0s0.9,0,1.9,0c-0.3-1-0.6-2-0.9-3
	c-1.2-4.1-1.7-8.2-2.2-12.5c-0.1-1.1-0.1-1.1-0.3-2.2c-0.2-1.8-0.4-3.6-0.6-5.3c-0.6-0.2-1.2-0.3-1.8-0.5c-0.8-0.2-1.6-0.5-2.4-0.7
	s-1.6-0.4-2.4-0.7c-4.2-2-6-5.2-7.7-9.5c-0.4-1.3-0.8-2.5-1.1-3.8c-0.2-0.7-0.4-1.4-0.6-2.1c-2.4-8.3-4.5-16.6-6.6-25
	c-0.4-1.7-0.9-3.4-1.3-5.2c-0.9-3.6-1.8-7.2-2.7-10.9c-1.4-5.7-2.8-11.3-4.3-17c-0.5-1.9-0.9-3.8-1.4-5.6c-0.2-0.9-0.5-1.8-0.7-2.8
	c-1.1-4.5-2.3-9.1-3.4-13.6c-0.3-1.3-0.3-1.3-0.6-2.6c-1.2-4.8-2.4-9.6-3.6-14.4c-6.4-25.4-13.9-50.2-22.2-74.9
	c-1-2.8-1.9-5.7-2.8-8.5c-23.3-70.5-23.3-70.5-59.1-135.3c-0.6-0.9-1.3-1.9-1.9-2.9c-26.4-37.7-66-53.8-109.9-61.7
	c-23.3-3.9-47.1-5.3-70.7-7.2c-3.5-0.3-6.9-0.6-10.4-0.8c-2.2-0.2-4.4-0.4-6.7-0.5c-1-0.1-2-0.2-3-0.2c-44.7-3.6-89.8-2.9-134.6-3.2
	c-8.5-0.1-17-0.1-25.4-0.2c-1.2,0-2.4,0-3.6,0c-13.2-0.1-26.5-0.3-39.7-0.8c-21.9-0.8-43.9-0.6-65.9-0.6c-6.2,0-12.5,0-18.7,0
	c-25.4,0-50.8,0.1-76.2,0.8c-10.6,0.3-21.1,0.4-31.7,0.4c-42.3,0-84.5,2.1-126.7,4.7c-2.2,0.1-4.5,0.3-6.7,0.4
	c-9.3,0.6-18.5,1.1-27.8,1.7c-2,0.1-3.9,0.2-5.9,0.4c-25,1.6-50.2,3.2-74.8,7.5c-0.7,0.1-1.5,0.2-2.2,0.4
	c-43.6,7.5-85.1,25.9-111.9,62.6c-0.5,0.8-1.1,1.5-1.7,2.3c-1.1,1.5-1.1,1.5-2.3,3.1c-10,13.6-17.9,28-25.6,43
	c-1.9,3.7-3.8,7.3-5.8,11c-7.5,13.8-13.7,28.1-19.8,42.6c-1.3,3-2.6,6-4,9c-7.4,16.2-13.8,33-20.2,49.7c-0.6,1.6-1.3,3.3-1.9,4.9
	c-4.5,11.6-8.6,23.3-12.4,35.1c-0.8,2.6-1.7,5.2-2.6,7.8c-9.1,27.2-17.7,54.6-24.7,82.4c-0.2,0.8-0.4,1.6-0.6,2.4
	c-1,3.8-1.9,7.6-2.8,11.4c-5.1,20.9-5.1,20.9-11,26.5c-3.6,1.4-6.3,1.3-10.1,1.3c-0.2,1.2-0.4,2.4-0.6,3.7c-0.3,1.6-0.5,3.2-0.8,4.9
	c-0.2,1.2-0.2,1.2-0.4,2.4c-0.8,4.8-1.8,9.4-3.2,14c0.7,0,1.4-0.1,2.1-0.1c0.9,0,1.8-0.1,2.7-0.1s1.8-0.1,2.7-0.1
	c2.5,0.3,2.5,0.3,4.3,1.3c2.2,3.8,1.6,8,0.7,12.1c-0.6,2.3-1.3,4.4-2,6.7c-0.3,0.8-0.5,1.6-0.8,2.4c-2.6,7.2-6.4,12.4-11.8,17.8
	c-0.7,0.7-1.3,1.4-2,2.1c-1.3,1.3-2.6,2.6-4,3.9c-4,4.1-7.5,8.6-11,13.1c-0.5,0.7-1,1.3-1.6,2c-8,10.1-15.7,20.4-23.1,31.1
	c-2.1,3-4.3,6-6.4,9c-5.4,7.6-10.7,15.2-15.9,22.9c-0.5,0.8-1.1,1.6-1.6,2.4c-7.9,11.6-15.4,23.4-22.4,35.5
	c-0.7,1.2-0.7,1.2-1.5,2.5c-1,1.8-2,3.6-3,5.4c-0.5,0.9-1,1.8-1.6,2.8c-0.5,0.8-0.9,1.6-1.4,2.5c-1.5,1.9-1.5,1.9-3.5,2.8
	c-1,0-1,0-1.9,0.1c-0.7-0.7-1.3-1.3-2-2c0.2-5.7,3-10.4,5.6-15.3c0.5-0.9,1-1.8,1.5-2.7c9-16.7,19-32.9,29.5-48.8
	c1.6-2.4,3.2-4.8,4.8-7.3c7.1-10.8,14.4-21.4,22.1-31.8c1.6-2.1,3.1-4.3,4.7-6.4c5.5-7.5,11.2-14.5,17.5-21.2c2.3-2.4,4.3-5,6.4-7.6
	c5-5,5-5,6.7-6.6c5.6-5.7,7.4-11.7,9.3-19.4c-1.8,0.1-1.8,0.1-3.6,0.3c-30.8,2.1-63.9-0.2-94-7.1c-1-0.2-2-0.4-3-0.7
	c-9.3-2.3-18.1-6.3-23.4-14.5c-2.9-6.5-3.5-12.6-3.4-19.6c0-1,0-1.9,0-2.9c0.3-11.7,1.7-23.9,10.4-32.5c0.9-0.9,0.9-0.9,1.8-1.9
	c14.2-13.7,34.9-14.4,53.5-14.4c0.7,0,1.4,0,2.1,0c41.4,0.1,41.4,0.1,54.2,12.6c4.4,5.5,6.4,11.5,6.6,18.6c0.1,1.4,0.1,1.4,0.1,2.8
	c0.1,1.9,0.1,3.9,0.2,5.8c0.1,1.4,0.1,1.4,0.1,2.8c0,0.8,0.1,1.7,0.1,2.5c0.1,2.4,0.1,2.4,1.2,5.2c1.3-0.3,2.6-0.7,4-1
	c1.2-4.3,2.5-8.6,3.7-12.9c0.4-1.6,0.9-3.1,1.3-4.7c2.6-9,5.2-18.1,7.6-27.1c0.2-0.8,0.4-1.6,0.7-2.4c1-3.8,2.1-7.6,3.1-11.3
	c2.7-10,6-19.8,9.6-29.5c0.4-1.1,0.8-2.2,1.2-3.3c0.7-2,1.4-3.9,2.2-5.9c3.7-10,7.1-20,10-30.2c2.7-9.4,6.2-18.5,9.6-27.6
	c0.3-0.8,0.6-1.6,0.9-2.4c16.9-44.7,35.4-89,59.1-130.6c0.6-1,1.1-2,1.7-3.1c9.1-15.9,18.4-31,30.3-44.9c0.6-0.7,1.2-1.5,1.8-2.2
	c4-4.8,8.3-8.8,13.2-12.8c0.5-0.4,1-0.8,1.5-1.2c8.1-6.6,16.4-12.6,25.5-17.8c0.6-0.3,1.2-0.7,1.8-1c57.5-32.9,136-31.9,200.4-34.3
	c1.7-0.1,3.4-0.1,5.1-0.2c0.9,0,1.8-0.1,2.7-0.1c5.7-0.2,11.4-0.5,17.1-0.9c21.8-1.3,43.4-1.9,65.2-2.1c6.7-0.1,13.4-0.1,20.1-0.2
	c1.7,0,3.4,0,5.1,0c13-0.1,26-0.4,39-0.7C1188,40,1211.6,39.8,1235.2,39.9z M507.2,421.4c-6.7,8.5-6.5,23.2-6.6,33.7
	c0,0.8,0,1.5-0.1,2.3c0,4.9,0.5,8.3,3.3,12.5c17.9,17.3,60.7,14.1,83.3,14.3c1.8,0,1.8,0,3.6,0.1c8.1,0.1,8.1,0.1,15.1-3.4
	c8.5-12.9,6.4-37.9,3.7-52.4c-1.5-5.6-4.2-8.5-8.9-11.7C576.9,403.4,527.8,402.8,507.2,421.4z M1861,420.7
	c-9.3,11.9-7,34.3-5.8,48.7c0.6,4.5,1.3,7,4.1,10.7c15.4,11,55.6,1.9,73.6-0.8c9.6-1.6,20.7-3.5,28-10.3c7.3-12.1,4.2-28.6,1.4-41.7
	c-1.6-5.8-4.4-9.2-9.4-12.3c-4.9-2.3-9.5-3.8-14.8-4.7c-0.7-0.1-1.5-0.3-2.2-0.4c-7.8-1.2-15.4-1.4-23.3-1.3c-2.4,0-4.7,0-7.1,0
	C1890.2,408.6,1872.9,409.9,1861,420.7z"/>
<path d="M1325.9,227c-1.4,4-3.2,6.7-5.9,9.9c-4.2,5.7-6,11.1-7.6,18c-0.6,2.3-1.2,4.7-1.8,7c-5.5,17.2-5.5,17.2-2.7,34.1
	c8.7,4.4,19.5,4.2,29,4c1.9,0,3.8,0,5.7,0c2.9,0,5.9-0.1,8.8-0.1s5.7,0,8.6-0.1c1.3,0,1.3,0,2.6,0c5.4,0,10,0.7,15.2,2.2
	c0.3,1.3,0.7,2.6,1,4c-6.8,3.2-14.3,3.1-21.7,3.3c-0.8,0-1.6,0-2.4,0.1c-3.4,0.1-6.8,0.1-10.2,0.2c-2.5,0.1-5,0.1-7.5,0.2
	c-0.8,0-1.5,0-2.3,0c-3.4,0.1-6.6,0.2-9.9,1.2c0,0.7,0,1.3,0,2c1.1,0.1,2.1,0.2,3.2,0.4c1.4,0.2,2.8,0.3,4.2,0.5
	c0.7,0.1,1.4,0.2,2.1,0.2c5.3,0.7,5.3,0.7,7.5,2.9c-4.1,2.8-7.8,3.7-12.7,4.4c-1.5,0.2-3,0.5-4.5,0.7c-2.4,0.4-4.7,0.7-7.1,1.1
	c-19.1,2.9-37.1,8-49.7,23.8c-8.3,13.1-11.7,29.2-15.5,44.1c-0.4,1.6-0.8,3.1-1.2,4.7c-3.5,14-7,28-9.6,42.3
	c-0.2,1.2-0.4,2.4-0.7,3.7c-0.4,2.3-0.8,4.7-1.2,7c-1.1,6.6-2.8,12.3-5.9,18.3c-0.7,0-1.3,0-2,0c-0.5-10.3,0.1-20.2,1.6-30.4
	c0.2-1.2,0.4-2.3,0.5-3.5c1.9-12,4.3-23.9,7-35.7c0.8-3.6,1.6-7.1,2.3-10.7c9.7-44.3,9.7-44.3,31.4-58.8c9.1-5.4,19.1-8.4,29.2-11
	c1.2-0.3,2.5-0.6,3.8-1c1.1-0.3,2.2-0.5,3.3-0.8c3.4-1.4,4.2-2.9,5.7-6.2c-0.6-0.1-1.3-0.3-1.9-0.4c-6.7-1.7-11.7-4.1-16.1-9.6
	c-5-9.1-3.1-19-0.8-28.6c0.2-1,0.5-1.9,0.7-2.9c7.6-31.4,7.6-31.4,21.1-40.5C1322.9,226,1322.9,226,1325.9,227z"/>
<path d="M1588.7,219.1c2.2,1.2,4.2,2.4,6.2,3.9c1.1,0.8,2.1,1.5,3.3,2.3c5.7,5.6,8.6,12.1,10.8,19.7c0.2,0.9,0.5,1.7,0.8,2.6
	c1.9,6.9,3.3,13.9,4.6,20.9c0.2,1,0.3,1.9,0.5,2.9c1.5,9.5,3.2,20.9-1.9,29.6c-6.4,7.3-13,9.2-22.3,10.5c-1.6,0.2-3.3,0.5-4.9,0.7
	c-0.8,0.1-1.6,0.2-2.5,0.4c-2.2,0.4-4.4,0.9-6.6,1.5c-6.4,1.5-12.8,1-19.2,0.7c-0.7,0-1.3,0-2-0.1c-9.7-0.4-19.3-1-29-2.1
	c-1.1-0.1-2.1-0.2-3.2-0.3c-5.9-0.7-11-1.8-16.4-4.3c-0.7-1-1.3-2-2-3c3.7-2.4,7-2.2,11.3-2.2c0.7,0,1.5,0,2.2,0c1.6,0,3.2,0,4.8,0
	c2.5,0,5,0,7.6,0c6.3,0,12.5,0.1,18.8,0.1c5.3,0,10.6,0.1,15.9,0.1c2.5,0,4.9,0,7.4,0.1c15.7,0.9,15.7,0.9,29.4-4.6
	c5.6-8.3,3.4-22.4,1.8-31.8c-1.2-6-2.5-11.9-4-17.8c-0.2-0.7-0.3-1.4-0.5-2.1c-1.8-7.1-4.4-13.5-10.5-17.9
	c-7.9-3.6-17.2-3.6-25.7-4.2c-4.9-0.4-8.3-0.8-12.3-3.8c0.2-1.9,0.2-1.9,1-4C1562.1,211.8,1578.4,215,1588.7,219.1z"/>
<path d="M998.9,179c0.3,2.2,0.3,2.2,0,5c-2,2.3-2,2.3-4.7,4.6c-0.9,0.7-1.7,1.5-2.6,2.3c-1.7,1.4-3.5,2.8-5.3,4.2
	c-10.9,9.1-16.3,25.4-21.8,38.2c-3.6,8.3-7.9,16.1-12.6,23.8c29.2-19.7,42.7-35.6,51-70c1.3,0.3,2.6,0.7,4,1c1,17.4-3.7,34.4-15,48
	c-3.5,3.8-7.3,6.9-11.5,9.9c-0.6,0.5-1.3,0.9-1.9,1.4c-5.8,4.2-11.8,8.2-17.7,12.2c-0.9,0.6-1.8,1.2-2.7,1.8
	c-0.9,0.6-1.7,1.1-2.6,1.7c-0.8,0.5-1.5,1-2.3,1.5c-2.4,1.4-4.7,2.4-7.3,3.3c-2-2.2-3.8-4.3-5-7c0.5-2.8,1.5-4.5,3-7
	c0.7,0,1.3,0,2,0c1.6-2.3,3-4.5,4.4-6.9c0.7-1.1,0.7-1.1,1.3-2.2c4.5-7.9,7.9-16.1,11.2-24.5C967.5,208.8,983.3,179,998.9,179z"/>
<path d="M1076.3,335.9c0.9,0.7,1.7,1.4,2.6,2.1c0.8,0.6,1.5,1.1,2.3,1.7c2.6,3.5,3,7,2.7,11.3c-2.2,4.5-5.1,5.7-9.7,7.3
	c-4.1,1.2-8.3,1.8-12.5,2.4c-0.9,0.1-1.8,0.2-2.8,0.4c-18.3,2.3-18.3,2.3-23.1-0.1c-2.8-2.2-4.7-4.3-5.2-7.8
	c-0.3-5.8,0.8-9,4.6-13.4C1046.1,328.6,1063.4,328.5,1076.3,335.9z M1044.9,354c4,1.3,7.4,0.7,11.4,0.2c0.8-0.1,1.5-0.2,2.3-0.3
	c3.8-0.5,7-0.9,10.2-2.9C1060.7,347,1051.4,346,1044.9,354z"/>
<path d="M885.8,153.8c3.6,3.8,5,6.9,5.6,12.1c-0.3,5.9-2.5,10.2-6.6,14.3c-1.6,1.4-3.2,2.7-4.8,4.1c-2.2,1.8-2.2,1.8-4,4.8
	c-0.1,2.3,0.1,4.5,0.2,6.8c-0.2,2.2-0.2,2.2-1.5,3.9c-2.6,2-4.5,1.7-7.7,1.2c-3.3-1.9-4.7-3.4-6.4-6.8c-0.8-4.7,0-8,2.7-12
	c3.4-4.2,7.4-8.1,11.8-11.2c0.7,0,1.3,0,2,0c1.1-4,1.1-4,0-7.8c-3.7-2.2-7.2-2.6-11.4-1.6c-4.7,1.5-4.7,1.5-8.6,4.5
	c-0.3,1.2-0.7,2.3-1,3.5c-1,3.5-1,3.5-3,5.5c-2.9,0.4-2.9,0.4-6,0c-2.4-2.1-2.4-2.1-4-5c-0.2-5.5,1.8-9,5.1-13.1
	C858.2,146.7,873.9,146.4,885.8,153.8z"/>
<path d="M1020.9,185c3.4,0.6,5.2,1.7,7.7,4.1c1.1,0.9,1.1,0.9,2.1,1.9c1.4,1.3,2.8,2.6,4.3,4c10.7,9.9,22.3,15.4,35.9,20
	c-5.1-3.5-10.2-6.7-15.6-9.7c-8.5-4.7-17.4-10.4-24.4-17.3c0-1,0-2,0-3c5.1,0.5,8.5,2.2,12.6,5.1c1.3,0.8,2.5,1.7,3.8,2.5
	c0.6,0.4,1.2,0.8,1.9,1.3c8.5,5.6,17.3,10.7,26,15.9c0.9,0.5,1.8,1.1,2.8,1.7c9.3,5.5,18.2,9.9,28.5,13c18.4,5.8,18.4,5.8,23.6,13.6
	c0,0.7,0,1.3,0,2c-4.1-0.6-7.5-2-11.3-3.8c-11.1-4.9-22.4-8-34.1-10.7c-23.6-5.5-48-14.8-62.6-35.4
	C1020.9,188,1020.9,188,1020.9,185z"/>
<path d="M1101.9,185c-1.5,0.5-1.5,0.5-3,1c-0.7,2-0.7,2-1,4c-1.1-0.6-2.2-1.2-3.3-1.8c-8.7-4.8-17-8.9-26.7-11.2
	c-1-0.2-1.9-0.4-2.9-0.7c-10.9-2.1-22.1-1.5-33.1-1.3c4.9,1,9.8,2,14.6,2.9c15.4,2.9,31.7,6,45.4,14.1c-2,3-2,3-3.8,3.8
	c-3,0.2-4.8-0.7-7.6-1.9c-8.7-3.5-17.6-5.4-26.8-7.3c-2.8-0.6-5.5-1.2-8.3-1.8c-11.7-2.5-22.7-3.3-34.6-2.8c0-1.3,0-2.6,0-4
	c2-1,4-2,6-3c0-1.3,0-2.6,0-4C1043.3,161.1,1078.9,170.5,1101.9,185z"/>
<path d="M1708.9,246c1.8,0.5,1.8,0.5,4,2c1.1,2.6,2,5,2.7,7.8c0.2,0.8,0.5,1.7,0.8,2.5c0.9,2.9,1.7,5.8,2.5,8.7
	c0.3,1.1,0.6,2.2,0.9,3.3c2.5,8.8,4.9,17.7,7.4,26.5c8.6,32.4,8.6,32.4,18.8,64.4c0.9,3.1,0.8,4.7-0.1,7.8c-6.9-3.3-9.1-9.2-12-16
	c-1.6-4.5-2.8-9.1-4.1-13.7c-0.4-1.4-0.7-2.7-1.1-4c-1.1-3.9-2.1-7.7-3.1-11.6c-0.8-2.9-1.5-5.8-2.3-8.6c-3.1-11.5-6.1-23-9.2-34.5
	c-1.2-4.7-2.5-9.3-3.8-14c-0.2-0.9-0.5-1.7-0.7-2.6c-0.4-1.6-0.9-3.2-1.4-4.8c-1.2-4.4-1.6-7.7-0.4-12.1
	C1708.2,246.7,1708.6,246.3,1708.9,246z"/>
<path d="M654.5,568.9c0.8,0,1.6,0.1,2.4,0.1c0.8,2.2,1.2,3.5,0.4,5.8c-0.4,0.6-0.8,1.3-1.2,1.9c-0.5,0.8-0.9,1.6-1.4,2.4
	c-0.6,1-1.2,1.9-1.8,2.9c-8.5,14.2-16,28.4-22.7,43.6c-8.7,19.7-8.7,19.7-13.9,29.1c-0.4,0.7-0.8,1.5-1.2,2.2
	c-1.9,3.4-3.4,5.9-7.2,7.1c-1-0.7-2-1.3-3-2c0.1-5.1,1.6-8.2,4.3-12.5c3.1-5,5-9.9,6.8-15.5C620.2,620.3,638.5,569.6,654.5,568.9z"
	/>
<path d="M1841.9,549c6.8,1.6,10.3,7.4,13.9,12.9c5.9,9.8,10.4,20.2,15,30.6c5,11.1,10.3,22,15.9,32.7c4.7,9.1,9.4,18.1,13.6,27.5
	c0.5,1.2,0.5,1.2,1.1,2.4c2.8,6.5,2.8,6.5,3.4,9.8c-1.2,1.8-1.2,1.8-3,3c-2,0-2,0-4-1c-2.8-4.1-4.7-8.6-6.6-13.1
	c-5.8-13.2-12-26.2-18.5-39.1c-4.3-8.5-8.3-17.2-12.1-25.9c-4.7-10.5-9.6-20.7-15.3-30.6c-0.4-0.8-0.9-1.6-1.3-2.4
	c-0.4-0.7-0.8-1.4-1.2-2.1C1841.9,552,1841.9,552,1841.9,549z"/>
<path d="M1290.9,302c0,1,0,2,0,3c-5.5,1.6-10.2,2.2-15.9,2c-1.6-0.1-3.2-0.1-4.8-0.2c-0.9,0-1.7-0.1-2.6-0.1
	c-14.7-0.5-29.5-0.8-44.2-0.8c-0.7,0-1.4,0-2.1,0c-7.1,0-14.2,0-21.3,0.1c-27.2,0.1-27.2,0.1-40-1c0.3-0.7,0.7-1.3,1-2
	c2.2-0.6,2.2-0.6,5.2-1c1.1-0.2,2.2-0.3,3.3-0.5c1.2-0.2,2.4-0.3,3.7-0.5c1.9-0.3,1.9-0.3,3.8-0.5
	C1261.7,289.2,1261.7,289.2,1290.9,302z"/>
<path d="M933.9,206c-0.4,5.3-3.4,8.7-6.5,12.8c-12.4,17.1-21.4,36.3-30,55.5c-21.2,47.3-21.2,47.3-32.5,58.7c-1,0-2,0-3,0
	c-1-2.7-1.1-3.7,0-6.4c0.8-1.3,0.8-1.3,1.6-2.7c0.6-1,1.1-2,1.7-3c0.9-1.5,0.9-1.5,1.8-3.1c1.2-2,2.3-4,3.5-6c0.6-1,1.1-2,1.7-3
	c7.6-13,14-26.3,20-40.1C919.6,206,919.6,206,933.9,206z"/>
<path d="M1074.9,428c1,0.3,2,0.7,3,1c-1.2,9.3-9.6,16.8-15.7,23.5c-2.4,2.6-4.6,5.4-6.8,8.2c-7.1,8.7-15.5,14.9-24.6,21.3
	c-2.9,1.9-2.9,1.9-4.9,4.1c0.4,4.4,1.1,8.7,2,13c-1-0.5-1-0.5-2-1c0-1,0-2,0-3c-1.7,1.3-3.3,2.6-5,4c-1-2.6-2-5.3-3-8
	c-4.2,1.1-7.7,2.9-11.4,5c-4.2,2.3-7.9,4.1-12.6,5c-0.7-0.3-1.3-0.7-2-1c0.4-2.4,0.6-3.7,2.5-5.3c0.6-0.4,1.3-0.7,1.9-1.1
	c1.1-0.6,1.1-0.6,2.2-1.3c0.8-0.4,1.6-0.9,2.4-1.3c1.7-1,3.3-1.9,5-2.9c1.3-0.8,1.3-0.8,2.7-1.5c21.1-12.3,39-25.6,54.2-44.9
	C1066.6,436.9,1070.8,432.5,1074.9,428z"/>
<path d="M1418.4,619.8c1.4,0.2,2.9,0.4,4.3,0.6c0.8,0.1,1.6,0.2,2.5,0.3c5.3,0.7,10.5,1.3,15.8,1.9c1.6,0.2,1.6,0.2,3.2,0.4
	c14.5,1.7,29,2.3,43.6,2.5c2.1,0,4.2,0.1,6.3,0.1c1.8,0,1.8,0,3.7,0.1c3,0.3,4.7,0.8,7.2,2.3c-0.3,1.7-0.7,3.3-1,5
	c-6.2,0.1-12.4,0.1-18.6,0.1c-2.1,0-4.2,0-6.3,0c-18.3,0.1-36.1-1.1-54.1-4.1c-1-0.2-2-0.3-3.1-0.5c-4.9-0.8-8.9-1.5-13-4.6
	c0.4-1.9,0.4-1.9,1-4C1412.9,618.5,1415.1,619.3,1418.4,619.8z"/>
<path d="M1831.9,584c2.3,0.1,2.3,0.1,5,1c11.5,18.1,15.8,41.8,20.5,62.5c0.2,0.7,0.3,1.4,0.5,2.1c0.8,3.5,1.4,6.8,1,10.4
	c-2,2-2,2-4.5,2.3c-0.8-0.1-1.7-0.2-2.5-0.3c-2.1-3.2-2.7-5.4-3.4-9.1c-0.3-1.3-0.5-2.5-0.8-3.8c-0.2-1-0.2-1-0.4-2
	c-3.5-16.7-7.7-33.2-13.5-49.3c-0.6-1.6-0.6-1.6-1.1-3.2c-0.3-0.9-0.7-1.9-1.1-2.9C1830.8,588.7,1831.1,586.9,1831.9,584z"/>
<path d="M615.9,558c-3,10.1-10,18.2-16.5,26.3c-4.6,5.7-8.9,11.6-13.2,17.5s-8.6,11.7-13,17.5c-2.8,3.8-5.6,7.6-8.3,11.4
	c-4.2,6-8.4,11.6-14,16.3c-0.3,0-0.7,0-1,0c-0.8-12,11.1-23.8,18-33c0.5-0.7,1.1-1.4,1.6-2.1c9-11.9,18.2-23.4,27.9-34.6
	c4-4.6,7.8-9.3,11.6-14C613.4,558,613.4,558,615.9,558z"/>
<path d="M1412.9,184c2.4,0.2,2.4,0.2,5,1c3.3,5.2,2.7,11.3,1.5,17.2c-1.8,7.6-4,15.2-6.4,22.6c-1.1,3.7-1.4,6.4-0.1,10.2
	c3.6,1.8,7.8,0.4,11.7,0c3.7,0,5.3,0.9,8.3,3c-0.3,1-0.7,2-1,3c-7.1,3-14.5,5.3-22,3c-3.4-2.1-5.7-4.1-7-8
	c-0.8-7.6,1.8-13.4,4.5-20.4c3.5-9.5,5.5-17.5,4.7-27.7c-0.1-1-0.1-1.9-0.2-2.9C1412.2,184.7,1412.6,184.3,1412.9,184z"/>
<path d="M1444.9,266c0.7,0.7,1.3,1.3,2,2c-0.2,2.8-0.9,3.9-2.8,6c-8.6,7.6-14,9.6-25.6,9.3c-5.7-0.5-9.3-1.9-13.2-6
	c-1.4-1.8-2.5-3.2-3.4-5.3c0.5-3.5,0.5-3.5,2-5c1.1,0.1,2.3,0.3,3.4,0.4C1420,269,1433,264.6,1444.9,266z M1414.9,275
	c3.7,2.4,6.7,2.6,11,2c1.3-0.7,2.6-1.3,4-2C1425,275,1420,275,1414.9,275z"/>
<path d="M928.9,305c1,0,2,0,3,0c0.3,6.8-0.8,12.9-2.2,19.5c-0.2,1.1-0.5,2.2-0.7,3.3c-0.5,2.3-0.9,4.5-1.4,6.8
	c-0.7,3.3-1.3,6.6-2,10c-4.8,24.7-4.8,24.7-11.7,33.4c-3-1-3-1-3.8-2.6c-0.2-3.6,1.2-6.5,2.4-9.8c3-8.3,4.9-16.6,6.6-25.2
	c0.2-1.3,0.5-2.5,0.8-3.8c0.5-2.4,1-4.9,1.4-7.3c0.9-4.3,1.8-8.5,2.9-12.8c0.3-1.2,0.6-2.3,0.9-3.5C925.9,309.9,927,307.6,928.9,305
	z"/>
<path d="M911.9,637c0,1.3,0,2.6,0,4c-12.4,9.8-37.5,7.3-52.1,5.6c-8.1-1.2-15.7-2.7-22.9-6.6c0-0.7,0-1.3,0-2
	c2.4,0.1,4.9,0.3,7.3,0.4c0.7,0,1.5,0.1,2.2,0.1c3.9,0.2,7.8,0.6,11.8,1c11.3,1,22.7,0.9,33.9-0.4c1-0.1,1-0.1,2.1-0.2
	c3.3-0.4,6.3-1.1,9.5-2C907,636,908.7,636,911.9,637z"/>
<path d="M802.9,609c8.4,0.4,16.5,2.1,24.7,4c11.2,2.5,22.3,4.8,33.9,5.4c5.1,0.3,8.8,1.3,13.4,3.6c0,0.7,0,1.3,0,2
	c-5.8,1.7-10.7,2.3-16.7,1.9c-1.2-0.1-1.2-0.1-2.5-0.1c-18.2-1.4-36.8-7.1-52.8-15.8C802.9,609.7,802.9,609.3,802.9,609z"/>
<path d="M772.9,280c3,1,3,1,4.3,2.6c1.8,5.8-0.7,13.1-2.1,18.9c-0.2,0.8-0.4,1.6-0.6,2.4c-0.4,1.6-0.8,3.3-1.2,4.9
	c-0.4,1.7-0.8,3.3-1.2,5c-0.6,2.4-1.2,4.8-1.7,7.2c-0.2,0.7-0.3,1.5-0.5,2.2c-1.3,5.1-3,7.5-6.9,10.9c-1-0.3-2-0.7-3-1
	c-0.3-6.4,0.7-11.9,2.3-18.1c0.2-0.9,0.5-1.9,0.7-2.8c0.5-2,1-3.9,1.5-5.9c0.8-3,1.6-6,2.3-9.1c0.5-1.9,1-3.8,1.5-5.8
	c0.2-0.9,0.5-1.8,0.7-2.7c0.2-0.8,0.4-1.7,0.7-2.5c0.2-0.7,0.4-1.5,0.6-2.2C770.9,282,770.9,282,772.9,280z"/>
<path d="M1092.2,268.9c3.7,2.4,5.1,6.1,6.3,10.1c1,5.2,0,8.4-2.6,13c-3.6,2.4-4.8,2.7-9,2c-3.9-3.4-6.7-7-7.2-12.3
	c-0.2-5.8,0.2-9.2,4.2-13.7C1087.4,266.8,1088.9,267.3,1092.2,268.9z"/>
<path d="M717.9,461c-0.6,5-2.9,8.8-5.4,13.1c-4.4,7.7-8.4,15.5-12.2,23.5c-0.4,0.8-0.8,1.6-1.2,2.4c-0.3,0.7-0.7,1.4-1,2.1
	c-1.2,2-2.3,3.4-4.1,4.9c-2.2-0.3-2.2-0.3-4-1c-0.8-7,1.9-12.1,5-18.3c0.5-1,1-2,1.5-3.1C708.2,461,708.2,461,717.9,461z"/>
<path d="M1017.9,279c3.6,3,5.8,6.6,6.2,11.3c0.2,8.7,0.2,8.7-3.2,12.7c-3,1.5-4.7,1.5-8,1c-3.8-3.3-6.7-6.9-7.2-12.1
	c-0.1-5.1,0.3-8.5,3.2-12.9C1012.2,277.4,1014.4,278.1,1017.9,279z"/>
<path d="M1052.9,276c0.7,0.3,1.3,0.7,2,1c0.6,2,1.2,3.9,1.8,5.9c2.4,8.1,5.9,14.6,11.6,20.8c2,2.2,2.8,3.5,3.9,6.3
	c-0.2,3.4-1.2,5.2-3.5,7.6c-3.9,3.1-8.1,4.2-13,4.7c-2.7-0.4-2.7-0.4-4.6-1.9c-0.4-0.5-0.7-1-1.1-1.5c3.4-4,7.3-5.9,12-8
	c-0.6-3.8-1.5-6.1-3.8-9.2c-4.9-7.1-8.1-14-7.2-22.8C1051.6,278,1052.2,277,1052.9,276z"/>
<path d="M1456,184.8c4,1.6,5,3.3,6.9,7.2c1.5,5.5,1.3,10.1-1,15.3c-1.6,2.7-2.9,3.8-6,4.7c-3.3-0.7-4.6-1-7-3
	c-2.9-4.5-3.3-9-2.5-14.3C1447.8,189.3,1449.9,185.2,1456,184.8z"/>
<path d="M779.9,440c1,0.3,2,0.7,3,1c-0.4,1.4-0.8,2.8-1.3,4.2c-0.3,0.9-0.6,1.9-0.8,2.8c-0.6,1.9-1.2,3.8-1.8,5.6
	c-1.8,5.5-3.3,11-4.5,16.7c-0.3,1.1-0.5,2.3-0.8,3.5c-0.5,2.3-1,4.6-1.5,6.9c-1.4,6.4-2.9,12.4-7.4,17.3c-2.2,1.2-2.2,1.2-4,2
	c0.4-6.1,1.6-11.8,3.3-17.7c1-3.7,2-7.5,2.9-11.3C772.9,446.3,772.9,446.3,779.9,440z"/>
<path d="M1461.9,161.6c7.7,2.8,15.9,6.7,21,13.4c-0.2,2.3-0.2,2.3-1,4c-1.7,0.7-1.7,0.7-4,1c-2.6-1.4-2.6-1.4-5.3-3.3
	c-7.8-5.2-14.2-5.9-23.5-6.1c-3.7-0.6-4.9-1.6-7.2-4.5C1445.1,157,1453.9,159.1,1461.9,161.6z"/>
<path d="M1390.9,161.8c1.5,0,1.5,0,3.1-0.1c3.2,0.4,4.6,1,6.9,3.3c0.4,2.6,0.4,2.6,0,5c-3.5,2.3-4.5,2.1-8.5,1.9
	c-8.1-0.1-15,2-21.4,6.9c-3.1,2.2-3.1,2.2-5.3,1.8c-0.6-0.2-1.2-0.4-1.8-0.6c-0.8-2.2-0.8-2.2-1-5c2.8-4.5,6.3-6.6,11-8.8
	c0.6-0.3,1.2-0.6,1.9-0.9C1381.1,162.8,1385.1,161.8,1390.9,161.8z"/>
<path d="M1169.6,322.9c1.7,0,3.3,0.1,5,0.1c0.9,0,1.8,0,2.7,0c1.9,0,3.7,0.1,5.6,0.1c2.8,0.1,5.7,0.1,8.5,0.1
	c21.7,0.4,21.7,0.4,31.6,5.7c0,1,0,2,0,3c-2.5,1.2-3.6,1-6.3,0.6c-0.8-0.1-1.6-0.2-2.5-0.3c-2.2-0.3-2.2-0.3-4.7-0.9
	c-4.5-0.8-10.4-1.5-14.6,0.6c-6.6,1-12.6-0.5-18.9-2.3c-0.7-0.2-1.5-0.4-2.3-0.6c-3.7-1.1-6.2-2.1-8.8-5
	C1165.9,323,1165.9,323,1169.6,322.9z"/>
<path d="M1388.9,187c4.6,4.7,5.3,8.1,5.2,14.5c-0.3,3.4-1.3,5.7-3.2,8.5c-3,2-3,2-5.9,2c-3.1-1-3.1-1-5.4-3.6
	c-2.2-4.5-3.5-8.5-2.2-13.4C1379.9,188.9,1382,185.9,1388.9,187z"/>
<path d="M917.9,476c18.8,1.5,37,6.2,52,18c-0.3,1.3-0.7,2.6-1,4c-5.3-1.6-10-3.4-14.8-6c-7.9-4-15.8-5.7-24.6-7
	c-4.3-0.7-8-1.4-11.6-4c-0.9-2.1-0.9-2.1-1-4C917.2,476.7,917.6,476.3,917.9,476z"/>
<path d="M965.9,440c-1.8,5.3-7.2,7.4-12,10c-3.8,1.7-7.6,3.1-11.5,4.5c-5.3,2.2-9.4,5.2-13.5,9.2c-2.8,2.5-3.6,3.2-7.5,3.7
	c-0.8-0.1-1.7-0.3-2.5-0.4c0.2-3.6,0.9-4.9,3.4-7.6c1.1-0.9,2.2-1.8,3.3-2.7c0.6-0.5,1.2-0.9,1.8-1.4c7.6-5.7,16.4-9,25.2-12.4
	c2.5-1,2.5-1,5.7-2.7C961.4,438.8,962.8,439,965.9,440z"/>
<path d="M1101.9,428c4.6,0.5,6.3,2,9.3,5.4c0.8,0.9,1.6,1.8,2.4,2.8c2.1,2.5,4.1,5.1,6.1,7.7c3.8,4.9,8.2,9,12.9,13
	c3,2.6,4.6,4.2,5.3,8.1c-2.2,0.8-2.2,0.8-5,1c-2.4-1.6-2.4-1.6-4.9-4c-1.3-1.3-1.3-1.3-2.6-2.5c-0.8-0.8-1.6-1.6-2.5-2.5
	c-0.6-0.6-1.3-1.2-2-1.9c-4.3-4.2-8.2-8.6-12-13.1c-0.6-0.7-1.1-1.4-1.7-2.1C1104,436,1102.2,433.2,1101.9,428z"/>
<path d="M1693.9,370c2.5,0.4,3.7,0.6,5.4,2.5c19.2,33.2,19.2,33.2,18.6,47.5c-2.8-1-3.9-1.8-5.4-4.4c-0.4-1-0.9-2-1.3-3
	c-0.5-1.1-1-2.2-1.5-3.3c-0.5-1.2-1-2.3-1.5-3.5c-1.1-2.4-2.1-4.7-3.2-7.1c-0.8-1.7-0.8-1.7-1.6-3.5c-2.2-4.9-4.7-9.6-7.3-14.4
	C1694.1,377.1,1693.6,374.3,1693.9,370z"/>
<path d="M1013.9,255c1,1,1,1,1.4,3.3c-0.4,2.7-0.4,2.7-2.9,4.8c-1.7,1-3.4,1.9-5.3,2.7c-5.9,2.6-10,6.5-14.6,11.1
	c-2.7,2.2-4.2,2.8-7.6,3.1c-0.8-2.2-0.8-2.2-1-5C989.2,267.4,1004.3,252.5,1013.9,255z"/>
<path d="M1072.9,245c7.1,0.4,13.9,2.1,20.8,3.9c1.5,0.4,1.5,0.4,3.1,0.8c1,0.3,2,0.5,3,0.8c0.9,0.2,1.8,0.5,2.7,0.7
	c2.8,1,5.1,2.3,7.5,3.9c-0.3,1.3-0.7,2.6-1,4c-5.5-0.4-10.6-1.1-15.9-2.5c-5.2-1.4-10.2-2-15.5-2.2c-2.6-0.3-4.3-1-6.6-2.3
	c-0.1-2.4-0.1-2.4,0-5C1071.6,246.3,1072.2,245.7,1072.9,245z"/>
<path d="M1744.9,581c11.7,2.6,23.2,5.7,34.7,9.3c1.6,0.5,3.2,1,4.9,1.5c0.8,0.2,1.6,0.5,2.4,0.8c0.7,0.2,1.5,0.4,2.2,0.7
	c1.8,0.8,1.8,0.8,3.8,3.8c-1.1,1.6-1.1,1.6-3,3c-6.2-0.4-11.8-2.5-17.6-4.6c-1-0.4-1.9-0.7-2.9-1.1
	C1748.6,586.5,1748.6,586.5,1744.9,581z"/>
<path d="M805.9,452c1,0.3,2,0.7,3,1c-0.9,4.5-1.9,8.9-2.8,13.4c-0.3,1.5-0.6,3-1,4.6c-0.5,2.2-0.9,4.4-1.4,6.6c-0.2,1-0.2,1-0.4,2
	c-0.9,4-1.9,7.2-4.4,10.4c-2.2,1.3-2.2,1.3-4,2c-0.3-7.6,0.9-14.3,2.7-21.7c0.2-1.1,0.5-2.2,0.7-3.3
	C799.8,460.7,801.3,456.5,805.9,452z"/>
<path d="M873.9,203.4c3.8,0.7,5.4,1.7,8,4.6c1.1,2.9,1.1,2.9,1,6c-1.8,3-3.9,5.4-7,7c-4,0.5-5.6,0.3-8.9-2.1
	c-2.1-2.9-2.1-2.9-2.2-6.4C866.4,207.4,868.5,204.5,873.9,203.4z"/>
<path d="M1368.9,599c6.3-0.3,11.7,0.7,17.8,2.3c1.8,0.5,3.7,0.9,5.5,1.4c1.4,0.3,1.4,0.3,2.8,0.7c4.5,1.1,9.1,2,13.6,3
	c0.8,0.2,1.6,0.3,2.5,0.5c1.9,0.4,3.8,0.8,5.7,1.2c-0.3,0.7-0.7,1.3-1,2c-14,3.4-32.1-0.9-45-7
	C1369.5,600.8,1369.5,600.8,1368.9,599z"/>
<path d="M1753.9,442c1,0,2,0,3,0c3,6.3,5.3,12.5,7.3,19.2c0.3,0.9,0.5,1.7,0.8,2.6c1.4,4.5,2.3,8.4,1.9,13.2c-1.3,0-2.6,0-4,0
	c-3.4-5.5-5.4-10.9-7.3-17.1c-0.3-0.9-0.5-1.7-0.8-2.6C1751.6,446.5,1751.6,446.5,1753.9,442z"/>
<path d="M1688.9,268c3,2.5,3.8,4.9,4.8,8.7c0.3,1.1,0.6,2.2,0.9,3.4c0.3,1.2,0.6,2.3,0.9,3.6c0.3,1.2,0.6,2.3,0.9,3.5
	c1.7,6.3,2.9,12.4,3.4,18.9c-1.3-0.3-2.6-0.7-4-1c0,2.3,0,4.6,0,7c-2.1-3.6-2.9-7.4-3.8-11.4c-0.2-0.7-0.3-1.4-0.5-2.2
	c-0.3-1.5-0.7-3-1-4.5c-0.5-2.3-1-4.6-1.5-6.8c-0.3-1.5-0.6-2.9-0.9-4.4c-0.2-0.7-0.3-1.3-0.5-2
	C1686.7,275.8,1687.2,272.6,1688.9,268z"/>
<path d="M1163.9,413c-0.2,6.4-3.7,9.7-8,14c-1.4,1.1-1.4,1.1-2.8,2.3c-3.4,4-4.2,8.6-5.3,13.7c-1.3,0.3-2.6,0.7-4,1
	c-1.9-3.7-0.8-8,0-12c2.2-6.2,7-10,12-14c0.6-0.5,1.2-1,1.8-1.6C1161.6,413,1161.6,413,1163.9,413z"/>
<path d="M1026,136.3c3.3,3,5.8,5.8,7.9,9.8c0,1,0,2,0,3c-0.6,0.2-1.2,0.5-1.9,0.8c-2.5,1.5-3,2.7-4.1,5.3c-0.1-0.7-0.2-1.3-0.3-2
	c-1.1-6.3-2.1-10.4-7.6-14.3c-3.6-2.3-7.1-4.3-11.1-5.7c0-0.3,0-0.7,0-1C1016.5,130.7,1019.9,131.2,1026,136.3z"/>
<path d="M1078.9,175c4.6,0.6,8,1.8,12.1,3.9c1,0.5,2,1,3,1.6c2.7,1.5,5.3,3,7.9,4.6c-1,0.3-2,0.7-3,1c-0.7,2-0.7,2-1,4
	c-1.1-0.6-2.2-1.2-3.4-1.9c-1.5-0.8-3-1.6-4.5-2.4c-0.7-0.4-1.5-0.8-2.2-1.2c-5.1-2.8-10.2-4.8-15.8-6.5c0-0.3,0-0.7,0-1
	c2.3,0,4.6,0,7,0C1078.9,176.3,1078.9,175.7,1078.9,175z"/>
<path d="M1109.9,226c7.7,2.1,15.4,5.2,20,12c0,0.7,0,1.3,0,2c-4.3-0.7-8-2.2-11.9-3.9c-4.3-1.9-8.6-3.6-13.1-5.1
	c1.3-0.3,2.6-0.7,4-1C1109.2,228.7,1109.6,227.4,1109.9,226z"/>
<path d="M713.2,592.7c1.6,0.7,3.2,1.5,4.7,2.3c-0.3,1.3-0.7,2.6-1,4c-4.6,1.4-8.3,0.4-12.8-0.9c-0.7-0.2-1.4-0.4-2.1-0.6
	c-1.7-0.5-3.4-1-5.1-1.5c0.3-1,0.7-2,1-3C702.3,590.8,708.6,591.3,713.2,592.7z"/>
<path d="M1740.9,460c3,1,3,1,4.1,2.9c1,2.4,2,4.8,2.9,7.1c0.6,1.5,0.6,1.5,1.3,3.1c0.9,3.4,0.9,6.4,0.8,9.9c-1.3,0-2.6,0-4,0
	C1743.3,475.3,1741.3,468.1,1740.9,460z"/>
<path d="M1437.9,382.1c3,0.9,3,0.9,5,2.6c1,2.3,1,2.3,0.2,5.6c-0.4,0.9-0.8,1.8-1.2,2.8c-5.3,1.3-5.3,1.3-8.4-0.1
	c-1.6-1.9-1.6-1.9-2.1-4.9c0.4-3,0.4-3,1.6-4.9C1434.9,382,1434.9,382,1437.9,382.1z"/>
<path d="M848.9,84c6.5,0.3,11.4,2.9,17,6c0,1.3,0,2.6,0,4c-6.3,0.7-10.9-1.1-16-5c-1.3-2.2-1.3-2.2-2-4
	C848.2,84.7,848.6,84.3,848.9,84z"/>
<path d="M1030.9,185c5.5,0.5,8.9,2.5,13.4,5.6c0.6,0.4,1.3,0.8,1.9,1.3c1.6,1,3.1,2.1,4.7,3.2c-1,0.5-1,0.5-2,1
	c-0.3,0.7-0.7,1.3-1,2c-4.8,0-5.9-1.1-9.6-3.9c-1-0.7-1.9-1.4-2.9-2.2c-2.5-1.9-2.5-1.9-4.5-3.9C1030.9,187,1030.9,186,1030.9,185z"
	/>
<path d="M1048.9,448c-0.4,4.9-2.4,6.8-6,10c-0.6,0.5-1.2,1.1-1.7,1.6c-5.1,4.6-5.1,4.6-9.3,5.4c0.1-2.2,0.1-2.2,1-5
	c1.4-1.2,2.8-2.5,4.3-3.6c2.5-2,4.3-4.5,6.2-7C1044.9,448,1044.9,448,1048.9,448z"/>
<path d="M835.9,89c1.6,0.4,3.2,0.9,4.8,1.3c1.3,0.4,1.3,0.4,2.7,0.7c2.6,1,4.4,2.2,6.6,3.9c-0.3,1.3-0.7,2.6-1,4
	c-5.8-0.4-9.4-1.1-14-5c-0.3-1-0.7-2-1-3C834.6,90.3,835.2,89.7,835.9,89z"/>
<path d="M1749.9,595c7,1,12.6,2.2,17,8c-3,2-3,2-5.7,1.9c-4.3-1.2-7.9-3.1-11.3-5.9c-0.3-1-0.7-2-1-3
	C1749.2,595.7,1749.6,595.3,1749.9,595z"/>
<path d="M1939.3,463c0.5,0.3,1.1,0.7,1.6,1c-0.2,1.9-0.2,1.9-1,4c-3.9,2.3-6.7,2.1-11,1c-0.7-0.3-1.3-0.7-2-1c0.3-1.6,0.7-3.3,1-5
	C1931.9,461.7,1935.3,461.3,1939.3,463z"/>
<path d="M531.7,462.9c0.8,0.2,1.6,0.4,2.4,0.6c0.9,0.2,0.9,0.2,1.8,0.5c-0.3,1.6-0.7,3.3-1,5c-5.4,1.2-8.2,0.9-13-2
	c0.3-1.3,0.7-2.6,1-4C526.2,461.9,528.3,462.1,531.7,462.9z"/>
<path d="M908.9,210c0.7,0.3,1.3,0.7,2,1c-8.6,8.6-17.2,17.2-26,26c-0.7-0.3-1.3-0.7-2-1C891.2,226.9,899.6,218.1,908.9,210z"/>
<path d="M1052.9,276c2,1,2,1,3.2,4.1c0.8,4,0.6,6.9-0.2,10.9c-1,0-2,0-3,0c-2.6-3.9-2.3-7.4-2-12C1051.6,278,1052.2,277,1052.9,276z
	"/>
<path d="M701.9,604c2.4,1.5,2.4,1.5,4,3c-0.3,1-0.7,2-1,3c-6.3,1.2-6.3,1.2-9.4,0.3c-1.6-1.3-1.6-1.3-2.6-4.3
	C696.4,603.7,697.8,603.6,701.9,604z"/>
<path d="M1169.9,473c0.7,0.2,1.3,0.3,2,0.5c2.5,0.4,4.6,0.5,7.1,0.4c3.9,0.1,3.9,0.1,6.9,2.1c-0.3,1-0.7,2-1,3
	c-8.6,0.7-8.6,0.7-12.6-1.9c-0.8-0.7-1.6-1.4-2.4-2.1C1169.9,474.3,1169.9,473.7,1169.9,473z"/>
<path d="M1596.6,312.3c1.1,0.2,2.2,0.5,3.3,0.7c0,4,0,4-1.8,5.8c-2.3,1.2-2.3,1.2-4.4,1.1c-2.4-1.2-2.9-2.5-3.9-4.9
	C1592,311.9,1592.7,312,1596.6,312.3z"/>
<path d="M1646.9,84c-1.5,3.8-3.6,5.8-7,8c-3.3,0.3-3.3,0.3-6,0c0.1-1.8,0.1-1.8,1-4C1639,85.2,1641.8,83.4,1646.9,84z"/>
<path d="M1080.9,506c0.3,0.7,0.7,1.3,1,2c3.3,1.1,6.2,1.3,9.7,1.6c1.2,0.1,2.4,0.2,3.6,0.3c1.4,0.1,1.4,0.1,2.7,0.2c0,0.3,0,0.7,0,1
	c-9.6,1-19.1,1.1-28.8,1.1c-1.5,0-3,0-4.5,0c-3.6,0-7.2,0-10.8,0c0-0.3,0-0.7,0-1c1.1,0,1.1,0,2.3-0.1c3.4-0.1,6.7-0.2,10.1-0.4
	c1.2,0,2.4-0.1,3.6-0.1c1.1,0,2.2-0.1,3.4-0.1c1,0,2.1-0.1,3.1-0.1c2.5,0,2.5,0,4.5-1.2C1080.9,508,1080.9,507,1080.9,506z"/>
<path d="M1415.9,454c2.9,0.3,2.9,0.3,6,1c2,3,2,3,2,7c-1.7,0.8-1.7,0.8-4,1c-2.8-2.2-2.8-2.2-5-5
	C1415.1,455.7,1415.1,455.7,1415.9,454z"/>
<path d="M1013.9,176c5,0,9.9,0,15,0c-1,1.3-2,2.6-3,4c-3.4,0.4-3.4,0.4-7.2,0.3c-1.9-0.1-1.9-0.1-3.9-0.1c-1,0-2-0.1-3-0.1
	C1012.6,178.7,1013.2,177.4,1013.9,176z"/>
<path d="M816.9,343c-0.1,1.8-0.1,1.8-1,4c-2.8,2.3-2.8,2.3-6,4c-2.4-0.3-2.4-0.3-4-1c0.1-1.8,0.1-1.8,1-4
	C810.6,343.7,812.5,343,816.9,343z"/>
<path d="M1044.9,481c-0.4,2.7-0.7,4.6-2.3,6.8c-2.3,1.6-4,1.4-6.8,1.2c0-4,0-4,1.3-5.7C1039.8,481.3,1041.7,481,1044.9,481z"/>
<path d="M1421.9,376c0.3,0,0.7,0,1,0c0,12.5,0,25.1,0,38c1,0.3,2,0.7,3,1c-1.9,0.6-1.9,0.6-4,1c-1-1-1-1-1-4.7
	c0-1.6,0.1-3.3,0.1-4.9c0-0.9,0-1.7,0.1-2.6c0.1-2.8,0.2-5.5,0.2-8.3c0.1-1.9,0.1-3.7,0.2-5.6C1421.6,385.2,1421.8,380.6,1421.9,376
	z"/>
<path d="M1187.9,125.9c1.1,0,1.1,0,2.1,0c1.9,0.1,1.9,0.1,3.9,1.1c-0.3,1.3-0.7,2.6-1,4c-1.3,0-2.5,0.1-3.8,0.1
	c-0.7,0-1.4,0-2.1,0.1c-2-0.2-2-0.2-5-2.2c0-0.7,0-1.3,0-2C1184.1,125.9,1185.4,125.9,1187.9,125.9z"/>
<path d="M1744.9,581c8.4,2,8.4,2,17,4c-1,1.3-2,2.6-3,4c-4-0.6-6.5-1.7-9.8-4c-0.8-0.5-1.6-1.1-2.4-1.6c-0.6-0.5-1.2-0.9-1.8-1.4
	C1744.9,581.7,1744.9,581.3,1744.9,581z"/>
<path d="M1045.9,450c0.6,1.8,0.6,1.8,1,4c-2.1,2.4-2.1,2.4-5,5c-0.5,0.5-1.1,0.9-1.6,1.4c-4.1,3.6-4.1,3.6-6.4,3.6
	c1.6-3.9,4.1-6.3,7.1-9.3c0.9-0.9,1.8-1.8,2.8-2.7C1044.5,451.4,1045.2,450.7,1045.9,450z"/>
<path d="M855.9,385c1,0.3,2,0.7,3,1c-0.3,3.7-0.8,4.8-3.6,7.3c-0.8,0.6-1.6,1.1-2.4,1.7c-0.7-0.3-1.3-0.7-2-1
	C851.4,389.7,852.6,387.8,855.9,385z"/>
<path d="M1108.9,489c3.9,1.8,3.9,1.8,5,4c0,2.3,0,4.7,0,7c-3.2-1.4-4-2-6-5c-0.2-2.6-0.2-2.6,0-5
	C1108.2,489.7,1108.6,489.3,1108.9,489z"/>
<path d="M1630.9,83c-1.6,2.4-1.6,2.4-4,5c-3.8,0.8-3.8,0.8-7,1c0.1-1.8,0.1-1.8,1-4C1624.4,82.7,1626.8,81.3,1630.9,83z"/>
<path d="M923.9,500c2.4,0.3,2.4,0.3,5,1c1.3,2.1,1.3,2.1,2,4c-1.3,1-2.6,2-4,3c-1.7-1.7-3.3-3.3-5-5C922.6,502,923.2,501,923.9,500z
	"/>
<path d="M813.9,357c-0.4,2.7-0.8,3.8-2.8,5.8c-2.2,1.2-2.2,1.2-4.4,0.9c-0.6-0.2-1.2-0.5-1.8-0.7c0.3-1.9,0.3-1.9,1-4
	C809.1,356.8,810.2,356.8,813.9,357z"/>
<path d="M1055.9,492c3,1,3,1,5,4c0.1,2.7,0.1,2.7,0,5c-1.3,0-2.6,0-4,0c-2.1-3.2-2.3-4.3-2-8C1055.2,492.7,1055.6,492.3,1055.9,492z
	"/>
<path d="M1259.9,128c0.7,0.3,1.3,0.7,2,1c0,1,0,2,0,3c-2.7,1.4-5,1.1-8,1c-0.7-0.3-1.3-0.7-2-1c0-1,0-2,0-3
	C1254.6,127.6,1256.9,127.9,1259.9,128z"/>
<path d="M1595.2,289.3c0.8,0.4,0.8,0.4,1.7,0.8c-0.6,2.9-0.9,3.9-3,6c-2.6,0.1-2.6,0.1-5,0c-0.3-1-0.7-2-1-3
	C1592.3,288.9,1592.3,288.9,1595.2,289.3z"/>
<path d="M1371.9,104c2,3,2,3,2,5c0.7,0.3,1.3,0.7,2,1c-1,0.5-1,0.5-2,1c-0.7,3-0.7,3-1,6c-2.4-0.7-2.4-0.7-5-2c-0.8-2.6-0.8-2.6-1-5
	c1.3-0.3,2.6-0.7,4-1C1371.2,107.3,1371.6,105.7,1371.9,104z"/>
<path d="M782.9,97c0.7,0.3,1.3,0.7,2,1c-5.9,5.9-11.9,11.9-18,18c-0.7-0.3-1.3-0.7-2-1c4.5-5.3,9-10.1,14.3-14.6
	C781,99,781,99,782.9,97z"/>
<path d="M836.9,638c9,0.5,18,1.1,27,2c0,0.3,0,0.7,0,1c-0.6,0-1.3,0-1.9,0c-2.8,0-5.7,0-8.5,0c-1,0-2,0-3,0c-0.9,0-1.9,0-2.9,0
	c-0.9,0-1.7,0-2.6,0c-2.2,0-2.2,0-4.2,1.1c-2.1-0.9-2.1-0.9-4-2C836.9,639.3,836.9,638.7,836.9,638z"/>
<path d="M1007.9,471c1,0.3,2,0.7,3,1c-0.8,4.8-0.8,4.8-3,7c-2.6,0.1-2.6,0.1-5,0C1005.7,473.3,1005.7,473.3,1007.9,471z"/>
<path d="M903.9,429c1.9,0.6,1.9,0.6,4,2c0.8,3.6,0.8,3.6,1,7c-1.9-0.3-1.9-0.3-4-1c-1.3-1.8-1.3-1.8-2-4
	C903.3,430.8,903.3,430.8,903.9,429z"/>
<path d="M802.9,609c1.7,0.1,3.5,0.3,5.2,0.4c1.4,0.1,1.4,0.1,2.9,0.2c2.7,0.3,5.3,0.7,7.9,1.3c0,0.3,0,0.7,0,1c-1.7,0-3.3,0-5,0
	c0.3,1,0.7,2,1,3c-4.2-1.3-8.1-2.9-12-5C802.9,609.7,802.9,609.3,802.9,609z"/>
<path d="M869.9,389c2.1,0.4,2.1,0.4,4,1c-0.6,2.9-0.9,3.9-3,6c-2.6-0.4-2.6-0.4-5-1C868.8,390.1,868.8,390.1,869.9,389z"/>
<path d="M1314.9,282c3.3,1.2,5.8,2.2,8,5c0,0.7,0,1.3,0,2c-2.3,0.3-2.3,0.3-5,0c-2.3-2-2.3-2-4-4C1314.2,284,1314.6,283,1314.9,282z
	"/>
<path d="M1656.9,88c-0.3,1.7-0.7,3.3-1,5c-2,0.7-4,1.3-6,2c-0.3-1.3-0.7-2.6-1-4C1653.5,88,1653.5,88,1656.9,88z"/>
<path d="M1314.9,273c2.4,0.3,2.4,0.3,5,1c2,3,2,3,2,6c-4.8-0.8-4.8-0.8-7-3C1314.9,275.7,1314.9,274.4,1314.9,273z"/>
<path d="M613.9,558c0.7,0,1.3,0,2,0c-1.9,6.7-1.9,6.7-5,9c-1.7,0-3.3,0-5,0c1.3-1.5,2.6-3,3.9-4.5c1.1-1.3,1.1-1.3,2.2-2.5
	C612.6,559.3,613.2,558.7,613.9,558z"/>
<path d="M1000.2,551.9c1.9,0,1.9,0,3.8,0c1,0,1.9,0,2.9,0c0,0.3,0,0.7,0,1c-5.4,0.5-5.4,0.5-11,1c0,1,0,2,0,3c-3-0.5-3-0.5-6-1
	c-0.3-1-0.7-2-1-3C992.7,551.8,996.2,551.9,1000.2,551.9z"/>
<path d="M846.9,545c0,0.3,0,0.7,0,1c-2.2,0.2-4.5,0.4-6.8,0.6c-1.9,0.2-1.9,0.2-3.8,0.3c-2.9,0.1-4.7,0-7.5-0.9c-1.7,0-3.3,0-5,0
	C830.1,541.9,839.8,543.7,846.9,545z"/>
<path d="M1129.9,483c1.7,0.3,3.3,0.6,5,1c0,1.3,0,2.6,0,4c-1.7,0.3-3.3,0.7-5,1c-0.4-1.7-0.7-3.3-1-5
	C1129.2,483.7,1129.6,483.3,1129.9,483z"/>
<path d="M907.9,447c2.5,0.5,2.5,0.5,5,1c1.1,3.8,1.1,3.8,0,6c-3.9-0.9-3.9-0.9-5-2C907.9,450.3,907.9,448.7,907.9,447z"/>
<path d="M654.6,568.8c0.7,0.1,1.5,0.2,2.3,0.3c0.6,1.8,0.6,1.8,1,4c-1,1.5-1,1.5-2,3c0-2,0-4,0-6c-1,0-2,0-3,0
	c-0.2,0.6-0.5,1.2-0.8,1.8c-1.4,2.6-3.1,4.3-5.3,6.3c-0.7-0.3-1.3-0.7-2-1c1-1.3,2.1-2.7,3.2-4c0.6-0.7,1.2-1.5,1.8-2.3
	C651.9,569,651.9,569,654.6,568.8z"/>
<path d="M969.9,473c0.3,1.3,0.7,2.6,1,4c-2.4,0.6-2.4,0.6-5,1c-0.7-0.7-1.3-1.3-2-2c0-1,0-2,0-3C966.4,471.8,967.3,472.2,969.9,473z
	"/>
<path d="M1368.9,599c2.6,0,5.3,0,8,0c-0.3,1-0.7,2-1,3c1,1,2,2,3,3c-1.5-0.4-3-0.9-4.4-1.3c-0.8-0.2-1.6-0.5-2.5-0.7
	c-1-0.5-1-0.5-2.1-0.9C1369.6,601,1369.2,600,1368.9,599z"/>
<path d="M911.9,491c2.1,0.4,2.1,0.4,4,1c0,1.3,0,2.6,0,4c-1.7,0.3-3.3,0.7-5,1c-0.6-1.9-0.6-1.9-1-4
	C910.6,492.3,911.2,491.7,911.9,491z"/>
<path d="M1487.9,440c0.7,0,1.3,0,2,0c-1.5,3.5-3.4,5.6-6.1,8.3c-0.7,0.7-1.4,1.4-2.2,2.1c-0.6,0.5-1.1,1.1-1.7,1.6
	c-0.7-0.3-1.3-0.7-2-1c1.5-1.6,3-3.3,4.4-4.9c0.8-0.9,1.6-1.8,2.5-2.8C1486.9,441,1486.9,441,1487.9,440z"/>
<path d="M933.9,206c-0.8,4.8-0.8,4.8-3,7c-0.3-0.7-0.7-1.3-1-2c-1.3,1.3-2.6,2.6-4,4c-0.7-0.3-1.3-0.7-2-1c1-1.1,1.9-2.3,2.9-3.4
	c0.5-0.6,1.1-1.3,1.6-1.9C930.2,206.7,931.2,206,933.9,206z"/>
<path d="M1103.9,466c1.3,0.7,2.6,1.3,4,2c0,1.3,0,2.6,0,4c-1.7,0-3.3,0-5,0c-0.6-1.9-0.6-1.9-1-4
	C1102.6,467.3,1103.2,466.7,1103.9,466z"/>
<path d="M1066.9,471c1,0.3,2,0.7,3,1c0.3,1,0.7,2,1,3c-1,1.5-1,1.5-2,3c-1.3-0.3-2.6-0.7-4-1C1065.8,472.1,1065.8,472.1,1066.9,471z
	"/>
<path d="M831.9,409c1.1,4.3,0.8,5.2-1,9c-0.7-0.7-1.3-1.3-2-2c-1,1-2,2-3,3c-0.7-0.3-1.3-0.7-2-1C826.5,415,829.2,412.1,831.9,409z"
	/>
<path d="M1136.9,322c1,0.3,2,0.7,3,1c-0.5,0.4-1,0.9-1.5,1.3c-4.2,3.9-4.2,3.9-6.4,9.1c0,0.8,0,1.7-0.1,2.6c-2-3-2-3-1.4-5.9
	C1132.1,326.6,1134,324.6,1136.9,322z"/>
<path d="M1052.9,276c0.7,0.3,1.3,0.7,2,1c0.4,2.3,0.7,4.7,1,7c-0.3-1-0.7-2-1-3c-1,0.5-1,0.5-2,1c0,2.6,0,5.3,0,8
	c-2-3-2.3-3.6-2.3-7c0-0.7,0-1.4,0-2.1C1050.9,279,1050.9,279,1052.9,276z"/>
<path d="M1747.9,475c0.7,0.3,1.3,0.7,2,1c0,2.3,0,4.6,0,7c-1.3,0-2.6,0-4,0c-0.3-1.3-0.7-2.6-1-4c0.7,0,1.3,0,2,0
	C1747.2,477.7,1747.6,476.4,1747.9,475z"/>
<path d="M1644.9,460c1,0.3,2,0.7,3,1c-0.3,1.6-0.7,3.3-1,5c-0.7-0.7-1.3-1.3-2-2c-1.7,1.6-3.3,3.3-5,5c-0.7-0.3-1.3-0.7-2-1
	C1640.2,465.4,1642.5,462.7,1644.9,460z"/>
<path d="M1268.9,332c0.7,0.3,1.3,0.7,2,1c-3.6,3.6-7.3,7.3-11,11c-0.7-0.3-1.3-0.7-2-1C1261.3,338.9,1264.6,335.2,1268.9,332z"/>
<path d="M1508.9,104c6.3,0,12.5,0,19,0c0,0.3,0,0.7,0,1c-2.4,0.4-4.8,0.8-7.3,1.2c-1,0.2-1,0.2-2.1,0.4c-2,0.3-2,0.3-5.7,0.4
	C1511.6,106,1510.3,105,1508.9,104z"/>
<path d="M851.5,83.9c1.2,0,1.2,0,2.4,0.1c0.3,1.7,0.7,3.3,1,5c-1.7,0-3.3,0-5,0c-0.7-1.3-1.3-2.6-2-4C848.9,84,848.9,84,851.5,83.9z
	"/>
<path d="M1010.9,178c0.7,0.3,1.3,0.7,2,1c2.4,0.2,4.7,0.4,7.1,0.6c1.3,0.1,2.6,0.2,3.9,0.3c1.5,0.1,1.5,0.1,3,0.2c0,0.3,0,0.7,0,1
	c-7.9,0.5-7.9,0.5-16,1C1010.9,180.7,1010.9,179.4,1010.9,178z"/>
<path d="M782.9,400c0.7,0.3,1.3,0.7,2,1c-1.5,1.5-2.9,3-4.4,4.5c-0.8,0.8-1.6,1.7-2.5,2.5c-2.2,2-2.2,2-4.2,2c1.4-3.2,2.9-5,5.6-7.3
	c0.6-0.5,1.3-1,1.9-1.6C782.2,400.6,782.2,400.6,782.9,400z"/>
<path d="M848.5,299.9c1.2,0,1.2,0,2.4,0.1c-0.8,1.2-1.6,2.3-2.4,3.5c-0.4,0.6-0.9,1.3-1.3,2c-0.4,0.5-0.9,1-1.3,1.5
	c-0.7,0-1.3,0-2,0C844.9,300,844.9,300,848.5,299.9z"/>
<path d="M1122.9,235c2,0,4,0,6,0c0.3,1.6,0.7,3.3,1,5c-4.8-0.9-4.8-0.9-7-2C1122.9,237,1122.9,236,1122.9,235z"/>
<path d="M1376.9,600c2.6,0.4,2.6,0.4,5,1c0,1.3,0,2.6,0,4c-3-0.6-4.4-1.3-7-3C1375.6,601.3,1376.2,600.7,1376.9,600z"/>
<path d="M1010.9,499c1,0,2,0,3,0c0.3,1.3,0.7,2.6,1,4c-2,1-2,1-4,2c-0.7-1.3-1.3-2.6-2-4C1009.6,500.3,1010.2,499.7,1010.9,499z"/>
<path d="M1529.9,442c0.7,0,1.3,0,2,0c-1.7,4.3-4.7,6.9-8,10c-0.7-0.3-1.3-0.7-2-1c1.3-1.5,2.6-3,3.9-4.5c1.1-1.3,1.1-1.3,2.2-2.5
	C1528.6,443.3,1529.2,442.7,1529.9,442z"/>
<path d="M1456,185.3c1.4,0.4,1.4,0.4,2.9,0.8c0.3,0.7,0.7,1.3,1,2c-1.6-0.1-1.6-0.1-3.2-0.3c-4.4,0.3-5.7,1.3-8.8,4.3
	C1449.5,187.4,1450.6,184.8,1456,185.3z"/>
<path d="M681.9,480c1,0.3,2,0.7,3,1c-0.3,1.6-0.7,3.3-1,5c-1.3-0.3-2.6-0.7-4-1C680.8,481.1,680.8,481.1,681.9,480z"/>
<path d="M1408.9,447c2.5,0.5,2.5,0.5,5,1c0.3,1.3,0.7,2.6,1,4c-1.7-0.3-3.3-0.7-5-1C1409.6,449.7,1409.2,448.4,1408.9,447z"/>
<path d="M854.9,153c0,0.7,0,1.3,0,2c-1,0-2,0-3,0c-0.2,0.6-0.5,1.2-0.7,1.8c-1.6,2.8-3.7,4.3-6.3,6.3
	C846.2,158.5,849.7,153,854.9,153z"/>
<path d="M609.9,565c0.3,1.3,0.7,2.6,1,4c-0.7,0.3-1.5,0.6-2.3,0.9c-2.3,0.9-4.5,2-6.8,3.1C604,569,605.9,567.1,609.9,565z"/>
<path d="M1039.9,483c1,0,2,0,3,0c-0.3,1.6-0.7,3.3-1,5c-1.7,0-3.3,0-5,0C1038.8,484.1,1038.8,484.1,1039.9,483z"/>
<path d="M1179.9,474c1.7,0.3,3.3,0.7,5,1c0,1.3,0,2.6,0,4c-3,0-5.9,0-9,0c0-0.3,0-0.7,0-1c2,0,4,0,6,0c0-1,0-2,0-3
	C1181.2,474.7,1180.6,474.3,1179.9,474z"/>
<path d="M1714.9,407c2.1,3.2,2.3,4.5,2.6,8.2c0.1,0.9,0.1,1.8,0.2,2.7c0,0.7,0.1,1.4,0.1,2.1c-1.9-0.8-1.9-0.8-4-2c-0.3-1-0.7-2-1-3
	c0.7,0,1.3,0,2,0C1714.9,412.4,1714.9,409.7,1714.9,407z"/>
<path d="M1856.9,411c1,0.3,2,0.7,3,1c-2.6,2.6-5.3,5.3-8,8C1851.9,415.6,1854,414.2,1856.9,411z"/>
<path d="M742.9,343c0.7,0.3,1.3,0.7,2,1c-0.8,0.7-1.6,1.4-2.4,2.1c-3,3.4-3.3,5.5-3.6,9.9c-0.3,0-0.7,0-1,0c-0.6-7.3-0.6-7.3,2.5-11
	C741.2,344.3,742.1,343.7,742.9,343z"/>
<path d="M1369.9,168c0.7,0.3,1.3,0.7,2,1c-0.5,0.5-1,0.9-1.5,1.4c-0.9,0.9-0.9,0.9-1.9,1.9c-0.6,0.6-1.3,1.2-1.9,1.9
	c-1.9,1.9-1.9,1.9-3.7,4.8c0.4-4.8,2.5-6.8,6-10C1369.2,168.7,1369.6,168.3,1369.9,168z"/>
<path d="M855.9,385c0.7,0.3,1.3,0.7,2,1c-2,2.3-4,4.6-6,7c1,0.3,2,0.7,3,1c-1,0.3-2,0.7-3,1c-0.8-2.2-0.8-2.2-1-5
	C853.3,387.2,853.3,387.2,855.9,385z"/>
<path d="M1039.9,337c-1.6,4.3-4.5,6.3-8,9C1033.2,342.1,1035.1,337,1039.9,337z"/>
<path d="M1251.9,129c2.3,0,4.6,0,7,0c0,1,0,2,0,3c-2.3,0-4.6,0-7,0C1251.9,131,1251.9,130,1251.9,129z"/>
<path d="M864.9,492c0,2,0,2-1.5,3.6c-0.5,0.5-1,0.9-1.5,1.4c1.3,0.3,2.6,0.7,4,1c-2.3-0.3-4.6-0.7-7-1
	C861.2,492,861.2,492,864.9,492z"/>
<path d="M711.9,462c0.7,0,1.3,0,2,0c-1.4,3.4-3.3,5.5-6,8c-0.7-0.3-1.3-0.7-2-1c1-1.2,1.9-2.3,2.9-3.5c0.5-0.6,1.1-1.3,1.6-2
	C711.1,462.8,711.1,462.8,711.9,462z"/>
<path d="M1181.9,127c2.6,0,5.3,0,8,0c-0.3,1-0.7,2-1,3c-2,0-4,0-6,0C1182.6,129,1182.2,128,1181.9,127z"/>
<path d="M1415.9,620c-2,1-2,1-4,2c0.3,1.3,0.7,2.6,1,4c-1.3-0.7-2.6-1.3-4-2c0.4-1.9,0.4-1.9,1-4
	C1412.4,618.8,1413.3,619.2,1415.9,620z"/>
<path d="M1348.9,470c1.7,1,3.3,2,5,3c-1.3,1-2.6,2-4,3c-1-1-2-2-3-3C1347.6,472,1348.2,471,1348.9,470z"/>
<path d="M958.9,461c1.3,0.7,2.6,1.3,4,2c0,0.7,0,1.3,0,2c-1.3,0.3-2.6,0.7-4,1c-0.7-1-1.3-2-2-3C957.6,462.3,958.2,461.7,958.9,461z
	"/>
<path d="M1592.9,289c1,0.3,2,0.7,3,1c-1.7,1.3-3.3,2.6-5,4c1,0.7,2,1.3,3,2c-1.7,0-3.3,0-5,0c-0.3-1-0.7-2-1-3
	C1590.2,290.9,1590.2,290.9,1592.9,289z"/>
<path d="M1487.9,104c1.3,0.3,2.6,0.7,4,1c-1,0-2,0-3,0c0.3,2,0.7,4,1,6c-1.3,0-2.6,0-4,0c-0.3-0.7-0.7-1.3-1-2c0.7,0,1.3,0,2,0
	C1487.2,107.3,1487.6,105.7,1487.9,104z"/>
<path d="M869.9,620c2.5,1,2.5,1,5,2c0,0.7,0,1.3,0,2c-2.3,0.3-4.6,0.7-7,1c0.3-0.6,0.7-1.3,1-1.9C870,621.2,870,621.2,869.9,620z"/>
<path d="M1740.9,460c1,0.3,2,0.7,3,1c-0.3,3-0.7,5.9-1,9C1740.9,466,1740.7,464.3,1740.9,460z"/>
<path d="M1420.9,409c0.7,0,1.3,0,2,0c0,1.6,0,3.3,0,5c1,0.3,2,0.7,3,1c-1.9,0.6-1.9,0.6-4,1c-1-1-1-1-1.1-4.1
	C1420.9,411,1420.9,410,1420.9,409z"/>
<path d="M839.9,356c2.1,0.4,2.1,0.4,4,1c-0.3,1.3-0.7,2.6-1,4c0-1,0-2,0-3c-2,1.3-4,2.6-6,4C838.8,357.1,838.8,357.1,839.9,356z"/>
<path d="M1366.9,110c1.3,0.3,2.6,0.7,4,1c0.3,1.3,0.7,2.6,1,4c-1,0.5-1,0.5-2,1c-0.7-0.3-1.3-0.7-2-1
	C1367.3,112.4,1367.3,112.4,1366.9,110z"/>
<path d="M802.9,609c3.6,0.3,7.3,0.7,11,1c0,0.3,0,0.7,0,1c-6.4,1.2-6.4,1.2-9.4,0.1c-0.5-0.4-1-0.7-1.6-1.1
	C802.9,609.7,802.9,609.3,802.9,609z"/>
<path d="M1744.9,581c4.5,1,4.5,1,9,2c-1,1.5-1,1.5-2,3C1748.2,584.8,1747.1,584.3,1744.9,581z"/>
<path d="M761.9,491c0.3,0,0.7,0,1,0c0,2,0,4,0,6c0.7,0.3,1.3,0.7,2,1c-2,1-2,1-4,2C761.2,497,761.6,494.1,761.9,491z"/>
<path d="M917.9,476c2,0,4,0,6,0c-2,1-2,1-4,2c0.3,1.3,0.7,2.6,1,4c-1.3-0.7-2.6-1.3-4-2C917.2,478.7,917.6,477.4,917.9,476z"/>
<path d="M1349.9,386c0.7,0,1.3,0,2,0c-0.3,0.5-0.6,1.1-0.9,1.6c-1.3,2.7-2.2,5.5-3.1,8.4c-0.3,0-0.7,0-1,0c-0.2-3.4-0.3-5.4,1.4-8.4
	C1348.8,387.1,1349.3,386.6,1349.9,386z"/>
<path d="M1403.9,294c1,0.3,2,0.7,3,1c-1,0.3-2,0.7-3,1c0,2,0,4,0,6c-1-0.3-2-0.7-3-1C1401.9,298.7,1402.9,296.4,1403.9,294z"/>
<path d="M1406.5,266.9c0.8,0,1.6,0.1,2.4,0.1c-0.6,0.4-1.2,0.8-1.9,1.3c-2.2,1.8-3.1,3.2-4.1,5.8c-0.6-2.4-0.6-2.4-1-5
	C1403.9,267,1403.9,267,1406.5,266.9z"/>
<path d="M1071.9,448c1,0,2,0,3,0c-0.3,1.3-0.7,2.6-1,4c-0.7,0-1.3,0-2,0c-0.3-1-0.7-2-1-3C1071.2,448.7,1071.6,448.3,1071.9,448z"/>
<path d="M1593.9,283c0.7,0,1.3,0,2,0c-0.3,1-0.7,2-1,3c-1-0.3-2-0.7-3-1C1592.6,284.3,1593.2,283.7,1593.9,283z"/>
<path d="M963.9,463c1,0,2,0,3,0c0,0.7,0,1.3,0,2c-1,0-2,0-3,0C963.9,464.3,963.9,463.7,963.9,463z"/>
<path class="st0" d="M924-232"/>
<path class="st0" d="M924-232"/>
<path class="st0" d="M924-232"/>
<path class="st0" d="M924-232"/>
<path class="st0" d="M924-232"/>
</svg>
