<?xml version="1.0" encoding="utf-8"?>
<!-- Generator: Adobe Illustrator 19.0.0, SVG Export Plug-In . SVG Version: 6.00 Build 0)  -->
<svg version="1.1" id="Vrstva_1" xmlns="http://www.w3.org/2000/svg" xmlns:xlink="http://www.w3.org/1999/xlink" x="0px" y="0px"
	 viewBox="44 564 886 776" style="enable-background:new 44 564 886 776;" xml:space="preserve">
<style type="text/css">
	.st0{fill:#8C8B8B;}
	.st1{fill:#3B3B3B;}
	.st2{fill:#3D3D3D;}
	.st3{fill:#404040;}
	.st4{stroke:#FFFFFF;stroke-miterlimit:10;}
	.st5{fill:#393939;}
	.st6{fill:#3C3C3C;}
	.st7{fill:#313131;}
	.st8{fill:#090909;}
	.st9{fill:#444444;}
	.st10{fill:#040404;}
	.st11{fill:#636363;}
	.st12{fill:#232323;}
	.st13{fill:#1A1A1A;}
	.st14{fill:#030303;}
	.st15{fill:#BEBEBE;}
	.st16{fill:#CDCDCD;}
	.st17{fill:#585858;}
	.st18{fill:#A1A1A1;}
	.st19{fill:#6E6E6E;}
	.st20{fill:#878787;}
	.st21{fill:#9E9E9E;}
	.st22{fill:#848484;}
</style>
<path d="M245.9,594c6.9,5.4,9.5,12.5,11.9,20.6c0.7,0.1,1.3,0.2,2,0.3c30.1,4.7,51,15.9,72.2,37.9c5,5.1,9.9,9.8,15.8,13.8
	c-0.7,3.3-1.5,4.8-4,7c2.2,4.5,4.3,5.9,8.9,7.8c5.8,2.7,8.5,5.4,11.1,11.2c0.3,0.7,0.7,1.3,1,2c0.5,7.3,0.6,13.5-3,20
	c0.5,0.3,1,0.7,1.5,1c0.9,0.7,0.9,0.7,1.9,1.3c0.6,0.4,1.3,0.9,1.9,1.3c2.6,2.1,3.6,3.9,4.2,7.1c-0.5,3.9-1.9,5.7-4.3,8.6
	c-1.4,1.7-1.4,1.7-1.1,4.6c2.6,0.3,5.3,0.7,8,1c-1.8,3.9-1.8,3.9-4,5c-4.4,0.5-6.3,0.5-10-2.1c-2-2.9-2-2.9-2.1-5.8
	c1.2-3.5,3-6.1,5.1-9.1c0.3-1.3,0.7-2.6,1-4c-3-0.3-5.9-0.7-9-1c-0.1,1-0.1,1-0.3,2c-3.5,22.5-8.8,42.6-22.7,61
	c-0.6,0.8-1.2,1.6-1.8,2.5c-5.4,6.7-12.3,11.5-20.2,14.7c-3.3,1.3-3.3,1.3-5.2,4.3c0.3,3.4,1.5,5.7,3.3,8.6c2.5,1.2,4,1.1,6.8,1
	c1,0,1.9,0,2.9,0s2.1,0,3.1,0c26.5-0.1,41.3,10.7,60.1,28.1c2.6,2.4,5.3,4.7,8,7c0.9,0.7,1.7,1.5,2.6,2.2c1.3,1.1,1.3,1.1,2.7,2.3
	c0.8,0.7,1.6,1.4,2.5,2.1c2.1,1.6,2.1,1.6,4.3,1.3c6.8-2.9,10.2-15.4,12.9-21.7c0.4-1,0.9-2,1.3-3c2.5-5.7,4.8-11.5,7-17.3
	c4.9-12.7,11-23.2,20.8-32.8c1.2-1,1.2-1,1.1-3.1c0-1,0-1.9,0-2.9c0-1.1,0-2.2,0-3.4c0-1.2,0-2.5,0-3.8c0-2,0-2,0-4
	c-0.1-22.1-0.4-44.2-0.7-66.2c-0.1-5-0.1-10-0.2-15c0-1.9,0-3.8-0.1-5.7c0-2.6-0.1-5.2-0.1-7.8c0-1.2,0-1.2,0-2.3
	c0-3.2,0-5.6,1.1-8.7c3.7-2.9,8.4-2.3,12.9-2.2c1.4,0,1.4,0,2.7,0c3,0,6,0,9.1,0c2.2,0,4.3,0,6.5,0c4.6,0,9.1,0,13.7,0
	c5.6,0,11.2,0,16.7,0c23.5,0,47,0.2,70.4,0.6c30.3,0.6,60.5,0.6,90.7,0.5c8.3,0,16.7,0,25-0.1c2.9,0,5.8,0,8.7,0c0.7,0,1.4,0,2.2,0
	c8,0,16.1,0,24.1,0c1.1,0,1.1,0,2.2,0c12,0,24-0.1,35.9-0.1c12.4,0,24.9-0.1,37.3-0.1c7.6,0,15.2,0,22.8-0.1c5.8,0,11.6,0,17.3,0
	c2.4,0,4.7,0,7.1,0c3.2,0,6.4,0,9.7,0c0.9,0,1.9,0,2.9,0c6.3,0.1,6.3,0.1,9.5,2.3c2,3,2,5.4,2.1,9c0,0.7,0.1,1.3,0.1,2
	c0.1,2.1,0.1,4.1,0.2,6.2c0,1.2,0.1,2.4,0.1,3.7c0.1,3.7,0.2,7.5,0.3,11.2c0.1,2.1,0.1,4.3,0.2,6.4c0,1.5,0.1,3,0.1,4.5
	c2,81.9,8,163.2,17.2,244.6c3.7,32.1,6,64.4,8.3,96.6c1.8,26.1,1.8,26.1,4.3,52.2c0.1,1.1,0.2,2.1,0.3,3.2c0.8,7.1,2,14,3.3,21
	c1.7,9,2.6,17.6,1.8,26.8c-6.1,6.1-31.2,3.2-39.4,3.2c-5,0-9.9,0-14.9-0.1c-4.8,0-9.5-0.1-14.3-0.1c-6,0-12,0-18-0.1
	c-63.2-0.3-126.3,0.2-189.5,2c-0.8,0-1.7,0-2.5,0.1c-9.2,0.3-18.3,0.5-27.5,0.8c-0.8,0-1.6,0-2.4,0.1c-4,0.1-7.9,0.2-11.9,0.3
	c-29.5,0.8-59,1.4-88.6,1.6c-2.3,0-4.6,0-6.8,0.1c-2.6,0-5.3,0-7.9,0c-4.8,0-9.5,0.1-14.3,0.5c-1,0.1-1,0.1-2,0.2
	c-1.9,0.2-3.8,0.4-5.7,0.6c-3.7-0.1-5.4-0.8-8.3-3.1c-1.1-3.3-1.1-5.5-1-8.9c0-1.3,0-2.5,0-3.8c0-0.7,0-1.4,0-2.1
	c0.2-15.5-0.3-30.8-1.1-46.3c-0.1-1.1-0.1-2.1-0.2-3.2c-0.3-5.6-0.6-11.2-0.8-16.8c-0.6-11.9-1.2-23.8-1.7-35.8
	c-0.1-1.8-0.1-1.8-0.2-3.6c-1.1-23.5-1.8-46.9-2.4-70.4c0-0.8,0-1.7-0.1-2.5c-0.4-18.2-0.8-36.4-0.6-54.6c-3.7-0.4-7.3-0.7-11-1
	c-0.8-0.1-1.6-0.1-2.4-0.2c-13.3-0.6-25.8,9.2-36.9,15.5c-2.2,1.3-4.4,2.5-6.7,3.8c-0.7,0.4-1.5,0.8-2.2,1.2
	c-6.4,3.6-13,6.7-19.8,9.6c-4.5,2-7.2,3.4-9.1,8.1c-4.9,18.3-1.7,38.7,5,56c0.4,1,0.7,1.9,1.1,2.9c4.9,12.9,10.1,25.7,15.8,38.4
	c11.8,26.2,22.3,52.8,32.2,79.7c5.2,14,10.5,28,15.9,41.9c0.4,0.9,0.7,1.8,1.1,2.8c2.2,5.8,4.6,11.5,6.9,17.2
	c0.3,0.6,0.5,1.3,0.8,1.9c9.9,24,20.3,47.6,31.2,71.1c0.7,0,1.3,0,2,0c0.2,0.7,0.4,1.4,0.6,2.1c4,13.3,11.6,24.1,20.1,35
	c2.1,2.6,4.1,5.3,6,8c0.5,0.7,1,1.3,1.4,2c1.1,2.4,0.7,3.5-0.1,5.9c-8.8-2.1-14.3-12.9-19.5-19.7c-1.5-2-3.1-4-4.7-5.9
	c-21.1-25.8-32-63.2-43.8-94c-10.8-28.1-21.9-56-34-83.6c-3-6.9-5.8-13.8-8-21c-4.9-15.3-10.5-30-17-44.7c-0.4-0.9-0.8-1.8-1.2-2.7
	c-1.5-3.5-3.1-6.9-4.6-10.4c-3-6.6-5.8-13.3-8.5-20.1c-0.3-0.8-0.7-1.6-1-2.4c-5.6-14.5-7.2-27.6-6.9-43c0-1.7,0-3.4,0.1-5.1
	c0-4.1,0.1-8.2,0.2-12.4c-0.7,0.2-1.3,0.5-2,0.7c-3.1,1-6.2,2.1-9.3,3.1c-1.1,0.4-2.1,0.7-3.2,1.1c-24.8,8.3-24.8,8.3-36.8,2.5
	c-0.9-0.4-1.7-0.9-2.6-1.3c-1.2-0.6-2.3-1.1-3.5-1.7c-20.4-9.9-38.1-21.6-54.5-37.3c-0.8-0.7-1.6-1.5-2.4-2.3
	c-3.8-3.7-7-7.2-9.6-11.7c0-0.7,0-1.3,0-2c4.5,0.5,6.6,2,9.9,5.1c0.9,0.8,1.8,1.6,2.7,2.5c1.9,1.9,3.8,3.8,5.7,5.8
	c13.5,13.6,30.2,22.7,47.3,30.9c1.8,0.9,3.6,1.8,5.5,2.7c11.8,5.5,19.4,4.8,31.6,1c1.6-0.5,1.6-0.5,3.2-1c3.1-0.9,6.1-1.9,9.2-2.9
	c0.7-0.2,1.4-0.5,2.2-0.7c20.4-6.6,40.2-17.4,58.7-28.1c4-2.3,8-4.5,11.9-6.7c0.7-0.4,1.5-0.8,2.3-1.3c2-1.1,3.9-2.2,5.9-3.2
	c0.8-0.4,1.6-0.9,2.4-1.3c4-1,7.6-0.3,11.6,0.3c0.8,0.1,1.5,0.2,2.3,0.3c2.3,0.3,4.6,0.7,6.9,1c0.8,0.1,1.5,0.2,2.3,0.3
	c5.1,0.8,8.4,2.2,12.5,5.4c-0.4-0.5-0.9-0.9-1.3-1.4c-0.6-0.6-1.1-1.2-1.7-1.9c-0.9-0.9-0.9-0.9-1.7-1.8c-1.2-1.9-1.2-1.9-0.9-4.2
	c0.2-0.6,0.5-1.2,0.7-1.8c3.6-0.4,4.7-0.2,7.6,2.1c0.8,0.6,1.6,1.3,2.4,1.9c1-0.3,2-0.7,3-1c-2.1-2.7-4.2-5.2-6.7-7.6
	c-2.5-3-2.5-3-3.5-6c0.3-0.7,0.7-1.3,1-2c4.8,0.3,7.1,2.6,10.4,5.8c0.5,0.4,1.1,0.8,1.6,1.2c1-0.3,2-0.7,3-1c-0.3-3-0.9-3.9-3.2-5.9
	c-0.9-0.6-1.8-1.2-2.7-1.8c-4.9-3.3-4.9-3.3-7.1-5.4c0.1-2,0.1-2,1-4c1.7-1,1.7-1,3.9-1.6c0.8-0.2,1.6-0.5,2.5-0.7
	c4.3-1.1,8.7-2,13.1-2.8c1.8-0.3,3.5-0.7,5.3-1c1.2-0.2,1.2-0.2,2.3-0.4c2-0.4,2-0.4,3.9-1.4c-7.3-0.2-14.4,0.4-21.7,1.3
	c-1.1,0.1-2.1,0.3-3.2,0.4c-3,0.4-6.1,0.8-9.1,1.3c-0.8,0.1-1.5,0.2-2.3,0.3c-9.5,1.4-17.5,4.5-26.2,8.5
	c-11.1,5.1-22.2,9.7-33.8,13.7c-1,0.4-1,0.4-2.1,0.7c-18.4,6.5-37.1,12.3-55.8,18.2c-3.2,1-6.4,2-9.6,3.1c-0.7,0.2-1.5,0.5-2.2,0.7
	c-2,0.6-3.9,1.3-5.9,2c-4.3,1-6.8,0.5-10.7-1.5c-22.5-14.6-39.4-32.7-55.6-54c-0.7-0.9-1.4-1.8-2.1-2.8c-1.4-1.8-2.7-3.6-4.1-5.5
	c-6.8-10.4-6.8-10.4-16.6-16.7c-6-0.2-10.9,2.9-15.9,5.9c-7.2,7.6-8.4,16.3-8.3,26.4c0.2,7.8,2.8,14.5,5.9,21.5
	c0.4,0.9,0.8,1.8,1.2,2.8c5,11.5,11,22.6,16.9,33.7c1.5,2.8,2.9,5.5,4.4,8.3c0.4,0.8,0.9,1.6,1.3,2.5c3.8,7.4,6.6,15,4.2,23.3
	c-0.2,0.7-0.5,1.3-0.7,2s-0.5,1.5-0.7,2.2C237,974.1,230.5,985,224,996c-15.9,27-28.6,54.8-38.3,84.6c-0.3,0.9-0.6,1.8-0.9,2.8
	c-7.6,23.3-13.7,47.1-19.5,70.9c-31.7,130.9-31.7,130.9-50.5,152.3c-2.7,0.3-2.7,0.3-5,0c-1.8-5.2,0.2-8.7,2.3-13.4
	c0.8-1.8,1.5-3.6,2.3-5.4c0.4-1,0.8-2,1.2-3c6.8-16.9,12.7-34.2,18.5-51.5c0.2-0.7,0.5-1.4,0.7-2.1c7-20.8,12.8-42,18.4-63.3
	c0.6-2.1,1.1-4.3,1.7-6.4c2.5-9.6,5-19.1,7.4-28.7c10.9-43.4,24.5-86.4,45.5-126.1c1.1-2.2,2.3-4.4,3.4-6.6
	c3.9-7.5,7.9-14.9,12.4-22c3.1-5.1,5.7-10.2,7.8-15.8c0.3-0.6,0.5-1.3,0.8-1.9c3-8.2,2-15.7-1.3-23.6c-4.4-9.3-4.4-9.3-11-17
	c-8.4-2.8-15-0.4-22.8,2.8c-8.6,3.2-16.7,2.6-25.2-0.8c-3.1-1.8-6.1-3.8-9-5.9c-4-2.8-7-4.1-12-4.1c-2.7,0.9-5.2,1.8-7.8,2.9
	c-7.9,3.2-15.1,5.1-23.4,1.6c-8.1-4.7-13.8-12.4-19-20.1c-5.2-6.7-12.2-9.8-20.3-11.4c-0.8-0.2-1.6-0.3-2.4-0.5
	c-1.6-0.3-3.2-0.6-4.8-0.8c-4.2-0.8-6.6-1.5-9.4-4.9c-1-1.4-1-1.4-2-2.9c1.4-3,2.9-5.2,5.1-7.6c4.3-4.9,8.2-10.1,11.9-15.4
	c0.5-0.7,1-1.5,1.5-2.2c26-37.8,45.8-78.4,59.2-122.2c1.6-5.4,3.3-10.7,5-16.1c0.8-2.6,1.6-5.3,2.4-7.9
	c5.5-17.8,13.1-33.7,25.9-47.6c-2.3-2.3-4.5-4.3-7.1-6.3c-4.2-3.8-5.6-7.4-6.4-12.9c1.2-10.7,5.9-17.4,13.4-24.8
	c0.7-0.7,1.3-1.4,2-2.1C192.3,593.8,223.1,579.2,245.9,594z M217.8,594.6c0.6,0.4,1.1,0.9,1.7,1.3c11.2,8.5,11.2,8.5,12.3,14.7
	c0.1,2.7,0.1,5.3,0,8c2-0.3,2-0.3,4-1c2-4,1.4-8.7,1-13c-2.3-4.9-5.2-7.6-10-10C223.8,594.3,220.8,594.4,217.8,594.6z M233.8,596.6
	c0.4,0.4,0.9,0.9,1.3,1.3c0.6,0.6,1.1,1.1,1.7,1.7c0.5,0.5,1,0.9,1.6,1.4c4.1,4.6,3.7,9.8,3.4,15.6c2.4-0.3,2.4-0.3,5-1
	c2.3-2.8,2.3-2.8,1.9-5.8c-1.4-5.2-3.7-8.3-7.9-11.6C237.8,596.3,237.8,596.3,233.8,596.6z M200.6,600.5c-2.2,3.7-2.2,5.7-1.5,9.9
	c1.6,5.5,5,8.9,9.6,12.2c3.5,1.7,7.2,1.5,11,1c4.3-2.2,4.3-2.2,7-6c0.4-4.1,0.4-7.8-0.9-11.8c-4.6-4.9-10.7-7.5-17.4-7.9
	C205,598.2,203.7,598.6,200.6,600.5z M191.8,605.6c-3.6,4-3.5,8.2-3.4,13.3c0.7,5.1,2.7,8.3,6.7,11.7c3.5,1.4,6,1.5,9.7,1.1
	c1.7-1.5,1.7-1.5,3-3c-1.1-0.7-2.1-1.4-3.3-2.1c-7.4-5.4-8.9-12.2-10.8-20.9C193.1,605.6,192.5,605.6,191.8,605.6z M182.8,612.6
	c-3,5-2.5,10.4-2,16c1.6,4.8,3.8,7.3,8,10c2.7,0.8,2.7,0.8,5,1c0.7-1,1.3-2,2-3c-0.5-0.3-0.9-0.7-1.4-1c-5.5-4.4-8.9-8.7-10.1-15.7
	c-0.3-2.4-0.4-4.8-0.5-7.3C183.5,612.6,183.1,612.6,182.8,612.6z M172.8,620.6c-4.3,4.9-6.4,10.5-6,17c1.5,5.2,3.5,8,8,11
	c3.2,1.6,6.5,1.4,10,1c2-1.3,2-1.3,3-3c-1.1-2.8-1.9-4-4.4-5.8c-6.1-5.2-7.4-12.6-8.6-20.3C174.1,620.6,173.5,620.6,172.8,620.6z
	 M194.9,649.7c-9.5,11.8-13.4,25.2-13.5,40.1c0,0.8,0,1.7,0,2.5c0.1,5.6,0.9,10.8,2.3,16.3c0.3,0,0.7,0,1,0c0-1.2,0.1-2.3,0.1-3.5
	c0.8-22.2,3.5-43.2,18.9-60.5c3.2-2.8,6-4.6,10-6c-1.7,3.3-3.6,5.6-6.3,8.1c-12.7,12.5-17.6,30.1-18,47.5c0.1,5.6,1.1,10.9,2.3,16.4
	c11.6-4.9,21.1-22,25.9-33.2c0.7-1.9,1.4-3.9,2.1-5.8c0.4-1,0.7-1.9,1.1-2.9c2.4-6.6,3.7-13.1,4.5-20.1c0.3-2.4,0.7-4.7,1.4-7
	c0.7,0.3,1.3,0.7,2,1c1.8,22.2-9,44.7-23.1,61.4c-1.2,1.4-2.4,2.7-3.7,4c-1.5,1.5-1.5,1.5-1.3,3.5c-0.9,0.4-0.9,0.4-1.7,0.8
	c-2.6,1.4-4.4,3-6.4,5.1c-0.7,0.7-1.4,1.4-2.1,2.1c-1.8,2.1-2.4,3.3-2.7,6.1c0.3,1,0.7,2,1,3c4.9-1.6,8.6-4.5,12.7-7.6
	c0.7-0.5,1.4-1.1,2.2-1.6c23.4-18,34.5-37.9,39.2-66.8c4.7,0.5,7.9,1.9,12.1,4.3c6,3.2,12,5.1,18.6,6.6c0.8,0.2,1.7,0.4,2.6,0.6
	c11.2,2.5,22.4,2.7,33.8,2.7c2.1,0,4.2,0,6.3,0c1.3,0,2.7,0,4,0c1.2,0,2.4,0,3.7,0c3.2,0,3.2,0,6-2.2c-0.6-0.1-1.2-0.2-1.8-0.3
	c-2-0.3-4-0.7-6.1-1c-3.1-0.5-6.3-1-9.5-1.5c-20.4-3.3-48.6-8-62.4-25.4c-0.6-0.9-0.6-0.9-1.2-1.8c5.6,0.5,9.1,2.7,13.7,5.8
	c17.9,11.5,40.8,19.1,62.3,18.3c-12.7-18.9-33.3-29.2-55-34C241.5,619.7,214.2,628.3,194.9,649.7z M246.8,659.6
	c-0.2,1.1-0.5,2.3-0.7,3.5c-5,24.1-14.8,42.6-34.3,58.1c-5,4-7.7,7.4-8.5,13.9c0.6,15.3,8.3,25.9,18.4,36.5c0.5,0.5,1,1.1,1.5,1.7
	c4.3,4.5,8.9,8.1,14.1,11.5c0.8,0.5,1.6,1,2.4,1.6c17.9,11.6,39.8,16.4,60.9,12.2c16.4-4.4,25.9-16.8,34.1-30.9
	c12-21.3,15.1-45.3,9-69c-4-13.5-4-13.5-12-25c-3-0.3-3-0.3-6.6-0.3c-1.4,0-2.7-0.1-4.1-0.1c-0.7,0-1.4,0-2.2,0
	c-3.7-0.1-7.4-0.2-11-0.3c-0.7,0-1.4,0-2.2-0.1c-18.3-0.6-35.9-3.6-52.6-11.2C251,660.7,249,660.1,246.8,659.6z M173.2,665.6
	c-13.8,14.3-19.4,38.3-24.9,56.8c-14.7,49.3-36.6,93.9-67.1,135.4c-1.7,2.3-3.4,4.7-5.1,7c-0.5,0.7-1.1,1.5-1.6,2.2s-1,1.4-1.5,2.1
	c-0.7,0.9-0.7,0.9-1.3,1.8c-1.2,1.9-1.2,1.9,0.2,4.7c2.1,0.9,2.1,0.9,4.6,1.4c1,0.2,1.9,0.5,2.9,0.7c2,0.5,4,0.9,6,1.4
	c8.3,2.1,14.9,5,20.5,11.7c1,1.2,1,1.2,2,2.3c1.9,2.4,3.8,4.8,5.6,7.2c3.6,4.7,7.4,8.7,13.3,10.2c6.8,0,12.4-2.1,18.5-4.9
	c4.3-1.9,7.8-2.6,12.5-2.1c2.3,1.1,2.3,1.1,4.4,2.6c0.8,0.5,1.5,1.1,2.3,1.6c1.2,0.9,1.2,0.9,2.3,1.7c1.6,1.1,3.2,2.2,4.8,3.3
	c0.7,0.5,1.4,1,2.1,1.5c5.8,3.5,11.1,4.3,17.6,2.7c8.3-2.8,12.7-8.4,17.6-15.4c1.9-6,0.4-11.2-2-16.8c-5.3-12.4-6.1-27.9-1.1-40.6
	c3.8-7.7,9.9-12.6,17.8-15.7c3.9-1.3,7.8-2.2,11.8-3.1c1-0.2,2-0.4,3-0.6c2-0.4,4-0.8,6-1.2c6.7-1.3,6.7-1.3,11.6-5.9
	c1.2-2.4,1.2-4.1,1.3-6.8c0-1.3,0-1.3,0.1-2.6c-0.4-3.4-1.1-4.9-3.3-7.6c-3.1-2.2-6.3-4-9.6-5.9c-9-5.1-17-10.7-24.6-17.8
	c-2.7-2.4-5.3-4.8-8.1-7.1c-2.7-2.3-5.2-4.7-7.7-7.3c-2.4,1.9-2.4,1.9-2.1,5.4c0.7,3.6,0.7,3.6,2.8,4.9c2.1,1,4.2,1.9,6.3,2.8
	c2.7,1.4,4.5,2.4,6.4,4.8c1.2,4.3,0,7.5-2.1,11.3c-1.6,2.7-1.6,2.7-0.8,5c1.5,2.1,1.5,2.1,4.1,3.7c2.4,2.2,2.4,2.2,3.3,5.8
	c0.1,3.4,0.1,3.4-0.9,5.4c-1,0.3-2,0.7-3,1c0.2-1.1,0.3-2.1,0.5-3.2c-0.2-1.3-0.3-2.5-0.5-3.8c-1.8-1.4-1.8-1.4-3.9-2.5
	c-3.9-2.1-3.9-2.1-5.3-5.8c0.3-4.1,1.3-6.4,3.4-9.8c1-1.9,1-1.9,0.6-4c-0.8-2.2-0.8-2.2-3.8-3.9c-1.3,0-2.6,0-4,0
	c-0.1,0.9-0.1,0.9-0.3,1.8c-0.1,0.8-0.3,1.6-0.5,2.4c-0.1,0.8-0.3,1.6-0.4,2.4c-2.4,7.2-8.6,9.9-14.9,13.4c-3.1,2.2-3.9,3.5-4.9,7.1
	c0.6,0.7,1.1,1.4,1.7,2.1c0.7,0.9,1.5,1.8,2.2,2.8c0.7,0.9,1.5,1.8,2.2,2.7c2.8,3.7,3.3,5.7,2.8,10.4c-1.8,3.2-3.8,5.8-6.2,8.5
	c-2.1,2.9-2.5,5-2.8,8.5c-0.7-0.3-1.3-0.7-2-1c0.1-5,0.4-8.7,3.6-12.6c2.1-2.6,2.4-3.2,2.6-6.8c-1.5-4.2-3.6-6.4-6.7-9.7
	c-2.2-2.6-2.7-4.5-2.6-7.9c0.7-3.3,0.7-3.3,2-6c1.7-1,1.7-1,4-2c1.9-0.9,3.7-1.9,5.6-2.8c1-0.5,1.9-1,2.9-1.5c3-2,4.2-3.4,5.6-6.7
	c-0.1-4.8-1.7-7.6-4.6-11.3c-0.7-0.9-1.4-1.9-2.2-2.9c-2.1-2.6-4.3-5.1-6.6-7.6c-5.9-6.6-7.2-11.2-7-20.1c0.3-2.7,0.6-4.4,1.9-6.8
	c3-6.9,0.1-15.1-1.4-22.3c-3.4-15.3-4.3-28.6-0.8-43.9c0.8-3.2,0.8-3.2,0.7-7.1C176,662.6,175.2,663.7,173.2,665.6z M449.8,667.6
	c-0.1,2.2-0.1,4.4-0.1,6.7c0,0.7,0,1.4,0,2.1c0,2.3,0,4.7,0,7c0,1.7,0,3.3,0,5c0,3.5,0,7,0,10.5s0,7,0,10.5c-0.1,18.3,0,36.7,0.9,55
	c0.1,1.7,0.2,3.4,0.2,5c0.1,2.3,0.2,4.6,0.3,6.9c0.1,1.3,0.1,2.6,0.2,4c0.3,3.1,0.3,3.1,1.8,5.1c2.9,1.9,6.4,1.6,9.7,1.7
	c7.7,0.3,7.7,0.3,9.9,1.4c0.3,2.3,0.3,2.3,0,5c-2.9,3.6-5.9,5-10.1,6.6c-4.3,1.6-4.3,1.6-7.9,4.4c-1.9,9.9-1.2,20.7-1.2,30.7
	c0,2.9,0,5.8-0.1,8.7c0,1.9,0,3.7,0,5.6c0,0.9,0,1.7,0,2.6c0,2.7,0,2.7,0.4,6.3c3.4,2.3,4.2,2.2,8.2,1.8c1-0.1,2.1-0.2,3.1-0.3
	c1.1-0.1,2.2-0.2,3.3-0.3c7.8-0.7,15.5-1.3,23.3-1.4c2,0,2,0,4,0c3.1,0.3,3.1,0.3,6.1,2.3c0,2.8,0,2.8-1,6c-5.8,3.4-11.5,5.2-18,6.8
	c-0.9,0.2-1.7,0.4-2.6,0.7c-2.1,0.5-4.2,1.1-6.4,1.6c1,1.1,2,2.3,2.9,3.4c0.5,0.6,1.1,1.3,1.7,1.9c0.8,0.9,1.6,1.8,2.4,2.6
	c0.4,4,0.6,6.2-1.8,9.5c-0.7,0.8-1.4,1.6-2.2,2.5c-0.4,1.1-0.8,2.2-1.3,3.4c-2,5.2-6.9,9.2-11.8,11.6c-1.5,0.2-3.1,0.4-4.6,0.6
	c-0.8,0.1-1.6,0.2-2.5,0.3c-0.6,0.1-1.3,0.1-1.9,0.2c-0.6,39.7,1.1,79.4,3.4,119c0.1,1.1,0.1,2.2,0.2,3.3c0.7,11,1.3,22,2,33
	c0.3,5.2,0.7,10.4,1,15.6c0.1,1,0.1,2,0.2,3c1,17.1,1.6,34.1,1.9,51.2c0,0.9,0,1.7,0,2.6c0,1.6,0,3.2,0.1,4.8
	c-0.3,3.5-0.3,3.5,1.2,6.4c3,0.1,5.9,0.1,8.9,0.1c0.9,0,1.9,0,2.9,0c3.2,0,6.4,0,9.6,0c1.1,0,2.3,0,3.5,0
	c39.2-0.1,78.3-0.7,117.4-1.7c11.2-0.3,22.4-0.6,33.6-0.8c1.4,0,2.7-0.1,4.1-0.1c53.2-1.3,106.3-1.9,159.5-2.2
	c36.4-0.2,36.4-0.2,72.7-0.6c2.2,0,4.3-0.1,6.5-0.1c2.9,0,5.8-0.1,8.7-0.2c0.9,0,1.7,0,2.6,0c4.5,0.1,4.5,0.1,8-2.4
	c0.3-6.8-1.1-13.9-2-20.6c-1.8-13.1-3-26.3-4-39.5c-0.2-2.3-0.4-4.6-0.5-6.8c-0.4-4.8-0.8-9.6-1.1-14.4c-1-12.6-2-25.2-3-37.8
	c-0.1-1.3-0.2-2.5-0.3-3.8c-1.7-21.8-3.6-43.6-5.7-65.3c-0.1-1.1-0.1-1.1-0.2-2.2c-1.8-18.3-3.6-36.6-5.5-54.9
	c-6.2-60.4-10.4-120.8-11.4-181.5c-0.1-7.5-0.4-15.1-0.6-22.6c0-1-0.1-2.1-0.1-3.1c-0.2-4.8-0.4-9.6-0.8-14.3
	c-0.1-0.9-0.1-1.8-0.2-2.7c-0.3-2.6-0.3-2.6-2.4-5.3c-2-0.5-2-0.5-4.4-0.4c-0.9,0-1.8,0-2.8,0c-1.5,0-1.5,0-3.1,0
	c-1.1,0-2.2,0-3.3,0c-3.6,0-7.3,0-10.9,0c-2.6,0-5.2,0-7.8,0c-5.6,0-11.3,0-16.9,0c-8.2,0-16.5,0-24.7,0c-13.5,0-26.9-0.1-40.4-0.1
	c-29.2,0-58.5-0.1-87.7-0.2c-5.3,0-10.7,0-16,0c-42.3-0.1-84.5-0.4-126.8-1c-17.4-0.3-34.9-0.3-52.3-0.3c-1.3,0-1.3,0-2.5,0
	C456.9,665,456.9,665,449.8,667.6z M348.8,688.6c0.6,3.5,1.2,6.9,1.9,10.4c0.2,1,0.3,2,0.5,3c0.3,1.4,0.3,1.4,0.5,2.9
	c0.2,0.9,0.3,1.7,0.5,2.6c0.5,2.3,0.5,2.3,2.6,4.2c3.5-4.2,3.5-8.2,3.3-13.4c-0.4-3.3-0.9-5.2-3.3-7.6
	C352.8,689.9,350.8,689.2,348.8,688.6z M184.8,708.6c1,4,1,4,1,4L184.8,708.6z M184.9,739c-2.2,5-1.8,9.8,0.1,14.9
	c2.4,3.7,4.1,6.2,8.5,7.4c0.7,0.1,1.5,0.2,2.3,0.3c0.3-6.1,0.4-10.6-3-16c1-0.7,2-1.3,3-2c-0.3-2.5-0.3-2.5-1-5
	C191.4,736.9,188,736.6,184.9,739z M440.8,794.5c-6.2,8-10,17.3-13.9,26.6c-0.5,1.3-1.1,2.5-1.6,3.8c-2.2,5.1-4.4,10.3-6.5,15.4
	c-4.3,10.2-9.5,19.7-15,29.2c-5.1-0.4-7.7-3.1-11.1-6.5c-1.2-1.1-2.3-2.2-3.5-3.3c-0.6-0.5-1.1-1.1-1.7-1.7
	c-3.1-2.9-6.5-5.5-9.8-8.2c-2.7-2.2-5.3-4.5-8-6.8c-17.6-15.5-17.6-15.5-39.9-19.6c-1.6,4.8-0.3,7.3,1.9,11.7
	c6.1,11.8,14.9,19.8,26.3,26.3c9.1,5.4,12.3,12.1,14.9,21.9c0.7,3.2,0.7,3.2,2.9,5.1c5.4-0.3,10.1-1.5,15.3-3.3c1-0.3,1-0.3,2-0.7
	c1.4-0.5,2.8-1,4.2-1.4c2.1-0.7,4.2-1.4,6.3-2.1c18.6-5.7,18.6-5.7,31.5-19c3.1-8.1,5.4-16.2,7.5-24.6c1.3-5.1,2.9-9.5,5.4-14.1
	c1.1-2.3,1.2-4.2,1.1-6.7c-0.1-1.3-0.2-2.6-0.3-4c-3,0.7-5.9,1.3-9,2c1.6-3,3.1-5.1,5.6-7.4c2.9-3.1,3.4-5.6,4.4-9.6
	c1.1-0.2,2.1-0.4,3.2-0.6c1.4-0.3,2.8-0.5,4.2-0.8c0.7-0.1,1.4-0.2,2.1-0.4c1.9-0.3,3.7-0.8,5.5-1.3c0.7-1,1.3-2,2-3
	C453.1,790,453.1,790,440.8,794.5z M264.8,804.6c-2.2,3.3-2.2,4.5-2.4,8.3c-0.4,5-0.9,8-4.6,11.7c-2.8,1.4-5.7,2.6-8.6,3.6
	c-2.6,1.1-2.6,1.1-3.2,3.7c-0.2,3.4,0.5,4.4,2.5,7.1c0.6,0.8,1.2,1.6,1.8,2.4s1.3,1.7,2,2.5c0.9,1.2,0.9,1.2,1.9,2.5
	c8.1,11.9,8.1,11.9,20.4,17.8c4.2,0.4,8.4,0.6,12.7,0.7c0.8,0,1.6,0,2.4,0c2.5,0,5,0.1,7.5,0.1c0.9,0,1.7,0,2.6,0
	c20.5,0.1,20.5,0.1,39.1-7.4c-1.3-3.5-2.8-6.3-5.1-9.3c-3.8-5.2-6.8-10.7-9.7-16.3c-2-3.8-2-3.8-5.1-6.8c-2.5-0.7-4.9-1.1-7.5-1.5
	c-7.6-1.4-7.6-1.4-10.6-5.1c-1.2-3.1-2.3-6.2-3.2-9.4c-0.5-2.5-0.5-2.5-1.8-3.6c-4.4-0.4-8.8-0.5-13.2-0.7c-2.2-0.1-4.4-0.2-6.6-0.3
	c-1.4-0.1-2.8-0.1-4.2-0.2c-1.9-0.1-1.9-0.1-3.9-0.2C266.8,804.4,265.8,804.5,264.8,804.6z M445.8,844.6c-0.7,2.1-1.3,4.1-2,6.2
	c-0.4,1.1-0.7,2.3-1.1,3.5c-0.8,3-1.1,5.3-0.9,8.3c1.7-0.3,3.3-0.7,5-1c1-3.1,1.2-5.3,1.2-8.5c0-1.4,0-1.4,0-2.9
	C448,847.4,448,847.4,445.8,844.6z M333.3,865.5c-0.8,0.2-1.6,0.3-2.5,0.5c-3.5,0.8-6.8,1.5-10.2,2.7c-4.5,1.1-8.5,1.2-13.2,1.1
	c-1.3,0-1.3,0-2.6,0c-2.8,0-5.5,0-8.3-0.1c-2.8,0-5.6-0.1-8.4-0.1c-1.7,0-3.5,0-5.2-0.1c-4.2-0.2-4.2-0.2-8.1,1.1
	c4,14.3,22.4,24.1,34,32c0.8,0.6,1.7,1.2,2.5,1.8c2.8,1.8,5.1,3.3,8.5,3.1c7.6-1.7,15.1-3.9,22.6-6.2c2.2-0.7,4.5-1.4,6.7-2
	c1.4-0.4,2.9-0.9,4.3-1.3c0.7-0.2,1.3-0.4,2-0.6c3.8-1.2,7.1-2.5,10.3-4.8c2-3.9,1.3-8.7,1-13c-2.3-6.5-6.2-11.4-12.4-14.4
	C347.5,862.1,340.4,863.9,333.3,865.5z"/>
<path d="M621.8,790.6c2.9,2.1,2.9,2.1,5,5c0.6,0.7,1.2,1.4,1.8,2.1c5.8,7,6,13.1,5.2,21.9c0.6,0.1,1.3,0.3,1.9,0.4
	c2.1,0.6,2.1,0.6,3.3,2.3c1,3,1.1,5.1,0.8,8.3c-1.6,2.8-3.1,5.2-5.5,7.3c-2,2.2-2.6,4.3-3.5,7.1c-1,2.9-1.7,5.2-3.6,7.7
	c-1.7,1.9-1.7,1.9-1.6,5.2c1.6,4.5,3.2,5.8,7.2,8.2c4.3,2,8.8,3.3,13.4,4.5c3.2,0.9,5.4,1.8,7.9,4c2.2,3.8,3.2,7.5,4.1,11.8
	c0.3,1.4,0.3,1.4,0.6,2.8c4.4,20.1,7.2,40.2,9.2,60.7c0.1,1.3,0.1,1.3,0.3,2.6c0.2,2.5,0.5,5,0.7,7.5c0.1,1.1,0.1,1.1,0.2,2.2
	c0.4,4.8,0.7,9.5,0.5,14.2c-0.7,0.7-1.3,1.3-2,2c0.1,2.5,0.3,4.8,0.6,7.3c0.5,4.6,0.8,6.9-1.3,11c-2,2.4-3.8,4.3-6.3,6.2
	c-1,0.8-1,0.8-2,1.6c-0.6,0.3-1.3,0.7-1.9,1c-1-0.3-2-0.7-3-1c-0.3-0.7-0.7-1.3-1-2c0.9,14,1.8,28,2.8,41.9c0.1,2,0.3,4,0.4,6
	c1.5,24.8,1.5,24.8,4.3,49.4c0.2,1.2,0.2,1.2,0.3,2.4c0.4,2.7,0.9,4.9,2.4,7.2c2.4,1.6,4.9,2.2,7.6,3c5,1.6,8.2,2.7,11.1,7.1
	c0.6,3.1,0.6,3.1,0,6c-4.3,3.6-8.9,3.6-14.3,3.9c-0.8,0.1-1.6,0.1-2.4,0.2c-6.7,0.3-12.3-1.1-18.3-4.1c-1.6,0-3.2,0-4.8,0.1
	c-3.8,0-6.8,0-10.2-2.1c-2.6-3.4-2-6.9-2-11c-0.3-0.6-0.6-1.3-1-1.9c-1.2-2.3-1.3-3.9-1.3-6.5c0-0.9,0-1.8-0.1-2.7c0-1,0-2,0-3
	c-0.5-15.7-2.4-31.2-4.3-46.8c-0.4-3.1-0.7-6.2-1.1-9.3c-0.4-3.8-0.9-7.5-1.3-11.3c-0.1-1-0.1-1-0.2-2.1c-1-8.8-2.2-17.6-3.7-26.4
	c-0.4,9.7-0.8,19.4-1.2,29.1c-0.2,4.5-0.4,9-0.5,13.5c-0.2,4.4-0.4,8.7-0.5,13.1c-0.1,1.6-0.1,3.3-0.2,4.9
	c-0.6,13.4-0.8,26.7,0.2,40.1c0.3,4.6,0.1,8.8-0.7,13.4c-0.1,1.1-0.2,2.1-0.3,3.3c-0.7,2.8-0.7,2.8-2.4,4.4
	c-2.7,1.6-4.4,1.7-7.5,1.8c-4.7,0.3-7.9,1.2-11.9,3.6c-6.5,3.3-16.4,3.1-23.3,1.3c-2.1-0.9-4-1.8-5.6-3.4c-0.4-3.3-0.4-3.3,0-7
	c4.2-4,9.2-6.1,14.5-8.4c2.6-1.3,2.6-1.3,3.2-3.3c1.8-11.2,0-23.6-0.4-34.9c-1.2-28.8-1.8-57.6-2.2-86.4c-1-0.3-1.9-0.6-2.9-0.9
	c-3.1-1.1-3.1-1.1-4.5-2.8c-0.8-3.4,0-6.4,0.7-9.8c4.9-23.8,4.9-23.8,2.8-47.6c-0.5,0.4-1.1,0.8-1.6,1.2c-0.7,0.5-1.4,1.1-2.1,1.6
	c-0.7,0.5-1.4,1.1-2.1,1.6c-4,2.8-7.1,4.1-12.1,3.9c-4.2-0.8-6.6-3-9.1-6.4c-2.1-4.5-3.6-9.2-5-14c-0.2-0.8-0.4-1.5-0.7-2.3
	c-6.1-20.7-6.1-20.7-4.4-25.1c0.4-0.5,0.7-1,1.1-1.6c-1.3-0.7-1.3-0.7-2.6-1.4c-1.1-0.6-2.2-1.2-3.3-1.9c-1.1-0.6-2.2-1.2-3.3-1.9
	c-3-1.6-3-1.6-5-4.6c0.1-2,0.1-2,1-4c2.6-1.8,2.6-1.8,5-3c-0.5-0.7-1-1.4-1.6-2.2c-1.7-3.2-1.5-4.4-0.4-7.8c3.5-0.5,3.5-0.5,7-1
	c0.3-1.6,0.7-3.3,1-5c1.5-0.5,1.5-0.5,3-1c3.9,2.2,7,4.7,10,8c1.1-1.3,1.1-1.3,2.2-2.6c0.9-0.8,1.9-1.6,2.8-2.4c2.7,0.3,2.7,0.3,5,1
	c0,0.7,0,1.4-0.1,2.1c-0.1,3.2-0.1,6.5-0.2,9.7c0,1.1-0.1,2.2-0.1,3.3c-0.1,7.7,1.2,13.8,4.4,20.9c0.2-0.8,0.5-1.6,0.7-2.4
	c0.3-1.1,0.7-2.1,1-3.2c0.3-1,0.6-2.1,0.9-3.2c2.7-6.4,6-9.5,12.2-12c0.7-0.3,1.4-0.5,2.1-0.8c4.9-1.9,9.1-3.7,13-7.4
	c0.9-2.6,0.9-2.6,1-5c-0.6-0.2-1.1-0.5-1.7-0.7c-4.7-2.7-7.9-6.6-10.3-11.3c0-0.7,0-1.3,0-2c-0.7-0.2-1.5-0.5-2.3-0.7
	c-3.4-1.6-4.8-3.1-6.8-6.3c-0.4-3.6-0.4-3.6,0-7c0.5-0.7,1-1.3,1.6-2c1.8-2.1,1.8-2.1,1.3-5.5c-0.7-2.9-1.2-5-2.8-7.5
	c-0.7-0.3-1.3-0.7-2-1c0.9-7.9,7.9-15.4,13.6-20.6C595.2,784.7,609.4,786.2,621.8,790.6z M595.8,797.6c-0.3,0.7-0.7,1.3-1,2
	c1.3-0.7,2.6-1.3,4-2C597.8,797.6,596.8,797.6,595.8,797.6z M598.8,798.6c-0.3,1.3-0.7,2.6-1,4c1.3-1.3,2.6-2.6,4-4
	C600.8,798.6,599.8,798.6,598.8,798.6z M618.8,798.6c1,2,1,2,1,2L618.8,798.6z M608.6,808.5c-8.3,3.8-8.3,3.8-13.1,2.4
	c-4.1-0.5-7.2,1.6-10.6,3.7c-2.4,2.4-1.3,9.1-1.3,12.5c0.1,9.2,2.3,17.3,8.3,24.5c5.5,4.3,10.9,6.5,17.9,6.3c5.3-0.8,9.1-3.4,12.9-7
	c5.4-8.2,6.3-16.6,5.2-26.3c-1.3-5.5-3.1-10.7-5-16c-2.3,0-4.6,0-7,0c-0.3-0.7-0.7-1.3-1-2C612.3,806.6,610.8,807.4,608.6,808.5z
	 M632.8,825.6c-0.3,2.3-0.7,4.6-1,7c1.6-1.2,1.6-1.2,3-3c0-1.3,0-2.6,0-4C634.1,825.6,633.5,825.6,632.8,825.6z M577.8,831.6
	c0.3,2.5,0.3,2.5,1,5c0.7,0.3,1.3,0.7,2,1c-0.3-2-0.7-4-1-6C579.1,831.6,578.5,831.6,577.8,831.6z M541.8,860.6c0.5,1,0.9,2,1.4,3
	c0.8,2.6,0.8,3.7-0.4,6.2c-1.5,2.2-3,4-5,5.8c-3.4,0.5-3.4,0.5-6,0c1.3,1,2.7,2,4,3c0.6,0.4,1.2,0.9,1.8,1.3
	c3.3,2.3,5.4,3.6,9.4,3.8c3.8-1.6,4.9-3.6,6.8-7.2c1.6-4.8,1.1-10,1-15c-0.3,0.6-0.6,1.2-0.9,1.9c-1.1,2.2-2.2,3.5-4.1,5.1
	c-0.7,0-1.3,0-2,0c-0.2-0.8-0.5-1.5-0.8-2.3C545.7,863.4,544.5,862.3,541.8,860.6z M613.8,860.6c-2.4,0.2-4.8,0.4-7.2,0.6
	c-1.9,0.1-1.9,0.1-3.9,0.3c-1,0.1-2,0.1-3,0.2c1.3,3,1.9,3.9,4.8,5.8c3.8,1.4,5.5,1.5,9.3,0.2c2.9-2.3,2.9-2.3,5-5c0-1,0-2,0-3
	C616.6,859.5,616.6,859.5,613.8,860.6z M535.8,864.6c1,1.5,1,1.5,2,3c0.7-0.3,1.3-0.7,2-1C538.5,865.9,537.2,865.3,535.8,864.6z
	 M620.8,866.6c-1.4,1.6-2.7,3.3-4,5c2.7,2.3,2.7,2.3,6,3c-0.3-2.6-0.7-5.3-1-8C621.5,866.6,621.1,866.6,620.8,866.6z M597.8,868.6
	c0.3,2.3,0.7,4.6,1,7c1.7-0.7,3.3-1.3,5-2c0-1,0-2,0-3C601,868.3,601,868.3,597.8,868.6z M591.8,872.6c-0.5,1.3-1,2.5-1.5,3.8
	c-0.3,0.7-0.6,1.4-0.8,2.1c-0.8,2.2-0.8,2.2-0.7,5c1.3,0.3,2.6,0.7,4,1c0-4,0-7.9,0-12C592.5,872.6,592.1,872.6,591.8,872.6z
	 M602.2,879.1c-0.6,0.5-1.3,0.9-1.9,1.4c-0.5,0.4-1,0.7-1.5,1.1c0.8,9.2,2.6,17.9,5,26.8c0.3,1,0.5,1.9,0.8,2.9
	c1.2,5.1,1.2,5.1,4.2,9.2c-0.3-14.5-0.7-29-1-44C605.2,876.6,604.3,877.6,602.2,879.1z M614.8,877.6c0.7,13.2,1.3,26.4,2,40
	c3-3.9,3-3.9,4.2-8.3c0.2-0.8,0.3-1.6,0.5-2.5c0.2-0.9,0.3-1.7,0.5-2.6c0.2-0.9,0.3-1.8,0.5-2.7c1.4-7.4,1.7-14.4,1.3-21.9
	C620.4,878.1,618.6,877.6,614.8,877.6z M611.8,879.6c-0.1,9,0.1,18,0.4,27.1c0,1,0.1,2,0.1,3c0.2,4.7,0.5,9.3,1.4,13.9
	c0.3,0,0.7,0,1,0c-0.1-4.5-0.2-9-0.4-13.5c0-1.5-0.1-3.1-0.1-4.6c-0.2-8.7-0.5-17.3-1.5-25.9C612.5,879.6,612.1,879.6,611.8,879.6z
	 M551.8,885.6c-2.4,0.9-4.7,1.9-7,3c0.3,0.7,0.7,1.3,1,2c2.6-1.3,5.3-2.6,8-4C553.1,886.3,552.5,885.9,551.8,885.6z M592.8,889.6
	c1,2,1,2,1,2L592.8,889.6z M553.8,892.6c-0.3,0.7-0.7,1.3-1,2c0.7,0,1.3,0,2,0C554.5,893.9,554.1,893.3,553.8,892.6z M548.8,900.6
	c0,0.7,0,1.3,0,2c3.5-0.5,3.5-0.5,7-1c0-1.3,0-2.6,0-4C552.3,897.6,551.4,898.3,548.8,900.6z M576.8,902.1c-0.3,0.5-0.7,1-1,1.5
	c0.3,0.7,0.7,1.3,1,2c3,0,5.9,0,9,0c0.3-1.6,0.7-3.3,1-5C581.4,900.1,581.4,900.1,576.8,902.1z M556.8,904.6c0,2.3,0,4.6,0,7
	c1,0,2,0,3,0c-0.3-3-0.3-3-1-6C558.1,905.3,557.5,904.9,556.8,904.6z M614.8,940.6c0.3,0.7,0.7,1.3,1,2c0.7,0,1.3,0,2,0
	c0-0.7,0-1.3,0-2C616.8,940.6,615.8,940.6,614.8,940.6z M652.8,978.6c-1.4,1.1-1.4,1.1-1.1,4.2c0,1.3,0,2.6,0,3.9s0,2.6,0,3.9
	c0,1,0,2,0,3c2.3-1.9,2.3-1.9,2.1-5.1c-0.1-1.4-0.1-1.4-0.1-2.9c1.3,0,2.6,0,4,0c0.7,3.3,1.3,6.6,2,10c2.3-1.3,2.3-1.3,4-4
	c-0.2-4.2-1.1-8.3-3-12c-1.9-0.5-1.9-0.5-4-0.7c-1.1-0.1-1.1-0.1-2.2-0.3C653.7,978.6,653.7,978.6,652.8,978.6z M658.8,995.6
	c1,2,1,2,1,2L658.8,995.6z M652.8,1111.6c-2.2,1.4-2.2,1.4-4,3c1,0.3,2,0.7,3,1c2.2-1.4,2.2-1.4,4-3
	C654.8,1112.3,653.8,1111.9,652.8,1111.6z M588.8,1113.6c-0.3,0.7-0.7,1.3-1,2c1.3,0.3,2.6,0.7,4,1c0.3-0.7,0.7-1.3,1-2
	C591.5,1114.3,590.2,1113.9,588.8,1113.6z M637.8,1114.6c0,1,0,2,0,3c1,0.3,2,0.7,3,1c-0.7-1.3-1.3-2.6-2-4
	C638.5,1114.6,638.1,1114.6,637.8,1114.6z M603.8,1116.6c-0.3,0.7-0.7,1.3-1,2c1,0,2,0,3,0c0-0.7,0-1.3,0-2
	C605.1,1116.6,604.5,1116.6,603.8,1116.6z M661.8,1121.6c3.6,0,7.3,0,11,0c-1.9-2.4-1.9-2.4-5.5-2.3
	C663.7,1119.2,663.7,1119.2,661.8,1121.6z M571.8,1121.6c0,0.3,0,0.7,0,1c3.3,0,6.6,0,10,0C577.9,1120,576.3,1120.7,571.8,1121.6z"
	/>
<path d="M833.9,799.7c4.1,3.4,5.9,7.7,6.9,12.9c0.1,3.9,0,7.7-0.3,11.6c0.3,4.1,1.6,5.4,4.3,8.4c0.1,4.8-0.4,7.7-3.4,11.5
	c-2.6,2.5-2.6,2.5-4.6,2.5c-1,5-1,5-2,10c0.7,0.4,1.3,0.7,2,1.1c6.8,3.9,11.5,6.9,14.3,14.5c2,4,3.6,4.7,7.7,6.3
	c3.6,2,5.5,4.9,7.1,8.6c0.3,0.9,0.5,1.9,0.8,2.8c0.3,1.1,0.7,2.3,1,3.5c0.2,0.7,0.4,1.3,0.6,2c0.7,2.6,1.5,5.1,2.3,7.7
	c3,9.9,5.8,19.7,7.8,29.9c0.2,0.8,0.3,1.6,0.5,2.5c1.9,10.2-0.1,20-2.5,29.9c-0.3,1-0.5,2.1-0.8,3.2c-1.5,5.6-3.1,10.5-6.3,15.4
	c-0.7,1.1-0.7,1.1-1.3,2.1c-0.4,0.5-0.7,1.1-1.1,1.6c-3,4.9-3.6,8.7-3.4,14.3c0,0.8,0,1.6,0,2.4c0.2,8.4,0.9,16.8,1.6,25.2
	c0.1,1.6,0.3,3.2,0.4,4.8c0.4,4.8,0.8,9.5,1.3,14.3c0.1,1.1,0.1,1.1,0.2,2.2c0.4,4.5,0.8,9.1,1.3,13.6c0.2,1.7,0.2,1.7,0.3,3.4
	c0.6,6.1,1.9,11.1,4.2,16.8c0.6,4.5,0.2,8-1.6,12.2c-1,2.4-1.4,4-1.6,6.6c1.6,3,3.8,3.4,7,4.4c4.1,1.4,8,3.2,10.7,6.6
	c0.7,3,0.3,5.2-0.5,8.1c-2,2.8-3.7,3.3-7,4c-3.7,0.3-7.4,0.3-11.1,0.3c-1,0-2,0.1-3,0.1c-6.3,0.1-10.9-0.9-16.7-3.5
	c-2.7-1.1-5.1-1.4-8-1.5c-7.2-0.5-7.2-0.5-10.2-3.4c-0.4-2.3-0.7-4.7-1-7c-1.3-1.7-2.6-3.3-4-5c-0.8-3.1-1.2-5.2-0.5-8.4
	c1.6-8.2,0.3-16.1-1.7-24.1c-2.4-10.1-4-20.1-5.4-30.4c-0.8-5.8-1.8-11.5-3.3-17.1c-4,4-2.3,17.9-2.3,23.5
	c0.1,6.1,1.2,10.9,3.5,16.5c1.1,3.6,1,6.7,0.9,10.5c-0.2,7.8,1.5,13.7,5.1,20.5c2.7,5.8,0.4,12.6-1.1,18.5c-1.3,2.9-2.2,3.9-5,5.4
	c-3,0.6-3,0.6-6.3,1c-3.9,0.5-7.5,1.1-11.1,2.6c-6.8,2.7-13.9,2.6-21.1,2.7c-1.4,0-1.4,0-2.8,0.1c-5.7,0-9.7-0.7-14.7-3.3
	c-0.4-4.8-0.5-7.1,1.9-11.3c3.5-3.7,8.3-5.3,13.1-6.8c0.7,0,1.3,0,2,0c-0.5-0.7-0.9-1.4-1.4-2.1c-2.5-4.5-3.7-8.1-3.5-13.3
	c0.2-8.1-2.4-16.1-4.8-23.7c-0.5-2.8-0.4-5.5-0.3-8.3c0.1-5-0.3-9.6-1.1-14.6c-2-13.2,0.5-26.2,2.7-39.3c2.2-13.8,2.2-13.8-1.6-26.8
	c-1-7.7,0.7-15.5,2-23c-1.2,0-2.4,0.1-3.6,0.1c-8.2,0.3-13.8-3.3-20.2-8c-0.8-0.5-1.5-1.1-2.3-1.6c-8.5-6.1-8.5-6.1-9.7-11.8
	c-2-5.7-6.4-8.5-11.1-12c-3.8-2.9-5-5.1-6.2-9.7c-0.6-1-0.6-1-1.1-1.9c-1.3-3-1-5.8-0.9-9.1c-0.8-0.3-1.5-0.5-2.3-0.8
	c-4.2-1.8-4.2-1.8-5.7-4.2c0.2-4.3,1-6.1,4-9c0.2-0.8,0.3-1.7,0.5-2.6c0.5-2.4,0.5-2.4,3.5-4.4c1,0,2,0,3,0c0.7-1.6,1.3-3.3,2-5
	c4.7-0.8,8.4-1,13,0c0.9,0.1,1.7,0.2,2.6,0.3c3.1,0.9,4.4,2.3,6.4,4.7c0.3,1,0.7,2,1,3c0.8,0.3,1.7,0.7,2.5,1s1.7,0.7,2.5,1
	c0.3,1,0.7,2,1,3c-0.3,0.7-0.7,1.3-1,2c-0.3,2.8-0.6,5.6-0.8,8.4c-0.1,1.2-0.1,1.2-0.2,2.3c-0.4,4.7-0.4,4.7,1.9,8.8
	c2.3,1.6,4.5,2.6,7.2,3.5c3.4-6.5,4.8-12.6,5.8-19.9c0.7-4.9,1.9-8.2,5.2-12.1c2.7-1.7,2.7-1.7,5.6-2.9c1-0.4,1.9-0.8,2.9-1.2
	c2.5-0.9,2.5-0.9,4.5-0.9c0.2-1,0.3-2,0.5-3.1c1.2-4.4,4.1-6.5,7.6-9.3c2.1-1.9,3.1-3,3.9-5.7c-0.9-2.8-0.9-2.8-2.4-5.6
	c-2.6-5.2-2.6-5.2-2.6-7.4c-0.6-0.2-1.2-0.5-1.8-0.8c-2.6-1.5-3.7-2.6-5.2-5.3c-0.4-3.5-0.4-3.5,0-7c0.5-0.6,1-1.2,1.5-1.8
	c2.1-3.1,1.9-5.7,2-9.4c0.4-8.8,1.1-14.9,7.6-21.2C802.5,790.1,820.3,791.6,833.9,799.7z M814.8,801.6c-1.3,1.6-2.6,3.3-4,5
	c1,0,2,0,3,0c0.7-0.7,1.3-1.3,2-2C815.5,803.6,815.1,802.6,814.8,801.6z M794.2,805.1c-0.5,0.5-0.9,1-1.4,1.5c0.3,0.7,0.7,1.3,1,2
	c1.3-1.6,2.6-3.3,4-5C795.7,803.4,795.7,803.4,794.2,805.1z M800.8,803.6c0,3,0,3,0,3V803.6z M819.8,803.6c-0.7,1.6-1.3,3.3-2,5
	c2-1.4,2-1.4,4-3c0-0.7,0-1.3,0-2C821.1,803.6,820.5,803.6,819.8,803.6z M826.8,804.6c-0.7,1.3-1.3,2.6-2,4c1.3-1.3,2.6-2.6,4-4
	C828.1,804.6,827.5,804.6,826.8,804.6z M830.8,807.6c-0.3,1-0.7,2-1,3c1-0.3,2-0.7,3-1C832.1,808.9,831.5,808.3,830.8,807.6z
	 M790.8,819.6c-3.1,9.4-2.2,23,1.8,31.9c1.7,3,3.5,4.9,6.2,7.1c0.6,0.5,1.2,0.9,1.7,1.4c4.4,3.2,8.2,4.4,13.7,4.1
	c6-1.3,10.7-5.1,14.4-9.9c6-9.5,6.7-20.5,4.3-31.4c-1.3-3.8-1.3-3.8-4.2-6.3c-5.6-1.7-11.3-1.2-16.9-0.4c-3.1,0.4-3.1,0.4-5.1-0.6
	c-2-0.2-3.9-0.3-5.9-0.3c-1,0-2.1-0.1-3.2-0.1C794.1,815.7,793,816.7,790.8,819.6z M838.8,833.6c-2.3,2.7-2.3,2.7-1.6,5.2
	c0.2,0.6,0.4,1.2,0.6,1.8c2.3-2.7,2.3-2.7,1.6-5.2C839.2,834.8,839,834.2,838.8,833.6z M783.8,834.6c1,4,1,4,1,4L783.8,834.6z
	 M819.8,876.5c-1,1.3-2,2.7-3,4.1c0.7,0.3,1.3,0.7,2,1c2-0.7,3.9-1.4,5.8-2.3c6.6-2.7,13.2-4.3,20.2-5.8c-0.7-1.6-1.3-3.3-2-5
	c-0.6,0.2-1.2,0.4-1.8,0.6c-0.8,0.3-1.6,0.5-2.4,0.8s-1.6,0.5-2.4,0.8c-2.1,0.7-4.2,1.2-6.4,1.8c2.5-2.7,4.6-4.6,8-6
	c0-0.7,0-1.3,0-2C829.4,863.1,824.5,870.6,819.8,876.5z M801.8,866.6c0.7,4.8,1.4,7.5,5,11c2.4,1.2,2.4,1.2,5,1
	c4.5-2.7,7.1-6.7,10-11c-2.7-0.9-4.2-1.1-7-1.1c-0.8,0-1.5,0-2.3,0s-1.6,0-2.4,0s-1.6,0-2.4,0C805.7,866.6,803.8,866.6,801.8,866.6z
	 M793.8,864.6c-0.8,1.7-0.8,1.7-1,4c1.4,3.2,1.4,3.2,3,6c-0.9-0.5-1.8-1-2.8-1.6c-3-1.7-3-1.7-5.6-1.1c-0.5,0.2-1.1,0.5-1.6,0.7
	c0,1,0,2,0,3c5.9,2.3,11.9,4.6,18,7c-0.7-1.3-1.3-2.6-2-4c-2.3-4.7-4.7-9.3-7-14C794.5,864.6,794.1,864.6,793.8,864.6z M722.8,880.6
	c-1.2,1.2-1.2,1.2-2.4,2.4c-2.6,2.6-2.6,2.6-4.6,3.6c1.1,2.9,1.8,4.8,4,7c1.7-0.3,3.3-0.6,5-1c2.3,0,4.7,0,7,0c0.7,1.3,1.3,2.6,2,4
	c-1.8,0.1-1.8,0.1-3.7,0.2c-4.5,0.5-6.4,2.3-9.3,5.8c2.6,0.3,5.3,0.7,8,1c0.3,2.8,0.3,2.8,0,6c-2,1.9-2,1.9-4,3c2,0.3,4,0.7,6,1
	c-2,3-2,3-5,5c4,1.1,6.5,1.7,10.4,0c2.6-1.8,4.1-3.2,5.6-6c0.4-6-0.9-11.7-4.1-16.8c-2.2-3.8-2.1-6-1.7-10.3
	c-0.1-0.9-0.1-0.9-0.2-1.9c-1-0.7-2-1.3-3-2c-0.8,0.2-1.6,0.3-2.4,0.5C727.2,882.7,725.7,882,722.8,880.6z M830.8,881.6
	c-1.7,5.4-2.3,10.3-2.2,16c0,1.1,0,1.1,0,2.2c0,2.3,0,4.5,0.1,6.8c0,1.6,0,3.1,0,4.7c0,3.8,0.1,7.6,0.1,11.3c-2,1-2,1-4,2
	c0-13.5,0-27.1,0-41c-1.7,0.3-3.3,0.7-5,1c-7.6,1.1-15.5,2-23,0c0,4.5,0,9-0.1,13.4c0,1.9,0,1.9,0,3.8c0,5.4,0,10.7,0.7,16
	c0.4,3.7,0.4,3.7-0.6,5.7c-1,0-2,0-3,0c-1-4.2-1.1-8.1-1.1-12.3c0-0.7,0-1.4,0-2.1c0-2.2,0-4.4,0.1-6.6c0-2.9,0-5.8,0.1-8.7
	c0-1.3,0-2.6,0-3.9c-0.1-2.7-0.3-4.8-1.1-7.3c-5.9-2.1-9.5-2-15.5-0.2c-3.4,1.7-5.8,3.5-8.5,6.2c-0.8,2.7-1.3,4.8-1.6,7.5
	c-0.2,1.4-0.4,2.8-0.7,4.3c-0.1,0.7-0.2,1.4-0.3,2.1c-1,5.2-2.7,10.1-4.4,15.1c2.1,2.2,3,3,6,4c0.3,1,0.7,2,1,3c-1,0.5-1,0.5-2,1
	c0.7,2.3,1.3,4.6,2,7c-3.3-3.3-6.7-6.7-10-10c-0.6,1.1-1.1,2.2-1.7,3.4c-2.8,5.5-5.5,11.1-8.3,16.6c7,5.2,12.1,8.2,21,7
	c3.1-5.1,3.5-9.2,3.6-14.9c0-1.3,0-1.3,0.1-2.6c0-1.8,0.1-3.6,0.1-5.3c0-2.7,0.1-5.4,0.2-8.1c0-1.7,0.1-3.5,0.1-5.2
	c0-0.8,0-1.6,0.1-2.4c0.1-4.3-0.3-7.4-2.2-11.4c-0.4-2.3-0.7-4.7-1-7c3,2,3,2,3.7,4c1.2,6.4,1.7,12.7,1.9,19.3c0,1,0.1,2,0.1,3.1
	c0.1,2.9,0.2,5.8,0.3,8.7c0,1.3,0.1,2.5,0.1,3.8c0.1,7.1-0.4,14.1-1.1,21.2c-2.4,14.2-2.4,14.2,0.5,27.2c8.7,6.2,23.7,5.5,33.9,4
	c6.5-1.1,12.9-2.8,19.2-4.7c0.6-0.2,1.3-0.4,2-0.6c4.3-1.4,7.8-3.2,11.4-6c1.5-3.4,1.5-3.4,1-7c-2.8-2.8-2.8-2.8-6-5
	c-0.3-1-0.7-2-1-3c0.9,0.5,1.9,1,2.9,1.5c2.8,1.6,2.8,1.6,5.1,1.5c2.2-5.4,2.3-10.2,2.3-15.9c0-0.9,0-1.7,0-2.6
	c0-5.2-0.8-9.4-2.3-14.4c-0.3-3.1-0.3-6.2-0.3-9.3c0-1.3,0-1.3,0-2.6c0.2-9.8,1.5-18.9,7.2-27.1c2.2-1.3,2.2-1.3,4-2
	c-0.4,0.9-0.8,1.8-1.2,2.7c-5.8,13-9.9,27.5-5.3,41.6c0.9,2.6,0.9,2.6,2.6,4.7c0.1,3.2-0.1,6.5-0.3,9.7c-0.1,1.3-0.1,1.3-0.1,2.7
	c-0.2,4.9-0.9,8.9-2.6,13.6c-0.3,2.3-0.5,4.6-0.6,6.9c-0.1,1.2-0.1,2.3-0.2,3.5c0,0.9-0.1,1.7-0.1,2.6c2.2,0.9,4.5,1.7,6.7,2.6
	c0.6,0.2,1.3,0.5,1.9,0.7c3.9,1.4,6.5,2,10.4,0.7c0-2.4,0-2.4-1-5c-2.7-1.7-2.7-1.7-5.9-2.8c-1.1-0.4-2.2-0.8-3.3-1.3
	c-2.6-1-2.6-1-4.8-0.9c0.3-0.7,0.7-1.3,1-2c3.4,0.4,6.4,0.8,9.6,2.1c2.9,1.1,4.4,0.6,7.4-0.1c0.5-2,1-4.1,1.4-6.1
	c0.3-1.1,0.5-2.3,0.8-3.4c4.1-18.6-0.9-35.8-5.7-53.9c-0.5-1.9-1-3.8-1.5-5.7c-2.5-10.1-2.5-10.1-9.5-17.3
	C846.8,879.6,838.1,877.3,830.8,881.6z M740.8,889.6c-0.3,0.7-0.7,1.3-1,2c0.7,0,1.3,0,2,0C741.5,890.9,741.1,890.3,740.8,889.6z
	 M711.8,894.6c0.3,0.7,0.7,1.3,1,2c1.3-0.3,2.6-0.7,4-1C715.1,895.3,713.5,894.9,711.8,894.6z M721.8,906.6c4,1,4,1,4,1L721.8,906.6
	z M741.8,913.6c-0.6,1.4-0.6,1.4-1.3,2.8c-1.7,3.2-1.7,3.2-3.4,4.8c-1.8,1.5-1.8,1.5-1.3,5.4c2.6,0.2,4.4,0.3,6.8-1
	c2-3.2,1.9-6.3,2.3-10C743.8,914.9,742.8,914.3,741.8,913.6z M749.8,918.6c-0.4,0.8-0.8,1.5-1.2,2.3c-0.8,1.5-0.8,1.5-1.6,3
	c-0.5,1-1,2-1.5,3c-1.7,2.7-3.1,4-5.7,5.7c0.3,1.3,0.7,2.6,1,4c1.8,0.7,1.8,0.7,4,1c3.6-2,6.4-5,8.4-8.6c0.6-2.7,1-4.7,0.6-7.4
	C751.8,919.9,751.8,919.9,749.8,918.6z M851.8,981.6c-0.7,0.7-1.3,1.3-2,2c3.4,3.2,3.4,3.2,7.8,4.3c1.1-0.1,1.1-0.1,2.2-0.3
	c0.3-1,0.7-2,1-3C856.5,982.2,856.5,982.2,851.8,981.6z M858.8,1107.6c0,1,0,2,0,3c1-1,2-2,3-3
	C860.8,1107.6,859.8,1107.6,858.8,1107.6z M788.8,1109.6c0.5,0.6,0.9,1.2,1.4,1.8c1.5,2.2,2.1,3.7,2.6,6.3c4.7-0.5,8.7-1,13-3
	c-3-1.6-5.9-2.7-9.1-3.6c-0.9-0.3-1.7-0.5-2.6-0.8C791.7,1109.5,791.7,1109.5,788.8,1109.6z M842.8,1113.6c0,0.3,0,0.7,0,1
	c1.7,0.5,3.5,1.1,5.3,1.6c1,0.3,1.9,0.6,3,0.9c2.8,0.6,4.2,0.5,6.8-0.4c-0.8-1-1.5-2-2.3-3c-0.6-0.8-0.6-0.8-1.3-1.7
	C850.8,1108.7,846.4,1112,842.8,1113.6z M768.8,1116.6c3.7,2.5,6.4,2.2,10.7,2.1c0.7,0,1.4,0,2.1,0c1.7,0,3.5-0.1,5.2-0.1
	c-3-3.1-3-3.1-7-4.2c-0.8,0-1.6,0-2.4,0c-1.2,0-1.2,0-2.3,0C772.6,1114.6,771,1115.3,768.8,1116.6z M857.8,1117.6c0,0.3,0,0.7,0,1
	c2.9,0.1,5.8,0.1,8.8,0.1c0.8,0,1.7,0,2.5,0.1c1.2,0,1.2,0,2.4,0c1.1,0,1.1,0,2.2,0c2.4-0.3,4-1,6.1-2.2
	C872.5,1112.5,865.2,1114.7,857.8,1117.6z"/>
<path class="st0" d="M841.8,981.6c2.4,2.6,5,5.4,5,9c-1.7-0.7-3.3-1.3-5-2c1.7,3.2,1.7,3.2,4.7,3.8c4.6,1.7,7.5,4.2,10.3,8.3
	c1.3,4,1.6,7.9,1.9,12.1c0.1,1.1,0.2,2.2,0.3,3.4c0.3,3.2,0.5,6.4,0.7,9.6c0.1,0.8,0.1,1.5,0.2,2.3c0.8,9.8-1.7,17.7-5.2,26.7
	c3-1,3.9-1.8,6-4c0.1,1,0.1,1,0.2,2c1.7,16.1,1.7,16.1,6,31.7c1.3,4,1.1,6.3-0.3,10.3c-5.1,7-15.1,10.4-23,13
	c-2.2,0.2-2.2,0.2-4.5,0.3c-0.8,0-1.5,0.1-2.3,0.1c-2.7-0.4-3.5-1.2-5.2-3.3c-0.3-2-0.3-2-0.2-4.3c0-0.9,0.1-1.7,0.1-2.6
	c0.1-1.8,0.2-3.6,0.3-5.3c0.2-6.4-0.9-12.1-2.6-18.3c-2.2-8.4-3.3-16.9-4.4-25.4c-0.2-1.7-0.4-3.3-0.7-5c-0.5-4-1.1-8-1.6-12
	c1.7,0.3,3.3,0.7,5,1c-0.6-1.5-1.2-2.9-1.8-4.4c-0.3-0.8-0.6-1.6-1-2.5c-1.1-2.3-1.1-2.3-3.2-3.1c-2.8-1.4-3.5-3.2-4.9-6
	c-2.5-4.3-4.2-6.5-9.1-8.1c-3.7-0.7-3.7-0.7-7-1c1.9,2.3,3.3,3.1,6.1,4.4c2.9,1.6,2.9,1.6,3.6,3.9c0.3,2.8,0,4.6-0.6,7.3
	c-1.5,7.7-1.8,15.4-2,23.2c-0.1,1.9-0.2,3.9-0.2,5.8c0,1.5,0,1.5-0.1,3.1c0,1.3,0,1.3-0.1,2.6c0.3,2.5,0.9,4.2,1.8,6.5
	c1.8,4.6,1.9,8.7,1.9,13.6c0.2,7,1.2,12.2,4.5,18.4c1.6,3.3,1.6,5.6,1.1,9.2c-3.3,3.3-7.5,2.5-11.9,2.6c-8.6-0.2-15.7-3.5-23.1-7.6
	c-0.8-0.4-1.6-0.8-2.4-1.2c-2.6-2.9-2-6.3-1.8-10c0-0.7,0-1.5,0.1-2.3c0-1.8,0.1-3.7,0.2-5.5c3.8,0,4.5,1,7.2,3.5
	c0.7,0.6,1.4,1.3,2.2,2c0.8,0.8,0.8,0.8,1.6,1.5c-0.9-1.1-1.7-2.3-2.6-3.4c-0.5-0.7-1.1-1.5-1.6-2.2c-2.4-3.1-4.8-6.2-7.3-9.2
	c-3.4-5-3.7-9.1-3.5-15c0.2-6.2,0.2-6.2-1.6-12.1c-4.4-9.6-1.5-23,0.1-33.1c0.1-1,0.3-1.9,0.4-2.9c1.3-7.3,4.2-11.6,9-17.1
	c0.4-0.7,0.9-1.5,1.3-2.2c1.7-1.8,1.7-1.8,4.4-2.3c1.1,0,2.2,0,3.3,0c1.2,0,2.4,0,3.7,0s2.6,0,3.9,0
	C809.9,988.9,832.7,979.3,841.8,981.6z"/>
<path class="st1" d="M612.8,971.6c3.5,4.1,6,7.5,6,13c0.7,0,1.3,0,2,0c0-0.7,0-1.3,0-2c1,0.4,1,0.4,2.1,0.9c3.3,1.3,6.6,2.2,9.9,3.1
	c2.4,22.2,4.6,44.4,6.6,66.7c0.8,9.1,1.7,18.2,2.7,27.2c0.7,6.1,1.1,12.2,1.3,18.3c0.1,0.9,0.2,1.8,0.3,2.7c0.7,0.3,1.3,0.7,2,1
	c-0.2-1.8-0.2-1.8-0.4-3.7c-1.4-13.9-2.9-27.8-4.3-41.7c-0.2-2.4-0.5-4.8-0.7-7.2c-0.7-7-1.4-14.1-2.1-21.2
	c-0.2-2.2-0.4-4.5-0.7-6.7c-1.2-11.9-2.2-23.6-1.9-35.6c6.9-0.9,6.9-0.9,9-1c4,4,2.6,17.7,2.9,23c0.1,1.4,0.2,2.8,0.2,4.1
	c0.2,2.9,0.3,5.8,0.5,8.7c1.6,27.4,3.3,54.8,6.4,82.1c-5.1,3.3-8.7,4.1-14.7,4.1c-1,0-1.9,0-2.9,0c-2.2,0.2-2.2,0.2-3.2-0.8
	c-0.2-1.6-0.3-3.3-0.4-4.9c-0.1-1.1-0.1-2.2-0.2-3.3c-0.1-1.2-0.1-2.4-0.2-3.7c-1.1-18.1-3.3-36-5.6-54c-0.6-4.7-1.1-9.4-1.7-14
	c-0.4-3.6-0.9-7.3-1.3-10.9c-0.2-1.7-0.4-3.5-0.6-5.2c-0.3-2.4-0.6-4.8-0.9-7.2c-0.1-1-0.1-1-0.3-2.1c-0.5-4.1-1.1-7.9-2.9-11.6
	c-1.3-0.3-2.6-0.7-4-1c-0.5-6.4-0.5-6.4-1-13c-0.7,0-1.3,0-2,0c-0.8,10.2-1.3,20.3-1.7,30.5c-0.1,1.6-0.1,3.1-0.2,4.7
	c-0.2,4.2-0.3,8.3-0.5,12.5c-0.1,2.6-0.2,5.1-0.3,7.7c-1,25.5-1.9,51.1-2.3,76.6c-5.8,2.9-14.1,0.8-20-1c-1.8-1.8-1.2-4.4-1.3-6.8
	c0-1.2-0.1-2.5-0.1-3.8c0-1.4-0.1-2.8-0.1-4.2s-0.1-2.9-0.1-4.3c-0.1-3.9-0.2-7.7-0.3-11.6c-0.1-2.4-0.1-4.8-0.2-7.2
	c-0.8-27.1-1.1-54.1-0.8-81.2c3.6,0,7.3,0,11,0c0,38.3,0,76.6,0,116c1,0,2,0,3,0c0-0.6,0-1.2,0-1.8c-0.2-14.5-0.3-29.1-0.4-43.6
	c0-7-0.1-14.1-0.2-21.1c-0.1-6.8-0.2-13.6-0.2-20.4c0-2.6,0-5.2-0.1-7.8c-0.1-3.6-0.1-7.3-0.1-10.9c0-1.6,0-1.6-0.1-3.2
	c0-3,0.2-5.3,1.1-8.2c2.2-2.1,4.2-3.4,6.9-4.8c2.8-1.5,3.9-3.2,5.2-6c0.6-1.2,0.6-1.2,1.2-2.4C612.3,972.8,612.5,972.2,612.8,971.6z
	"/>
<path class="st2" d="M585.8,874.6c0,0.8-0.1,1.5-0.1,2.3c0,1.5,0,1.5-0.1,3c0,1-0.1,2-0.1,3c0.1,1.3,0.1,1.3,0.3,2.6
	c1,0.7,2,1.3,3,2c-0.3,0.7-0.6,1.3-0.9,2c-1.3,3.7-1.7,7.1-2.1,11c-3,0.3-5.9,0.7-9,1c0,1,0,2,0,3c1.5,0.1,2.9,0.1,4.4,0.2
	c1.2,0.1,1.2,0.1,2.5,0.1c0.7-0.1,1.4-0.2,2.2-0.3c0.7-1,1.3-2,2-3c0,1,0,2,0,3c0.7,0,1.3,0,2,0c0.6,1.2,0.6,1.2,1.2,2.4
	c4.8,9.3,10.3,19.1,17.8,26.6c0.6,4.4,0.7,8.8,0.8,13.3c0.1,2.2,0.2,4.4,0.3,6.6c0.4,9.6-0.8,16.9-6,25.2
	c-4.8,4.5-10.7,4.3-16.9,4.2c-0.8,0-1.5,0-2.3,0c-5.6,0-5.6,0-7.9-1.2c-0.2-4.2,0.1-8,0.9-12.1c2.2-12.6,3.3-25.4,3.3-38.1
	c0-0.7,0-1.5,0-2.3c0.1-9,0.1-9-2.2-17.5c-0.8,1.1-0.8,1.1-1.7,2.2c-2.3,2.8-4.7,5.3-7.3,7.8c-0.6,0.6-1.2,1.2-1.9,1.9
	c-3,2.9-5.2,4.9-9.3,5.9c-4-1.1-5.7-3.4-7.8-6.8c-3.4-6.6-5.2-12.2-5.4-19.6c0-1.1-0.1-2.3-0.1-3.4c0.5-3,0.5-3,2.9-4.9
	c2.8-1.2,3.8-1.2,6.6-0.1c0.3-0.7,0.7-1.3,1-2c2.5,12.5,2.5,12.5,1,19c1,0,2,0,3,0c-0.3-1.6-0.7-3.3-1-5c1,0,2,0,3,0
	c0,1.6,0,3.3,0,5c0.3,0,0.7,0,1,0c0.3,2,0.7,4,1,6c1-0.5,1-0.5,2-1c0.2-2.4,0.3-4.6,0.4-7c0.3-6.2,1-12.1,2.4-18.2
	c0.2-1.1,0.2-1.1,0.5-2.1c1.1-4.4,2.6-7.4,5.7-10.7C578.2,876.6,581.8,874.6,585.8,874.6z M548.8,900.6c0,0.7,0,1.3,0,2
	c3.5-0.5,3.5-0.5,7-1c0-1.3,0-2.6,0-4C552.3,897.6,551.4,898.3,548.8,900.6z"/>
<path d="M671.8,703.6c1.3,0,2.6,0,4,0c1.1,2.3,1.2,3.7,1.3,6.3c0,0.9,0.1,1.8,0.1,2.7c0,1,0.1,2,0.1,3s0.1,2.1,0.1,3.2
	c0.1,3.5,0.3,7,0.4,10.4c0,1.2,0.1,2.4,0.1,3.7c0.6,17.5,1.1,35,1.3,52.6c0.6,39.4,2,78.8,3.6,118.1c0,0.7,0.1,1.5,0.1,2.2
	c1.9,49.4,5.3,98.8,8.4,148.2c0.1,1.1,0.1,2.2,0.2,3.4c1,15.4,1,15.4,2.1,30.8c0.2,3.2,0.3,6.3,0.4,9.5c0,1.1,0,2.1,0,3.2
	c-0.2,2.7-0.2,2.7-2.2,5.7c-1.9-0.4-1.9-0.4-4-1c-1.6-3.2-1.4-6.8-1.7-10.3c-0.1-0.9-0.1-1.7-0.2-2.6c-0.2-2.8-0.4-5.5-0.6-8.3
	c-0.1-1.8-0.2-3.5-0.4-5.3c-0.3-4.8-0.7-9.6-1-14.4c-0.2-3.1-0.4-6.3-0.6-9.4c-1.8-26-3-52.1-4.3-78.2c-0.2-4.7-0.5-9.3-0.7-14
	c-1.8-36.9-3.4-73.7-4.6-110.6c-0.1-1.7-0.1-3.5-0.2-5.2c-0.3-9.9-0.6-19.7-0.9-29.6c0-0.7,0-1.4-0.1-2.2
	c-0.7-24.8-1.2-49.6-1.5-74.4c0-2.5-0.1-5-0.1-7.6c-0.1-3.9-0.1-7.9-0.2-11.8c0-1.5,0-2.9-0.1-4.4c0-2-0.1-4-0.1-5.9
	c0-1.1,0-2.2,0-3.4C670.8,705.6,670.8,705.6,671.8,703.6z"/>
<path class="st3" d="M635.8,874.6c3,0.7,5.9,1.3,9,2c0.1,5.7-0.2,11.2-0.7,16.8c-2.5,25.8-2.5,51.3,2.3,76.8
	c0.4,2.8,0.5,5.5,0.4,8.4c-14.6,5.1-14.6,5.1-20.9,2.1c-5.8-4.2-7.8-10.5-10.1-17.1c-0.2-0.7-0.5-1.4-0.7-2.1c-0.6-2-1-3.9-1.3-5.9
	c-0.2-1.1-0.4-2.1-0.5-3.3c-1.1-9.2,0.3-13.4,5.5-20.8c1.8-2.8,3.4-5.6,5.1-8.5c0.7-1.1,0.7-1.1,1.3-2.2c3.1-5.3,5.6-10.5,7.5-16.3
	c0.5-1.2,0.5-1.2,0.9-2.4c2.3-6.1,2.2-10.4,0.1-16.6c1-0.7,2-1.3,3-2C636.5,880.6,636.1,877.7,635.8,874.6z M614.8,940.6
	c0.3,0.7,0.7,1.3,1,2c0.7,0,1.3,0,2,0c0-0.7,0-1.3,0-2C616.8,940.6,615.8,940.6,614.8,940.6z"/>
<path d="M254.8,1030.6c1,1,1,1,2,2c-0.2,2.1-0.2,2.1-0.8,4.8c-0.2,1-0.5,2-0.7,3c-0.4,1.7-0.4,1.7-0.8,3.4c-0.3,1.2-0.6,2.3-0.8,3.6
	c-1.7,7.1-3.5,14.2-5.4,21.2c-9,34-16.2,68.5-23.4,102.9c-8.7,41.6-17.7,83.5-36,122.1c-0.4,0.9-0.8,1.8-1.2,2.7
	c-0.4,0.9-0.8,1.8-1.3,2.7c-0.6,1.2-0.6,1.2-1.2,2.4c-1.9,3.1-4.3,4.9-7.3,6.9c-1.9,1.3-3.6,2.7-5.3,4.3c-0.9,0.7-1.8,1.4-2.7,2.1
	c-1-0.3-2-0.7-3-1c0.6-3.7,2.1-5.4,4.7-8.1c4.4-4.8,7.4-9.9,10.4-15.6c0.5-1,1-2,1.6-3c1.5-2.8,2.9-5.6,4.3-8.4
	c0.6-1.2,1.2-2.3,1.8-3.6c8.1-17.5,11.9-37.3,16.7-55.9c0.2-0.7,0.3-1.3,0.5-2c6-23.3,11.5-46.7,16.7-70.2
	c5-22.4,10.2-44.8,15.7-67.1c0.2-0.9,0.5-1.9,0.7-2.8c2.6-10.4,5.4-20.7,8.5-31c0.3-1,0.6-1.9,0.9-2.9
	C250.7,1038.6,252,1034.5,254.8,1030.6z"/>
<path d="M350.8,1042.6c2.5,1.9,3,3,3.7,6.1c0.1,1.3,0.3,2.6,0.4,3.9c0.1,0.7,0.2,1.4,0.2,2.2c0.2,2.4,0.5,4.7,0.7,7.1
	c0.2,1.7,0.3,3.3,0.5,5c1.7,17,3,34.1,4.2,51.2c0.2,2.6,0.4,5.1,0.6,7.7c0.8,11.7,1.7,23.4,2.5,35c0.2,2.7,0.4,5.4,0.6,8.1
	c0.8,11.3,1.6,22.6,2.3,33.9c0.2,2.4,0.3,4.8,0.5,7.3c3.3,47.5,3.3,47.5,0.8,52.4c-1,0-2,0-3,0c-1.8-5.7-2.5-11-3-17
	c-0.1-1-0.2-2-0.2-3c-1-12.4-1.6-24.9-2.3-37.3c-0.4-6.9-0.8-13.9-1.1-20.8c-0.1-1.6-0.2-3.3-0.3-4.9c-1.1-19.2-2.2-38.4-3.3-57.6
	c-0.2-3.7-0.4-7.3-0.6-11c-1.5-25.7-1.5-25.7-3.7-51.4c-0.5-5.4-0.8-10.8-0.4-16.2C350.1,1043.3,350.5,1042.9,350.8,1042.6z"/>
<path d="M762.8,693.6c2.4,0.8,2.4,0.8,5,3c1.8,8,1.2,16.7,1.1,24.9c0,2.1,0,4.2,0,6.3c0,1.4,0,2.7,0,4.1c0,1.2,0,2.4,0,3.7
	c-0.1,3-0.1,3-1.1,6c-2.8,1.4-4.9,1.3-8,1c-8-5.8-13.6-16.9-19-25c0,0.7,0,1.5-0.1,2.3c-0.1,3.4-0.2,6.7-0.3,10.1
	c0,1.8,0,1.8-0.1,3.6c-0.1,1.7-0.1,1.7-0.1,3.4c0,1-0.1,2.1-0.1,3.1c-0.3,2.5-0.3,2.5-2.3,4.5c-3.1-0.3-3.1-0.3-6-1
	c-1.7-3.4-1.3-7.3-1.4-11.1c0-0.9-0.1-1.8-0.1-2.7c-0.1-1.9-0.1-3.8-0.1-5.7c-0.1-2.9-0.2-5.8-0.3-8.8c0-1.8-0.1-3.7-0.1-5.5
	c0-0.9-0.1-1.8-0.1-2.7c0-0.8,0-1.6-0.1-2.5c0-0.7,0-1.4-0.1-2.2c0.2-1.9,0.2-1.9,2.2-4.9c2.7-0.7,2.7-0.7,6,0
	c5.6,5.1,9.8,11.8,13.9,18c0.6,0.9,1.2,1.7,1.8,2.6c1.4,2.1,2.9,4.2,4.3,6.4c1.3-1.1,1.3-1.1,1.1-3.5c0-1.1-0.1-2.2-0.1-3.4
	s0-2.4-0.1-3.6c-0.1-2.5-0.1-5.1-0.2-7.6c0-1.2,0-2.4-0.1-3.6c0-1.1-0.1-2.2-0.1-3.4c0.4-2.8,0.4-2.8,2.5-4.7
	C761.5,694.3,762.1,694,762.8,693.6z"/>
<path class="st4" d="M583.4,697.8c2.4,0.8,2.4,0.8,3.4,2.8c0.2,1.5,0.2,3,0.3,4.4c0.1,1.4,0.1,1.4,0.1,2.7c0,1,0.1,1.9,0.1,2.9
	s0.1,2,0.1,3c0.2,6,0.4,12,0.5,18c0,1.2,0,2.5,0,3.8c-0.2,3-0.7,4.6-2.2,7.1c-3.2,0.3-3.2,0.3-7,0c-3.9-3.4-7-7.3-10.1-11.4
	c-0.4-0.5-0.8-1.1-1.3-1.7c-2.7-3.5-5.2-7.2-7.7-10.9c0,0.7,0,1.4,0,2.1c0,3.1,0.1,6.2,0.1,9.2c0,1.1,0,2.1,0.1,3.2c0,1,0,2.1,0,3.1
	c0,0.9,0,1.9,0,2.9c0,2.6,0,2.6-2,5.6c-2.5,0.4-2.5,0.4-5,0c-4.5-6.8-3.2-16.1-3.2-24c0-2.2,0-4.4-0.1-6.7c0-1.4,0-2.8,0-4.3
	c0-1.3,0-2.6,0-3.9c0.4-3.2,0.4-3.2,1.7-5.1c1.7-1.1,1.7-1.1,4.4-1.4c5.2,2.1,7.3,6.3,10.3,10.9c1.2,1.8,2.4,3.6,3.6,5.4
	c0.6,0.9,1.1,1.7,1.7,2.6c2.1,3.2,4.4,6.3,6.6,9.4c0-0.8,0-1.6,0-2.4c-0.1-3.6-0.1-7.3-0.1-10.9c0-1.3-0.1-2.5-0.1-3.8
	c0-1.2,0-2.4,0-3.7c0-1.1,0-2.2,0-3.4c0.3-2.8,0.3-2.8,1.7-4.7C580.8,697.6,580.8,697.6,583.4,697.8z"/>
<path class="st5" d="M881.8,862.6c0.3,0,0.7,0,1,0c0.1,0.7,0.1,1.3,0.2,2c0.7,7.8,1.5,15.7,2.2,23.5c0.1,1.4,0.3,2.8,0.4,4.2
	c1.8,18.6,3.7,37.2,5.9,55.8c2.6,22.1,4.5,44.1,6.2,66.3c0.1,0.7,0.1,1.5,0.2,2.2c0.4,4.9,0.7,9.7,1.1,14.6c0.1,1.2,0.2,2.5,0.3,3.7
	c0.4,6.3,0.7,12.4,0.6,18.7c-0.3,0-0.7,0-1,0c-0.7-3.6-1.3-7.3-2-11c-0.7,5-1.3,9.9-2,15c-0.3,0-0.7,0-1,0c0-0.6-0.1-1.2-0.1-1.9
	c-2.5-33.5-5.3-66.9-8.5-100.3c-0.1-1.6-0.3-3.1-0.4-4.7c-0.4-4.5-0.9-9-1.3-13.4c-0.1-1.1-0.1-1.1-0.2-2.2
	c-0.7-7.5-1.5-15-2.3-22.6c-0.1-1.3-0.3-2.5-0.4-3.8c-0.3-2.3-0.5-4.7-0.8-7c-1-9.1-1.2-18-0.9-27.1c0.7-0.3,1.3-0.7,2-1
	c0.5-2.6,0.5-2.6,0.6-5.6c0.1-1,0.1-2,0.2-3.1C881.7,864.2,881.7,863.4,881.8,862.6z"/>
<path d="M192.8,1098.6c0.7,0,1.3,0,2,0c-2.7,38.6-17.2,77.4-28.1,114.4c-1.8,6.3-3.6,12.5-5.4,18.8c-0.3,1-0.5,2-0.8,3
	c-1.5,5.5-3,10.9-4.5,16.4c-9,33.3-9,33.3-15.2,47.4c-0.7,0-1.3,0-2,0c0.4-9.2,1.9-17.4,4.4-26.3c0.4-1.4,0.8-2.7,1.1-4.1
	c5.1-18,10.4-36,15.7-54c4.9-16.6,9.7-33.2,14.4-49.8c0.4-1.3,0.4-1.3,0.7-2.5c4.1-14.6,7.9-29.3,11.5-44c0.2-0.8,0.4-1.6,0.6-2.4
	c0.4-1.4,0.7-2.9,1.1-4.3C189.4,1106.8,190.9,1102.8,192.8,1098.6z"/>
<path class="st6" d="M648.8,881.6c0.7,0,1.3,0,2,0c2.1,5.9,3.7,11.7,4.9,17.8c0.2,1.3,0.2,1.3,0.5,2.6c4.4,23.4,8.2,47.8,7.6,71.6
	c-1.7,1.7-3.7,1.2-5.9,1.3c-0.9,0-1.8,0.1-2.7,0.1c-0.8-0.1-1.5-0.2-2.3-0.3c-2-3-2.4-4.3-2.9-7.8c-0.1-1-0.3-1.9-0.4-2.9
	c-3.3-26.9-3.3-26.9-0.5-31.2c2.1-1.9,3.9-3,6.7-3c0-1,0-2,0-3c-4.5,1.9-4.5,1.9-9,4c0-5.9-0.1-11.7-0.1-17.6c0-2,0-4,0-6
	c0-2.9,0-5.7,0-8.6c0-0.9,0-1.8,0-2.7C646.6,890.7,647.1,886.5,648.8,881.6z"/>
<path d="M378.8,1127.6c0.7,0,1.3,0,2,0c4,11.7,6.6,23.7,9.4,35.7c1.4,6.2,2.9,12.4,4.4,18.6c0.3,1.2,0.6,2.4,0.9,3.7
	c4.8,20.4,9.9,40.7,15.6,60.9c0.2,0.7,0.4,1.5,0.6,2.2c5.6,19.5,11.6,37.7,24.1,54c2,3.1,2,3.1,1.6,5.3c-0.2,0.6-0.4,1.2-0.6,1.8
	c-12.9-6.3-18.9-19.1-23.5-32.1c-0.5-1.4-0.9-2.8-1.4-4.3c-0.3-0.8-0.5-1.5-0.8-2.3c-2.7-8.4-5-16.9-7.2-25.5
	c-0.2-0.8-0.4-1.6-0.6-2.5c-7.3-27.9-13.5-56.1-19.4-84.3c-0.2-1-0.2-1-0.4-2c-0.9-4.1-1.7-8.3-2.6-12.4c-0.3-1.5-0.3-1.5-0.6-3
	C379.3,1136.5,378.5,1132.3,378.8,1127.6z"/>
<path d="M276.8,1146.6c1,0.3,2,0.7,3,1c0.2,6.9-0.3,13.6-1.2,20.5c-0.2,1.5-0.2,1.5-0.4,3.1c-0.3,2.3-0.6,4.5-0.9,6.8
	c-0.4,3.1-0.8,6.3-1.2,9.5c-5.2,40.2-12.2,94.7-44.3,122.9c-2.3,1.5-4.3,1.9-7,2.2c0.6-3.2,1.7-5.2,3.7-7.7c3.2-4.1,6-8.4,8.6-12.8
	c0.5-0.8,0.9-1.6,1.4-2.4c23.6-39.4,29.1-84,34.9-128.8C274.2,1155.9,274.9,1151.3,276.8,1146.6z"/>
<path class="st7" d="M585.8,874.6c0,0.8-0.1,1.5-0.1,2.3c0,1.5,0,1.5-0.1,3c0,1-0.1,2-0.1,3c0.1,1.3,0.1,1.3,0.3,2.6
	c1,0.7,2,1.3,3,2c-0.3,0.7-0.6,1.3-0.9,2c-1.3,3.7-1.7,7.1-2.1,11c-3,0.3-5.9,0.7-9,1c0.8,3.7,0.8,3.7,1.8,5.9
	c0.4,3.4-1,5.3-2.8,8.1c-2.3,2.4-2.3,2.4-5,5c-1.2,1.2-2.5,2.5-3.7,3.8c-2.7,2.8-4.2,4.1-8.1,4.7c-3.2-0.4-3.2-0.4-5.8-2.9
	c-5.1-7-7.5-14.6-7.8-23.1c0-1.1-0.1-2.3-0.1-3.4c0.5-3,0.5-3,2.9-4.9c2.8-1.2,3.8-1.2,6.6-0.1c0.3-0.7,0.7-1.3,1-2
	c2.5,12.5,2.5,12.5,1,19c1,0,2,0,3,0c-0.3-1.6-0.7-3.3-1-5c1,0,2,0,3,0c0,1.6,0,3.3,0,5c0.3,0,0.7,0,1,0c0.3,2,0.7,4,1,6
	c1-0.5,1-0.5,2-1c0.2-2.4,0.3-4.6,0.4-7c0.3-6.2,1-12.1,2.4-18.2c0.2-1.1,0.2-1.1,0.5-2.1c1.1-4.4,2.6-7.4,5.7-10.7
	C578.2,876.6,581.8,874.6,585.8,874.6z M548.8,900.6c0,0.7,0,1.3,0,2c3.5-0.5,3.5-0.5,7-1c0-1.3,0-2.6,0-4
	C552.3,897.6,551.4,898.3,548.8,900.6z"/>
<path d="M170.8,685.6c1,0.3,2,0.7,3,1c0.1,4.9-0.3,9.5-1.1,14.3c-0.1,0.7-0.2,1.4-0.3,2.1c-0.4,2.3-0.8,4.5-1.2,6.8
	c-0.1,0.8-0.3,1.6-0.4,2.4c-2,12.1-4.2,24.1-6.5,36.2c-0.1,0.7-0.3,1.4-0.4,2.1c-4,21-9.7,41.5-15.6,62
	c-4.4,15.4-8.9,30.8-12.6,46.4c-5.9,24.7-5.9,24.7-12.9,33.7c-1,0-2,0-3,0c0.6-9.6,4.2-18.6,7.9-27.4c2.5-6.2,4.2-12.5,6-18.8
	c0.4-1.3,0.7-2.5,1.1-3.8c0.7-2.7,1.5-5.4,2.2-8.1c0.9-3.3,1.8-6.7,2.8-10c3.7-13.3,7.4-26.7,10.9-40c0.5-1.8,1-3.7,1.5-5.5
	c5.4-20.3,9.3-40.6,11.9-61.5C167.5,690.5,167.5,690.5,170.8,685.6z"/>
<path class="st4" d="M524.8,697.5c4.1,1.4,4.8,3.4,7,7.1c1.9,4.4,3.4,8.8,5,13.3c0.7,2.1,1.5,4.2,2.3,6.3c0.5,1.4,1,2.7,1.4,4.1
	c0.4,1.2,0.9,2.4,1.3,3.7c1,3.7,1.3,6.7,0.9,10.5c-0.7,0.7-1.3,1.3-2,2c-2.4,0-2.4,0-5-1c-1.6-2.4-1.6-2.4-2.8-5.4
	c-0.4-1-0.8-2-1.3-3c-0.8-2.5-0.8-2.5-0.8-4.5c-4.6,0.3-9.2,0.7-14,1c-0.4,1.6-0.9,3.1-1.3,4.8c-1,3.7-2.2,6.3-4.7,9.3
	c-4.9-0.9-4.9-0.9-6-2c0.1-6,1.6-11.6,3.6-17.2c0.3-0.7,0.5-1.5,0.8-2.2c0.5-1.5,1.1-3.1,1.6-4.6c0.8-2.3,1.6-4.7,2.4-7
	c0.5-1.5,1.1-3,1.6-4.5c0.2-0.7,0.5-1.4,0.7-2.1C517.4,700.8,519.1,697.7,524.8,697.5z M522.8,711.6c-1,3.3-2,6.6-3,10
	c2.6,0,5.3,0,8,0c-1-3.3-2-6.6-3-10C524.1,711.6,523.5,711.6,522.8,711.6z"/>
<path class="st4" d="M622,704.1c4.9,4,8.3,7.7,9.1,14.2c0.3,6.8-0.4,12.5-4.3,18.3c-3.6,3.9-7.8,7.6-13.1,8.3
	c-5.9,0-10.1-0.6-14.5-4.9c-5.3-5.9-5.6-10.5-5.5-18.3c0.5-6.7,2.9-11.7,7.5-16.6C607.5,699.6,615,699.4,622,704.1z M604.8,714.6
	c-2.9,4.7-2.7,9.7-2,15c1.3,3,2.3,3.9,5,6c3.5,0.9,3.5,0.9,7,0c3.8-3.1,6.6-6.2,7.3-11.2c0.1-4,0-6.2-2.1-9.8
	C614.6,709.7,610.4,709.3,604.8,714.6z"/>
<path d="M806.8,697.6c0.2,2.4,0.2,2.4,0,5c-3,2-3.7,2.3-7,2.4c-1.1,0.1-1.1,0.1-2.3,0.1c-0.8,0-1.6,0.1-2.4,0.1s-1.6,0.1-2.4,0.1
	c-2,0.1-3.9,0.2-5.9,0.3c0,3,0,5.9,0,9c1.1,0,2.3,0,3.4-0.1c1.5,0,3,0,4.4-0.1c0.7,0,1.5,0,2.3-0.1c2,0,3.9,0.1,5.9,0.2
	c0.7,0.7,1.3,1.3,2,2c-0.2,2-0.2,2-1,4c-3.6,2.4-5.9,2.4-10.2,2.6c-1.3,0.1-2.5,0.1-3.9,0.2c-1,0-2,0.1-3,0.1c0.7,3.3,1.3,6.6,2,10
	c1.1,0,2.3,0,3.4-0.1c1.5,0,3,0,4.4-0.1c0.7,0,1.5,0,2.3-0.1c2,0,3.9,0.1,5.9,0.2c0.7,0.7,1.3,1.3,2,2c-0.6,4.6-0.6,4.6-2,6
	c-7.1,1.4-16.3,2.8-22.8-0.4c-2.2-1.6-2.2-1.6-3.2-3.6c-0.4-5.2-0.6-10.5-0.8-15.7c-0.1-1.8-0.1-3.5-0.2-5.3
	c-0.1-2.5-0.2-5.1-0.3-7.6c-0.1-1.2-0.1-1.2-0.1-2.4c-0.1-3.9,0-5.6,2.8-8.5C786.8,694.3,799.8,694.1,806.8,697.6z"/>
<path d="M326.8,1074.6c0.7,0.3,1.3,0.7,2,1c0.3,15.5-0.6,30.9-1.7,46.4c-0.2,2.6-0.4,5.2-0.5,7.8c-0.4,5.4-0.7,10.8-1.1,16.2
	c-0.5,6.9-1,13.8-1.4,20.7c-0.5,6.6-0.9,13.3-1.4,19.9c-0.1,1.9-0.1,1.9-0.3,3.8c-0.2,3.6-0.5,7.1-0.7,10.7c-0.1,1-0.1,2.1-0.2,3.2
	c-0.2,2.8-0.4,5.6-0.6,8.4c-0.1,0.9-0.1,1.7-0.2,2.6c-0.1,0.8-0.1,1.6-0.2,2.4c-0.1,0.7-0.1,1.4-0.2,2.1c-0.5,1.8-0.5,1.8-2.5,4.8
	c-1.3-0.3-2.6-0.7-4-1c-0.4-13.1,0.8-26,1.9-39.1c0.2-2.4,0.4-4.9,0.6-7.3c0.4-5.1,0.8-10.1,1.2-15.2c0.5-6.5,1.1-12.9,1.6-19.4
	c0.4-5,0.8-10,1.2-15c0.2-2.4,0.4-4.8,0.6-7.1C323.9,1084,323.9,1084,326.8,1074.6z"/>
<path d="M256.9,701.4c1.7,0.2,1.7,0.2,3.5,0.3c2.8,0.3,5.6,0.6,8.4,0.9c0,1.3,0,2.6,0,4c-2.5,2.5-3.5,2.4-6.9,2.6
	c-0.9,0.1-1.7,0.1-2.6,0.2c-2.2,0.1-4.3,0.1-6.5,0.1c0.6,0.5,1.2,0.9,1.8,1.4c3.6,4.3,5.4,9.5,5,15.2c-0.8,4.1-1.5,6.8-4.8,9.5
	c-2.9,0.5-2.9,0.5-6,0c-4.6-3.4-6.7-7.5-8-13c-0.5-5.3,0.3-8.4,3-13c0.3-0.3,0.7-0.7,1-1c-5.3,0.7-10,2.2-15,4c-0.3-1.6-0.7-3.3-1-5
	C236.8,699.8,246.5,700.3,256.9,701.4z"/>
<path d="M307.8,755.6c3.7,3.2,5.8,5.8,6.7,10.6c-0.9,4.4-2.1,5.7-5.7,8.4c-2.9,1.3-5.9,2.1-9,3c-2.3,0.7-4.5,1.4-6.8,2.1
	c-1.1,0.3-2.1,0.6-3.2,1c-3,0.9-3,0.9-5.7,2.1c-3,1.2-5.1,1.4-8.3,0.9c-2.9-1.9-2.9-1.9-5-5c-0.5-4.9,0.4-8.9,2.6-13.3
	C281.8,755.7,295.5,747.5,307.8,755.6z M280.4,766.1c-1.9,3.1-1.9,3.1-2.6,6.5c1,1.5,1,1.5,2,3c5.2-0.7,10.2-2,15.3-3.4
	c0.8-0.2,1.6-0.4,2.5-0.7c0.8-0.2,1.6-0.4,2.4-0.7c0.7-0.2,1.4-0.4,2.1-0.6c2-0.6,2-0.6,3.8-2.7c-0.2-2.7-0.6-4.5-2.2-6.6
	C296.6,755.6,285.7,760.6,280.4,766.1z"/>
<path d="M401.8,1142.6c4.1,3.4,5.5,7.3,7.2,12.1c0.3,0.8,0.6,1.7,0.9,2.5c1,2.8,2,5.6,2.9,8.4c0.3,1,0.7,2,1,3c3,8.8,6,17.7,9,26.6
	c5.3,15.9,11,31.7,17,47.4c1.5,4,3.1,8.1,4.6,12.1c0.3,0.9,0.7,1.8,1,2.7c1.7,4.6,2.8,8.2,2.4,13.2c-2.3-2.1-3.6-3.9-4.8-6.8
	c-0.3-0.8-0.7-1.6-1-2.4c-0.4-0.9-0.7-1.7-1.1-2.6c-0.4-0.9-0.8-1.8-1.2-2.8c-10-23.9-18.8-48.1-27.2-72.5c-0.6-1.8-1.3-3.7-1.9-5.5
	c-8.6-24.8-8.6-24.8-9.7-34.4C401.1,1143.3,401.5,1142.9,401.8,1142.6z"/>
<path d="M326.8,676.6c1,0.7,2,1.3,3,2c-0.3,1-0.7,2-1,3c-2.2,0.9-2.2,0.9-4.9,1.6c-4,0.9-4,0.9-7.1,3.4c0.7,0.2,1.5,0.5,2.3,0.7
	c4,1.9,6,4.6,7.8,8.6c1.5,4.5,1.6,9,0.9,13.7c-2.1,3.3-2.1,3.3-5,5c-3,0.3-3,0.3-6-1c-5.7-5.7-6.2-13.4-7-21c-0.5,0.4-1,0.7-1.5,1.1
	c-4.3,2.9-7.1,4.6-12.5,3.9c-0.7-1.3-1.3-2.6-2-4c0.7-0.3,1.4-0.7,2.1-1c5.3-2.7,9.5-5.3,13.6-9.7
	C314.2,677.9,319.6,673.9,326.8,676.6z"/>
<path d="M254.8,1030.6c0.7,0.7,1.3,1.3,2,2c-0.2,2.1-0.2,2.1-0.8,4.8c-0.2,1-0.5,2-0.7,3c-0.3,1.1-0.5,2.2-0.8,3.3
	c-0.3,1.2-0.6,2.3-0.8,3.5c-2.4,9.8-4.9,19.6-7.5,29.3c-5,19.2-9.1,38.6-13.3,57.9c-0.3,0-0.7,0-1,0c0-2.3,0-4.6,0-7
	c-1.5,0.5-1.5,0.5-3,1c0.6-6,1.5-11.8,2.9-17.7c0.2-0.8,0.4-1.6,0.6-2.5c0.6-2.6,1.3-5.3,1.9-7.9c0.2-0.9,0.4-1.8,0.7-2.8
	c3.4-14.2,7-28.3,10.8-42.4c0.2-0.9,0.5-1.7,0.7-2.6c0.7-2.4,1.3-4.8,2-7.3c0.2-0.7,0.4-1.4,0.6-2.1
	C250.3,1038.7,252.2,1034.8,254.8,1030.6z"/>
<path d="M276.8,1146.6c1,0.3,2,0.7,3,1c0.2,6.9-0.3,13.6-1.2,20.5c-0.2,1.5-0.2,1.5-0.4,3.1c-0.5,3.5-0.9,7-1.4,10.4
	c-0.2,1.4-0.4,2.7-0.6,4.1c-3.9,28.7-3.9,28.7-7,42.3c-0.2,0.8-0.4,1.7-0.6,2.5c-1.1,4.4-2.1,7.2-5.9,10.1c-0.3,0-0.7,0-1,0
	c-0.4-7.4,1.1-14.2,2.6-21.5c3.3-16.7,5.7-33.6,8.1-50.5c0.1-1,0.3-2,0.4-3.1c0.3-1.9,0.5-3.8,0.8-5.7
	C274.3,1155.2,275.1,1151,276.8,1146.6z"/>
<path d="M170.8,685.6c1,0.3,2,0.7,3,1c0.1,4.9-0.3,9.5-1.1,14.3c-0.1,0.7-0.2,1.4-0.3,2.1c-0.4,2.3-0.8,4.5-1.2,6.8
	c-0.1,0.8-0.3,1.6-0.4,2.4c-2.1,12.2-4.3,24.4-6.7,36.6c-0.1,0.7-0.3,1.5-0.4,2.2c-2.1,10.6-4.4,21.1-7,31.6c-0.7-1.3-1.3-2.6-2-4
	c-1,1-1,1-2,2c0.7-6.8,2.2-13.2,3.8-19.8c3-12.5,5-25,6.7-37.8c0.8-5.9,1.7-11.8,2.6-17.7c0.2-1.1,0.3-2.2,0.5-3.3
	C168.6,687.8,168.6,687.8,170.8,685.6z"/>
<path d="M378.8,1127.6c0.7,0,1.3,0,2,0c2.7,8.4,5,16.8,7,25.5c0.3,1.1,0.5,2.3,0.8,3.5c0.9,3.6,1.7,7.3,2.5,10.9
	c1.1,4.8,2.2,9.5,3.3,14.3c0.3,1.2,0.5,2.3,0.8,3.5c1.4,5.8,2.8,11.6,4.3,17.4c0.3,1.1,0.6,2.2,0.9,3.3c0.5,2.1,1.1,4.2,1.6,6.2
	c0.2,0.9,0.5,1.8,0.7,2.8c0.2,0.8,0.4,1.6,0.6,2.4c0.4,2.4,0.1,3.9-0.7,6.2c-0.3-2-0.7-4-1-6c-1,0-2,0-3,0c-0.3,1.3-0.7,2.6-1,4
	c-6.1-25.7-11.7-51.5-17-77.4c-0.2-1-0.4-2-0.6-3C379.3,1136.6,378.5,1132.3,378.8,1127.6z"/>
<path d="M161.8,1220.6c0.2,6.2-0.3,11.3-2,17.3c-0.2,0.8-0.4,1.5-0.6,2.3c-0.7,2.4-1.3,4.8-2,7.3c-0.5,1.7-0.9,3.3-1.4,5
	c-1.3,4.7-2.6,9.5-4,14.2c-0.3,1.1-0.6,2.3-1,3.5c-2.8,9.8-5.8,19.3-10,28.5c-0.7,0-1.3,0-2,0c0.3-9.9,2.3-19,5-28.4
	c0.4-1.4,0.8-2.9,1.2-4.3c1-3.7,2.1-7.4,3.2-11.1c0.6-2.2,1.3-4.4,1.9-6.6c1-3.5,2-7,3-10.5c0.4-1.3,0.8-2.6,1.1-4
	c0.5-1.8,1.1-3.7,1.6-5.5c0.3-1,0.6-2.1,0.9-3.1C157.8,1222.7,158.8,1220.6,161.8,1220.6z"/>
<path class="st8" d="M596.8,987.6c1.8,3,2.2,5.2,2.2,8.7c0,0.9,0,1.9,0,2.9s0,2.1,0,3.1c0,1.1,0,2.2,0,3.3c0,3.6,0,7.2,0,10.8
	c0,2.5,0,5,0,7.5c0,5.9,0,11.8,0,17.8c0,7.4,0,14.8,0,22.2c0,13.2-0.1,26.4-0.1,39.6c-1,0-2,0-3,0c0-12.6,0-25.2-0.1-37.8
	c0-5.9,0-11.7,0-17.6c0-5.7,0-11.3,0-17c0-2.1,0-4.3,0-6.4C595.7,1012.3,595.9,1000,596.8,987.6z"/>
<path d="M320.8,1162.6c0.3,0,0.7,0,1,0c0.1,10.4-0.1,20.8-0.4,31.2c-0.1,2.2-0.1,4.4-0.2,6.7c-0.6,19.8-0.6,19.8-3.4,24.1
	c-1.3-0.3-2.6-0.7-4-1c-0.2-10.3,0.3-20.5,1.1-30.9c0.2-2.5,0.4-5.1,0.6-7.6c0.1-1.6,0.3-3.3,0.4-4.9c0.1-0.7,0.1-1.5,0.2-2.3
	C316.4,1173,317.1,1166.3,320.8,1162.6z"/>
<path d="M854.8,886.6c-0.7,4.1-1.9,7.6-3.5,11.4c-4.3,11.1-5.6,23.7-1.3,35.1c0.7,1.6,0.7,1.6,1.8,2.6c0,1.5,0,3-0.1,4.5
	c0,0.9-0.1,1.8-0.1,2.7c-0.1,0.9-0.1,1.9-0.2,2.9c-0.1,0.9-0.1,1.9-0.2,2.9c-0.1,2.4-0.3,4.7-0.4,7.1c-0.3,0-0.7,0-1,0
	c-0.3-3.3-0.7-6.6-1-10c-0.3,0-0.7,0-1,0c-0.3,2.6-0.7,5.3-1,8c-0.3,0-0.7,0-1,0c-1-11-1-11-0.9-15.8c0.1-3.2,0.1-3.2-1.1-6.3
	c-1.3-4.4-1.3-8.6-1.3-13.2c0-0.8,0-1.7,0-2.6c0.2-10,1.7-18.6,7.2-27.1C852.8,886.6,852.8,886.6,854.8,886.6z"/>
<path d="M256.9,701.4c1.7,0.2,1.7,0.2,3.5,0.3c2.8,0.3,5.6,0.6,8.4,0.9c0,1.3,0,2.6,0,4c-2.4,2.4-3.1,2.3-6.3,2.6
	c-1.3,0.1-1.3,0.1-2.7,0.2c-1.5,0.1-1.5,0.1-3,0.2c-1.2,0.1-2.3,0.2-3.6,0.3c-3.1,0.2-6.3,0.5-9.4,0.7c0.3-0.7,0.7-1.3,1-2
	c-5.3,0.7-10,2.2-15,4c-0.3-1.6-0.7-3.3-1-5C236.8,699.8,246.5,700.3,256.9,701.4z"/>
<path d="M835.8,876.6c-1,0-2,0-3,0c0,0.7,0,1.3,0,2c1.3,0.7,2.6,1.3,4,2c-2,0.3-4,0.7-6,1c-0.8,5.4-1.1,10.5-1,15.9
	c0,1.5,0,2.9,0,4.4c0,2.3,0.1,4.6,0.1,6.9c0,2.2,0,4.5,0.1,6.7c0,0.7,0,1.4,0,2.1c0,1.7-0.1,3.4-0.2,5.1c-0.7,0.7-1.3,1.3-2,2
	c-1,0-2,0-3,0c-1.7-3.3-1-7.1-0.9-10.7c0-0.9,0-1.7,0.1-2.6c0.1-2.8,0.2-5.5,0.2-8.3c0.1-1.9,0.1-3.7,0.2-5.6
	c0.1-4.6,0.3-9.2,0.4-13.8c-2.3,0.7-4.6,1.3-7,2c0.1-2.3,0.1-2.3,1-5c2.8-1.6,2.8-1.6,6.3-2.9c1.2-0.4,2.3-0.9,3.5-1.3
	C831.6,875.6,833,875.5,835.8,876.6z"/>
<path d="M326.8,676.6c1,0.7,2,1.3,3,2c-0.3,1-0.7,2-1,3c-2.2,0.9-2.2,0.9-4.9,1.6c-4,0.9-4,0.9-7.1,3.4c1.3,0.7,2.6,1.3,4,2
	c-1.7,0.2-1.7,0.2-3.4,0.4c-3.4,0.2-3.4,0.2-4.6,1.6c-0.2,1.8-0.4,3.7-0.6,5.6c-0.1,1-0.2,2-0.3,3.1c-0.1,1.2-0.1,1.2-0.2,2.4
	c-0.3,0-0.7,0-1,0c-0.3-3-0.7-5.9-1-9c-1.2,0.8-2.4,1.6-3.6,2.5c-3.6,2.3-6,3-10.4,2.5c-0.7-1.3-1.3-2.6-2-4c0.7-0.3,1.4-0.7,2.1-1
	c5.3-2.7,9.5-5.3,13.6-9.7C314.2,677.9,319.6,673.9,326.8,676.6z"/>
<path class="st8" d="M633.8,988.6c0.3,0,0.7,0,1,0c2.3,16.3,4,32.7,5.5,49.1c0.4,4.7,0.9,9.3,1.3,14c0.1,1.1,0.2,2.3,0.3,3.4
	c0.6,6.4,1.2,12.7,1.9,19c0.1,0.7,0.1,1.4,0.2,2.1c0.3,3,0.6,6,1,8.9c0.6,5.8,0.9,11.5,0.8,17.4c-1-0.3-2-0.7-3-1
	c0-0.7-0.1-1.4-0.1-2.1c-0.8-12.5-1.8-24.9-3.2-37.3c-1.4-11.6-2.5-23.3-3.5-34.9c-0.2-2-0.4-4-0.5-6
	C634.3,1010.4,633.5,999.6,633.8,988.6z"/>
<path d="M288.8,699.6c3.1,1.6,3.5,4.8,4.6,7.9c2.7,7.1,6.3,12.4,11.4,18.1c5.1,6,5.1,6,4.8,9.6c-2.7,3.5-5.8,5.6-9.8,7.4
	c-3.5,0.3-3.5,0.3-6,0c0.4-2.7,0.7-3.7,2.8-5.5c0.7-0.4,1.5-0.8,2.2-1.3c0.7-0.4,1.5-0.9,2.2-1.3c0.6-0.3,1.1-0.6,1.7-1
	c-2-3.4-4.1-6.5-6.4-9.7c-5.1-7.2-8.1-14.5-8.6-23.3C288.1,700.3,288.5,699.9,288.8,699.6z"/>
<path d="M527.8,858.6c3,1.6,5.2,3.2,7.6,5.6c2.4,2.4,3.3,2.8,6.4,3.4c0.7,0.7,1.3,1.3,2,2c-0.9,1.2-1.8,2.3-2.8,3.5
	c-0.5,0.6-1,1.3-1.5,2c-1.7,1.5-1.7,1.5-5.7,1.5c1.7,1,3.3,2,5,3c-0.7,1.3-1.3,2.6-2,4c-4.6-1.3-8.3-3-12-6c-0.9-2.8-0.9-2.8-1-5
	c2-1.3,4-2.6,6-4c-0.8-1.1-0.8-1.1-1.6-2.2C526.6,863.2,526.7,862,527.8,858.6z"/>
<path d="M296.8,638.6c0,0.7,0,1.3,0,2c-5.5-0.5-10.3-1.6-15.6-3.4c-11.5-3.8-23.4-4.7-35.4-5.6c0.3-1.3,0.7-2.6,1-4
	C263.2,624.2,282.7,630.2,296.8,638.6z"/>
<path d="M828.8,951.6c1,0.3,2,0.7,3,1c0,3,0,3-1.6,4.7c-9.7,7.7-20,10.9-32.4,10.3c-5.4-0.9-10.7-2.4-16-4c0-1,0-2,0-3
	c0.6,0.1,1.2,0.1,1.8,0.2c1.8,0.2,3.5,0.4,5.3,0.5c2,0.2,4,0.4,5.9,0.7c10.9,1.2,19.8-0.1,29.1-6.4c0.9-0.8,1.9-1.6,2.9-2.4
	C827.4,952.7,828.1,952.2,828.8,951.6z"/>
<path d="M365.8,1271.6c0.7,0,1.3,0,2,0c0.2,1.2,0.4,2.3,0.7,3.6c1.8,9.3,4,18.2,7.5,27c2.3,6,2.3,6,0.8,9.4c-2.3,0.1-2.3,0.1-5-1
	C364.1,1300.1,365.5,1284,365.8,1271.6z"/>
<path d="M216.8,779.6c2,3,2,3,1.8,5.8c-0.8,3.2-0.8,3.2-2.5,6.3c-1.6,2.7-1.6,2.7-0.8,5c1.5,2.1,1.5,2.1,4.1,3.7
	c2.4,2.2,2.4,2.2,3.4,5.8c0.1,3.4,0.1,3.4-1.9,6.4c-1,0-2,0-3,0c0-1.1,0-2.1,0-3.2c-0.6-3.8-0.6-3.8-2.8-5.1
	c-0.7-0.4-1.4-0.8-2.2-1.2c-3.9-2.2-3.9-2.2-5.3-5.6c0.4-5.6,2.7-10,5.3-14.9c1.3,1,2.6,2,4,3C216.8,783.6,216.8,781.6,216.8,779.6z
	"/>
<path d="M131.8,860.6c0.3,0,0.7,0,1,0c0.9,6.7-0.4,12.1-2.8,18.3c-0.3,0.7-0.5,1.3-0.8,2c-1.7,4.3-3.6,8.1-6.5,11.7c-1,0-2,0-3,0
	C120.5,881.4,124.4,869.2,131.8,860.6z"/>
<path d="M234.8,655.6c3,4.4,1.9,7.9,1,13c-2.5,9.7-6.4,19.2-14,26c-0.7,0-1.3,0-2,0c1-4.6,2.6-8.3,4.8-12.5c3-5.9,5.1-11.8,7.1-18.2
	C232.6,661.1,233.6,658.4,234.8,655.6z"/>
<path d="M170.8,685.6c1,0.3,2,0.7,3,1c0.1,4.8-0.2,9.3-1.1,14c-0.2,1.3-0.5,2.6-0.7,3.9s-0.5,2.7-0.7,4c-0.2,1.4-0.5,2.7-0.7,4.1
	c-0.6,3.3-1.2,6.6-1.8,10c-1.5,0.5-1.5,0.5-3,1C164.9,694.4,164.9,694.4,170.8,685.6z"/>
<path d="M231.8,1127.6c0.4,8.2-0.7,15.7-2.5,23.7c-0.2,1.1-0.5,2.2-0.7,3.3c-0.6,2.7-1.2,5.3-1.8,8c-0.7-1-1.3-2-2-3c-1,0-2,0-3,0
	c0.6-7,1.9-13.7,3.4-20.5c0.2-1,0.4-2,0.7-3c0.2-0.9,0.4-1.9,0.7-2.9c0.2-0.9,0.4-1.7,0.6-2.6C228,1127.9,229,1127.6,231.8,1127.6z"
	/>
<path d="M245.8,642.6c4.5,0.6,7.7,2.4,11.6,4.7c6.3,3.7,12.8,7.1,19.4,10.3c0,1,0,2,0,3c-6.1-0.5-10.6-1.8-16.1-4.7
	c-0.7-0.4-1.4-0.7-2.1-1.1c-4.9-2.6-9.1-5.2-12.8-9.2C245.8,644.6,245.8,643.6,245.8,642.6z"/>
<path d="M154.8,777.6c0.3,0,0.7,0,1,0c0.7,8.1-1.8,15.3-4,23c-0.4,1.4-0.8,2.7-1.2,4.1c-0.9,3.3-1.9,6.6-2.8,9.9c-2,0.5-2,0.5-4,1
	c1.3-12,4.7-23.4,8-35c0.7,0,1.3,0,2,0C154.1,779.6,154.5,778.6,154.8,777.6z"/>
<path d="M613.8,877.6c2.9,2.9,2.4,6,2.6,9.9c0,0.8,0.1,1.6,0.1,2.4c0.1,2.5,0.2,5,0.3,7.6c0.1,2.5,0.2,5,0.4,7.5
	c0.1,1.6,0.1,3.1,0.2,4.7c0.2,3.4,0.3,6.6,1.4,9.9c-0.7,0-1.3,0-2,0c-0.5,2.5-0.5,2.5-1,5c-1.5,0.5-1.5,0.5-3,1
	c-0.1-7.6-0.1-7.6,0.5-9.8c0.6-2.6,0.5-4.9,0.4-7.6c0-1-0.1-2-0.1-3.1c-0.1-1.1-0.1-2.1-0.2-3.2c-0.1-1.1-0.1-2.2-0.2-3.3
	c-0.1-2.7-0.3-5.3-0.4-8c-0.7,0-1.3,0-2,0c0-4,0-7.9,0-12C611.8,878.3,612.8,877.9,613.8,877.6z"/>
<path d="M378.8,1127.6c0.7,0,1.3,0,2,0c2.6,7.9,4.8,15.9,6.8,24.1c0.2,0.9,0.5,1.8,0.7,2.8c0.2,0.9,0.4,1.7,0.6,2.6
	c0.3,1.2,0.3,1.2,0.6,2.4c0.3,2.4,0,3.9-0.7,6.2c0-1,0-2,0-3c-0.7,0-1.3,0-2,0c0,2,0,4,0,6c-2-3.5-2.7-7-3.5-11c-0.2-1-0.2-1-0.4-2
	c-0.3-1.4-0.5-2.8-0.8-4.2c-0.4-2.1-0.8-4.3-1.3-6.4c-0.3-1.4-0.5-2.7-0.8-4.1c-0.4-1.9-0.4-1.9-0.7-3.8
	C378.8,1133.8,378.7,1130.8,378.8,1127.6z"/>
<path d="M627.8,824.6c0.3,0,0.7,0,1,0c0.3,3,0.7,5.9,1,9c0.7-0.3,1.5-0.6,2.3-0.9c2.3-0.9,4.4-1.5,6.8-2.1c-1,2.9-1.7,4.7-4,6.8
	c-2.3,2.5-3,4.4-4,7.7c-1.3,4.2-2.7,6.6-6,9.5c-0.7-0.3-1.3-0.7-2-1c0.5-3.5,1.2-6.7,2.5-10C627.5,837.5,627.5,831.1,627.8,824.6z"
	/>
<path d="M854.8,886.6c-0.7,4.5-2.3,8.4-4,12.6c-2.2,5.2-4,9.9-4.3,15.5c0,0.8-0.1,1.5-0.1,2.3c-0.1,1.2-0.1,1.2-0.1,2.4
	c0,0.8-0.1,1.6-0.1,2.4c-0.1,1.9-0.2,3.9-0.3,5.8c-3-4.5-2.4-8.8-2.4-14.1c0-1,0-2-0.1-3c0-8.1,1.3-16,7.1-22
	C852.8,886.6,852.8,886.6,854.8,886.6z"/>
<path d="M321.8,1109.6c0.3,0,0.7,0,1,0c0.3,10.3-0.3,20.3-1.3,30.5c-0.7,6.9-0.8,13.7-0.5,20.6c-0.3,3.2-1,4.5-3.2,6.9
	C318.4,1148.2,320.1,1128.9,321.8,1109.6z M322.8,1154.6c0.3,0,0.7,0,1,0c0.1,9.9-0.3,19.5-1,29.4c-0.1,1.3-0.2,2.7-0.3,4
	c-0.2,3.2-0.5,6.4-0.7,9.6c-0.3,0-0.7,0-1,0c0-5-0.1-10-0.1-15c0-1.7,0-3.4,0-5.1c0-2.5,0-4.9,0-7.4c0-0.8,0-1.5,0-2.3
	C320.6,1163.1,321.3,1159.2,322.8,1154.6z"/>
<path d="M254.8,1030.6c0.7,0.7,1.3,1.3,2,2c-0.3,2.6-0.3,2.6-1,5.8c-0.3,1.2-0.5,2.3-0.8,3.5c-0.3,1.2-0.6,2.4-0.9,3.7
	c-0.3,1.2-0.6,2.4-0.8,3.7c-2.1,9-2.1,9-4.4,12.4c-0.3-1.3-0.7-2.6-1-4c-1,2.5-1,2.5-2,5c-1.2-3.5-0.8-5.7,0.3-9.2
	c0.3-1,0.6-2,0.9-3s0.7-2.1,1-3.2c0.5-1.6,0.5-1.6,0.9-3.1C250.5,1039.1,252,1034.9,254.8,1030.6z"/>
<path d="M220.8,639.6c0.7,0,1.3,0,2,0c-0.2,9.7-4.7,16.7-11.3,23.7c-2.7,2.3-2.7,2.3-4.7,2.3c1.5-5.4,4.1-9.9,7-14.7
	c0.7-1.1,0.7-1.1,1.4-2.3C217,645.6,218.8,642.6,220.8,639.6z"/>
<path d="M824.8,883.6c0.3,0,0.7,0,1,0c0.3,8.9,0.7,17.8,1,27c0.3-6.6,0.7-13.2,1-20c0.3,0,0.7,0,1,0c0.2,4.5,0.4,9,0.5,13.6
	c0.1,1.5,0.1,3.1,0.2,4.6c0.1,2.2,0.2,4.4,0.3,6.6c0,0.7,0.1,1.4,0.1,2.1c0.1,1.7,0,3.4-0.1,5.1c-0.7,0.7-1.3,1.3-2,2c-1,0-2,0-3,0
	c-1.7-3.3-1-7.1-0.9-10.7c0-0.9,0-1.7,0.1-2.6c0.1-2.8,0.2-5.5,0.2-8.3c0.1-1.9,0.1-3.7,0.2-5.6
	C824.5,892.8,824.7,888.2,824.8,883.6z"/>
<path d="M386.8,1162.6c0.7,0,1.3,0,2,0c7.2,17.4,7.2,17.4,5,24c-0.7-0.3-1.3-0.7-2-1c0,1.7,0,3.3,0,5
	C387.1,1182.1,386.3,1172.1,386.8,1162.6z"/>
<path d="M618.8,839.6c-0.3,3.3-0.8,4.8-3,7.3c-4,2.3-7.4,3-12,2.8c-3.6-1.4-3.6-1.4-6-3c0-1,0-2,0-3c1.1,0.1,1.1,0.1,2.1,0.1
	C607.2,844,612.6,839.6,618.8,839.6z"/>
<path d="M247.8,1056.6c0.3,0,0.7,0,1,0c0.3,6.8-0.6,12.5-2.5,19.1c-0.2,0.9-0.5,1.7-0.7,2.6c-0.6,2.1-1.2,4.2-1.8,6.3
	c-0.3-0.7-0.7-1.3-1-2c-0.7,0-1.3,0-2,0c0.8-13.6,0.8-13.6,3-20c0.7,0,1.3,0,2,0c0.1-0.8,0.3-1.6,0.4-2.4
	C246.8,1057.6,246.8,1057.6,247.8,1056.6z"/>
<path d="M867.8,937.6c0,1.3,0,2.6,0,4c-1.3,0.3-2.6,0.7-4,1c0.7,1.3,1.3,2.6,2,4c-3.9,1.3-6.1,0.2-10-1c0-1,0-2,0-3
	c0.7-0.3,1.3-0.7,2-1c-0.7-0.3-1.3-0.7-2-1c0.8-1.9,0.8-1.9,2-4C861.7,935.3,863.9,936.4,867.8,937.6z"/>
<path d="M441.8,1294.6c1,0,2,0,3,0c1.1,1.4,2.2,2.7,3.3,4.1c3.1,3.3,6.8,5.6,10.5,8.1c0.7,0.6,1.5,1.1,2.2,1.7c0,0.7,0,1.3,0,2
	c-4.3,0.6-6.6-0.1-10.1-2.6c-3.8-3.1-6.4-6.2-8.9-10.4C441.8,1296.6,441.8,1295.6,441.8,1294.6z"/>
<path d="M833.8,828.6c0.3,0,0.7,0,1,0c0,0.6,0,1.2,0,1.8c0.3,5.5,0.3,5.5,3.5,9.7c0.8,0.5,1.6,0.9,2.4,1.4c-0.3,1.9-0.3,1.9-1,4
	c-1,0.3-2,0.7-3,1c-1,2.3-1,2.3-1.7,5.1c-0.3,0.9-0.5,1.8-0.8,2.8c-0.2,0.7-0.4,1.4-0.6,2.2c-0.3,0-0.7,0-1,0c-0.3-1.6-0.7-3.3-1-5
	c-0.7,0.3-1.3,0.7-2,1c0.2-0.6,0.4-1.3,0.6-1.9C832.6,843.3,833.4,836.2,833.8,828.6z"/>
<path d="M164.8,711.6c0.3,0,0.7,0,1,0c0.3,3.6,0.7,7.3,1,11c0.3,0,0.7,0,1,0c-0.1,2.1-0.3,4.1-0.4,6.2c-0.1,1.7-0.1,1.7-0.2,3.5
	c-0.3,2.8-0.7,5.5-1.3,8.3c-0.7-1-1.3-2-2-3c-1.5,6.4-1.5,6.4-3,13c-1-4-0.9-6-0.3-10c0.2-1.2,0.4-2.3,0.5-3.5
	c0.2-1.2,0.4-2.4,0.6-3.7c0.4-2.4,0.7-4.8,1.1-7.2c0.2-1.1,0.4-2.3,0.5-3.4C163.9,719,164.4,715.3,164.8,711.6z"/>
<path d="M791.8,882.6c2.8,2.8,2.3,4.8,2.4,8.8c0,1,0,1,0.1,2c0.1,2.1,0.1,4.2,0.2,6.4c0,1.4,0.1,2.9,0.1,4.3c0.1,3.5,0.2,7,0.3,10.6
	c0.7,0,1.3,0,2,0c0.3-0.7,0.7-1.3,1-2c0.2,1.4,0.4,2.9,0.6,4.3c0.1,0.8,0.2,1.6,0.4,2.4c0,2.3,0,2.3-2,5.3c-1.3-0.3-2.6-0.7-4-1
	c-1.1-4.5-1.1-8.8-1.1-13.4c0-0.8,0-1.6,0-2.4c0-2.5,0-5,0-7.5c0-1.7,0-3.4,0-5.1C791.8,891,791.8,886.8,791.8,882.6z"/>
<path d="M143.8,809.6c0.1,0.6,0.2,1.3,0.4,1.9c0.3,1,0.3,1,0.6,2.1c0.7,0.3,1.3,0.7,2,1c-0.6,5-1.6,9.6-3.1,14.4
	c-0.4,1.2-0.7,2.5-1.1,3.7c-0.3,0.9-0.6,1.9-0.8,2.8c-0.7-1-1.3-2-2-3c-0.7,0.7-1.3,1.3-2,2c0.6-5.9,1.8-11.3,3.6-17
	c0.2-0.8,0.5-1.5,0.7-2.3C142.6,813.4,143.2,811.5,143.8,809.6z"/>
<path d="M294,636.8c0.9,0.6,1.9,1.2,2.8,1.8c0,0.7,0,1.3,0,2c-5.8-0.6-11-1.7-16.5-3.6c-0.7-0.2-1.5-0.5-2.2-0.7
	c-1.8-0.6-3.5-1.1-5.3-1.7c0-0.3,0-0.7,0-1C279.9,630,287.5,633.1,294,636.8z"/>
<path d="M350.8,1042.6c1.5,1.1,1.5,1.1,3,3c0.5,3.4,0.5,3.4,0.7,7.2c0.1,1.3,0.1,2.5,0.2,3.9c0.1,1.5,0.1,1.5,0.1,3
	c-0.3,0-0.7,0-1,0c-0.3-2-0.7-4-1-6c0,7.9,0,15.8,0,24c-0.3,0-0.7,0-1,0c-2.7-26.4-2.7-26.4-2-34
	C350.1,1043.3,350.5,1042.9,350.8,1042.6z"/>
<path d="M819.8,846.6c0.7,0.3,1.3,0.7,2,1c-1.4,3.2-2,4-5,6c-2.3,0.3-2.3,0.3-4.9,0.3c-0.9,0-1.7,0-2.6,0.1
	c-2.9-0.4-4.3-1.3-6.5-3.4c0-0.7,0-1.3,0-2c1.3,0,1.3,0,2.7,0.1c1.2,0,2.3,0,3.5,0.1c1.2,0,2.3,0,3.5,0.1
	C815.7,848.6,817.1,848.1,819.8,846.6z"/>
<path d="M276.8,1146.6c1,0.3,2,0.7,3,1c0.4,8.8-0.8,17.3-2,26c-0.3,0-0.7,0-1,0c0-5.6,0-11.2,0-17c-1,3.5-1,3.5-2,7
	c-0.3,0-0.7,0-1,0C274.6,1152.1,274.6,1152.1,276.8,1146.6z"/>
<path d="M192.8,1098.6c0.7,0,1.3,0,2,0c-0.5,7.1-1.4,14-3,21c-0.3,0-0.7,0-1,0c-0.3-1.7-0.7-3.3-1-5c-0.7,0.7-1.3,1.3-2,2
	C188.3,1110,190.1,1104.7,192.8,1098.6z"/>
<path d="M326.8,1074.6c0.7,0.3,1.3,0.7,2,1c0,6.3,0,12.5,0,19c-0.3,0-0.7,0-1,0c-0.3-3.3-0.7-6.6-1-10c-1,6.9-2,13.9-3,21
	c-0.3,0-0.7,0-1,0C323.1,1094.9,323.9,1085,326.8,1074.6z"/>
<path d="M240.8,1074.6c0.9,3.1,1,4.9,0,8c0.7,0,1.3,0,2,0c0.2,5.4-0.5,9.8-2,15c-0.3,0-0.7,0-1,0c-0.3-1.7-0.7-3.3-1-5
	c-0.7,0.3-1.3,0.7-2,1C237.4,1087,238.9,1080.9,240.8,1074.6z"/>
<path d="M140.8,1281.6c0.3,0.7,0.7,1.3,1,2c1.3,0,2.6,0,4,0c-0.6,3.7-1.6,6.9-3.1,10.3c-0.4,0.9-0.7,1.8-1.1,2.7c-0.4,1-0.4,1-0.8,2
	c-0.7,0-1.3,0-2,0c0.1-2.1,0.3-4.2,0.4-6.3c0.1-1.2,0.2-2.3,0.2-3.5C139.7,1286.3,140.1,1284,140.8,1281.6z"/>
<path d="M378.8,1127.6c0.7,0,1.3,0,2,0c0.7,2.1,1.4,4.2,2.1,6.3c0.4,1.2,0.8,2.3,1.2,3.5c0.8,3.1,0.9,4.3-0.2,7.2c-0.3,2-0.7,4-1,6
	c-0.3,0-0.7,0-1,0c-0.5-2.7-1-5.4-1.5-8.1c-0.1-0.8-0.3-1.5-0.4-2.3C379.1,1135.9,378.6,1131.9,378.8,1127.6z"/>
<path d="M769.8,892.6c1.9,0.7,1.9,0.7,4,2c2.5,5.9,2.3,11.2,0,17c-0.3,0-0.7,0-1,0c-0.1-0.6-0.3-1.2-0.4-1.9
	c-0.2-0.8-0.4-1.6-0.5-2.4c-0.2-0.8-0.3-1.6-0.5-2.4c-0.5-2.4-0.5-2.4-1.5-5.3C769.8,897.3,769.8,894.9,769.8,892.6z"/>
<path d="M171.8,637.6c3.2,0.6,4.9,1.5,7.3,3.8c0.5,0.5,1,1,1.6,1.5c1.2,1.7,1.2,1.7,1.2,5.7c-3.5-0.3-5-1-7.8-3.3
	c-2.2-2.8-2.2-2.8-2.5-5.6C171.6,639.1,171.7,638.3,171.8,637.6z"/>
<path d="M790.8,963.6c6.9,0,13.9,0,21,0c0,1,0,2,0,3c-2.2,0.2-4.4,0.4-6.6,0.6c-1.8,0.2-1.8,0.2-3.7,0.4c-3.7,0-6.2-0.5-9.6-2
	C791.5,964.9,791.1,964.3,790.8,963.6z"/>
<path d="M781.8,960.6c0.9,0.1,0.9,0.1,1.8,0.2c4.8,0.5,9.7,1,14.5,1.4c1,0.1,1.9,0.2,2.9,0.3c3,0.2,5.9,0.2,8.9,0.2c0,0.3,0,0.7,0,1
	c-3.9,0.9-7.5,1.1-11.6,1c-4.4-0.1-4.4-0.1-8.6,0.6c-2.9,0.7-5.1-0.5-7.8-1.6C781.8,962.6,781.8,961.6,781.8,960.6z"/>
<path d="M132.8,848.6c0.3,1.3,0.7,2.6,1,4c0.7,0,1.3,0,2,0c0.3-0.7,0.7-1.3,1-2c-0.3,1.9-0.6,3.8-0.9,5.7c-0.2,1.1-0.3,2.1-0.5,3.2
	c-0.5,2.7-1,5.4-1.5,8.1c-0.3,0-0.7,0-1,0c-0.3-2-0.7-4-1-6c-1,1-2,2-3,3C130.1,859.3,131.4,854,132.8,848.6z"/>
<path d="M593.8,888.6c0.3,0,0.7,0,1,0c1.2,5.4,2.3,10.5,2,16c-1,0-2,0-3,0c-0.7-1.4-1.4-2.9-2.1-4.3c-0.4-0.8-0.8-1.6-1.2-2.4
	c-0.7-2.3-0.7-2.3,0.3-5.3c0.7-0.3,1.3-0.7,2-1C593.1,890.6,593.5,889.6,593.8,888.6z"/>
<path d="M163.8,736.6c0.3,0,0.7,0,1,0c0.4,7.5-0.7,13.8-3,21c-0.7,0-1.3,0-2,0c-0.5-6.9,1.1-13.4,3-20
	C163.1,737.3,163.5,736.9,163.8,736.6z"/>
<path d="M846.8,899.6c0.3,0,0.7,0,1,0c0.1,3.9,0,7.2-1,11c-0.1,1.4-0.2,2.7-0.3,4.1c0,0.8-0.1,1.5-0.1,2.3c-0.1,1.2-0.1,1.2-0.1,2.4
	c0,0.8-0.1,1.6-0.1,2.4c-0.1,1.9-0.2,3.9-0.3,5.8c-4.3-6.4-2.3-17.6-1-25C845.5,901.6,846.1,900.6,846.8,899.6z"/>
<path class="st9" d="M628.8,888.6c1.3,1,2.6,2,4,3c-1,5.4-2.2,10.1-5,15c-0.3,0-0.7,0-1,0C626.6,900.3,627.4,894.7,628.8,888.6z"/>
<path d="M613.8,877.6c2,2,2,2,2.2,5.5c0,1.4,0,2.8-0.1,4.1c0,0.7,0,1.4,0,2.1c0,1.7-0.1,3.5-0.1,5.2c-0.3-1.3-0.7-2.6-1-4
	c-1.3,0-2.6,0-4,0c0-4,0-7.9,0-12C611.8,878.3,612.8,877.9,613.8,877.6z"/>
<path d="M213.8,638.6c-0.3,3.3-1,4-3.6,6.3c-0.8,0.6-1.6,1.2-2.4,1.8c0-0.7,0-1.3,0-2c-3,2.5-3,2.5-6,5c-0.7-0.3-1.3-0.7-2-1
	c1.1-1.3,2.2-2.6,3.3-3.9c0.6-0.7,1.2-1.4,1.8-2.2C207.8,639.6,209.7,638.6,213.8,638.6z"/>
<path d="M154.8,777.6c0.3,0,0.7,0,1,0c0.2,5.5-0.3,9.8-2,15c-1,0-2,0-3,0c-0.1-8.6-0.1-8.6,1-12c0.7,0,1.3,0,2,0
	C154.1,779.6,154.5,778.6,154.8,777.6z"/>
<path d="M254.8,1030.6c0.7,0.7,1.3,1.3,2,2c-0.5,3.3-0.5,3.3-1.4,7.1c-0.4,1.9-0.4,1.9-0.9,3.9c-0.2,1-0.5,2-0.7,3
	c-0.7-1.3-1.3-2.6-2-4c-0.7,1.3-1.3,2.6-2,4c-1-2-1-2-0.3-4.5c0.4-1,0.7-1.9,1.1-2.9s0.7-1.9,1.1-2.9
	C252.8,1033.6,252.8,1033.6,254.8,1030.6z"/>
<path d="M158.8,750.6c0.3,0,0.7,0,1,0c0,2.3,0,4.6,0,7c0.7,0,1.3,0,2,0c-0.8,7.6-0.8,7.6-3,11c-0.7,0-1.3,0-2,0
	C156.6,762.3,157.4,756.7,158.8,750.6z"/>
<path d="M828.8,951.6c1,0.3,2,0.7,3,1c0,1,0,2,0,3c-2,1.8-2,1.8-4.5,3.7c-1.3,0.9-1.3,0.9-2.5,1.9c-0.6,0.5-1.3,0.9-2,1.4
	c-0.7-0.3-1.3-0.7-2-1C822.8,957.1,824.6,954.2,828.8,951.6z"/>
<path d="M672.8,704.6c1,0.3,2,0.7,3,1c0,4.6,0,9.2,0,14c-1,0-2,0-3,0C672.8,714.7,672.8,709.7,672.8,704.6z"/>
<path class="st10" d="M896.8,1041.6c0.3,0,0.7,0,1,0c1,4.8,1.3,9.1,1,14c-1.5,1.7-1.5,1.7-3,3
	C894.3,1047.1,894.3,1047.1,896.8,1041.6z"/>
<path class="st11" d="M554.8,892.6c0.3,0,0.7,0,1,0c0.3,2.3,0.3,2.3,0,5c-2.4,1.8-4,3-7,3c-0.3,0.7-0.7,1.3-1,2
	c-0.3-2.3-0.7-4.6-1-7c2-0.7,4-1.4,6-2c0.7,0.3,1.3,0.7,2,1C554.8,893.9,554.8,893.3,554.8,892.6z"/>
<path class="st12" d="M786.8,1091.6c5.3,0.5,8.6,2.3,13,5c0,0.7,0,1.3,0,2c-5.4-0.4-8.8-1.6-13-5
	C786.8,1092.9,786.8,1092.3,786.8,1091.6z"/>
<path d="M821.8,825.6c1,0.3,2,0.7,3,1c0.6,2.4,0.6,2.4,1,5c-0.7,0.7-1.3,1.3-2,2c-2.6-0.4-2.6-0.4-5-1c-0.2-2.4-0.2-2.4,0-5
	C819.8,826.9,820.8,826.3,821.8,825.6z"/>
<path d="M234.8,655.6c2.3,3.5,2.1,4.2,1.6,8.2c-0.1,0.9-0.2,1.8-0.3,2.7c-0.1,0.7-0.2,1.4-0.3,2.1c-1.3,0.3-2.6,0.7-4,1
	C232.2,664.6,232.6,660.2,234.8,655.6z"/>
<path d="M799.8,826.6c2.1,0.9,2.1,0.9,4,2c-0.3,1.6-0.7,3.3-1,5c-1.9,0.6-1.9,0.6-4,1c-0.7-0.7-1.3-1.3-2-2c0.3-2.6,0.3-2.6,1-5
	C798.5,827.3,799.1,826.9,799.8,826.6z"/>
<path d="M759.8,695.6c1.5,3,1.1,5.7,1.1,9c0,1,0,1,0,2.1c0,2.2,0,4.4,0,6.6c0,1.5,0,3,0,4.5c0,3.6,0,7.3,0,10.9c-0.7,0-1.3,0-2,0
	c-0.3-1-0.7-2-1-3c0.3-0.7,0.7-1.3,1-2c0.1-2,0.1-4,0.1-6.1c0-1.2,0-2.4,0-3.7c0-1.9,0-1.9,0-3.8c0-2.5,0-5-0.1-7.5
	c0-1.1,0-2.2,0-3.4C758.8,696.6,758.8,696.6,759.8,695.6z"/>
<path d="M235.8,631.6c2.4,0.3,2.4,0.3,5,1c1.4,1.9,1.4,1.9,2,4c-0.3,0.7-0.7,1.3-1,2c-4.8-0.8-4.8-0.8-7-3
	C235.2,633.5,235.2,633.5,235.8,631.6z"/>
<path d="M847.8,943.6c2,2,2,2,2.3,4.3c0,0.9,0,1.8,0,2.7s0,1.8,0,2.7c-0.3,2.3-0.3,2.3-2.3,4.3c-0.7,0-1.3,0-2,0
	c0.1-2,0.3-3.9,0.4-5.9c0.1-1.1,0.2-2.2,0.2-3.3C846.8,945.6,846.8,945.6,847.8,943.6z"/>
<path d="M528.8,876.6c1.5,0.3,3,0.6,4.4,0.9c1.2,0.2,1.2,0.2,2.5,0.5c0.7,0.2,1.4,0.4,2.1,0.6c0.3,0.7,0.7,1.3,1,2c-2,2-2,2-4,3
	c-2-0.9-4-1.9-6-3C528.8,879.3,528.8,878,528.8,876.6z"/>
<path d="M162.8,728.6c0.3,0,0.7,0,1,0c0.3,2,0.7,4,1,6c0.7-1.3,1.3-2.6,2-4c-0.3,3.3-0.7,6.6-1,10c-0.7-1-1.3-2-2-3
	c-1.5,6.4-1.5,6.4-3,13c-0.9-3.6-1.1-4.9-0.4-8.3c0.1-0.8,0.3-1.6,0.4-2.4c0.2-0.8,0.3-1.6,0.5-2.5c0.1-0.8,0.3-1.7,0.4-2.5
	C162,732.7,162.4,730.7,162.8,728.6z"/>
<path d="M443.8,1256.6c3.3,3.3,4,6.8,4.1,11.4c0,0.9-0.1,1.7-0.1,2.6c-3-2.5-4.4-5.5-6-9c0-0.7,0-1.3,0-2c0.7,0,1.3,0,2,0
	C443.8,1258.6,443.8,1257.6,443.8,1256.6z"/>
<path d="M386.8,1162.6c0.7,0,1.3,0,2,0c0.5,1.3,1.1,2.5,1.6,3.8c0.3,0.7,0.6,1.4,0.9,2.1c0.6,2,0.6,2-0.4,5c-1.3,0-2.6,0-4,0
	C386.8,1170,386.8,1166.3,386.8,1162.6z"/>
<path d="M818.8,862.6c0,0.7,0,1.3,0,2c1.3,0.3,2.6,0.7,4,1c-0.3,0.7-0.7,1.3-1,2c-5.3,0-10.6,0-16,0c0-0.3,0-0.7,0-1
	c3.6,0,7.3,0,11,0c0-0.7,0-1.3,0-2c-3.3,0-6.6,0-10,0c0-0.3,0-0.7,0-1c1.6-0.2,3.2-0.3,4.9-0.5c0.9-0.1,1.8-0.2,2.7-0.3
	C816.8,862.6,816.8,862.6,818.8,862.6z"/>
<path d="M288.8,699.6c2,1,2,1,2.9,3.3c0.3,0.9,0.5,1.8,0.8,2.8c0.3,0.9,0.5,1.8,0.8,2.8c0.2,0.7,0.4,1.4,0.6,2.2
	c-0.7-0.3-1.3-0.7-2-1c-1,1.5-1,1.5-2,3c-0.4-2-0.7-4-1.1-5.9c-0.2-1.1-0.4-2.2-0.6-3.3c-0.1-0.9-0.2-1.8-0.3-2.7
	C288.1,700.3,288.5,699.9,288.8,699.6z"/>
<path d="M438.8,1248.6c4.9,4.2,4.9,4.2,5.3,8.3c-0.1,0.9-0.2,1.8-0.3,2.7c-3-1-3-1-4.2-3.3C438.8,1253.6,438.6,1251.4,438.8,1248.6z
	"/>
<path d="M386.8,1153.6c2.4,3.8,2.6,7.6,3,12c-0.3-1-0.7-2-1-3c-0.7,0-1.3,0-2,0c0,2,0,4,0,6c-1.9-2.8-2-4.1-1.7-7.5
	C385.6,1158.6,386.1,1156.1,386.8,1153.6z"/>
<path class="st13" d="M853.8,1088.6c0.3,1,0.7,2,1,3c-3.6,3.3-6.1,4.5-11,5C846.9,1093.3,849.8,1090.8,853.8,1088.6z"/>
<path d="M596.8,900.6c2.7,2.7,2.8,4.9,3.6,8.6c0.3,1.2,0.5,2.4,0.8,3.6c0.3,1.4,0.3,1.4,0.6,2.8c-2.8-2.7-4.9-5.6-7-9
	c0-0.7,0-1.3,0-2c0.7,0,1.3,0,2,0C596.8,903.3,596.8,902,596.8,900.6z"/>
<path class="st14" d="M275.8,865.6c4,0,7.9,0,12,0c0.3,1,0.7,2,1,3c-4,0-7.9,0-12,0C276.5,867.6,276.1,866.6,275.8,865.6z"/>
<path d="M594.4,818.5c1.1,0,2.3,0,3.4,0.1c0,1,0,2,0,3c-3,0.7-5.9,1.3-9,2C590,818.6,590,818.6,594.4,818.5z"/>
<path d="M851.8,965.6c6.8,0.8,6.8,0.8,9,3c-0.7,0-1.3,0-2,0c0.3,1,0.7,2,1,3c-3-1-5.9-2-9-3C851.1,967.6,851.5,966.6,851.8,965.6z"
	/>
<path d="M115.8,847.6c-0.5,3.8-1.5,6.1-4,9c-1-0.3-2-0.7-3-1C111.6,847.6,111.6,847.6,115.8,847.6z"/>
<path d="M134.8,841.6c0.3,1,0.7,2,1,3c0.7,0,1.3,0,2,0c0.3-0.7,0.7-1.3,1-2c-0.8,6.6-0.8,6.6-3,10c-0.7,0-1.3,0-2,0
	C133.7,845,133.7,845,134.8,841.6z"/>
<path d="M832.8,966.6c1.7,0.3,3.3,0.7,5,1c-0.3,1.3-0.7,2.6-1,4c-1.7,0.3-3.3,0.7-5,1c-0.3-1-0.7-2-1-3
	C831.5,968.6,832.1,967.6,832.8,966.6z"/>
<path d="M614.8,914.6c0.7,0.7,1.3,1.3,2,2c0.7-0.3,1.3-0.7,2-1c0,1.3,0,2.6,0,4c-0.7,0-1.3,0-2,0c-0.3,1.6-0.7,3.3-1,5
	c-1,0.3-2,0.7-3,1C612.6,918,612.6,918,614.8,914.6z"/>
<path d="M592.8,823.6c2.5,0.5,2.5,0.5,5,1c0,1.6,0,3.3,0,5c-1.9,0.6-1.9,0.6-4,1c-1-1-1-1-1.1-4.1
	C592.8,825.6,592.8,824.6,592.8,823.6z"/>
<path d="M612.8,815.6c2.3,0.3,4.7,0.6,7,1c0.3,1,0.7,2,1,3c-3,0-5.9,0-9,0C611.8,816.6,611.8,816.6,612.8,815.6z"/>
<path d="M147.8,803.6c0.3,0,0.7,0,1,0c0.1,7.4,0.1,7.4-1,11c-1.3,0.3-2.6,0.7-4,1c0.3-1.4,0.6-2.9,0.9-4.3c0.2-0.8,0.3-1.6,0.5-2.4
	C145.8,806.6,145.8,806.6,147.8,803.6z"/>
<path d="M613.8,856.6c0,0.7,0,1.3,0,2c1,0.7,2,1.3,3,2c-3.6,1.2-6.4,1.1-10.2,1.1c-1.3,0-2.5,0-3.9,0c-1.5,0-1.5,0-3,0
	c0-0.3,0-0.7,0-1c4,0,7.9,0,12,0c0-0.7,0-1.3,0-2c-2.3,0-4.6,0-7,0c0-0.3,0-0.7,0-1C611.6,856.6,611.6,856.6,613.8,856.6z"/>
<path d="M866.8,937.6c0,0.7,0,1.3,0,2c-3.3,0-6.6,0-10,0c0.3-1,0.7-2,1-3C861.6,935.3,863.2,936.2,866.8,937.6z"/>
<path class="st15" d="M628.8,872.6c2.7,3.6,3.8,5.8,5,10c-1.7,0.3-3.3,0.7-5,1C628.8,880,628.8,876.3,628.8,872.6z"/>
<path d="M131.8,860.6c0.3,0,0.7,0,1,0c0,3.3,0,6.6,0,10c-1.3-0.3-2.6-0.7-4-1c-0.3-3.1-0.2-4.6,1.4-7.3
	C130.8,861.7,131.3,861.2,131.8,860.6z"/>
<path d="M842.8,942.6c-0.5,3.8-2.2,5.5-5,8c-0.3,0-0.7,0-1,0c-0.4-4.5-0.4-4.5,1.3-6.8C839.8,942.6,839.8,942.6,842.8,942.6z"/>
<path d="M866.8,937.6c0.7,0.3,1.3,0.7,2,1c-0.3,1-0.7,2-1,3c-3.3,0.3-6.6,0.7-10,1c-0.7-1.3-1.3-2.6-2-4c3.6,0.3,7.3,0.7,11,1
	C866.8,938.9,866.8,938.3,866.8,937.6z"/>
<path d="M794.8,899.6c0.3,0,0.7,0,1,0c0.3,5,0.7,9.9,1,15c-1,0.3-2,0.7-3,1c0-1.7,0-3.5-0.1-5.2c0-1,0-1.9,0-2.9
	C793.8,904.7,794.2,902.3,794.8,899.6z"/>
<path d="M835.8,866.6c0.7,0.3,1.3,0.7,2,1c-0.3,0.3-0.7,0.7-1,1c1,0.7,2,1.3,3,2c-3.6,1.3-6.1,2-10,2c1-2.5,1.7-3.8,4-5.3
	C834.5,867.1,835.1,866.8,835.8,866.6z"/>
<path d="M111.8,839.6c1,0.3,2,0.7,3,1c-1.3,2.3-2.6,4.6-4,7c-1,0-2,0-3,0C108.4,844.2,109.6,842.2,111.8,839.6z"/>
<path d="M216.8,830.6c0.7,0.3,1.3,0.7,2,1c-3.6,3.6-7.3,7.3-11,11c0-4.2,2.2-6.1,5-9C215.1,831.7,215.1,831.7,216.8,830.6z"/>
<path d="M614.8,821.6c1.3,0.7,2.6,1.3,4,2c-0.3,1.3-0.7,2.6-1,4c-1.7-0.3-3.3-0.7-5-1C613.7,822.7,613.7,822.7,614.8,821.6z"/>
<path d="M147.8,795.6c0.9,3,1,3.9,0,7c0.7,0,1.3,0,2,0c0.3-0.7,0.7-1.3,1-2c-0.3,2.3-0.7,4.6-1,7c-0.7-1-1.3-2-2-3
	c-0.7,1.6-1.3,3.3-2,5c-1.3-3.5-0.7-5.7,0.4-9.3c0.3-0.9,0.6-1.8,0.9-2.7C147.3,797,147.6,796.3,147.8,795.6z"/>
<path d="M163.8,736.6c0.3,0,0.7,0,1,0c0.2,10.6,0.2,10.6-1,15c-0.3,0-0.7,0-1,0C161.3,741,161.3,741,163.8,736.6z"/>
<path d="M228.8,595.6c2.6,0,5.3,0,8,0c-0.7,0.7-1.3,1.3-2,2c1.7,1,3.3,2,5,3c-1,0.5-1,0.5-2,1c-0.7-0.3-1.3-0.7-2-1
	c-0.3,0.7-0.7,1.3-1,2c-0.6-0.8-1.2-1.6-1.9-2.4C230.9,597.6,230.9,597.6,228.8,595.6z"/>
<path d="M835.8,957.6c3.4,0.6,5.4,1.8,8,4c-1,0.3-2,0.7-3,1c0.3,0.7,0.7,1.3,1,2c-2.5-1.2-4-2-6-4
	C835.8,959.6,835.8,958.6,835.8,957.6z"/>
<path d="M254.8,1030.6c0.7,0.7,1.3,1.3,2,2c-0.2,2.4-0.2,2.4-0.9,5.1c-0.2,0.9-0.4,1.8-0.6,2.8c-0.2,0.7-0.3,1.4-0.5,2.1
	c-0.3,0-0.7,0-1,0c-0.1-0.8-0.3-1.6-0.4-2.4c-0.4-2.6-0.4-2.6-1.6-4.6C253.2,1033,253.2,1033,254.8,1030.6z"/>
<path d="M758.8,929.6c0.7,0,1.3,0,2,0c-0.3,2.3-0.7,4.6-1,7c-1.3,0-2.6,0-4,0C756.8,934.3,757.8,932,758.8,929.6z"/>
<path d="M289.8,635.6c2.9,0.8,2.9,0.8,6,2c0.3,1,0.7,2,1,3c-2.6-0.3-5.3-0.7-8-1C289.1,638.3,289.5,637,289.8,635.6z"/>
<path d="M437.8,1239.6c2.5,3.7,3,6.7,4,11c-0.7-0.3-1.3-0.7-2-1c-0.7,0.7-1.3,1.3-2,2c-0.3-1.7-0.7-3.3-1-5c0.7,0,1.3,0,2,0
	C438.5,1244.3,438.1,1242,437.8,1239.6z"/>
<path d="M854.8,886.6c-0.8,4.8-0.8,4.8-3,7c-0.3-0.7-0.7-1.3-1-2c-1,0.7-2,1.3-3,2C850.2,886.6,850.2,886.6,854.8,886.6z"/>
<path d="M182.8,830.6c1.3,2.6,1.6,5.1,2,8c-0.3,1-0.7,2-1,3c-1-0.3-2-0.7-3-1c0.1-1.5,0.3-3,0.4-4.4c0.1-0.8,0.2-1.6,0.2-2.5
	C181.8,831.6,181.8,831.6,182.8,830.6z"/>
<path d="M240.8,1074.6c1,3.1,1,4.9,0,8c0.7,0,1.3,0,2,0c0,2.3,0,4.6,0,7c-0.3,0-0.7,0-1,0c-0.3-1.7-0.7-3.3-1-5c-1,0.5-1,0.5-2,1
	C239.7,1078,239.7,1078,240.8,1074.6z"/>
<path d="M132.8,848.6c0.3,1.3,0.7,2.6,1,4c0.7,0,1.3,0,2,0c0.3-0.7,0.7-1.3,1-2c-0.3,2.3-0.7,4.6-1,7c-0.7-1-1.3-2-2-3
	c-0.7,1.6-1.3,3.3-2,5C130.2,855.6,131.5,852.6,132.8,848.6z"/>
<path d="M242.8,1075.6c0.7,0.7,1.3,1.3,2,2c-0.4,3.6-0.4,3.6-1,7c-0.3-0.7-0.7-1.3-1-2c-0.7,0-1.3,0-2,0
	C241.7,1076.7,241.7,1076.7,242.8,1075.6z"/>
<path d="M858.8,968.6c3.3,0,6.6,0,10,0c0,0.7,0,1.3,0,2c-2.6,0.7-5.3,1.3-8,2C860.1,971.3,859.5,970,858.8,968.6z"/>
<path class="st16" d="M593.8,891.6c0,3,0,5.9,0,9c-3.1-3.1-3.4-3.9-4-8C592.8,891.6,592.8,891.6,593.8,891.6z"/>
<path d="M830.8,847.6c2.5,1,2.5,1,5,2c-0.7,2.3-1.3,4.6-2,7c-0.3,0-0.7,0-1,0c-0.3-1.6-0.7-3.3-1-5c-1,0.5-1,0.5-2,1
	C830.1,851,830.5,849.3,830.8,847.6z"/>
<path d="M165.8,724.6c0.3,0,0.7,0,1,0c-0.1,1.6-0.2,3.3-0.4,4.9c-0.1,1.4-0.1,1.4-0.2,2.8c-0.1,0.8-0.3,1.5-0.4,2.3
	c-1,0.5-1,0.5-2,1C163.5,728.2,163.5,728.2,165.8,724.6z"/>
<path d="M206.8,640.6c0.7,0.3,1.3,0.7,2,1c-2.3,2.6-4.6,5.3-7,8c-0.7-0.3-1.3-0.7-2-1C202.1,646,204.4,643.3,206.8,640.6z"/>
<path d="M753.8,921.6c0.3,0,0.7,0,1,0c1.4,7.4,1.4,7.4-0.4,10.5c-0.5,0.5-1,1-1.6,1.5C751.3,929.1,752.5,926.1,753.8,921.6z"/>
<path d="M533.8,868.6c0,0.7,0,1.3,0,2c-2.6,1.1-2.6,1.1-5.2,2.1c-2.1,0.9-2.1,0.9-4.8,2.9c0.1-1.8,0.1-1.8,1-4
	C528,869.6,530,868.6,533.8,868.6z"/>
<path d="M234.8,655.6c2.3,3.5,2.1,4.2,1.6,8.2c-0.1,0.9-0.2,1.8-0.3,2.7c-0.1,0.7-0.2,1.4-0.3,2.1c-0.3,0-0.7,0-1,0
	c-0.2-2-0.4-4-0.6-5.9c-0.1-1.1-0.2-2.2-0.3-3.3c0-0.9-0.1-1.8-0.1-2.7C234.1,656.3,234.5,655.9,234.8,655.6z"/>
<path d="M283.8,634.6c2,0,4,0,6,0c0,1.3,0,2.6,0,4c-1.7-0.3-3.3-0.7-5-1C284.5,636.6,284.1,635.6,283.8,634.6z"/>
<path d="M320.8,1162.6c0.3,0,0.7,0,1,0c0,2.3,0,4.6,0,7c-1,0.3-2,0.7-3,1c-0.1-2.9-0.1-2.9,0-6
	C319.5,1163.9,320.1,1163.3,320.8,1162.6z"/>
<path d="M846.8,974.6c1.5,0.3,2.9,0.6,4.4,0.9c0.8,0.2,1.6,0.3,2.5,0.5c2.2,0.6,2.2,0.6,4.2,2.6c-1.7,0.3-3.3,0.7-5,1c0-1,0-2,0-3
	c-2,0-4,0-6,0C846.8,975.9,846.8,975.3,846.8,974.6z"/>
<path d="M143.8,809.6c0.1,0.6,0.2,1.3,0.4,1.9c0.2,0.7,0.4,1.4,0.6,2.1c0.7,0.3,1.3,0.7,2,1c-0.3,2.3-0.7,4.6-1,7c-0.3,0-0.7,0-1,0
	c0-1.6,0-3.3,0-5c-0.7,0-1.3,0-2,0C143.1,814.3,143.5,812,143.8,809.6z"/>
<path d="M155.8,764.6c0.3,1.3,0.7,2.6,1,4c0.7,0,1.3,0,2,0c0.3-0.7,0.7-1.3,1-2c-0.3,2.6-0.7,5.3-1,8c-0.7-1.3-1.3-2.6-2-4
	c-0.7,0.7-1.3,1.3-2,2C155.1,770,155.5,767.3,155.8,764.6z"/>
<path class="st17" d="M565.8,1117.6c1,0.3,2,0.7,3,1c-0.6,0.6-1.3,1.1-1.9,1.7c-2.3,2.5-2.7,4-3.1,7.3c-0.3,0-0.7,0-1,0
	c-0.4-6.5-0.4-6.5,1.5-8.9C564.8,1118.3,565.3,1118,565.8,1117.6z"/>
<path d="M192.8,1098.6c0.7,0,1.3,0,2,0c-0.3,3.6-0.7,7.3-1,11c-0.3,0-0.7,0-1,0c-0.2-1.6-0.4-3.3-0.6-4.9c-0.1-0.9-0.2-1.8-0.3-2.8
	c0-0.8-0.1-1.5-0.1-2.3C192.1,1099.3,192.5,1098.9,192.8,1098.6z"/>
<path d="M781.8,960.6c2,0,4,0,6,0c0,1,0,2,0,3c-2,0-4,0-6,0C781.8,962.6,781.8,961.6,781.8,960.6z"/>
<path class="st10" d="M648.8,934.6c1.7,0,3.3,0,5,0c0.3,1.3,0.7,2.6,1,4c-1.7-0.3-3.3-0.7-5-1C649.5,936.6,649.1,935.6,648.8,934.6z
	"/>
<path d="M141.8,824.6c0.7,0.3,1.3,0.7,2,1c-0.3,2.3-0.7,4.6-1,7c-0.3-0.7-0.7-1.3-1-2c-0.7,0-1.3,0-2,0
	C140.7,825.7,140.7,825.7,141.8,824.6z"/>
<path d="M815.8,961.6c0.7,0.7,1.3,1.3,2,2c-0.7,0.7-1.3,1.3-2,2c-1.3,0-2.6,0-4,0c0-0.7,0-1.3,0-2c-0.7-0.3-1.3-0.7-2-1
	C812.7,962,812.7,962,815.8,961.6z"/>
<path class="st18" d="M628.8,888.6c1.3,1,2.6,2,4,3c-0.3,1.6-0.7,3.3-1,5c-0.7,0-1.3,0-2,0C629.5,894,629.1,891.3,628.8,888.6z"/>
<path d="M826.8,855.6c0,3,0,3-1.3,4.4c-1.6,1.2-3.1,2.4-4.7,3.6c-0.7-0.7-1.3-1.3-2-2C821.4,859.6,824.1,857.6,826.8,855.6z"/>
<path d="M602.8,834.6c2,0.5,2,0.5,4,1c0,1,0,2,0,3c-1.7-0.3-3.3-0.7-5-1C602.1,836.6,602.5,835.6,602.8,834.6z"/>
<path d="M154.8,777.6c0.3,0,0.7,0,1,0c0,2.6,0,5.3,0,8c-1-0.3-2-0.7-3-1C153.7,778.7,153.7,778.7,154.8,777.6z"/>
<path d="M297.8,736.6c0.7,0.3,1.3,0.7,2,1c-1.5,1.5-1.5,1.5-3,3c1,0.7,2,1.3,3,2c-2,0-4,0-6,0c0.3-1.9,0.3-1.9,1-4
	C295.8,737.9,296.8,737.3,297.8,736.6z"/>
<path d="M230.8,667.6c2,0.5,2,0.5,4,1c-0.3,2.3-0.7,4.6-1,7c-0.7-1.3-1.3-2.6-2-4c-1,0.5-1,0.5-2,1
	C230.1,671,230.5,669.3,230.8,667.6z"/>
<path d="M444.8,1262.6c1.5,1,1.5,1,3,2c0.2,3.1,0.2,3.1,0,6c-1.5-1.2-1.5-1.2-3-3C444.6,1264.9,444.6,1264.9,444.8,1262.6z"/>
<path class="st19" d="M841.8,988.6c2.3,0.7,4.6,1.3,7,2c0,0.7,0,1.3,0,2c-1.7,0-3.3,0-5,0C843.1,991.3,842.5,990,841.8,988.6z"/>
<path d="M153.8,772.6c0.3,1.3,0.7,2.6,1,4c0.7,0,1.3,0,2,0c0,2,0,4,0,6c-0.7-1.3-1.3-2.6-2-4c-0.7,0.7-1.3,1.3-2,2
	C153.1,778,153.5,775.3,153.8,772.6z"/>
<path d="M221.8,687.6c1,1.3,2,2.6,3,4c-1.4,1.5-1.4,1.5-3,3c-0.7,0-1.3,0-2,0C220.5,692.3,221.1,690,221.8,687.6z"/>
<path d="M808.8,839.6c2,0.5,2,0.5,4,1c-0.3,1-0.7,2-1,3c-1.3-0.3-2.6-0.7-4-1C808.1,841.6,808.5,840.6,808.8,839.6z"/>
<path d="M478.8,1268.6c0.7,0,1.3,0,2,0c-0.3,0.7-0.7,1.3-1,2C479.5,1269.9,479.1,1269.3,478.8,1268.6z"/>
<path class="st20" d="M379.8,641.6c0.7,0.7,1.3,1.3,2,2c-0.7,0-1.3,0-2,0C379.8,642.9,379.8,642.3,379.8,641.6z"/>
<path class="st21" d="M456,217"/>
<path class="st21" d="M456,217"/>
<path class="st22" d="M456,217"/>
<path class="st22" d="M456,217"/>
<path class="st22" d="M456,217"/>
<path class="st22" d="M456,217"/>
<path class="st22" d="M456,217"/>
</svg>
