<?xml version="1.0" encoding="utf-8"?>
<!-- Generator: Adobe Illustrator 19.0.0, SVG Export Plug-In . SVG Version: 6.00 Build 0)  -->
<svg version="1.1" id="Vrstva_1" xmlns="http://www.w3.org/2000/svg" xmlns:xlink="http://www.w3.org/1999/xlink" x="0px" y="0px"
	 viewBox="230 -116 1071 1024" style="enable-background:new 230 -116 1071 1024;" xml:space="preserve">
<style type="text/css">
	.st0{fill:#8C8B8B;}
	.st1{fill:#3B3B3B;}
	.st2{fill:#3D3D3D;}
	.st3{fill:#404040;}
	.st4{stroke:#FFFFFF;stroke-miterlimit:10;}
	.st5{fill:#393939;}
	.st6{fill:#3C3C3C;}
	.st7{fill:#313131;}
	.st8{fill:#090909;}
	.st9{fill:#444444;}
	.st10{fill:#040404;}
	.st11{fill:#636363;}
	.st12{fill:#232323;}
	.st13{fill:#1A1A1A;}
	.st14{fill:#030303;}
	.st15{fill:#BEBEBE;}
	.st16{fill:#CDCDCD;}
	.st17{fill:#585858;}
	.st18{fill:#A1A1A1;}
	.st19{fill:#6E6E6E;}
	.st20{fill:#878787;}
	.st21{fill:#9E9E9E;}
	.st22{fill:#848484;}
</style>
<path d="M461,65.7c6.9,5.4,9.5,12.5,11.9,20.6c0.7,0.1,1.3,0.2,2,0.3c30.1,4.7,51,15.9,72.2,37.9c5,5.1,9.9,9.8,15.8,13.8
	c-0.7,3.3-1.5,4.8-4,7c2.2,4.5,4.3,5.9,8.9,7.8c5.8,2.7,8.5,5.4,11.1,11.2c0.3,0.7,0.7,1.3,1,2c0.5,7.3,0.6,13.5-3,20
	c0.5,0.3,1,0.7,1.5,1c0.9,0.7,0.9,0.7,1.9,1.3c0.6,0.4,1.3,0.9,1.9,1.3c2.6,2.1,3.6,3.9,4.2,7.1c-0.5,3.9-1.9,5.7-4.3,8.6
	c-1.4,1.7-1.4,1.7-1.1,4.6c2.6,0.3,5.3,0.7,8,1c-1.8,3.9-1.8,3.9-4,5c-4.4,0.5-6.3,0.5-10-2.1c-2-2.9-2-2.9-2.1-5.8
	c1.2-3.5,3-6.1,5.1-9.1c0.3-1.3,0.7-2.6,1-4c-3-0.3-5.9-0.7-9-1c-0.1,1-0.1,1-0.3,2c-3.5,22.5-8.8,42.6-22.7,61
	c-0.6,0.8-1.2,1.6-1.8,2.5c-5.4,6.7-12.3,11.5-20.2,14.7c-3.3,1.3-3.3,1.3-5.2,4.3c0.3,3.4,1.5,5.7,3.3,8.6c2.5,1.2,4,1.1,6.8,1
	c1,0,1.9,0,2.9,0s2.1,0,3.1,0c26.5-0.1,41.3,10.7,60.1,28.1c2.6,2.4,5.3,4.7,8,7c0.9,0.7,1.7,1.5,2.6,2.2c1.3,1.1,1.3,1.1,2.7,2.3
	c0.8,0.7,1.6,1.4,2.5,2.1c2.1,1.6,2.1,1.6,4.3,1.3c6.8-2.9,10.2-15.4,12.9-21.7c0.4-1,0.9-2,1.3-3c2.5-5.7,4.8-11.5,7-17.3
	c4.9-12.7,11-23.2,20.8-32.8c1.2-1,1.2-1,1.1-3.1c0-1,0-1.9,0-2.9c0-1.1,0-2.2,0-3.4c0-1.2,0-2.5,0-3.8c0-2,0-2,0-4
	c-0.1-22.1-0.4-44.2-0.7-66.2c-0.1-5-0.1-10-0.2-15c0-1.9,0-3.8-0.1-5.7c0-2.6-0.1-5.2-0.1-7.8c0-1.2,0-1.2,0-2.3
	c0-3.2,0-5.6,1.1-8.7c3.7-2.9,8.4-2.3,12.9-2.2c1.4,0,1.4,0,2.7,0c3,0,6,0,9.1,0c2.2,0,4.3,0,6.5,0c4.6,0,9.1,0,13.7,0
	c5.6,0,11.2,0,16.7,0c23.5,0,47,0.2,70.4,0.6c30.3,0.6,60.5,0.6,90.7,0.5c8.3,0,16.7,0,25-0.1c2.9,0,5.8,0,8.7,0c0.7,0,1.4,0,2.2,0
	c8,0,16.1,0,24.1,0c1.1,0,1.1,0,2.2,0c12,0,24-0.1,35.9-0.1c12.4,0,24.9-0.1,37.3-0.1c7.6,0,15.2,0,22.8-0.1c5.8,0,11.6,0,17.3,0
	c2.4,0,4.7,0,7.1,0c3.2,0,6.4,0,9.7,0c0.9,0,1.9,0,2.9,0c6.3,0.1,6.3,0.1,9.5,2.3c2,3,2,5.4,2.1,9c0,0.7,0.1,1.3,0.1,2
	c0.1,2.1,0.1,4.1,0.2,6.2c0,1.2,0.1,2.4,0.1,3.7c0.1,3.7,0.2,7.5,0.3,11.2c0.1,2.1,0.1,4.3,0.2,6.4c0,1.5,0.1,3,0.1,4.5
	c2,81.9,8,163.2,17.2,244.6c3.7,32.1,6,64.4,8.3,96.6c1.8,26.1,1.8,26.1,4.3,52.2c0.1,1.1,0.2,2.1,0.3,3.2c0.8,7.1,2,14,3.3,21
	c1.7,9,2.6,17.6,1.8,26.8c-6.1,6.1-31.2,3.2-39.4,3.2c-5,0-9.9,0-14.9-0.1c-4.8,0-9.5-0.1-14.3-0.1c-6,0-12,0-18-0.1
	c-63.2-0.3-126.3,0.2-189.5,2c-0.8,0-1.7,0-2.5,0.1c-9.2,0.3-18.3,0.5-27.5,0.8c-0.8,0-1.6,0-2.4,0.1c-4,0.1-7.9,0.2-11.9,0.3
	c-29.5,0.8-59,1.4-88.6,1.6c-2.3,0-4.6,0-6.8,0.1c-2.6,0-5.3,0-7.9,0c-4.8,0-9.5,0.1-14.3,0.5c-1,0.1-1,0.1-2,0.2
	c-1.9,0.2-3.8,0.4-5.7,0.6c-3.7-0.1-5.4-0.8-8.3-3.1c-1.1-3.3-1.1-5.5-1-8.9c0-1.3,0-2.5,0-3.8c0-0.7,0-1.4,0-2.1
	c0.2-15.5-0.3-30.8-1.1-46.3c-0.1-1.1-0.1-2.1-0.2-3.2c-0.3-5.6-0.6-11.2-0.8-16.8c-0.6-11.9-1.2-23.8-1.7-35.8
	c-0.1-1.8-0.1-1.8-0.2-3.6c-1.1-23.5-1.8-46.9-2.4-70.4c0-0.8,0-1.7-0.1-2.5c-0.4-18.2-0.8-36.4-0.6-54.6c-3.7-0.4-7.3-0.7-11-1
	c-0.8-0.1-1.6-0.1-2.4-0.2c-13.3-0.6-25.8,9.2-36.9,15.5c-2.2,1.3-4.4,2.5-6.7,3.8c-0.7,0.4-1.5,0.8-2.2,1.2
	c-6.4,3.6-13,6.7-19.8,9.6c-4.5,2-7.2,3.4-9.1,8.1c-4.9,18.3-1.7,38.7,5,56c0.4,1,0.7,1.9,1.1,2.9c4.9,12.9,10.1,25.7,15.8,38.4
	c11.8,26.2,22.3,52.8,32.2,79.7c5.2,14,10.5,28,15.9,41.9c0.4,0.9,0.7,1.8,1.1,2.8c2.2,5.8,4.6,11.5,6.9,17.2
	c0.3,0.6,0.5,1.3,0.8,1.9c9.9,24,20.3,47.6,31.2,71.1c0.7,0,1.3,0,2,0c0.2,0.7,0.4,1.4,0.6,2.1c4,13.3,11.6,24.1,20.1,35
	c2.1,2.6,4.1,5.3,6,8c0.5,0.7,1,1.3,1.4,2c1.1,2.4,0.7,3.5-0.1,5.9c-8.8-2.1-14.3-12.9-19.5-19.7c-1.5-2-3.1-4-4.7-5.9
	c-21.1-25.8-32-63.2-43.8-94c-10.8-28.1-21.9-56-34-83.6c-3-6.9-5.8-13.8-8-21c-4.9-15.3-10.5-30-17-44.7c-0.4-0.9-0.8-1.8-1.2-2.7
	c-1.5-3.5-3.1-6.9-4.6-10.4c-3-6.6-5.8-13.3-8.5-20.1c-0.3-0.8-0.7-1.6-1-2.4c-5.6-14.5-7.2-27.6-6.9-43c0-1.7,0-3.4,0.1-5.1
	c0-4.1,0.1-8.2,0.2-12.4c-0.7,0.2-1.3,0.5-2,0.7c-3.1,1-6.2,2.1-9.3,3.1c-1.1,0.4-2.1,0.7-3.2,1.1c-24.8,8.3-24.8,8.3-36.8,2.5
	c-0.9-0.4-1.7-0.9-2.6-1.3c-1.2-0.6-2.3-1.1-3.5-1.7c-20.4-9.9-38.1-21.6-54.5-37.3c-0.8-0.7-1.6-1.5-2.4-2.3
	c-3.8-3.7-7-7.2-9.6-11.7c0-0.7,0-1.3,0-2c4.5,0.5,6.6,2,9.9,5.1c0.9,0.8,1.8,1.6,2.7,2.5c1.9,1.9,3.8,3.8,5.7,5.8
	c13.5,13.6,30.2,22.7,47.3,30.9c1.8,0.9,3.6,1.8,5.5,2.7c11.8,5.5,19.4,4.8,31.6,1c1.6-0.5,1.6-0.5,3.2-1c3.1-0.9,6.1-1.9,9.2-2.9
	c0.7-0.2,1.4-0.5,2.2-0.7c20.4-6.6,40.2-17.4,58.7-28.1c4-2.3,8-4.5,11.9-6.7c0.7-0.4,1.5-0.8,2.3-1.3c2-1.1,3.9-2.2,5.9-3.2
	c0.8-0.4,1.6-0.9,2.4-1.3c4-1,7.6-0.3,11.6,0.3c0.8,0.1,1.5,0.2,2.3,0.3c2.3,0.3,4.6,0.7,6.9,1c0.8,0.1,1.5,0.2,2.3,0.3
	c5.1,0.8,8.4,2.2,12.5,5.4c-0.4-0.5-0.9-0.9-1.3-1.4c-0.6-0.6-1.1-1.2-1.7-1.9c-0.9-0.9-0.9-0.9-1.7-1.8c-1.2-1.9-1.2-1.9-0.9-4.2
	c0.2-0.6,0.5-1.2,0.7-1.8c3.6-0.4,4.7-0.2,7.6,2.1c0.8,0.6,1.6,1.3,2.4,1.9c1-0.3,2-0.7,3-1c-2.1-2.7-4.2-5.2-6.7-7.6
	c-2.5-3-2.5-3-3.5-6c0.3-0.7,0.7-1.3,1-2c4.8,0.3,7.1,2.6,10.4,5.8c0.5,0.4,1.1,0.8,1.6,1.2c1-0.3,2-0.7,3-1c-0.3-3-0.9-3.9-3.2-5.9
	c-0.9-0.6-1.8-1.2-2.7-1.8c-4.9-3.3-4.9-3.3-7.1-5.4c0.1-2,0.1-2,1-4c1.7-1,1.7-1,3.9-1.6c0.8-0.2,1.6-0.5,2.5-0.7
	c4.3-1.1,8.7-2,13.1-2.8c1.8-0.3,3.5-0.7,5.3-1c1.2-0.2,1.2-0.2,2.3-0.4c2-0.4,2-0.4,3.9-1.4c-7.3-0.2-14.4,0.4-21.7,1.3
	c-1.1,0.1-2.1,0.3-3.2,0.4c-3,0.4-6.1,0.8-9.1,1.3c-0.8,0.1-1.5,0.2-2.3,0.3c-9.5,1.4-17.5,4.5-26.2,8.5
	c-11.1,5.1-22.2,9.7-33.8,13.7c-1,0.4-1,0.4-2.1,0.7c-18.4,6.5-37.1,12.3-55.8,18.2c-3.2,1-6.4,2-9.6,3.1c-0.7,0.2-1.5,0.5-2.2,0.7
	c-2,0.6-3.9,1.3-5.9,2c-4.3,1-6.8,0.5-10.7-1.5c-22.5-14.6-39.4-32.7-55.6-54c-0.7-0.9-1.4-1.8-2.1-2.8c-1.4-1.8-2.7-3.6-4.1-5.5
	c-6.8-10.4-6.8-10.4-16.6-16.7c-6-0.2-10.9,2.9-15.9,5.9c-7.2,7.6-8.4,16.3-8.3,26.4c0.2,7.8,2.8,14.5,5.9,21.5
	c0.4,0.9,0.8,1.8,1.2,2.8c5,11.5,11,22.6,16.9,33.7c1.5,2.8,2.9,5.5,4.4,8.3c0.4,0.8,0.9,1.6,1.3,2.5c3.8,7.4,6.6,15,4.2,23.3
	c-0.2,0.7-0.5,1.3-0.7,2s-0.5,1.5-0.7,2.2c-4.1,12.2-10.6,23.1-17.1,34.1c-15.9,27-28.6,54.8-38.3,84.6c-0.3,0.9-0.6,1.8-0.9,2.8
	c-7.6,23.3-13.7,47.1-19.5,70.9c-31.7,130.9-31.7,130.9-50.5,152.3c-2.7,0.3-2.7,0.3-5,0c-1.8-5.2,0.2-8.7,2.3-13.4
	c0.8-1.8,1.5-3.6,2.3-5.4c0.4-1,0.8-2,1.2-3c6.8-16.9,12.7-34.2,18.5-51.5c0.2-0.7,0.5-1.4,0.7-2.1c7-20.8,12.8-42,18.4-63.3
	c0.6-2.1,1.1-4.3,1.7-6.4c2.5-9.6,5-19.1,7.4-28.7c10.9-43.4,24.5-86.4,45.5-126.1c1.1-2.2,2.3-4.4,3.4-6.6
	c3.9-7.5,7.9-14.9,12.4-22c3.1-5.1,5.7-10.2,7.8-15.8c0.3-0.6,0.5-1.3,0.8-1.9c3-8.2,2-15.7-1.3-23.6c-4.4-9.3-4.4-9.3-11-17
	c-8.4-2.8-15-0.4-22.8,2.8c-8.6,3.2-16.7,2.6-25.2-0.8c-3.1-1.8-6.1-3.8-9-5.9c-4-2.8-7-4.1-12-4.1c-2.7,0.9-5.2,1.8-7.8,2.9
	c-7.9,3.2-15.1,5.1-23.4,1.6c-8.1-4.7-13.8-12.4-19-20.1c-5.2-6.7-12.2-9.8-20.3-11.4c-0.8-0.2-1.6-0.3-2.4-0.5
	c-1.6-0.3-3.2-0.6-4.8-0.8c-4.2-0.8-6.6-1.5-9.4-4.9c-1-1.4-1-1.4-2-2.9c1.4-3,2.9-5.2,5.1-7.6c4.3-4.9,8.2-10.1,11.9-15.4
	c0.5-0.7,1-1.5,1.5-2.2c26-37.8,45.8-78.4,59.2-122.2c1.6-5.4,3.3-10.7,5-16.1c0.8-2.6,1.6-5.3,2.4-7.9
	c5.5-17.8,13.1-33.7,25.9-47.6c-2.3-2.3-4.5-4.3-7.1-6.3c-4.2-3.8-5.6-7.4-6.4-12.9c1.2-10.7,5.9-17.4,13.4-24.8
	c0.7-0.7,1.3-1.4,2-2.1C407.4,65.5,438.2,50.9,461,65.7z M432.9,66.3c0.6,0.4,1.1,0.9,1.7,1.3c11.2,8.5,11.2,8.5,12.3,14.7
	c0.1,2.7,0.1,5.3,0,8c2-0.3,2-0.3,4-1c2-4,1.4-8.7,1-13c-2.3-4.9-5.2-7.6-10-10C438.9,66,435.9,66.1,432.9,66.3z M448.9,68.3
	c0.4,0.4,0.9,0.9,1.3,1.3c0.6,0.6,1.1,1.1,1.7,1.7c0.5,0.5,1,0.9,1.6,1.4c4.1,4.6,3.7,9.8,3.4,15.6c2.4-0.3,2.4-0.3,5-1
	c2.3-2.8,2.3-2.8,1.9-5.8c-1.4-5.2-3.7-8.3-7.9-11.6C452.9,68,452.9,68,448.9,68.3z M415.7,72.2c-2.2,3.7-2.2,5.7-1.5,9.9
	c1.6,5.5,5,8.9,9.6,12.2c3.5,1.7,7.2,1.5,11,1c4.3-2.2,4.3-2.2,7-6c0.4-4.1,0.4-7.8-0.9-11.8c-4.6-4.9-10.7-7.5-17.4-7.9
	C420.1,69.9,418.8,70.3,415.7,72.2z M406.9,77.3c-3.6,4-3.5,8.2-3.4,13.3c0.7,5.1,2.7,8.3,6.7,11.7c3.5,1.4,6,1.5,9.7,1.1
	c1.7-1.5,1.7-1.5,3-3c-1.1-0.7-2.1-1.4-3.3-2.1c-7.4-5.4-8.9-12.2-10.8-20.9C408.2,77.3,407.6,77.3,406.9,77.3z M397.9,84.3
	c-3,5-2.5,10.4-2,16c1.6,4.8,3.8,7.3,8,10c2.7,0.8,2.7,0.8,5,1c0.7-1,1.3-2,2-3c-0.5-0.3-0.9-0.7-1.4-1c-5.5-4.4-8.9-8.7-10.1-15.7
	c-0.3-2.4-0.4-4.8-0.5-7.3C398.6,84.3,398.2,84.3,397.9,84.3z M387.9,92.3c-4.3,4.9-6.4,10.5-6,17c1.5,5.2,3.5,8,8,11
	c3.2,1.6,6.5,1.4,10,1c2-1.3,2-1.3,3-3c-1.1-2.8-1.9-4-4.4-5.8c-6.1-5.2-7.4-12.6-8.6-20.3C389.2,92.3,388.6,92.3,387.9,92.3z
	 M410,121.4c-9.5,11.8-13.4,25.2-13.5,40.1c0,0.8,0,1.7,0,2.5c0.1,5.6,0.9,10.8,2.3,16.3c0.3,0,0.7,0,1,0c0-1.2,0.1-2.3,0.1-3.5
	c0.8-22.2,3.5-43.2,18.9-60.5c3.2-2.8,6-4.6,10-6c-1.7,3.3-3.6,5.6-6.3,8.1c-12.7,12.5-17.6,30.1-18,47.5c0.1,5.6,1.1,10.9,2.3,16.4
	c11.6-4.9,21.1-22,25.9-33.2c0.7-1.9,1.4-3.9,2.1-5.8c0.4-1,0.7-1.9,1.1-2.9c2.4-6.6,3.7-13.1,4.5-20.1c0.3-2.4,0.7-4.7,1.4-7
	c0.7,0.3,1.3,0.7,2,1c1.8,22.2-9,44.7-23.1,61.4c-1.2,1.4-2.4,2.7-3.7,4c-1.5,1.5-1.5,1.5-1.3,3.5c-0.9,0.4-0.9,0.4-1.7,0.8
	c-2.6,1.4-4.4,3-6.4,5.1c-0.7,0.7-1.4,1.4-2.1,2.1c-1.8,2.1-2.4,3.3-2.7,6.1c0.3,1,0.7,2,1,3c4.9-1.6,8.6-4.5,12.7-7.6
	c0.7-0.5,1.4-1.1,2.2-1.6c23.4-18,34.5-37.9,39.2-66.8c4.7,0.5,7.9,1.9,12.1,4.3c6,3.2,12,5.1,18.6,6.6c0.8,0.2,1.7,0.4,2.6,0.6
	c11.2,2.5,22.4,2.7,33.8,2.7c2.1,0,4.2,0,6.3,0c1.3,0,2.7,0,4,0c1.2,0,2.4,0,3.7,0c3.2,0,3.2,0,6-2.2c-0.6-0.1-1.2-0.2-1.8-0.3
	c-2-0.3-4-0.7-6.1-1c-3.1-0.5-6.3-1-9.5-1.5c-20.4-3.3-48.6-8-62.4-25.4c-0.6-0.9-0.6-0.9-1.2-1.8c5.6,0.5,9.1,2.7,13.7,5.8
	c17.9,11.5,40.8,19.1,62.3,18.3c-12.7-18.9-33.3-29.2-55-34C456.6,91.4,429.3,100,410,121.4z M461.9,131.3c-0.2,1.1-0.5,2.3-0.7,3.5
	c-5,24.1-14.8,42.6-34.3,58.1c-5,4-7.7,7.4-8.5,13.9c0.6,15.3,8.3,25.9,18.4,36.5c0.5,0.5,1,1.1,1.5,1.7c4.3,4.5,8.9,8.1,14.1,11.5
	c0.8,0.5,1.6,1,2.4,1.6c17.9,11.6,39.8,16.4,60.9,12.2c16.4-4.4,25.9-16.8,34.1-30.9c12-21.3,15.1-45.3,9-69c-4-13.5-4-13.5-12-25
	c-3-0.3-3-0.3-6.6-0.3c-1.4,0-2.7-0.1-4.1-0.1c-0.7,0-1.4,0-2.2,0c-3.7-0.1-7.4-0.2-11-0.3c-0.7,0-1.4,0-2.2-0.1
	c-18.3-0.6-35.9-3.6-52.6-11.2C466.1,132.4,464.1,131.8,461.9,131.3z M388.3,137.3c-13.8,14.3-19.4,38.3-24.9,56.8
	c-14.7,49.3-36.6,93.9-67.1,135.4c-1.7,2.3-3.4,4.7-5.1,7c-0.5,0.7-1.1,1.5-1.6,2.2s-1,1.4-1.5,2.1c-0.7,0.9-0.7,0.9-1.3,1.8
	c-1.2,1.9-1.2,1.9,0.2,4.7c2.1,0.9,2.1,0.9,4.6,1.4c1,0.2,1.9,0.5,2.9,0.7c2,0.5,4,0.9,6,1.4c8.3,2.1,14.9,5,20.5,11.7
	c1,1.2,1,1.2,2,2.3c1.9,2.4,3.8,4.8,5.6,7.2c3.6,4.7,7.4,8.7,13.3,10.2c6.8,0,12.4-2.1,18.5-4.9c4.3-1.9,7.8-2.6,12.5-2.1
	c2.3,1.1,2.3,1.1,4.4,2.6c0.8,0.5,1.5,1.1,2.3,1.6c1.2,0.9,1.2,0.9,2.3,1.7c1.6,1.1,3.2,2.2,4.8,3.3c0.7,0.5,1.4,1,2.1,1.5
	c5.8,3.5,11.1,4.3,17.6,2.7c8.3-2.8,12.7-8.4,17.6-15.4c1.9-6,0.4-11.2-2-16.8c-5.3-12.4-6.1-27.9-1.1-40.6
	c3.8-7.7,9.9-12.6,17.8-15.7c3.9-1.3,7.8-2.2,11.8-3.1c1-0.2,2-0.4,3-0.6c2-0.4,4-0.8,6-1.2c6.7-1.3,6.7-1.3,11.6-5.9
	c1.2-2.4,1.2-4.1,1.3-6.8c0-1.3,0-1.3,0.1-2.6c-0.4-3.4-1.1-4.9-3.3-7.6c-3.1-2.2-6.3-4-9.6-5.9c-9-5.1-17-10.7-24.6-17.8
	c-2.7-2.4-5.3-4.8-8.1-7.1c-2.7-2.3-5.2-4.7-7.7-7.3c-2.4,1.9-2.4,1.9-2.1,5.4c0.7,3.6,0.7,3.6,2.8,4.9c2.1,1,4.2,1.9,6.3,2.8
	c2.7,1.4,4.5,2.4,6.4,4.8c1.2,4.3,0,7.5-2.1,11.3c-1.6,2.7-1.6,2.7-0.8,5c1.5,2.1,1.5,2.1,4.1,3.7c2.4,2.2,2.4,2.2,3.3,5.8
	c0.1,3.4,0.1,3.4-0.9,5.4c-1,0.3-2,0.7-3,1c0.2-1.1,0.3-2.1,0.5-3.2c-0.2-1.3-0.3-2.5-0.5-3.8c-1.8-1.4-1.8-1.4-3.9-2.5
	c-3.9-2.1-3.9-2.1-5.3-5.8c0.3-4.1,1.3-6.4,3.4-9.8c1-1.9,1-1.9,0.6-4c-0.8-2.2-0.8-2.2-3.8-3.9c-1.3,0-2.6,0-4,0
	c-0.1,0.9-0.1,0.9-0.3,1.8c-0.1,0.8-0.3,1.6-0.5,2.4c-0.1,0.8-0.3,1.6-0.4,2.4c-2.4,7.2-8.6,9.9-14.9,13.4c-3.1,2.2-3.9,3.5-4.9,7.1
	c0.6,0.7,1.1,1.4,1.7,2.1c0.7,0.9,1.5,1.8,2.2,2.8c0.7,0.9,1.5,1.8,2.2,2.7c2.8,3.7,3.3,5.7,2.8,10.4c-1.8,3.2-3.8,5.8-6.2,8.5
	c-2.1,2.9-2.5,5-2.8,8.5c-0.7-0.3-1.3-0.7-2-1c0.1-5,0.4-8.7,3.6-12.6c2.1-2.6,2.4-3.2,2.6-6.8c-1.5-4.2-3.6-6.4-6.7-9.7
	c-2.2-2.6-2.7-4.5-2.6-7.9c0.7-3.3,0.7-3.3,2-6c1.7-1,1.7-1,4-2c1.9-0.9,3.7-1.9,5.6-2.8c1-0.5,1.9-1,2.9-1.5c3-2,4.2-3.4,5.6-6.7
	c-0.1-4.8-1.7-7.6-4.6-11.3c-0.7-0.9-1.4-1.9-2.2-2.9c-2.1-2.6-4.3-5.1-6.6-7.6c-5.9-6.6-7.2-11.2-7-20.1c0.3-2.7,0.6-4.4,1.9-6.8
	c3-6.9,0.1-15.1-1.4-22.3c-3.4-15.3-4.3-28.6-0.8-43.9c0.8-3.2,0.8-3.2,0.7-7.1C391.1,134.3,390.3,135.4,388.3,137.3z M664.9,139.3
	c-0.1,2.2-0.1,4.4-0.1,6.7c0,0.7,0,1.4,0,2.1c0,2.3,0,4.7,0,7c0,1.7,0,3.3,0,5c0,3.5,0,7,0,10.5s0,7,0,10.5c-0.1,18.3,0,36.7,0.9,55
	c0.1,1.7,0.2,3.4,0.2,5c0.1,2.3,0.2,4.6,0.3,6.9c0.1,1.3,0.1,2.6,0.2,4c0.3,3.1,0.3,3.1,1.8,5.1c2.9,1.9,6.4,1.6,9.7,1.7
	c7.7,0.3,7.7,0.3,9.9,1.4c0.3,2.3,0.3,2.3,0,5c-2.9,3.6-5.9,5-10.1,6.6c-4.3,1.6-4.3,1.6-7.9,4.4c-1.9,9.9-1.2,20.7-1.2,30.7
	c0,2.9,0,5.8-0.1,8.7c0,1.9,0,3.7,0,5.6c0,0.9,0,1.7,0,2.6c0,2.7,0,2.7,0.4,6.3c3.4,2.3,4.2,2.2,8.2,1.8c1-0.1,2.1-0.2,3.1-0.3
	c1.1-0.1,2.2-0.2,3.3-0.3c7.8-0.7,15.5-1.3,23.3-1.4c2,0,2,0,4,0c3.1,0.3,3.1,0.3,6.1,2.3c0,2.8,0,2.8-1,6c-5.8,3.4-11.5,5.2-18,6.8
	c-0.9,0.2-1.7,0.4-2.6,0.7c-2.1,0.5-4.2,1.1-6.4,1.6c1,1.1,2,2.3,2.9,3.4c0.5,0.6,1.1,1.3,1.7,1.9c0.8,0.9,1.6,1.8,2.4,2.6
	c0.4,4,0.6,6.2-1.8,9.5c-0.7,0.8-1.4,1.6-2.2,2.5c-0.4,1.1-0.8,2.2-1.3,3.4c-2,5.2-6.9,9.2-11.8,11.6c-1.5,0.2-3.1,0.4-4.6,0.6
	c-0.8,0.1-1.6,0.2-2.5,0.3c-0.6,0.1-1.3,0.1-1.9,0.2c-0.6,39.7,1.1,79.4,3.4,119c0.1,1.1,0.1,2.2,0.2,3.3c0.7,11,1.3,22,2,33
	c0.3,5.2,0.7,10.4,1,15.6c0.1,1,0.1,2,0.2,3c1,17.1,1.6,34.1,1.9,51.2c0,0.9,0,1.7,0,2.6c0,1.6,0,3.2,0.1,4.8
	c-0.3,3.5-0.3,3.5,1.2,6.4c3,0.1,5.9,0.1,8.9,0.1c0.9,0,1.9,0,2.9,0c3.2,0,6.4,0,9.6,0c1.1,0,2.3,0,3.5,0
	c39.2-0.1,78.3-0.7,117.4-1.7c11.2-0.3,22.4-0.6,33.6-0.8c1.4,0,2.7-0.1,4.1-0.1c53.2-1.3,106.3-1.9,159.5-2.2
	c36.4-0.2,36.4-0.2,72.7-0.6c2.2,0,4.3-0.1,6.5-0.1c2.9,0,5.8-0.1,8.7-0.2c0.9,0,1.7,0,2.6,0c4.5,0.1,4.5,0.1,8-2.4
	c0.3-6.8-1.1-13.9-2-20.6c-1.8-13.1-3-26.3-4-39.5c-0.2-2.3-0.4-4.6-0.5-6.8c-0.4-4.8-0.8-9.6-1.1-14.4c-1-12.6-2-25.2-3-37.8
	c-0.1-1.3-0.2-2.5-0.3-3.8c-1.7-21.8-3.6-43.6-5.7-65.3c-0.1-1.1-0.1-1.1-0.2-2.2c-1.8-18.3-3.6-36.6-5.5-54.9
	c-6.2-60.4-10.4-120.8-11.4-181.5c-0.1-7.5-0.4-15.1-0.6-22.6c0-1-0.1-2.1-0.1-3.1c-0.2-4.8-0.4-9.6-0.8-14.3
	c-0.1-0.9-0.1-1.8-0.2-2.7c-0.3-2.6-0.3-2.6-2.4-5.3c-2-0.5-2-0.5-4.4-0.4c-0.9,0-1.8,0-2.8,0c-1.5,0-1.5,0-3.1,0
	c-1.1,0-2.2,0-3.3,0c-3.6,0-7.3,0-10.9,0c-2.6,0-5.2,0-7.8,0c-5.6,0-11.3,0-16.9,0c-8.2,0-16.5,0-24.7,0c-13.5,0-26.9-0.1-40.4-0.1
	c-29.2,0-58.5-0.1-87.7-0.2c-5.3,0-10.7,0-16,0c-42.3-0.1-84.5-0.4-126.8-1c-17.4-0.3-34.9-0.3-52.3-0.3c-1.3,0-1.3,0-2.5,0
	C672,136.7,672,136.7,664.9,139.3z M563.9,160.3c0.6,3.5,1.2,6.9,1.9,10.4c0.2,1,0.3,2,0.5,3c0.3,1.4,0.3,1.4,0.5,2.9
	c0.2,0.9,0.3,1.7,0.5,2.6c0.5,2.3,0.5,2.3,2.6,4.2c3.5-4.2,3.5-8.2,3.3-13.4c-0.4-3.3-0.9-5.2-3.3-7.6
	C567.9,161.6,565.9,160.9,563.9,160.3z M399.9,180.3c1,4,1,4,1,4L399.9,180.3z M400,210.7c-2.2,5-1.8,9.8,0.1,14.9
	c2.4,3.7,4.1,6.2,8.5,7.4c0.7,0.1,1.5,0.2,2.3,0.3c0.3-6.1,0.4-10.6-3-16c1-0.7,2-1.3,3-2c-0.3-2.5-0.3-2.5-1-5
	C406.5,208.6,403.1,208.3,400,210.7z M655.9,266.2c-6.2,8-10,17.3-13.9,26.6c-0.5,1.3-1.1,2.5-1.6,3.8c-2.2,5.1-4.4,10.3-6.5,15.4
	c-4.3,10.2-9.5,19.7-15,29.2c-5.1-0.4-7.7-3.1-11.1-6.5c-1.2-1.1-2.3-2.2-3.5-3.3c-0.6-0.5-1.1-1.1-1.7-1.7
	c-3.1-2.9-6.5-5.5-9.8-8.2c-2.7-2.2-5.3-4.5-8-6.8c-17.6-15.5-17.6-15.5-39.9-19.6c-1.6,4.8-0.3,7.3,1.9,11.7
	c6.1,11.8,14.9,19.8,26.3,26.3c9.1,5.4,12.3,12.1,14.9,21.9c0.7,3.2,0.7,3.2,2.9,5.1c5.4-0.3,10.1-1.5,15.3-3.3c1-0.3,1-0.3,2-0.7
	c1.4-0.5,2.8-1,4.2-1.4c2.1-0.7,4.2-1.4,6.3-2.1c18.6-5.7,18.6-5.7,31.5-19c3.1-8.1,5.4-16.2,7.5-24.6c1.3-5.1,2.9-9.5,5.4-14.1
	c1.1-2.3,1.2-4.2,1.1-6.7c-0.1-1.3-0.2-2.6-0.3-4c-3,0.7-5.9,1.3-9,2c1.6-3,3.1-5.1,5.6-7.4c2.9-3.1,3.4-5.6,4.4-9.6
	c1.1-0.2,2.1-0.4,3.2-0.6c1.4-0.3,2.8-0.5,4.2-0.8c0.7-0.1,1.4-0.2,2.1-0.4c1.9-0.3,3.7-0.8,5.5-1.3c0.7-1,1.3-2,2-3
	C668.2,261.7,668.2,261.7,655.9,266.2z M479.9,276.3c-2.2,3.3-2.2,4.5-2.4,8.3c-0.4,5-0.9,8-4.6,11.7c-2.8,1.4-5.7,2.6-8.6,3.6
	c-2.6,1.1-2.6,1.1-3.2,3.7c-0.2,3.4,0.5,4.4,2.5,7.1c0.6,0.8,1.2,1.6,1.8,2.4s1.3,1.7,2,2.5c0.9,1.2,0.9,1.2,1.9,2.5
	c8.1,11.9,8.1,11.9,20.4,17.8c4.2,0.4,8.4,0.6,12.7,0.7c0.8,0,1.6,0,2.4,0c2.5,0,5,0.1,7.5,0.1c0.9,0,1.7,0,2.6,0
	c20.5,0.1,20.5,0.1,39.1-7.4c-1.3-3.5-2.8-6.3-5.1-9.3c-3.8-5.2-6.8-10.7-9.7-16.3c-2-3.8-2-3.8-5.1-6.8c-2.5-0.7-4.9-1.1-7.5-1.5
	c-7.6-1.4-7.6-1.4-10.6-5.1c-1.2-3.1-2.3-6.2-3.2-9.4c-0.5-2.5-0.5-2.5-1.8-3.6c-4.4-0.4-8.8-0.5-13.2-0.7c-2.2-0.1-4.4-0.2-6.6-0.3
	c-1.4-0.1-2.8-0.1-4.2-0.2c-1.9-0.1-1.9-0.1-3.9-0.2C481.9,276.1,480.9,276.2,479.9,276.3z M660.9,316.3c-0.7,2.1-1.3,4.1-2,6.2
	c-0.4,1.1-0.7,2.3-1.1,3.5c-0.8,3-1.1,5.3-0.9,8.3c1.7-0.3,3.3-0.7,5-1c1-3.1,1.2-5.3,1.2-8.5c0-1.4,0-1.4,0-2.9
	C663.1,319.1,663.1,319.1,660.9,316.3z M548.4,337.2c-0.8,0.2-1.6,0.3-2.5,0.5c-3.5,0.8-6.8,1.5-10.2,2.7c-4.5,1.1-8.5,1.2-13.2,1.1
	c-1.3,0-1.3,0-2.6,0c-2.8,0-5.5,0-8.3-0.1c-2.8,0-5.6-0.1-8.4-0.1c-1.7,0-3.5,0-5.2-0.1c-4.2-0.2-4.2-0.2-8.1,1.1
	c4,14.3,22.4,24.1,34,32c0.8,0.6,1.7,1.2,2.5,1.8c2.8,1.8,5.1,3.3,8.5,3.1c7.6-1.7,15.1-3.9,22.6-6.2c2.2-0.7,4.5-1.4,6.7-2
	c1.4-0.4,2.9-0.9,4.3-1.3c0.7-0.2,1.3-0.4,2-0.6c3.8-1.2,7.1-2.5,10.3-4.8c2-3.9,1.3-8.7,1-13c-2.3-6.5-6.2-11.4-12.4-14.4
	C562.6,333.8,555.5,335.6,548.4,337.2z"/>
<path d="M836.9,262.3c2.9,2.1,2.9,2.1,5,5c0.6,0.7,1.2,1.4,1.8,2.1c5.8,7,6,13.1,5.2,21.9c0.6,0.1,1.3,0.3,1.9,0.4
	c2.1,0.6,2.1,0.6,3.3,2.3c1,3,1.1,5.1,0.8,8.3c-1.6,2.8-3.1,5.2-5.5,7.3c-2,2.2-2.6,4.3-3.5,7.1c-1,2.9-1.7,5.2-3.6,7.7
	c-1.7,1.9-1.7,1.9-1.6,5.2c1.6,4.5,3.2,5.8,7.2,8.2c4.3,2,8.8,3.3,13.4,4.5c3.2,0.9,5.4,1.8,7.9,4c2.2,3.8,3.2,7.5,4.1,11.8
	c0.3,1.4,0.3,1.4,0.6,2.8c4.4,20.1,7.2,40.2,9.2,60.7c0.1,1.3,0.1,1.3,0.3,2.6c0.2,2.5,0.5,5,0.7,7.5c0.1,1.1,0.1,1.1,0.2,2.2
	c0.4,4.8,0.7,9.5,0.5,14.2c-0.7,0.7-1.3,1.3-2,2c0.1,2.5,0.3,4.8,0.6,7.3c0.5,4.6,0.8,6.9-1.3,11c-2,2.4-3.8,4.3-6.3,6.2
	c-1,0.8-1,0.8-2,1.6c-0.6,0.3-1.3,0.7-1.9,1c-1-0.3-2-0.7-3-1c-0.3-0.7-0.7-1.3-1-2c0.9,14,1.8,28,2.8,41.9c0.1,2,0.3,4,0.4,6
	c1.5,24.8,1.5,24.8,4.3,49.4c0.2,1.2,0.2,1.2,0.3,2.4c0.4,2.7,0.9,4.9,2.4,7.2c2.4,1.6,4.9,2.2,7.6,3c5,1.6,8.2,2.7,11.1,7.1
	c0.6,3.1,0.6,3.1,0,6c-4.3,3.6-8.9,3.6-14.3,3.9c-0.8,0.1-1.6,0.1-2.4,0.2c-6.7,0.3-12.3-1.1-18.3-4.1c-1.6,0-3.2,0-4.8,0.1
	c-3.8,0-6.8,0-10.2-2.1c-2.6-3.4-2-6.9-2-11c-0.3-0.6-0.6-1.3-1-1.9c-1.2-2.3-1.3-3.9-1.3-6.5c0-0.9,0-1.8-0.1-2.7c0-1,0-2,0-3
	c-0.5-15.7-2.4-31.2-4.3-46.8c-0.4-3.1-0.7-6.2-1.1-9.3c-0.4-3.8-0.9-7.5-1.3-11.3c-0.1-1-0.1-1-0.2-2.1c-1-8.8-2.2-17.6-3.7-26.4
	c-0.4,9.7-0.8,19.4-1.2,29.1c-0.2,4.5-0.4,9-0.5,13.5c-0.2,4.4-0.4,8.7-0.5,13.1c-0.1,1.6-0.1,3.3-0.2,4.9
	c-0.6,13.4-0.8,26.7,0.2,40.1c0.3,4.6,0.1,8.8-0.7,13.4c-0.1,1.1-0.2,2.1-0.3,3.3c-0.7,2.8-0.7,2.8-2.4,4.4
	c-2.7,1.6-4.4,1.7-7.5,1.8c-4.7,0.3-7.9,1.2-11.9,3.6c-6.5,3.3-16.4,3.1-23.3,1.3c-2.1-0.9-4-1.8-5.6-3.4c-0.4-3.3-0.4-3.3,0-7
	c4.2-4,9.2-6.1,14.5-8.4c2.6-1.3,2.6-1.3,3.2-3.3c1.8-11.2,0-23.6-0.4-34.9c-1.2-28.8-1.8-57.6-2.2-86.4c-1-0.3-1.9-0.6-2.9-0.9
	c-3.1-1.1-3.1-1.1-4.5-2.8c-0.8-3.4,0-6.4,0.7-9.8c4.9-23.8,4.9-23.8,2.8-47.6c-0.5,0.4-1.1,0.8-1.6,1.2c-0.7,0.5-1.4,1.1-2.1,1.6
	c-0.7,0.5-1.4,1.1-2.1,1.6c-4,2.8-7.1,4.1-12.1,3.9c-4.2-0.8-6.6-3-9.1-6.4c-2.1-4.5-3.6-9.2-5-14c-0.2-0.8-0.4-1.5-0.7-2.3
	c-6.1-20.7-6.1-20.7-4.4-25.1c0.4-0.5,0.7-1,1.1-1.6c-1.3-0.7-1.3-0.7-2.6-1.4c-1.1-0.6-2.2-1.2-3.3-1.9c-1.1-0.6-2.2-1.2-3.3-1.9
	c-3-1.6-3-1.6-5-4.6c0.1-2,0.1-2,1-4c2.6-1.8,2.6-1.8,5-3c-0.5-0.7-1-1.4-1.6-2.2c-1.7-3.2-1.5-4.4-0.4-7.8c3.5-0.5,3.5-0.5,7-1
	c0.3-1.6,0.7-3.3,1-5c1.5-0.5,1.5-0.5,3-1c3.9,2.2,7,4.7,10,8c1.1-1.3,1.1-1.3,2.2-2.6c0.9-0.8,1.9-1.6,2.8-2.4c2.7,0.3,2.7,0.3,5,1
	c0,0.7,0,1.4-0.1,2.1c-0.1,3.2-0.1,6.5-0.2,9.7c0,1.1-0.1,2.2-0.1,3.3c-0.1,7.7,1.2,13.8,4.4,20.9c0.2-0.8,0.5-1.6,0.7-2.4
	c0.3-1.1,0.7-2.1,1-3.2c0.3-1,0.6-2.1,0.9-3.2c2.7-6.4,6-9.5,12.2-12c0.7-0.3,1.4-0.5,2.1-0.8c4.9-1.9,9.1-3.7,13-7.4
	c0.9-2.6,0.9-2.6,1-5c-0.6-0.2-1.1-0.5-1.7-0.7c-4.7-2.7-7.9-6.6-10.3-11.3c0-0.7,0-1.3,0-2c-0.7-0.2-1.5-0.5-2.3-0.7
	c-3.4-1.6-4.8-3.1-6.8-6.3c-0.4-3.6-0.4-3.6,0-7c0.5-0.7,1-1.3,1.6-2c1.8-2.1,1.8-2.1,1.3-5.5c-0.7-2.9-1.2-5-2.8-7.5
	c-0.7-0.3-1.3-0.7-2-1c0.9-7.9,7.9-15.4,13.6-20.6C810.3,256.4,824.5,257.9,836.9,262.3z M810.9,269.3c-0.3,0.7-0.7,1.3-1,2
	c1.3-0.7,2.6-1.3,4-2C812.9,269.3,811.9,269.3,810.9,269.3z M813.9,270.3c-0.3,1.3-0.7,2.6-1,4c1.3-1.3,2.6-2.6,4-4
	C815.9,270.3,814.9,270.3,813.9,270.3z M833.9,270.3c1,2,1,2,1,2L833.9,270.3z M823.7,280.2c-8.3,3.8-8.3,3.8-13.1,2.4
	c-4.1-0.5-7.2,1.6-10.6,3.7c-2.4,2.4-1.3,9.1-1.3,12.5c0.1,9.2,2.3,17.3,8.3,24.5c5.5,4.3,10.9,6.5,17.9,6.3c5.3-0.8,9.1-3.4,12.9-7
	c5.4-8.2,6.3-16.6,5.2-26.3c-1.3-5.5-3.1-10.7-5-16c-2.3,0-4.6,0-7,0c-0.3-0.7-0.7-1.3-1-2C827.4,278.3,825.9,279.1,823.7,280.2z
	 M847.9,297.3c-0.3,2.3-0.7,4.6-1,7c1.6-1.2,1.6-1.2,3-3c0-1.3,0-2.6,0-4C849.2,297.3,848.6,297.3,847.9,297.3z M792.9,303.3
	c0.3,2.5,0.3,2.5,1,5c0.7,0.3,1.3,0.7,2,1c-0.3-2-0.7-4-1-6C794.2,303.3,793.6,303.3,792.9,303.3z M756.9,332.3c0.5,1,0.9,2,1.4,3
	c0.8,2.6,0.8,3.7-0.4,6.2c-1.5,2.2-3,4-5,5.8c-3.4,0.5-3.4,0.5-6,0c1.3,1,2.7,2,4,3c0.6,0.4,1.2,0.9,1.8,1.3
	c3.3,2.3,5.4,3.6,9.4,3.8c3.8-1.6,4.9-3.6,6.8-7.2c1.6-4.8,1.1-10,1-15c-0.3,0.6-0.6,1.2-0.9,1.9c-1.1,2.2-2.2,3.5-4.1,5.1
	c-0.7,0-1.3,0-2,0c-0.2-0.8-0.5-1.5-0.8-2.3C760.8,335.1,759.6,334,756.9,332.3z M828.9,332.3c-2.4,0.2-4.8,0.4-7.2,0.6
	c-1.9,0.1-1.9,0.1-3.9,0.3c-1,0.1-2,0.1-3,0.2c1.3,3,1.9,3.9,4.8,5.8c3.8,1.4,5.5,1.5,9.3,0.2c2.9-2.3,2.9-2.3,5-5c0-1,0-2,0-3
	C831.7,331.2,831.7,331.2,828.9,332.3z M750.9,336.3c1,1.5,1,1.5,2,3c0.7-0.3,1.3-0.7,2-1C753.6,337.6,752.3,337,750.9,336.3z
	 M835.9,338.3c-1.4,1.6-2.7,3.3-4,5c2.7,2.3,2.7,2.3,6,3c-0.3-2.6-0.7-5.3-1-8C836.6,338.3,836.2,338.3,835.9,338.3z M812.9,340.3
	c0.3,2.3,0.7,4.6,1,7c1.7-0.7,3.3-1.3,5-2c0-1,0-2,0-3C816.1,340,816.1,340,812.9,340.3z M806.9,344.3c-0.5,1.3-1,2.5-1.5,3.8
	c-0.3,0.7-0.6,1.4-0.8,2.1c-0.8,2.2-0.8,2.2-0.7,5c1.3,0.3,2.6,0.7,4,1c0-4,0-7.9,0-12C807.6,344.3,807.2,344.3,806.9,344.3z
	 M817.3,350.8c-0.6,0.5-1.3,0.9-1.9,1.4c-0.5,0.4-1,0.7-1.5,1.1c0.8,9.2,2.6,17.9,5,26.8c0.3,1,0.5,1.9,0.8,2.9
	c1.2,5.1,1.2,5.1,4.2,9.2c-0.3-14.5-0.7-29-1-44C820.3,348.3,819.4,349.3,817.3,350.8z M829.9,349.3c0.7,13.2,1.3,26.4,2,40
	c3-3.9,3-3.9,4.2-8.3c0.2-0.8,0.3-1.6,0.5-2.5s0.3-1.7,0.5-2.6s0.3-1.8,0.5-2.7c1.4-7.4,1.7-14.4,1.3-21.9
	C835.5,349.8,833.7,349.3,829.9,349.3z M826.9,351.3c-0.1,9,0.1,18,0.4,27.1c0,1,0.1,2,0.1,3c0.2,4.7,0.5,9.3,1.4,13.9
	c0.3,0,0.7,0,1,0c-0.1-4.5-0.2-9-0.4-13.5c0-1.5-0.1-3.1-0.1-4.6c-0.2-8.7-0.5-17.3-1.5-25.9C827.6,351.3,827.2,351.3,826.9,351.3z
	 M766.9,357.3c-2.4,0.9-4.7,1.9-7,3c0.3,0.7,0.7,1.3,1,2c2.6-1.3,5.3-2.6,8-4C768.2,358,767.6,357.6,766.9,357.3z M807.9,361.3
	c1,2,1,2,1,2L807.9,361.3z M768.9,364.3c-0.3,0.7-0.7,1.3-1,2c0.7,0,1.3,0,2,0C769.6,365.6,769.2,365,768.9,364.3z M763.9,372.3
	c0,0.7,0,1.3,0,2c3.5-0.5,3.5-0.5,7-1c0-1.3,0-2.6,0-4C767.4,369.3,766.5,370,763.9,372.3z M791.9,373.8c-0.3,0.5-0.7,1-1,1.5
	c0.3,0.7,0.7,1.3,1,2c3,0,5.9,0,9,0c0.3-1.6,0.7-3.3,1-5C796.5,371.8,796.5,371.8,791.9,373.8z M771.9,376.3c0,2.3,0,4.6,0,7
	c1,0,2,0,3,0c-0.3-3-0.3-3-1-6C773.2,377,772.6,376.6,771.9,376.3z M829.9,412.3c0.3,0.7,0.7,1.3,1,2c0.7,0,1.3,0,2,0
	c0-0.7,0-1.3,0-2C831.9,412.3,830.9,412.3,829.9,412.3z M867.9,450.3c-1.4,1.1-1.4,1.1-1.1,4.2c0,1.3,0,2.6,0,3.9s0,2.6,0,3.9
	c0,1,0,2,0,3c2.3-1.9,2.3-1.9,2.1-5.1c-0.1-1.4-0.1-1.4-0.1-2.9c1.3,0,2.6,0,4,0c0.7,3.3,1.3,6.6,2,10c2.3-1.3,2.3-1.3,4-4
	c-0.2-4.2-1.1-8.3-3-12c-1.9-0.5-1.9-0.5-4-0.7c-1.1-0.1-1.1-0.1-2.2-0.3C868.8,450.3,868.8,450.3,867.9,450.3z M873.9,467.3
	c1,2,1,2,1,2L873.9,467.3z M867.9,583.3c-2.2,1.4-2.2,1.4-4,3c1,0.3,2,0.7,3,1c2.2-1.4,2.2-1.4,4-3
	C869.9,584,868.9,583.6,867.9,583.3z M803.9,585.3c-0.3,0.7-0.7,1.3-1,2c1.3,0.3,2.6,0.7,4,1c0.3-0.7,0.7-1.3,1-2
	C806.6,586,805.3,585.6,803.9,585.3z M852.9,586.3c0,1,0,2,0,3c1,0.3,2,0.7,3,1c-0.7-1.3-1.3-2.6-2-4
	C853.6,586.3,853.2,586.3,852.9,586.3z M818.9,588.3c-0.3,0.7-0.7,1.3-1,2c1,0,2,0,3,0c0-0.7,0-1.3,0-2
	C820.2,588.3,819.6,588.3,818.9,588.3z M876.9,593.3c3.6,0,7.3,0,11,0c-1.9-2.4-1.9-2.4-5.5-2.3
	C878.8,590.9,878.8,590.9,876.9,593.3z M786.9,593.3c0,0.3,0,0.7,0,1c3.3,0,6.6,0,10,0C793,591.7,791.4,592.4,786.9,593.3z"/>
<path d="M1049,271.4c4.1,3.4,5.9,7.7,6.9,12.9c0.1,3.9,0,7.7-0.3,11.6c0.3,4.1,1.6,5.4,4.3,8.4c0.1,4.8-0.4,7.7-3.4,11.5
	c-2.6,2.5-2.6,2.5-4.6,2.5c-1,5-1,5-2,10c0.7,0.4,1.3,0.7,2,1.1c6.8,3.9,11.5,6.9,14.3,14.5c2,4,3.6,4.7,7.7,6.3
	c3.6,2,5.5,4.9,7.1,8.6c0.3,0.9,0.5,1.9,0.8,2.8c0.3,1.1,0.7,2.3,1,3.5c0.2,0.7,0.4,1.3,0.6,2c0.7,2.6,1.5,5.1,2.3,7.7
	c3,9.9,5.8,19.7,7.8,29.9c0.2,0.8,0.3,1.6,0.5,2.5c1.9,10.2-0.1,20-2.5,29.9c-0.3,1-0.5,2.1-0.8,3.2c-1.5,5.6-3.1,10.5-6.3,15.4
	c-0.7,1.1-0.7,1.1-1.3,2.1c-0.4,0.5-0.7,1.1-1.1,1.6c-3,4.9-3.6,8.7-3.4,14.3c0,0.8,0,1.6,0,2.4c0.2,8.4,0.9,16.8,1.6,25.2
	c0.1,1.6,0.3,3.2,0.4,4.8c0.4,4.8,0.8,9.5,1.3,14.3c0.1,1.1,0.1,1.1,0.2,2.2c0.4,4.5,0.8,9.1,1.3,13.6c0.2,1.7,0.2,1.7,0.3,3.4
	c0.6,6.1,1.9,11.1,4.2,16.8c0.6,4.5,0.2,8-1.6,12.2c-1,2.4-1.4,4-1.6,6.6c1.6,3,3.8,3.4,7,4.4c4.1,1.4,8,3.2,10.7,6.6
	c0.7,3,0.3,5.2-0.5,8.1c-2,2.8-3.7,3.3-7,4c-3.7,0.3-7.4,0.3-11.1,0.3c-1,0-2,0.1-3,0.1c-6.3,0.1-10.9-0.9-16.7-3.5
	c-2.7-1.1-5.1-1.4-8-1.5c-7.2-0.5-7.2-0.5-10.2-3.4c-0.4-2.3-0.7-4.7-1-7c-1.3-1.7-2.6-3.3-4-5c-0.8-3.1-1.2-5.2-0.5-8.4
	c1.6-8.2,0.3-16.1-1.7-24.1c-2.4-10.1-4-20.1-5.4-30.4c-0.8-5.8-1.8-11.5-3.3-17.1c-4,4-2.3,17.9-2.3,23.5
	c0.1,6.1,1.2,10.9,3.5,16.5c1.1,3.6,1,6.7,0.9,10.5c-0.2,7.8,1.5,13.7,5.1,20.5c2.7,5.8,0.4,12.6-1.1,18.5c-1.3,2.9-2.2,3.9-5,5.4
	c-3,0.6-3,0.6-6.3,1c-3.9,0.5-7.5,1.1-11.1,2.6c-6.8,2.7-13.9,2.6-21.1,2.7c-1.4,0-1.4,0-2.8,0.1c-5.7,0-9.7-0.7-14.7-3.3
	c-0.4-4.8-0.5-7.1,1.9-11.3c3.5-3.7,8.3-5.3,13.1-6.8c0.7,0,1.3,0,2,0c-0.5-0.7-0.9-1.4-1.4-2.1c-2.5-4.5-3.7-8.1-3.5-13.3
	c0.2-8.1-2.4-16.1-4.8-23.7c-0.5-2.8-0.4-5.5-0.3-8.3c0.1-5-0.3-9.6-1.1-14.6c-2-13.2,0.5-26.2,2.7-39.3c2.2-13.8,2.2-13.8-1.6-26.8
	c-1-7.7,0.7-15.5,2-23c-1.2,0-2.4,0.1-3.6,0.1c-8.2,0.3-13.8-3.3-20.2-8c-0.8-0.5-1.5-1.1-2.3-1.6c-8.5-6.1-8.5-6.1-9.7-11.8
	c-2-5.7-6.4-8.5-11.1-12c-3.8-2.9-5-5.1-6.2-9.7c-0.6-1-0.6-1-1.1-1.9c-1.3-3-1-5.8-0.9-9.1c-0.8-0.3-1.5-0.5-2.3-0.8
	c-4.2-1.8-4.2-1.8-5.7-4.2c0.2-4.3,1-6.1,4-9c0.2-0.8,0.3-1.7,0.5-2.6c0.5-2.4,0.5-2.4,3.5-4.4c1,0,2,0,3,0c0.7-1.6,1.3-3.3,2-5
	c4.7-0.8,8.4-1,13,0c0.9,0.1,1.7,0.2,2.6,0.3c3.1,0.9,4.4,2.3,6.4,4.7c0.3,1,0.7,2,1,3c0.8,0.3,1.7,0.7,2.5,1s1.7,0.7,2.5,1
	c0.3,1,0.7,2,1,3c-0.3,0.7-0.7,1.3-1,2c-0.3,2.8-0.6,5.6-0.8,8.4c-0.1,1.2-0.1,1.2-0.2,2.3c-0.4,4.7-0.4,4.7,1.9,8.8
	c2.3,1.6,4.5,2.6,7.2,3.5c3.4-6.5,4.8-12.6,5.8-19.9c0.7-4.9,1.9-8.2,5.2-12.1c2.7-1.7,2.7-1.7,5.6-2.9c1-0.4,1.9-0.8,2.9-1.2
	c2.5-0.9,2.5-0.9,4.5-0.9c0.2-1,0.3-2,0.5-3.1c1.2-4.4,4.1-6.5,7.6-9.3c2.1-1.9,3.1-3,3.9-5.7c-0.9-2.8-0.9-2.8-2.4-5.6
	c-2.6-5.2-2.6-5.2-2.6-7.4c-0.6-0.2-1.2-0.5-1.8-0.8c-2.6-1.5-3.7-2.6-5.2-5.3c-0.4-3.5-0.4-3.5,0-7c0.5-0.6,1-1.2,1.5-1.8
	c2.1-3.1,1.9-5.7,2-9.4c0.4-8.8,1.1-14.9,7.6-21.2C1017.6,261.8,1035.4,263.3,1049,271.4z M1029.9,273.3c-1.3,1.6-2.6,3.3-4,5
	c1,0,2,0,3,0c0.7-0.7,1.3-1.3,2-2C1030.6,275.3,1030.2,274.3,1029.9,273.3z M1009.3,276.8c-0.5,0.5-0.9,1-1.4,1.5
	c0.3,0.7,0.7,1.3,1,2c1.3-1.6,2.6-3.3,4-5C1010.8,275.1,1010.8,275.1,1009.3,276.8z M1015.9,275.3c0,3,0,3,0,3V275.3z M1034.9,275.3
	c-0.7,1.6-1.3,3.3-2,5c2-1.4,2-1.4,4-3c0-0.7,0-1.3,0-2C1036.2,275.3,1035.6,275.3,1034.9,275.3z M1041.9,276.3
	c-0.7,1.3-1.3,2.6-2,4c1.3-1.3,2.6-2.6,4-4C1043.2,276.3,1042.6,276.3,1041.9,276.3z M1045.9,279.3c-0.3,1-0.7,2-1,3
	c1-0.3,2-0.7,3-1C1047.2,280.6,1046.6,280,1045.9,279.3z M1005.9,291.3c-3.1,9.4-2.2,23,1.8,31.9c1.7,3,3.5,4.9,6.2,7.1
	c0.6,0.5,1.2,0.9,1.7,1.4c4.4,3.2,8.2,4.4,13.7,4.1c6-1.3,10.7-5.1,14.4-9.9c6-9.5,6.7-20.5,4.3-31.4c-1.3-3.8-1.3-3.8-4.2-6.3
	c-5.6-1.7-11.3-1.2-16.9-0.4c-3.1,0.4-3.1,0.4-5.1-0.6c-2-0.2-3.9-0.3-5.9-0.3c-1,0-2.1-0.1-3.2-0.1
	C1009.2,287.4,1008.1,288.4,1005.9,291.3z M1053.9,305.3c-2.3,2.7-2.3,2.7-1.6,5.2c0.2,0.6,0.4,1.2,0.6,1.8c2.3-2.7,2.3-2.7,1.6-5.2
	C1054.3,306.5,1054.1,305.9,1053.9,305.3z M998.9,306.3c1,4,1,4,1,4L998.9,306.3z M1034.9,348.2c-1,1.3-2,2.7-3,4.1
	c0.7,0.3,1.3,0.7,2,1c2-0.7,3.9-1.4,5.8-2.3c6.6-2.7,13.2-4.3,20.2-5.8c-0.7-1.6-1.3-3.3-2-5c-0.6,0.2-1.2,0.4-1.8,0.6
	c-0.8,0.3-1.6,0.5-2.4,0.8s-1.6,0.5-2.4,0.8c-2.1,0.7-4.2,1.2-6.4,1.8c2.5-2.7,4.6-4.6,8-6c0-0.7,0-1.3,0-2
	C1044.5,334.8,1039.6,342.3,1034.9,348.2z M1016.9,338.3c0.7,4.8,1.4,7.5,5,11c2.4,1.2,2.4,1.2,5,1c4.5-2.7,7.1-6.7,10-11
	c-2.7-0.9-4.2-1.1-7-1.1c-0.8,0-1.5,0-2.3,0s-1.6,0-2.4,0s-1.6,0-2.4,0C1020.8,338.3,1018.9,338.3,1016.9,338.3z M1008.9,336.3
	c-0.8,1.7-0.8,1.7-1,4c1.4,3.2,1.4,3.2,3,6c-0.9-0.5-1.8-1-2.8-1.6c-3-1.7-3-1.7-5.6-1.1c-0.5,0.2-1.1,0.5-1.6,0.7c0,1,0,2,0,3
	c5.9,2.3,11.9,4.6,18,7c-0.7-1.3-1.3-2.6-2-4c-2.3-4.7-4.7-9.3-7-14C1009.6,336.3,1009.2,336.3,1008.9,336.3z M937.9,352.3
	c-1.2,1.2-1.2,1.2-2.4,2.4c-2.6,2.6-2.6,2.6-4.6,3.6c1.1,2.9,1.8,4.8,4,7c1.7-0.3,3.3-0.6,5-1c2.3,0,4.7,0,7,0c0.7,1.3,1.3,2.6,2,4
	c-1.8,0.1-1.8,0.1-3.7,0.2c-4.5,0.5-6.4,2.3-9.3,5.8c2.6,0.3,5.3,0.7,8,1c0.3,2.8,0.3,2.8,0,6c-2,1.9-2,1.9-4,3c2,0.3,4,0.7,6,1
	c-2,3-2,3-5,5c4,1.1,6.5,1.7,10.4,0c2.6-1.8,4.1-3.2,5.6-6c0.4-6-0.9-11.7-4.1-16.8c-2.2-3.8-2.1-6-1.7-10.3
	c-0.1-0.9-0.1-0.9-0.2-1.9c-1-0.7-2-1.3-3-2c-0.8,0.2-1.6,0.3-2.4,0.5C942.3,354.4,940.8,353.7,937.9,352.3z M1045.9,353.3
	c-1.7,5.4-2.3,10.3-2.2,16c0,1.1,0,1.1,0,2.2c0,2.3,0,4.5,0.1,6.8c0,1.6,0,3.1,0,4.7c0,3.8,0.1,7.6,0.1,11.3c-2,1-2,1-4,2
	c0-13.5,0-27.1,0-41c-1.7,0.3-3.3,0.7-5,1c-7.6,1.1-15.5,2-23,0c0,4.5,0,9-0.1,13.4c0,1.9,0,1.9,0,3.8c0,5.4,0,10.7,0.7,16
	c0.4,3.7,0.4,3.7-0.6,5.7c-1,0-2,0-3,0c-1-4.2-1.1-8.1-1.1-12.3c0-0.7,0-1.4,0-2.1c0-2.2,0-4.4,0.1-6.6c0-2.9,0-5.8,0.1-8.7
	c0-1.3,0-2.6,0-3.9c-0.1-2.7-0.3-4.8-1.1-7.3c-5.9-2.1-9.5-2-15.5-0.2c-3.4,1.7-5.8,3.5-8.5,6.2c-0.8,2.7-1.3,4.8-1.6,7.5
	c-0.2,1.4-0.4,2.8-0.7,4.3c-0.1,0.7-0.2,1.4-0.3,2.1c-1,5.2-2.7,10.1-4.4,15.1c2.1,2.2,3,3,6,4c0.3,1,0.7,2,1,3c-1,0.5-1,0.5-2,1
	c0.7,2.3,1.3,4.6,2,7c-3.3-3.3-6.7-6.7-10-10c-0.6,1.1-1.1,2.2-1.7,3.4c-2.8,5.5-5.5,11.1-8.3,16.6c7,5.2,12.1,8.2,21,7
	c3.1-5.1,3.5-9.2,3.6-14.9c0-1.3,0-1.3,0.1-2.6c0-1.8,0.1-3.6,0.1-5.3c0-2.7,0.1-5.4,0.2-8.1c0-1.7,0.1-3.5,0.1-5.2
	c0-0.8,0-1.6,0.1-2.4c0.1-4.3-0.3-7.4-2.2-11.4c-0.4-2.3-0.7-4.7-1-7c3,2,3,2,3.7,4c1.2,6.4,1.7,12.7,1.9,19.3c0,1,0.1,2,0.1,3.1
	c0.1,2.9,0.2,5.8,0.3,8.7c0,1.3,0.1,2.5,0.1,3.8c0.1,7.1-0.4,14.1-1.1,21.2c-2.4,14.2-2.4,14.2,0.5,27.2c8.7,6.2,23.7,5.5,33.9,4
	c6.5-1.1,12.9-2.8,19.2-4.7c0.6-0.2,1.3-0.4,2-0.6c4.3-1.4,7.8-3.2,11.4-6c1.5-3.4,1.5-3.4,1-7c-2.8-2.8-2.8-2.8-6-5
	c-0.3-1-0.7-2-1-3c0.9,0.5,1.9,1,2.9,1.5c2.8,1.6,2.8,1.6,5.1,1.5c2.2-5.4,2.3-10.2,2.3-15.9c0-0.9,0-1.7,0-2.6
	c0-5.2-0.8-9.4-2.3-14.4c-0.3-3.1-0.3-6.2-0.3-9.3c0-1.3,0-1.3,0-2.6c0.2-9.8,1.5-18.9,7.2-27.1c2.2-1.3,2.2-1.3,4-2
	c-0.4,0.9-0.8,1.8-1.2,2.7c-5.8,13-9.9,27.5-5.3,41.6c0.9,2.6,0.9,2.6,2.6,4.7c0.1,3.2-0.1,6.5-0.3,9.7c-0.1,1.3-0.1,1.3-0.1,2.7
	c-0.2,4.9-0.9,8.9-2.6,13.6c-0.3,2.3-0.5,4.6-0.6,6.9c-0.1,1.2-0.1,2.3-0.2,3.5c0,0.9-0.1,1.7-0.1,2.6c2.2,0.9,4.5,1.7,6.7,2.6
	c0.6,0.2,1.3,0.5,1.9,0.7c3.9,1.4,6.5,2,10.4,0.7c0-2.4,0-2.4-1-5c-2.7-1.7-2.7-1.7-5.9-2.8c-1.1-0.4-2.2-0.8-3.3-1.3
	c-2.6-1-2.6-1-4.8-0.9c0.3-0.7,0.7-1.3,1-2c3.4,0.4,6.4,0.8,9.6,2.1c2.9,1.1,4.4,0.6,7.4-0.1c0.5-2,1-4.1,1.4-6.1
	c0.3-1.1,0.5-2.3,0.8-3.4c4.1-18.6-0.9-35.8-5.7-53.9c-0.5-1.9-1-3.8-1.5-5.7c-2.5-10.1-2.5-10.1-9.5-17.3
	C1061.9,351.3,1053.2,349,1045.9,353.3z M955.9,361.3c-0.3,0.7-0.7,1.3-1,2c0.7,0,1.3,0,2,0C956.6,362.6,956.2,362,955.9,361.3z
	 M926.9,366.3c0.3,0.7,0.7,1.3,1,2c1.3-0.3,2.6-0.7,4-1C930.2,367,928.6,366.6,926.9,366.3z M936.9,378.3c4,1,4,1,4,1L936.9,378.3z
	 M956.9,385.3c-0.6,1.4-0.6,1.4-1.3,2.8c-1.7,3.2-1.7,3.2-3.4,4.8c-1.8,1.5-1.8,1.5-1.3,5.4c2.6,0.2,4.4,0.3,6.8-1
	c2-3.2,1.9-6.3,2.3-10C958.9,386.6,957.9,386,956.9,385.3z M964.9,390.3c-0.4,0.8-0.8,1.5-1.2,2.3c-0.8,1.5-0.8,1.5-1.6,3
	c-0.5,1-1,2-1.5,3c-1.7,2.7-3.1,4-5.7,5.7c0.3,1.3,0.7,2.6,1,4c1.8,0.7,1.8,0.7,4,1c3.6-2,6.4-5,8.4-8.6c0.6-2.7,1-4.7,0.6-7.4
	C966.9,391.6,966.9,391.6,964.9,390.3z M1066.9,453.3c-0.7,0.7-1.3,1.3-2,2c3.4,3.2,3.4,3.2,7.8,4.3c1.1-0.1,1.1-0.1,2.2-0.3
	c0.3-1,0.7-2,1-3C1071.6,453.9,1071.6,453.9,1066.9,453.3z M1073.9,579.3c0,1,0,2,0,3c1-1,2-2,3-3
	C1075.9,579.3,1074.9,579.3,1073.9,579.3z M1003.9,581.3c0.5,0.6,0.9,1.2,1.4,1.8c1.5,2.2,2.1,3.7,2.6,6.3c4.7-0.5,8.7-1,13-3
	c-3-1.6-5.9-2.7-9.1-3.6c-0.9-0.3-1.7-0.5-2.6-0.8C1006.8,581.2,1006.8,581.2,1003.9,581.3z M1057.9,585.3c0,0.3,0,0.7,0,1
	c1.7,0.5,3.5,1.1,5.3,1.6c1,0.3,1.9,0.6,3,0.9c2.8,0.6,4.2,0.5,6.8-0.4c-0.8-1-1.5-2-2.3-3c-0.6-0.8-0.6-0.8-1.3-1.7
	C1065.9,580.4,1061.5,583.7,1057.9,585.3z M983.9,588.3c3.7,2.5,6.4,2.2,10.7,2.1c0.7,0,1.4,0,2.1,0c1.7,0,3.5-0.1,5.2-0.1
	c-3-3.1-3-3.1-7-4.2c-0.8,0-1.6,0-2.4,0c-1.2,0-1.2,0-2.3,0C987.7,586.3,986.1,587,983.9,588.3z M1072.9,589.3c0,0.3,0,0.7,0,1
	c2.9,0.1,5.8,0.1,8.8,0.1c0.8,0,1.7,0,2.5,0.1c1.2,0,1.2,0,2.4,0c1.1,0,1.1,0,2.2,0c2.4-0.3,4-1,6.1-2.2
	C1087.6,584.2,1080.3,586.4,1072.9,589.3z"/>
<path class="st0" d="M1056.9,453.3c2.4,2.6,5,5.4,5,9c-1.7-0.7-3.3-1.3-5-2c1.7,3.2,1.7,3.2,4.7,3.8c4.6,1.7,7.5,4.2,10.3,8.3
	c1.3,4,1.6,7.9,1.9,12.1c0.1,1.1,0.2,2.2,0.3,3.4c0.3,3.2,0.5,6.4,0.7,9.6c0.1,0.8,0.1,1.5,0.2,2.3c0.8,9.8-1.7,17.7-5.2,26.7
	c3-1,3.9-1.8,6-4c0.1,1,0.1,1,0.2,2c1.7,16.1,1.7,16.1,6,31.7c1.3,4,1.1,6.3-0.3,10.3c-5.1,7-15.1,10.4-23,13
	c-2.2,0.2-2.2,0.2-4.5,0.3c-0.8,0-1.5,0.1-2.3,0.1c-2.7-0.4-3.5-1.2-5.2-3.3c-0.3-2-0.3-2-0.2-4.3c0-0.9,0.1-1.7,0.1-2.6
	c0.1-1.8,0.2-3.6,0.3-5.3c0.2-6.4-0.9-12.1-2.6-18.3c-2.2-8.4-3.3-16.9-4.4-25.4c-0.2-1.7-0.4-3.3-0.7-5c-0.5-4-1.1-8-1.6-12
	c1.7,0.3,3.3,0.7,5,1c-0.6-1.5-1.2-2.9-1.8-4.4c-0.3-0.8-0.6-1.6-1-2.5c-1.1-2.3-1.1-2.3-3.2-3.1c-2.8-1.4-3.5-3.2-4.9-6
	c-2.5-4.3-4.2-6.5-9.1-8.1c-3.7-0.7-3.7-0.7-7-1c1.9,2.3,3.3,3.1,6.1,4.4c2.9,1.6,2.9,1.6,3.6,3.9c0.3,2.8,0,4.6-0.6,7.3
	c-1.5,7.7-1.8,15.4-2,23.2c-0.1,1.9-0.2,3.9-0.2,5.8c0,1.5,0,1.5-0.1,3.1c0,1.3,0,1.3-0.1,2.6c0.3,2.5,0.9,4.2,1.8,6.5
	c1.8,4.6,1.9,8.7,1.9,13.6c0.2,7,1.2,12.2,4.5,18.4c1.6,3.3,1.6,5.6,1.1,9.2c-3.3,3.3-7.5,2.5-11.9,2.6c-8.6-0.2-15.7-3.5-23.1-7.6
	c-0.8-0.4-1.6-0.8-2.4-1.2c-2.6-2.9-2-6.3-1.8-10c0-0.7,0-1.5,0.1-2.3c0-1.8,0.1-3.7,0.2-5.5c3.8,0,4.5,1,7.2,3.5
	c0.7,0.6,1.4,1.3,2.2,2c0.8,0.8,0.8,0.8,1.6,1.5c-0.9-1.1-1.7-2.3-2.6-3.4c-0.5-0.7-1.1-1.5-1.6-2.2c-2.4-3.1-4.8-6.2-7.3-9.2
	c-3.4-5-3.7-9.1-3.5-15c0.2-6.2,0.2-6.2-1.6-12.1c-4.4-9.6-1.5-23,0.1-33.1c0.1-1,0.3-1.9,0.4-2.9c1.3-7.3,4.2-11.6,9-17.1
	c0.4-0.7,0.9-1.5,1.3-2.2c1.7-1.8,1.7-1.8,4.4-2.3c1.1,0,2.2,0,3.3,0c1.2,0,2.4,0,3.7,0c1.3,0,2.6,0,3.9,0
	C1025,460.6,1047.8,451,1056.9,453.3z"/>
<path class="st1" d="M827.9,443.3c3.5,4.1,6,7.5,6,13c0.7,0,1.3,0,2,0c0-0.7,0-1.3,0-2c1,0.4,1,0.4,2.1,0.9c3.3,1.3,6.6,2.2,9.9,3.1
	c2.4,22.2,4.6,44.4,6.6,66.7c0.8,9.1,1.7,18.2,2.7,27.2c0.7,6.1,1.1,12.2,1.3,18.3c0.1,0.9,0.2,1.8,0.3,2.7c0.7,0.3,1.3,0.7,2,1
	c-0.2-1.8-0.2-1.8-0.4-3.7c-1.4-13.9-2.9-27.8-4.3-41.7c-0.2-2.4-0.5-4.8-0.7-7.2c-0.7-7-1.4-14.1-2.1-21.2
	c-0.2-2.2-0.4-4.5-0.7-6.7c-1.2-11.9-2.2-23.6-1.9-35.6c6.9-0.9,6.9-0.9,9-1c4,4,2.6,17.7,2.9,23c0.1,1.4,0.2,2.8,0.2,4.1
	c0.2,2.9,0.3,5.8,0.5,8.7c1.6,27.4,3.3,54.8,6.4,82.1c-5.1,3.3-8.7,4.1-14.7,4.1c-1,0-1.9,0-2.9,0c-2.2,0.2-2.2,0.2-3.2-0.8
	c-0.2-1.6-0.3-3.3-0.4-4.9c-0.1-1.1-0.1-2.2-0.2-3.3c-0.1-1.2-0.1-2.4-0.2-3.7c-1.1-18.1-3.3-36-5.6-54c-0.6-4.7-1.1-9.4-1.7-14
	c-0.4-3.6-0.9-7.3-1.3-10.9c-0.2-1.7-0.4-3.5-0.6-5.2c-0.3-2.4-0.6-4.8-0.9-7.2c-0.1-1-0.1-1-0.3-2.1c-0.5-4.1-1.1-7.9-2.9-11.6
	c-1.3-0.3-2.6-0.7-4-1c-0.5-6.4-0.5-6.4-1-13c-0.7,0-1.3,0-2,0c-0.8,10.2-1.3,20.3-1.7,30.5c-0.1,1.6-0.1,3.1-0.2,4.7
	c-0.2,4.2-0.3,8.3-0.5,12.5c-0.1,2.6-0.2,5.1-0.3,7.7c-1,25.5-1.9,51.1-2.3,76.6c-5.8,2.9-14.1,0.8-20-1c-1.8-1.8-1.2-4.4-1.3-6.8
	c0-1.2-0.1-2.5-0.1-3.8c0-1.4-0.1-2.8-0.1-4.2s-0.1-2.9-0.1-4.3c-0.1-3.9-0.2-7.7-0.3-11.6c-0.1-2.4-0.1-4.8-0.2-7.2
	c-0.8-27.1-1.1-54.1-0.8-81.2c3.6,0,7.3,0,11,0c0,38.3,0,76.6,0,116c1,0,2,0,3,0c0-0.6,0-1.2,0-1.8c-0.2-14.5-0.3-29.1-0.4-43.6
	c0-7-0.1-14.1-0.2-21.1c-0.1-6.8-0.2-13.6-0.2-20.4c0-2.6,0-5.2-0.1-7.8c-0.1-3.6-0.1-7.3-0.1-10.9c0-1.6,0-1.6-0.1-3.2
	c0-3,0.2-5.3,1.1-8.2c2.2-2.1,4.2-3.4,6.9-4.8c2.8-1.5,3.9-3.2,5.2-6c0.6-1.2,0.6-1.2,1.2-2.4C827.4,444.5,827.6,443.9,827.9,443.3z
	"/>
<path class="st2" d="M800.9,346.3c0,0.8-0.1,1.5-0.1,2.3c0,1.5,0,1.5-0.1,3c0,1-0.1,2-0.1,3c0.1,1.3,0.1,1.3,0.3,2.6
	c1,0.7,2,1.3,3,2c-0.3,0.7-0.6,1.3-0.9,2c-1.3,3.7-1.7,7.1-2.1,11c-3,0.3-5.9,0.7-9,1c0,1,0,2,0,3c1.5,0.1,2.9,0.1,4.4,0.2
	c1.2,0.1,1.2,0.1,2.5,0.1c0.7-0.1,1.4-0.2,2.2-0.3c0.7-1,1.3-2,2-3c0,1,0,2,0,3c0.7,0,1.3,0,2,0c0.6,1.2,0.6,1.2,1.2,2.4
	c4.8,9.3,10.3,19.1,17.8,26.6c0.6,4.4,0.7,8.8,0.8,13.3c0.1,2.2,0.2,4.4,0.3,6.6c0.4,9.6-0.8,16.9-6,25.2
	c-4.8,4.5-10.7,4.3-16.9,4.2c-0.8,0-1.5,0-2.3,0c-5.6,0-5.6,0-7.9-1.2c-0.2-4.2,0.1-8,0.9-12.1c2.2-12.6,3.3-25.4,3.3-38.1
	c0-0.7,0-1.5,0-2.3c0.1-9,0.1-9-2.2-17.5c-0.8,1.1-0.8,1.1-1.7,2.2c-2.3,2.8-4.7,5.3-7.3,7.8c-0.6,0.6-1.2,1.2-1.9,1.9
	c-3,2.9-5.2,4.9-9.3,5.9c-4-1.1-5.7-3.4-7.8-6.8c-3.4-6.6-5.2-12.2-5.4-19.6c0-1.1-0.1-2.3-0.1-3.4c0.5-3,0.5-3,2.9-4.9
	c2.8-1.2,3.8-1.2,6.6-0.1c0.3-0.7,0.7-1.3,1-2c2.5,12.5,2.5,12.5,1,19c1,0,2,0,3,0c-0.3-1.6-0.7-3.3-1-5c1,0,2,0,3,0
	c0,1.6,0,3.3,0,5c0.3,0,0.7,0,1,0c0.3,2,0.7,4,1,6c1-0.5,1-0.5,2-1c0.2-2.4,0.3-4.6,0.4-7c0.3-6.2,1-12.1,2.4-18.2
	c0.2-1.1,0.2-1.1,0.5-2.1c1.1-4.4,2.6-7.4,5.7-10.7C793.3,348.3,796.9,346.3,800.9,346.3z M763.9,372.3c0,0.7,0,1.3,0,2
	c3.5-0.5,3.5-0.5,7-1c0-1.3,0-2.6,0-4C767.4,369.3,766.5,370,763.9,372.3z"/>
<path d="M886.9,175.3c1.3,0,2.6,0,4,0c1.1,2.3,1.2,3.7,1.3,6.3c0,0.9,0.1,1.8,0.1,2.7c0,1,0.1,2,0.1,3s0.1,2.1,0.1,3.2
	c0.1,3.5,0.3,7,0.4,10.4c0,1.2,0.1,2.4,0.1,3.7c0.6,17.5,1.1,35,1.3,52.6c0.6,39.4,2,78.8,3.6,118.1c0,0.7,0.1,1.5,0.1,2.2
	c1.9,49.4,5.3,98.8,8.4,148.2c0.1,1.1,0.1,2.2,0.2,3.4c1,15.4,1,15.4,2.1,30.8c0.2,3.2,0.3,6.3,0.4,9.5c0,1.1,0,2.1,0,3.2
	c-0.2,2.7-0.2,2.7-2.2,5.7c-1.9-0.4-1.9-0.4-4-1c-1.6-3.2-1.4-6.8-1.7-10.3c-0.1-0.9-0.1-1.7-0.2-2.6c-0.2-2.8-0.4-5.5-0.6-8.3
	c-0.1-1.8-0.2-3.5-0.4-5.3c-0.3-4.8-0.7-9.6-1-14.4c-0.2-3.1-0.4-6.3-0.6-9.4c-1.8-26-3-52.1-4.3-78.2c-0.2-4.7-0.5-9.3-0.7-14
	c-1.8-36.9-3.4-73.7-4.6-110.6c-0.1-1.7-0.1-3.5-0.2-5.2c-0.3-9.9-0.6-19.7-0.9-29.6c0-0.7,0-1.4-0.1-2.2
	c-0.7-24.8-1.2-49.6-1.5-74.4c0-2.5-0.1-5-0.1-7.6c-0.1-3.9-0.1-7.9-0.2-11.8c0-1.5,0-2.9-0.1-4.4c0-2-0.1-4-0.1-5.9
	c0-1.1,0-2.2,0-3.4C885.9,177.3,885.9,177.3,886.9,175.3z"/>
<path class="st3" d="M850.9,346.3c3,0.7,5.9,1.3,9,2c0.1,5.7-0.2,11.2-0.7,16.8c-2.5,25.8-2.5,51.3,2.3,76.8
	c0.4,2.8,0.5,5.5,0.4,8.4c-14.6,5.1-14.6,5.1-20.9,2.1c-5.8-4.2-7.8-10.5-10.1-17.1c-0.2-0.7-0.5-1.4-0.7-2.1c-0.6-2-1-3.9-1.3-5.9
	c-0.2-1.1-0.4-2.1-0.5-3.3c-1.1-9.2,0.3-13.4,5.5-20.8c1.8-2.8,3.4-5.6,5.1-8.5c0.7-1.1,0.7-1.1,1.3-2.2c3.1-5.3,5.6-10.5,7.5-16.3
	c0.5-1.2,0.5-1.2,0.9-2.4c2.3-6.1,2.2-10.4,0.1-16.6c1-0.7,2-1.3,3-2C851.6,352.3,851.2,349.4,850.9,346.3z M829.9,412.3
	c0.3,0.7,0.7,1.3,1,2c0.7,0,1.3,0,2,0c0-0.7,0-1.3,0-2C831.9,412.3,830.9,412.3,829.9,412.3z"/>
<path d="M469.9,502.3c1,1,1,1,2,2c-0.2,2.1-0.2,2.1-0.8,4.8c-0.2,1-0.5,2-0.7,3c-0.4,1.7-0.4,1.7-0.8,3.4c-0.3,1.2-0.6,2.3-0.8,3.6
	c-1.7,7.1-3.5,14.2-5.4,21.2c-9,34-16.2,68.5-23.4,102.9c-8.7,41.6-17.7,83.5-36,122.1c-0.4,0.9-0.8,1.8-1.2,2.7
	c-0.4,0.9-0.8,1.8-1.3,2.7c-0.6,1.2-0.6,1.2-1.2,2.4c-1.9,3.1-4.3,4.9-7.3,6.9c-1.9,1.3-3.6,2.7-5.3,4.3c-0.9,0.7-1.8,1.4-2.7,2.1
	c-1-0.3-2-0.7-3-1c0.6-3.7,2.1-5.4,4.7-8.1c4.4-4.8,7.4-9.9,10.4-15.6c0.5-1,1-2,1.6-3c1.5-2.8,2.9-5.6,4.3-8.4
	c0.6-1.2,1.2-2.3,1.8-3.6c8.1-17.5,11.9-37.3,16.7-55.9c0.2-0.7,0.3-1.3,0.5-2c6-23.3,11.5-46.7,16.7-70.2
	c5-22.4,10.2-44.8,15.7-67.1c0.2-0.9,0.5-1.9,0.7-2.8c2.6-10.4,5.4-20.7,8.5-31c0.3-1,0.6-1.9,0.9-2.9
	C465.8,510.3,467.1,506.2,469.9,502.3z"/>
<path d="M565.9,514.3c2.5,1.9,3,3,3.7,6.1c0.1,1.3,0.3,2.6,0.4,3.9c0.1,0.7,0.2,1.4,0.2,2.2c0.2,2.4,0.5,4.7,0.7,7.1
	c0.2,1.7,0.3,3.3,0.5,5c1.7,17,3,34.1,4.2,51.2c0.2,2.6,0.4,5.1,0.6,7.7c0.8,11.7,1.7,23.4,2.5,35c0.2,2.7,0.4,5.4,0.6,8.1
	c0.8,11.3,1.6,22.6,2.3,33.9c0.2,2.4,0.3,4.8,0.5,7.3c3.3,47.5,3.3,47.5,0.8,52.4c-1,0-2,0-3,0c-1.8-5.7-2.5-11-3-17
	c-0.1-1-0.2-2-0.2-3c-1-12.4-1.6-24.9-2.3-37.3c-0.4-6.9-0.8-13.9-1.1-20.8c-0.1-1.6-0.2-3.3-0.3-4.9c-1.1-19.2-2.2-38.4-3.3-57.6
	c-0.2-3.7-0.4-7.3-0.6-11c-1.5-25.7-1.5-25.7-3.7-51.4c-0.5-5.4-0.8-10.8-0.4-16.2C565.2,515,565.6,514.6,565.9,514.3z"/>
<path d="M977.9,165.3c2.4,0.8,2.4,0.8,5,3c1.8,8,1.2,16.7,1.1,24.9c0,2.1,0,4.2,0,6.3c0,1.4,0,2.7,0,4.1c0,1.2,0,2.4,0,3.7
	c-0.1,3-0.1,3-1.1,6c-2.8,1.4-4.9,1.3-8,1c-8-5.8-13.6-16.9-19-25c0,0.7,0,1.5-0.1,2.3c-0.1,3.4-0.2,6.7-0.3,10.1
	c0,1.8,0,1.8-0.1,3.6c-0.1,1.7-0.1,1.7-0.1,3.4c0,1-0.1,2.1-0.1,3.1c-0.3,2.5-0.3,2.5-2.3,4.5c-3.1-0.3-3.1-0.3-6-1
	c-1.7-3.4-1.3-7.3-1.4-11.1c0-0.9-0.1-1.8-0.1-2.7c-0.1-1.9-0.1-3.8-0.1-5.7c-0.1-2.9-0.2-5.8-0.3-8.8c0-1.8-0.1-3.7-0.1-5.5
	c0-0.9-0.1-1.8-0.1-2.7c0-0.8,0-1.6-0.1-2.5c0-0.7,0-1.4-0.1-2.2c0.2-1.9,0.2-1.9,2.2-4.9c2.7-0.7,2.7-0.7,6,0
	c5.6,5.1,9.8,11.8,13.9,18c0.6,0.9,1.2,1.7,1.8,2.6c1.4,2.1,2.9,4.2,4.3,6.4c1.3-1.1,1.3-1.1,1.1-3.5c0-1.1-0.1-2.2-0.1-3.4
	s0-2.4-0.1-3.6c-0.1-2.5-0.1-5.1-0.2-7.6c0-1.2,0-2.4-0.1-3.6c0-1.1-0.1-2.2-0.1-3.4c0.4-2.8,0.4-2.8,2.5-4.7
	C976.6,166,977.2,165.7,977.9,165.3z"/>
<path class="st4" d="M798.5,169.5c2.4,0.8,2.4,0.8,3.4,2.8c0.2,1.5,0.2,3,0.3,4.4s0.1,1.4,0.1,2.7c0,1,0.1,1.9,0.1,2.9s0.1,2,0.1,3
	c0.2,6,0.4,12,0.5,18c0,1.2,0,2.5,0,3.8c-0.2,3-0.7,4.6-2.2,7.1c-3.2,0.3-3.2,0.3-7,0c-3.9-3.4-7-7.3-10.1-11.4
	c-0.4-0.5-0.8-1.1-1.3-1.7c-2.7-3.5-5.2-7.2-7.7-10.9c0,0.7,0,1.4,0,2.1c0,3.1,0.1,6.2,0.1,9.2c0,1.1,0,2.1,0.1,3.2c0,1,0,2.1,0,3.1
	c0,0.9,0,1.9,0,2.9c0,2.6,0,2.6-2,5.6c-2.5,0.4-2.5,0.4-5,0c-4.5-6.8-3.2-16.1-3.2-24c0-2.2,0-4.4-0.1-6.7c0-1.4,0-2.8,0-4.3
	c0-1.3,0-2.6,0-3.9c0.4-3.2,0.4-3.2,1.7-5.1c1.7-1.1,1.7-1.1,4.4-1.4c5.2,2.1,7.3,6.3,10.3,10.9c1.2,1.8,2.4,3.6,3.6,5.4
	c0.6,0.9,1.1,1.7,1.7,2.6c2.1,3.2,4.4,6.3,6.6,9.4c0-0.8,0-1.6,0-2.4c-0.1-3.6-0.1-7.3-0.1-10.9c0-1.3-0.1-2.5-0.1-3.8
	c0-1.2,0-2.4,0-3.7c0-1.1,0-2.2,0-3.4c0.3-2.8,0.3-2.8,1.7-4.7C795.9,169.3,795.9,169.3,798.5,169.5z"/>
<path class="st5" d="M1096.9,334.3c0.3,0,0.7,0,1,0c0.1,0.7,0.1,1.3,0.2,2c0.7,7.8,1.5,15.7,2.2,23.5c0.1,1.4,0.3,2.8,0.4,4.2
	c1.8,18.6,3.7,37.2,5.9,55.8c2.6,22.1,4.5,44.1,6.2,66.3c0.1,0.7,0.1,1.5,0.2,2.2c0.4,4.9,0.7,9.7,1.1,14.6c0.1,1.2,0.2,2.5,0.3,3.7
	c0.4,6.3,0.7,12.4,0.6,18.7c-0.3,0-0.7,0-1,0c-0.7-3.6-1.3-7.3-2-11c-0.7,5-1.3,9.9-2,15c-0.3,0-0.7,0-1,0c0-0.6-0.1-1.2-0.1-1.9
	c-2.5-33.5-5.3-66.9-8.5-100.3c-0.1-1.6-0.3-3.1-0.4-4.7c-0.4-4.5-0.9-9-1.3-13.4c-0.1-1.1-0.1-1.1-0.2-2.2
	c-0.7-7.5-1.5-15-2.3-22.6c-0.1-1.3-0.3-2.5-0.4-3.8c-0.3-2.3-0.5-4.7-0.8-7c-1-9.1-1.2-18-0.9-27.1c0.7-0.3,1.3-0.7,2-1
	c0.5-2.6,0.5-2.6,0.6-5.6c0.1-1,0.1-2,0.2-3.1C1096.8,335.9,1096.8,335.1,1096.9,334.3z"/>
<path d="M407.9,570.3c0.7,0,1.3,0,2,0c-2.7,38.6-17.2,77.4-28.1,114.4c-1.8,6.3-3.6,12.5-5.4,18.8c-0.3,1-0.5,2-0.8,3
	c-1.5,5.5-3,10.9-4.5,16.4c-9,33.3-9,33.3-15.2,47.4c-0.7,0-1.3,0-2,0c0.4-9.2,1.9-17.4,4.4-26.3c0.4-1.4,0.8-2.7,1.1-4.1
	c5.1-18,10.4-36,15.7-54c4.9-16.6,9.7-33.2,14.4-49.8c0.4-1.3,0.4-1.3,0.7-2.5c4.1-14.6,7.9-29.3,11.5-44c0.2-0.8,0.4-1.6,0.6-2.4
	c0.4-1.4,0.7-2.9,1.1-4.3C404.5,578.5,406,574.5,407.9,570.3z"/>
<path class="st6" d="M863.9,353.3c0.7,0,1.3,0,2,0c2.1,5.9,3.7,11.7,4.9,17.8c0.2,1.3,0.2,1.3,0.5,2.6c4.4,23.4,8.2,47.8,7.6,71.6
	c-1.7,1.7-3.7,1.2-5.9,1.3c-0.9,0-1.8,0.1-2.7,0.1c-0.8-0.1-1.5-0.2-2.3-0.3c-2-3-2.4-4.3-2.9-7.8c-0.1-1-0.3-1.9-0.4-2.9
	c-3.3-26.9-3.3-26.9-0.5-31.2c2.1-1.9,3.9-3,6.7-3c0-1,0-2,0-3c-4.5,1.9-4.5,1.9-9,4c0-5.9-0.1-11.7-0.1-17.6c0-2,0-4,0-6
	c0-2.9,0-5.7,0-8.6c0-0.9,0-1.8,0-2.7C861.7,362.4,862.2,358.2,863.9,353.3z"/>
<path d="M593.9,599.3c0.7,0,1.3,0,2,0c4,11.7,6.6,23.7,9.4,35.7c1.4,6.2,2.9,12.4,4.4,18.6c0.3,1.2,0.6,2.4,0.9,3.7
	c4.8,20.4,9.9,40.7,15.6,60.9c0.2,0.7,0.4,1.5,0.6,2.2c5.6,19.5,11.6,37.7,24.1,54c2,3.1,2,3.1,1.6,5.3c-0.2,0.6-0.4,1.2-0.6,1.8
	c-12.9-6.3-18.9-19.1-23.5-32.1c-0.5-1.4-0.9-2.8-1.4-4.3c-0.3-0.8-0.5-1.5-0.8-2.3c-2.7-8.4-5-16.9-7.2-25.5
	c-0.2-0.8-0.4-1.6-0.6-2.5c-7.3-27.9-13.5-56.1-19.4-84.3c-0.2-1-0.2-1-0.4-2c-0.9-4.1-1.7-8.3-2.6-12.4c-0.3-1.5-0.3-1.5-0.6-3
	C594.4,608.2,593.6,604,593.9,599.3z"/>
<path d="M491.9,618.3c1,0.3,2,0.7,3,1c0.2,6.9-0.3,13.6-1.2,20.5c-0.2,1.5-0.2,1.5-0.4,3.1c-0.3,2.3-0.6,4.5-0.9,6.8
	c-0.4,3.1-0.8,6.3-1.2,9.5c-5.2,40.2-12.2,94.7-44.3,122.9c-2.3,1.5-4.3,1.9-7,2.2c0.6-3.2,1.7-5.2,3.7-7.7c3.2-4.1,6-8.4,8.6-12.8
	c0.5-0.8,0.9-1.6,1.4-2.4c23.6-39.4,29.1-84,34.9-128.8C489.3,627.6,490,623,491.9,618.3z"/>
<path class="st7" d="M800.9,346.3c0,0.8-0.1,1.5-0.1,2.3c0,1.5,0,1.5-0.1,3c0,1-0.1,2-0.1,3c0.1,1.3,0.1,1.3,0.3,2.6
	c1,0.7,2,1.3,3,2c-0.3,0.7-0.6,1.3-0.9,2c-1.3,3.7-1.7,7.1-2.1,11c-3,0.3-5.9,0.7-9,1c0.8,3.7,0.8,3.7,1.8,5.9
	c0.4,3.4-1,5.3-2.8,8.1c-2.3,2.4-2.3,2.4-5,5c-1.2,1.2-2.5,2.5-3.7,3.8c-2.7,2.8-4.2,4.1-8.1,4.7c-3.2-0.4-3.2-0.4-5.8-2.9
	c-5.1-7-7.5-14.6-7.8-23.1c0-1.1-0.1-2.3-0.1-3.4c0.5-3,0.5-3,2.9-4.9c2.8-1.2,3.8-1.2,6.6-0.1c0.3-0.7,0.7-1.3,1-2
	c2.5,12.5,2.5,12.5,1,19c1,0,2,0,3,0c-0.3-1.6-0.7-3.3-1-5c1,0,2,0,3,0c0,1.6,0,3.3,0,5c0.3,0,0.7,0,1,0c0.3,2,0.7,4,1,6
	c1-0.5,1-0.5,2-1c0.2-2.4,0.3-4.6,0.4-7c0.3-6.2,1-12.1,2.4-18.2c0.2-1.1,0.2-1.1,0.5-2.1c1.1-4.4,2.6-7.4,5.7-10.7
	C793.3,348.3,796.9,346.3,800.9,346.3z M763.9,372.3c0,0.7,0,1.3,0,2c3.5-0.5,3.5-0.5,7-1c0-1.3,0-2.6,0-4
	C767.4,369.3,766.5,370,763.9,372.3z"/>
<path d="M385.9,157.3c1,0.3,2,0.7,3,1c0.1,4.9-0.3,9.5-1.1,14.3c-0.1,0.7-0.2,1.4-0.3,2.1c-0.4,2.3-0.8,4.5-1.2,6.8
	c-0.1,0.8-0.3,1.6-0.4,2.4c-2,12.1-4.2,24.1-6.5,36.2c-0.1,0.7-0.3,1.4-0.4,2.1c-4,21-9.7,41.5-15.6,62
	c-4.4,15.4-8.9,30.8-12.6,46.4c-5.9,24.7-5.9,24.7-12.9,33.7c-1,0-2,0-3,0c0.6-9.6,4.2-18.6,7.9-27.4c2.5-6.2,4.2-12.5,6-18.8
	c0.4-1.3,0.7-2.5,1.1-3.8c0.7-2.7,1.5-5.4,2.2-8.1c0.9-3.3,1.8-6.7,2.8-10c3.7-13.3,7.4-26.7,10.9-40c0.5-1.8,1-3.7,1.5-5.5
	c5.4-20.3,9.3-40.6,11.9-61.5C382.6,162.2,382.6,162.2,385.9,157.3z"/>
<path class="st4" d="M739.9,169.2c4.1,1.4,4.8,3.4,7,7.1c1.9,4.4,3.4,8.8,5,13.3c0.7,2.1,1.5,4.2,2.3,6.3c0.5,1.4,1,2.7,1.4,4.1
	c0.4,1.2,0.9,2.4,1.3,3.7c1,3.7,1.3,6.7,0.9,10.5c-0.7,0.7-1.3,1.3-2,2c-2.4,0-2.4,0-5-1c-1.6-2.4-1.6-2.4-2.8-5.4
	c-0.4-1-0.8-2-1.3-3c-0.8-2.5-0.8-2.5-0.8-4.5c-4.6,0.3-9.2,0.7-14,1c-0.4,1.6-0.9,3.1-1.3,4.8c-1,3.7-2.2,6.3-4.7,9.3
	c-4.9-0.9-4.9-0.9-6-2c0.1-6,1.6-11.6,3.6-17.2c0.3-0.7,0.5-1.5,0.8-2.2c0.5-1.5,1.1-3.1,1.6-4.6c0.8-2.3,1.6-4.7,2.4-7
	c0.5-1.5,1.1-3,1.6-4.5c0.2-0.7,0.5-1.4,0.7-2.1C732.5,172.5,734.2,169.4,739.9,169.2z M737.9,183.3c-1,3.3-2,6.6-3,10
	c2.6,0,5.3,0,8,0c-1-3.3-2-6.6-3-10C739.2,183.3,738.6,183.3,737.9,183.3z"/>
<path class="st4" d="M837.1,175.8c4.9,4,8.3,7.7,9.1,14.2c0.3,6.8-0.4,12.5-4.3,18.3c-3.6,3.9-7.8,7.6-13.1,8.3
	c-5.9,0-10.1-0.6-14.5-4.9c-5.3-5.9-5.6-10.5-5.5-18.3c0.5-6.7,2.9-11.7,7.5-16.6C822.6,171.3,830.1,171.1,837.1,175.8z
	 M819.9,186.3c-2.9,4.7-2.7,9.7-2,15c1.3,3,2.3,3.9,5,6c3.5,0.9,3.5,0.9,7,0c3.8-3.1,6.6-6.2,7.3-11.2c0.1-4,0-6.2-2.1-9.8
	C829.7,181.4,825.5,181,819.9,186.3z"/>
<path d="M1021.9,169.3c0.2,2.4,0.2,2.4,0,5c-3,2-3.7,2.3-7,2.4c-1.1,0.1-1.1,0.1-2.3,0.1c-0.8,0-1.6,0.1-2.4,0.1s-1.6,0.1-2.4,0.1
	c-2,0.1-3.9,0.2-5.9,0.3c0,3,0,5.9,0,9c1.1,0,2.3,0,3.4-0.1c1.5,0,3,0,4.4-0.1c0.7,0,1.5,0,2.3-0.1c2,0,3.9,0.1,5.9,0.2
	c0.7,0.7,1.3,1.3,2,2c-0.2,2-0.2,2-1,4c-3.6,2.4-5.9,2.4-10.2,2.6c-1.3,0.1-2.5,0.1-3.9,0.2c-1,0-2,0.1-3,0.1c0.7,3.3,1.3,6.6,2,10
	c1.1,0,2.3,0,3.4-0.1c1.5,0,3,0,4.4-0.1c0.7,0,1.5,0,2.3-0.1c2,0,3.9,0.1,5.9,0.2c0.7,0.7,1.3,1.3,2,2c-0.6,4.6-0.6,4.6-2,6
	c-7.1,1.4-16.3,2.8-22.8-0.4c-2.2-1.6-2.2-1.6-3.2-3.6c-0.4-5.2-0.6-10.5-0.8-15.7c-0.1-1.8-0.1-3.5-0.2-5.3
	c-0.1-2.5-0.2-5.1-0.3-7.6c-0.1-1.2-0.1-1.2-0.1-2.4c-0.1-3.9,0-5.6,2.8-8.5C1001.9,166,1014.9,165.8,1021.9,169.3z"/>
<path d="M541.9,546.3c0.7,0.3,1.3,0.7,2,1c0.3,15.5-0.6,30.9-1.7,46.4c-0.2,2.6-0.4,5.2-0.5,7.8c-0.4,5.4-0.7,10.8-1.1,16.2
	c-0.5,6.9-1,13.8-1.4,20.7c-0.5,6.6-0.9,13.3-1.4,19.9c-0.1,1.9-0.1,1.9-0.3,3.8c-0.2,3.6-0.5,7.1-0.7,10.7c-0.1,1-0.1,2.1-0.2,3.2
	c-0.2,2.8-0.4,5.6-0.6,8.4c-0.1,0.9-0.1,1.7-0.2,2.6c-0.1,0.8-0.1,1.6-0.2,2.4c-0.1,0.7-0.1,1.4-0.2,2.1c-0.5,1.8-0.5,1.8-2.5,4.8
	c-1.3-0.3-2.6-0.7-4-1c-0.4-13.1,0.8-26,1.9-39.1c0.2-2.4,0.4-4.9,0.6-7.3c0.4-5.1,0.8-10.1,1.2-15.2c0.5-6.5,1.1-12.9,1.6-19.4
	c0.4-5,0.8-10,1.2-15c0.2-2.4,0.4-4.8,0.6-7.1C539,555.7,539,555.7,541.9,546.3z"/>
<path d="M472,173.1c1.7,0.2,1.7,0.2,3.5,0.3c2.8,0.3,5.6,0.6,8.4,0.9c0,1.3,0,2.6,0,4c-2.5,2.5-3.5,2.4-6.9,2.6
	c-0.9,0.1-1.7,0.1-2.6,0.2c-2.2,0.1-4.3,0.1-6.5,0.1c0.6,0.5,1.2,0.9,1.8,1.4c3.6,4.3,5.4,9.5,5,15.2c-0.8,4.1-1.5,6.8-4.8,9.5
	c-2.9,0.5-2.9,0.5-6,0c-4.6-3.4-6.7-7.5-8-13c-0.5-5.3,0.3-8.4,3-13c0.3-0.3,0.7-0.7,1-1c-5.3,0.7-10,2.2-15,4c-0.3-1.6-0.7-3.3-1-5
	C451.9,171.5,461.6,172,472,173.1z"/>
<path d="M522.9,227.3c3.7,3.2,5.8,5.8,6.7,10.6c-0.9,4.4-2.1,5.7-5.7,8.4c-2.9,1.3-5.9,2.1-9,3c-2.3,0.7-4.5,1.4-6.8,2.1
	c-1.1,0.3-2.1,0.6-3.2,1c-3,0.9-3,0.9-5.7,2.1c-3,1.2-5.1,1.4-8.3,0.9c-2.9-1.9-2.9-1.9-5-5c-0.5-4.9,0.4-8.9,2.6-13.3
	C496.9,227.4,510.6,219.2,522.9,227.3z M495.5,237.8c-1.9,3.1-1.9,3.1-2.6,6.5c1,1.5,1,1.5,2,3c5.2-0.7,10.2-2,15.3-3.4
	c0.8-0.2,1.6-0.4,2.5-0.7c0.8-0.2,1.6-0.4,2.4-0.7c0.7-0.2,1.4-0.4,2.1-0.6c2-0.6,2-0.6,3.8-2.7c-0.2-2.7-0.6-4.5-2.2-6.6
	C511.7,227.3,500.8,232.3,495.5,237.8z"/>
<path d="M616.9,614.3c4.1,3.4,5.5,7.3,7.2,12.1c0.3,0.8,0.6,1.7,0.9,2.5c1,2.8,2,5.6,2.9,8.4c0.3,1,0.7,2,1,3c3,8.8,6,17.7,9,26.6
	c5.3,15.9,11,31.7,17,47.4c1.5,4,3.1,8.1,4.6,12.1c0.3,0.9,0.7,1.8,1,2.7c1.7,4.6,2.8,8.2,2.4,13.2c-2.3-2.1-3.6-3.9-4.8-6.8
	c-0.3-0.8-0.7-1.6-1-2.4c-0.4-0.9-0.7-1.7-1.1-2.6c-0.4-0.9-0.8-1.8-1.2-2.8c-10-23.9-18.8-48.1-27.2-72.5c-0.6-1.8-1.3-3.7-1.9-5.5
	c-8.6-24.8-8.6-24.8-9.7-34.4C616.2,615,616.6,614.6,616.9,614.3z"/>
<path d="M541.9,148.3c1,0.7,2,1.3,3,2c-0.3,1-0.7,2-1,3c-2.2,0.9-2.2,0.9-4.9,1.6c-4,0.9-4,0.9-7.1,3.4c0.7,0.2,1.5,0.5,2.3,0.7
	c4,1.9,6,4.6,7.8,8.6c1.5,4.5,1.6,9,0.9,13.7c-2.1,3.3-2.1,3.3-5,5c-3,0.3-3,0.3-6-1c-5.7-5.7-6.2-13.4-7-21c-0.5,0.4-1,0.7-1.5,1.1
	c-4.3,2.9-7.1,4.6-12.5,3.9c-0.7-1.3-1.3-2.6-2-4c0.7-0.3,1.4-0.7,2.1-1c5.3-2.7,9.5-5.3,13.6-9.7
	C529.3,149.6,534.7,145.6,541.9,148.3z"/>
<path d="M469.9,502.3c0.7,0.7,1.3,1.3,2,2c-0.2,2.1-0.2,2.1-0.8,4.8c-0.2,1-0.5,2-0.7,3c-0.3,1.1-0.5,2.2-0.8,3.3
	c-0.3,1.2-0.6,2.3-0.8,3.5c-2.4,9.8-4.9,19.6-7.5,29.3c-5,19.2-9.1,38.6-13.3,57.9c-0.3,0-0.7,0-1,0c0-2.3,0-4.6,0-7
	c-1.5,0.5-1.5,0.5-3,1c0.6-6,1.5-11.8,2.9-17.7c0.2-0.8,0.4-1.6,0.6-2.5c0.6-2.6,1.3-5.3,1.9-7.9c0.2-0.9,0.4-1.8,0.7-2.8
	c3.4-14.2,7-28.3,10.8-42.4c0.2-0.9,0.5-1.7,0.7-2.6c0.7-2.4,1.3-4.8,2-7.3c0.2-0.7,0.4-1.4,0.6-2.1
	C465.4,510.4,467.3,506.5,469.9,502.3z"/>
<path d="M491.9,618.3c1,0.3,2,0.7,3,1c0.2,6.9-0.3,13.6-1.2,20.5c-0.2,1.5-0.2,1.5-0.4,3.1c-0.5,3.5-0.9,7-1.4,10.4
	c-0.2,1.4-0.4,2.7-0.6,4.1c-3.9,28.7-3.9,28.7-7,42.3c-0.2,0.8-0.4,1.7-0.6,2.5c-1.1,4.4-2.1,7.2-5.9,10.1c-0.3,0-0.7,0-1,0
	c-0.4-7.4,1.1-14.2,2.6-21.5c3.3-16.7,5.7-33.6,8.1-50.5c0.1-1,0.3-2,0.4-3.1c0.3-1.9,0.5-3.8,0.8-5.7
	C489.4,626.9,490.2,622.7,491.9,618.3z"/>
<path d="M385.9,157.3c1,0.3,2,0.7,3,1c0.1,4.9-0.3,9.5-1.1,14.3c-0.1,0.7-0.2,1.4-0.3,2.1c-0.4,2.3-0.8,4.5-1.2,6.8
	c-0.1,0.8-0.3,1.6-0.4,2.4c-2.1,12.2-4.3,24.4-6.7,36.6c-0.1,0.7-0.3,1.5-0.4,2.2c-2.1,10.6-4.4,21.1-7,31.6c-0.7-1.3-1.3-2.6-2-4
	c-1,1-1,1-2,2c0.7-6.8,2.2-13.2,3.8-19.8c3-12.5,5-25,6.7-37.8c0.8-5.9,1.7-11.8,2.6-17.7c0.2-1.1,0.3-2.2,0.5-3.3
	C383.7,159.5,383.7,159.5,385.9,157.3z"/>
<path d="M593.9,599.3c0.7,0,1.3,0,2,0c2.7,8.4,5,16.8,7,25.5c0.3,1.1,0.5,2.3,0.8,3.5c0.9,3.6,1.7,7.3,2.5,10.9
	c1.1,4.8,2.2,9.5,3.3,14.3c0.3,1.2,0.5,2.3,0.8,3.5c1.4,5.8,2.8,11.6,4.3,17.4c0.3,1.1,0.6,2.2,0.9,3.3c0.5,2.1,1.1,4.2,1.6,6.2
	c0.2,0.9,0.5,1.8,0.7,2.8c0.2,0.8,0.4,1.6,0.6,2.4c0.4,2.4,0.1,3.9-0.7,6.2c-0.3-2-0.7-4-1-6c-1,0-2,0-3,0c-0.3,1.3-0.7,2.6-1,4
	c-6.1-25.7-11.7-51.5-17-77.4c-0.2-1-0.4-2-0.6-3C594.4,608.3,593.6,604,593.9,599.3z"/>
<path d="M376.9,692.3c0.2,6.2-0.3,11.3-2,17.3c-0.2,0.8-0.4,1.5-0.6,2.3c-0.7,2.4-1.3,4.8-2,7.3c-0.5,1.7-0.9,3.3-1.4,5
	c-1.3,4.7-2.6,9.5-4,14.2c-0.3,1.1-0.6,2.3-1,3.5c-2.8,9.8-5.8,19.3-10,28.5c-0.7,0-1.3,0-2,0c0.3-9.9,2.3-19,5-28.4
	c0.4-1.4,0.8-2.9,1.2-4.3c1-3.7,2.1-7.4,3.2-11.1c0.6-2.2,1.3-4.4,1.9-6.6c1-3.5,2-7,3-10.5c0.4-1.3,0.8-2.6,1.1-4
	c0.5-1.8,1.1-3.7,1.6-5.5c0.3-1,0.6-2.1,0.9-3.1C372.9,694.4,373.9,692.3,376.9,692.3z"/>
<path class="st8" d="M811.9,459.3c1.8,3,2.2,5.2,2.2,8.7c0,0.9,0,1.9,0,2.9s0,2.1,0,3.1c0,1.1,0,2.2,0,3.3c0,3.6,0,7.2,0,10.8
	c0,2.5,0,5,0,7.5c0,5.9,0,11.8,0,17.8c0,7.4,0,14.8,0,22.2c0,13.2-0.1,26.4-0.1,39.6c-1,0-2,0-3,0c0-12.6,0-25.2-0.1-37.8
	c0-5.9,0-11.7,0-17.6c0-5.7,0-11.3,0-17c0-2.1,0-4.3,0-6.4C810.8,484,811,471.7,811.9,459.3z"/>
<path d="M535.9,634.3c0.3,0,0.7,0,1,0c0.1,10.4-0.1,20.8-0.4,31.2c-0.1,2.2-0.1,4.4-0.2,6.7c-0.6,19.8-0.6,19.8-3.4,24.1
	c-1.3-0.3-2.6-0.7-4-1c-0.2-10.3,0.3-20.5,1.1-30.9c0.2-2.5,0.4-5.1,0.6-7.6c0.1-1.6,0.3-3.3,0.4-4.9c0.1-0.7,0.1-1.5,0.2-2.3
	C531.5,644.7,532.2,638,535.9,634.3z"/>
<path d="M1069.9,358.3c-0.7,4.1-1.9,7.6-3.5,11.4c-4.3,11.1-5.6,23.7-1.3,35.1c0.7,1.6,0.7,1.6,1.8,2.6c0,1.5,0,3-0.1,4.5
	c0,0.9-0.1,1.8-0.1,2.7c-0.1,0.9-0.1,1.9-0.2,2.9c-0.1,0.9-0.1,1.9-0.2,2.9c-0.1,2.4-0.3,4.7-0.4,7.1c-0.3,0-0.7,0-1,0
	c-0.3-3.3-0.7-6.6-1-10c-0.3,0-0.7,0-1,0c-0.3,2.6-0.7,5.3-1,8c-0.3,0-0.7,0-1,0c-1-11-1-11-0.9-15.8c0.1-3.2,0.1-3.2-1.1-6.3
	c-1.3-4.4-1.3-8.6-1.3-13.2c0-0.8,0-1.7,0-2.6c0.2-10,1.7-18.6,7.2-27.1C1067.9,358.3,1067.9,358.3,1069.9,358.3z"/>
<path d="M472,173.1c1.7,0.2,1.7,0.2,3.5,0.3c2.8,0.3,5.6,0.6,8.4,0.9c0,1.3,0,2.6,0,4c-2.4,2.4-3.1,2.3-6.3,2.6
	c-1.3,0.1-1.3,0.1-2.7,0.2c-1.5,0.1-1.5,0.1-3,0.2c-1.2,0.1-2.3,0.2-3.6,0.3c-3.1,0.2-6.3,0.5-9.4,0.7c0.3-0.7,0.7-1.3,1-2
	c-5.3,0.7-10,2.2-15,4c-0.3-1.6-0.7-3.3-1-5C451.9,171.5,461.6,172,472,173.1z"/>
<path d="M1050.9,348.3c-1,0-2,0-3,0c0,0.7,0,1.3,0,2c1.3,0.7,2.6,1.3,4,2c-2,0.3-4,0.7-6,1c-0.8,5.4-1.1,10.5-1,15.9
	c0,1.5,0,2.9,0,4.4c0,2.3,0.1,4.6,0.1,6.9c0,2.2,0,4.5,0.1,6.7c0,0.7,0,1.4,0,2.1c0,1.7-0.1,3.4-0.2,5.1c-0.7,0.7-1.3,1.3-2,2
	c-1,0-2,0-3,0c-1.7-3.3-1-7.1-0.9-10.7c0-0.9,0-1.7,0.1-2.6c0.1-2.8,0.2-5.5,0.2-8.3c0.1-1.9,0.1-3.7,0.2-5.6
	c0.1-4.6,0.3-9.2,0.4-13.8c-2.3,0.7-4.6,1.3-7,2c0.1-2.3,0.1-2.3,1-5c2.8-1.6,2.8-1.6,6.3-2.9c1.2-0.4,2.3-0.9,3.5-1.3
	C1046.7,347.3,1048.1,347.2,1050.9,348.3z"/>
<path d="M541.9,148.3c1,0.7,2,1.3,3,2c-0.3,1-0.7,2-1,3c-2.2,0.9-2.2,0.9-4.9,1.6c-4,0.9-4,0.9-7.1,3.4c1.3,0.7,2.6,1.3,4,2
	c-1.7,0.2-1.7,0.2-3.4,0.4c-3.4,0.2-3.4,0.2-4.6,1.6c-0.2,1.8-0.4,3.7-0.6,5.6c-0.1,1-0.2,2-0.3,3.1c-0.1,1.2-0.1,1.2-0.2,2.4
	c-0.3,0-0.7,0-1,0c-0.3-3-0.7-5.9-1-9c-1.2,0.8-2.4,1.6-3.6,2.5c-3.6,2.3-6,3-10.4,2.5c-0.7-1.3-1.3-2.6-2-4c0.7-0.3,1.4-0.7,2.1-1
	c5.3-2.7,9.5-5.3,13.6-9.7C529.3,149.6,534.7,145.6,541.9,148.3z"/>
<path class="st8" d="M848.9,460.3c0.3,0,0.7,0,1,0c2.3,16.3,4,32.7,5.5,49.1c0.4,4.7,0.9,9.3,1.3,14c0.1,1.1,0.2,2.3,0.3,3.4
	c0.6,6.4,1.2,12.7,1.9,19c0.1,0.7,0.1,1.4,0.2,2.1c0.3,3,0.6,6,1,8.9c0.6,5.8,0.9,11.5,0.8,17.4c-1-0.3-2-0.7-3-1
	c0-0.7-0.1-1.4-0.1-2.1c-0.8-12.5-1.8-24.9-3.2-37.3c-1.4-11.6-2.5-23.3-3.5-34.9c-0.2-2-0.4-4-0.5-6
	C849.4,482.1,848.6,471.3,848.9,460.3z"/>
<path d="M503.9,171.3c3.1,1.6,3.5,4.8,4.6,7.9c2.7,7.1,6.3,12.4,11.4,18.1c5.1,6,5.1,6,4.8,9.6c-2.7,3.5-5.8,5.6-9.8,7.4
	c-3.5,0.3-3.5,0.3-6,0c0.4-2.7,0.7-3.7,2.8-5.5c0.7-0.4,1.5-0.8,2.2-1.3c0.7-0.4,1.5-0.9,2.2-1.3c0.6-0.3,1.1-0.6,1.7-1
	c-2-3.4-4.1-6.5-6.4-9.7c-5.1-7.2-8.1-14.5-8.6-23.3C503.2,172,503.6,171.6,503.9,171.3z"/>
<path d="M742.9,330.3c3,1.6,5.2,3.2,7.6,5.6c2.4,2.4,3.3,2.8,6.4,3.4c0.7,0.7,1.3,1.3,2,2c-0.9,1.2-1.8,2.3-2.8,3.5
	c-0.5,0.6-1,1.3-1.5,2c-1.7,1.5-1.7,1.5-5.7,1.5c1.7,1,3.3,2,5,3c-0.7,1.3-1.3,2.6-2,4c-4.6-1.3-8.3-3-12-6c-0.9-2.8-0.9-2.8-1-5
	c2-1.3,4-2.6,6-4c-0.8-1.1-0.8-1.1-1.6-2.2C741.7,334.9,741.8,333.7,742.9,330.3z"/>
<path d="M511.9,110.3c0,0.7,0,1.3,0,2c-5.5-0.5-10.3-1.6-15.6-3.4c-11.5-3.8-23.4-4.7-35.4-5.6c0.3-1.3,0.7-2.6,1-4
	C478.3,95.9,497.8,101.9,511.9,110.3z"/>
<path d="M1043.9,423.3c1,0.3,2,0.7,3,1c0,3,0,3-1.6,4.7c-9.7,7.7-20,10.9-32.4,10.3c-5.4-0.9-10.7-2.4-16-4c0-1,0-2,0-3
	c0.6,0.1,1.2,0.1,1.8,0.2c1.8,0.2,3.5,0.4,5.3,0.5c2,0.2,4,0.4,5.9,0.7c10.9,1.2,19.8-0.1,29.1-6.4c0.9-0.8,1.9-1.6,2.9-2.4
	C1042.5,424.4,1043.2,423.9,1043.9,423.3z"/>
<path d="M580.9,743.3c0.7,0,1.3,0,2,0c0.2,1.2,0.4,2.3,0.7,3.6c1.8,9.3,4,18.2,7.5,27c2.3,6,2.3,6,0.8,9.4c-2.3,0.1-2.3,0.1-5-1
	C579.2,771.8,580.6,755.7,580.9,743.3z"/>
<path d="M431.9,251.3c2,3,2,3,1.8,5.8c-0.8,3.2-0.8,3.2-2.5,6.3c-1.6,2.7-1.6,2.7-0.8,5c1.5,2.1,1.5,2.1,4.1,3.7
	c2.4,2.2,2.4,2.2,3.4,5.8c0.1,3.4,0.1,3.4-1.9,6.4c-1,0-2,0-3,0c0-1.1,0-2.1,0-3.2c-0.6-3.8-0.6-3.8-2.8-5.1
	c-0.7-0.4-1.4-0.8-2.2-1.2c-3.9-2.2-3.9-2.2-5.3-5.6c0.4-5.6,2.7-10,5.3-14.9c1.3,1,2.6,2,4,3C431.9,255.3,431.9,253.3,431.9,251.3z
	"/>
<path d="M346.9,332.3c0.3,0,0.7,0,1,0c0.9,6.7-0.4,12.1-2.8,18.3c-0.3,0.7-0.5,1.3-0.8,2c-1.7,4.3-3.6,8.1-6.5,11.7c-1,0-2,0-3,0
	C335.6,353.1,339.5,340.9,346.9,332.3z"/>
<path d="M449.9,127.3c3,4.4,1.9,7.9,1,13c-2.5,9.7-6.4,19.2-14,26c-0.7,0-1.3,0-2,0c1-4.6,2.6-8.3,4.8-12.5c3-5.9,5.1-11.8,7.1-18.2
	C447.7,132.8,448.7,130.1,449.9,127.3z"/>
<path d="M385.9,157.3c1,0.3,2,0.7,3,1c0.1,4.8-0.2,9.3-1.1,14c-0.2,1.3-0.5,2.6-0.7,3.9c-0.2,1.3-0.5,2.7-0.7,4
	c-0.2,1.4-0.5,2.7-0.7,4.1c-0.6,3.3-1.2,6.6-1.8,10c-1.5,0.5-1.5,0.5-3,1C380,166.1,380,166.1,385.9,157.3z"/>
<path d="M587.9,702.3c2.4,3.6,2.5,6.6,2.9,10.7c0.1,0.8,0.1,1.5,0.2,2.3c0.2,2.4,0.4,4.8,0.6,7.2c0.1,1.6,0.3,3.2,0.4,4.9
	c0.3,4,0.7,8,1,11.9c-1.3,0-2.6,0-4,0c-3.7-7.4-3.1-16.2-3.2-24.4c0-0.8,0-1.6,0-2.4C585.7,708.7,585.7,705.6,587.9,702.3z"/>
<path d="M446.9,599.3c0.4,8.2-0.7,15.7-2.5,23.7c-0.2,1.1-0.5,2.2-0.7,3.3c-0.6,2.7-1.2,5.3-1.8,8c-0.7-1-1.3-2-2-3c-1,0-2,0-3,0
	c0.6-7,1.9-13.7,3.4-20.5c0.2-1,0.4-2,0.7-3c0.2-0.9,0.4-1.9,0.7-2.9c0.2-0.9,0.4-1.7,0.6-2.6C443.1,599.6,444.1,599.3,446.9,599.3z
	"/>
<path d="M460.9,114.3c4.5,0.6,7.7,2.4,11.6,4.7c6.3,3.7,12.8,7.1,19.4,10.3c0,1,0,2,0,3c-6.1-0.5-10.6-1.8-16.1-4.7
	c-0.7-0.4-1.4-0.7-2.1-1.1c-4.9-2.6-9.1-5.2-12.8-9.2C460.9,116.3,460.9,115.3,460.9,114.3z"/>
<path d="M369.9,249.3c0.3,0,0.7,0,1,0c0.7,8.1-1.8,15.3-4,23c-0.4,1.4-0.8,2.7-1.2,4.1c-0.9,3.3-1.9,6.6-2.8,9.9c-2,0.5-2,0.5-4,1
	c1.3-12,4.7-23.4,8-35c0.7,0,1.3,0,2,0C369.2,251.3,369.6,250.3,369.9,249.3z"/>
<path d="M828.9,349.3c2.9,2.9,2.4,6,2.6,9.9c0,0.8,0.1,1.6,0.1,2.4c0.1,2.5,0.2,5,0.3,7.6c0.1,2.5,0.2,5,0.4,7.5
	c0.1,1.6,0.1,3.1,0.2,4.7c0.2,3.4,0.3,6.6,1.4,9.9c-0.7,0-1.3,0-2,0c-0.5,2.5-0.5,2.5-1,5c-1.5,0.5-1.5,0.5-3,1
	c-0.1-7.6-0.1-7.6,0.5-9.8c0.6-2.6,0.5-4.9,0.4-7.6c0-1-0.1-2-0.1-3.1c-0.1-1.1-0.1-2.1-0.2-3.2c-0.1-1.1-0.1-2.2-0.2-3.3
	c-0.1-2.7-0.3-5.3-0.4-8c-0.7,0-1.3,0-2,0c0-4,0-7.9,0-12C826.9,350,827.9,349.6,828.9,349.3z"/>
<path d="M593.9,599.3c0.7,0,1.3,0,2,0c2.6,7.9,4.8,15.9,6.8,24.1c0.2,0.9,0.5,1.8,0.7,2.8c0.2,0.9,0.4,1.7,0.6,2.6
	c0.3,1.2,0.3,1.2,0.6,2.4c0.3,2.4,0,3.9-0.7,6.2c0-1,0-2,0-3c-0.7,0-1.3,0-2,0c0,2,0,4,0,6c-2-3.5-2.7-7-3.5-11c-0.2-1-0.2-1-0.4-2
	c-0.3-1.4-0.5-2.8-0.8-4.2c-0.4-2.1-0.8-4.3-1.3-6.4c-0.3-1.4-0.5-2.7-0.8-4.1c-0.4-1.9-0.4-1.9-0.7-3.8
	C593.9,605.5,593.8,602.5,593.9,599.3z"/>
<path d="M842.9,296.3c0.3,0,0.7,0,1,0c0.3,3,0.7,5.9,1,9c0.7-0.3,1.5-0.6,2.3-0.9c2.3-0.9,4.4-1.5,6.8-2.1c-1,2.9-1.7,4.7-4,6.8
	c-2.3,2.5-3,4.4-4,7.7c-1.3,4.2-2.7,6.6-6,9.5c-0.7-0.3-1.3-0.7-2-1c0.5-3.5,1.2-6.7,2.5-10C842.6,309.2,842.6,302.8,842.9,296.3z"
	/>
<path d="M1069.9,358.3c-0.7,4.5-2.3,8.4-4,12.6c-2.2,5.2-4,9.9-4.3,15.5c0,0.8-0.1,1.5-0.1,2.3c-0.1,1.2-0.1,1.2-0.1,2.4
	c0,0.8-0.1,1.6-0.1,2.4c-0.1,1.9-0.2,3.9-0.3,5.8c-3-4.5-2.4-8.8-2.4-14.1c0-1,0-2-0.1-3c0-8.1,1.3-16,7.1-22
	C1067.9,358.3,1067.9,358.3,1069.9,358.3z"/>
<path d="M536.9,581.3c0.3,0,0.7,0,1,0c0.3,10.3-0.3,20.3-1.3,30.5c-0.7,6.9-0.8,13.7-0.5,20.6c-0.3,3.2-1,4.5-3.2,6.9
	C533.5,619.9,535.2,600.6,536.9,581.3z M537.9,626.3c0.3,0,0.7,0,1,0c0.1,9.9-0.3,19.5-1,29.4c-0.1,1.3-0.2,2.7-0.3,4
	c-0.2,3.2-0.5,6.4-0.7,9.6c-0.3,0-0.7,0-1,0c0-5-0.1-10-0.1-15c0-1.7,0-3.4,0-5.1c0-2.5,0-4.9,0-7.4c0-0.8,0-1.5,0-2.3
	C535.7,634.8,536.4,630.9,537.9,626.3z"/>
<path d="M469.9,502.3c0.7,0.7,1.3,1.3,2,2c-0.3,2.6-0.3,2.6-1,5.8c-0.3,1.2-0.5,2.3-0.8,3.5c-0.3,1.2-0.6,2.4-0.9,3.7
	c-0.3,1.2-0.6,2.4-0.8,3.7c-2.1,9-2.1,9-4.4,12.4c-0.3-1.3-0.7-2.6-1-4c-1,2.5-1,2.5-2,5c-1.2-3.5-0.8-5.7,0.3-9.2
	c0.3-1,0.6-2,0.9-3c0.3-1,0.7-2.1,1-3.2c0.5-1.6,0.5-1.6,0.9-3.1C465.6,510.8,467.1,506.6,469.9,502.3z"/>
<path d="M435.9,111.3c0.7,0,1.3,0,2,0c-0.2,9.7-4.7,16.7-11.3,23.7c-2.7,2.3-2.7,2.3-4.7,2.3c1.5-5.4,4.1-9.9,7-14.7
	c0.7-1.1,0.7-1.1,1.4-2.3C432.1,117.3,433.9,114.3,435.9,111.3z"/>
<path d="M1039.9,355.3c0.3,0,0.7,0,1,0c0.3,8.9,0.7,17.8,1,27c0.3-6.6,0.7-13.2,1-20c0.3,0,0.7,0,1,0c0.2,4.5,0.4,9,0.5,13.6
	c0.1,1.5,0.1,3.1,0.2,4.6c0.1,2.2,0.2,4.4,0.3,6.6c0,0.7,0.1,1.4,0.1,2.1c0.1,1.7,0,3.4-0.1,5.1c-0.7,0.7-1.3,1.3-2,2c-1,0-2,0-3,0
	c-1.7-3.3-1-7.1-0.9-10.7c0-0.9,0-1.7,0.1-2.6c0.1-2.8,0.2-5.5,0.2-8.3c0.1-1.9,0.1-3.7,0.2-5.6
	C1039.6,364.5,1039.8,359.9,1039.9,355.3z"/>
<path d="M601.9,634.3c0.7,0,1.3,0,2,0c7.2,17.4,7.2,17.4,5,24c-0.7-0.3-1.3-0.7-2-1c0,1.7,0,3.3,0,5
	C602.2,653.8,601.4,643.8,601.9,634.3z"/>
<path d="M833.9,311.3c-0.3,3.3-0.8,4.8-3,7.3c-4,2.3-7.4,3-12,2.8c-3.6-1.4-3.6-1.4-6-3c0-1,0-2,0-3c1.1,0.1,1.1,0.1,2.1,0.1
	C822.3,315.7,827.7,311.3,833.9,311.3z"/>
<path d="M462.9,528.3c0.3,0,0.7,0,1,0c0.3,6.8-0.6,12.5-2.5,19.1c-0.2,0.9-0.5,1.7-0.7,2.6c-0.6,2.1-1.2,4.2-1.8,6.3
	c-0.3-0.7-0.7-1.3-1-2c-0.7,0-1.3,0-2,0c0.8-13.6,0.8-13.6,3-20c0.7,0,1.3,0,2,0c0.1-0.8,0.3-1.6,0.4-2.4
	C461.9,529.3,461.9,529.3,462.9,528.3z"/>
<path d="M1082.9,409.3c0,1.3,0,2.6,0,4c-1.3,0.3-2.6,0.7-4,1c0.7,1.3,1.3,2.6,2,4c-3.9,1.3-6.1,0.2-10-1c0-1,0-2,0-3
	c0.7-0.3,1.3-0.7,2-1c-0.7-0.3-1.3-0.7-2-1c0.8-1.9,0.8-1.9,2-4C1076.8,407,1079,408.1,1082.9,409.3z"/>
<path d="M656.9,766.3c1,0,2,0,3,0c1.1,1.4,2.2,2.7,3.3,4.1c3.1,3.3,6.8,5.6,10.5,8.1c0.7,0.6,1.5,1.1,2.2,1.7c0,0.7,0,1.3,0,2
	c-4.3,0.6-6.6-0.1-10.1-2.6c-3.8-3.1-6.4-6.2-8.9-10.4C656.9,768.3,656.9,767.3,656.9,766.3z"/>
<path d="M1048.9,300.3c0.3,0,0.7,0,1,0c0,0.6,0,1.2,0,1.8c0.3,5.5,0.3,5.5,3.5,9.7c0.8,0.5,1.6,0.9,2.4,1.4c-0.3,1.9-0.3,1.9-1,4
	c-1,0.3-2,0.7-3,1c-1,2.3-1,2.3-1.7,5.1c-0.3,0.9-0.5,1.8-0.8,2.8c-0.2,0.7-0.4,1.4-0.6,2.2c-0.3,0-0.7,0-1,0c-0.3-1.6-0.7-3.3-1-5
	c-0.7,0.3-1.3,0.7-2,1c0.2-0.6,0.4-1.3,0.6-1.9C1047.7,315,1048.5,307.9,1048.9,300.3z"/>
<path d="M379.9,183.3c0.3,0,0.7,0,1,0c0.3,3.6,0.7,7.3,1,11c0.3,0,0.7,0,1,0c-0.1,2.1-0.3,4.1-0.4,6.2c-0.1,1.7-0.1,1.7-0.2,3.5
	c-0.3,2.8-0.7,5.5-1.3,8.3c-0.7-1-1.3-2-2-3c-1.5,6.4-1.5,6.4-3,13c-1-4-0.9-6-0.3-10c0.2-1.2,0.4-2.3,0.5-3.5
	c0.2-1.2,0.4-2.4,0.6-3.7c0.4-2.4,0.7-4.8,1.1-7.2c0.2-1.1,0.4-2.3,0.5-3.4C379,190.7,379.5,187,379.9,183.3z"/>
<path d="M1006.9,354.3c2.8,2.8,2.3,4.8,2.4,8.8c0,1,0,1,0.1,2c0.1,2.1,0.1,4.2,0.2,6.4c0,1.4,0.1,2.9,0.1,4.3
	c0.1,3.5,0.2,7,0.3,10.6c0.7,0,1.3,0,2,0c0.3-0.7,0.7-1.3,1-2c0.2,1.4,0.4,2.9,0.6,4.3c0.1,0.8,0.2,1.6,0.4,2.4c0,2.3,0,2.3-2,5.3
	c-1.3-0.3-2.6-0.7-4-1c-1.1-4.5-1.1-8.8-1.1-13.4c0-0.8,0-1.6,0-2.4c0-2.5,0-5,0-7.5c0-1.7,0-3.4,0-5.1
	C1006.9,362.7,1006.9,358.5,1006.9,354.3z"/>
<path d="M358.9,281.3c0.1,0.6,0.2,1.3,0.4,1.9c0.3,1,0.3,1,0.6,2.1c0.7,0.3,1.3,0.7,2,1c-0.6,5-1.6,9.6-3.1,14.4
	c-0.4,1.2-0.7,2.5-1.1,3.7c-0.3,0.9-0.6,1.9-0.8,2.8c-0.7-1-1.3-2-2-3c-0.7,0.7-1.3,1.3-2,2c0.6-5.9,1.8-11.3,3.6-17
	c0.2-0.8,0.5-1.5,0.7-2.3C357.7,285.1,358.3,283.2,358.9,281.3z"/>
<path d="M509.1,108.5c0.9,0.6,1.9,1.2,2.8,1.8c0,0.7,0,1.3,0,2c-5.8-0.6-11-1.7-16.5-3.6c-0.7-0.2-1.5-0.5-2.2-0.7
	c-1.8-0.6-3.5-1.1-5.3-1.7c0-0.3,0-0.7,0-1C495,101.7,502.6,104.8,509.1,108.5z"/>
<path d="M565.9,514.3c1.5,1.1,1.5,1.1,3,3c0.5,3.4,0.5,3.4,0.7,7.2c0.1,1.3,0.1,2.5,0.2,3.9c0.1,1.5,0.1,1.5,0.1,3c-0.3,0-0.7,0-1,0
	c-0.3-2-0.7-4-1-6c0,7.9,0,15.8,0,24c-0.3,0-0.7,0-1,0c-2.7-26.4-2.7-26.4-2-34C565.2,515,565.6,514.6,565.9,514.3z"/>
<path d="M1034.9,318.3c0.7,0.3,1.3,0.7,2,1c-1.4,3.2-2,4-5,6c-2.3,0.3-2.3,0.3-4.9,0.3c-0.9,0-1.7,0-2.6,0.1
	c-2.9-0.4-4.3-1.3-6.5-3.4c0-0.7,0-1.3,0-2c1.3,0,1.3,0,2.7,0.1c1.2,0,2.3,0,3.5,0.1c1.2,0,2.3,0,3.5,0.1
	C1030.8,320.3,1032.2,319.8,1034.9,318.3z"/>
<path d="M491.9,618.3c1,0.3,2,0.7,3,1c0.4,8.8-0.8,17.3-2,26c-0.3,0-0.7,0-1,0c0-5.6,0-11.2,0-17c-1,3.5-1,3.5-2,7c-0.3,0-0.7,0-1,0
	C489.7,623.8,489.7,623.8,491.9,618.3z"/>
<path d="M407.9,570.3c0.7,0,1.3,0,2,0c-0.5,7.1-1.4,14-3,21c-0.3,0-0.7,0-1,0c-0.3-1.7-0.7-3.3-1-5c-0.7,0.7-1.3,1.3-2,2
	C403.4,581.7,405.2,576.4,407.9,570.3z"/>
<path d="M541.9,546.3c0.7,0.3,1.3,0.7,2,1c0,6.3,0,12.5,0,19c-0.3,0-0.7,0-1,0c-0.3-3.3-0.7-6.6-1-10c-1,6.9-2,13.9-3,21
	c-0.3,0-0.7,0-1,0C538.2,566.6,539,556.7,541.9,546.3z"/>
<path d="M455.9,546.3c0.9,3.1,1,4.9,0,8c0.7,0,1.3,0,2,0c0.2,5.4-0.5,9.8-2,15c-0.3,0-0.7,0-1,0c-0.3-1.7-0.7-3.3-1-5
	c-0.7,0.3-1.3,0.7-2,1C452.5,558.7,454,552.6,455.9,546.3z"/>
<path d="M355.9,753.3c0.3,0.7,0.7,1.3,1,2c1.3,0,2.6,0,4,0c-0.6,3.7-1.6,6.9-3.1,10.3c-0.4,0.9-0.7,1.8-1.1,2.7c-0.4,1-0.4,1-0.8,2
	c-0.7,0-1.3,0-2,0c0.1-2.1,0.3-4.2,0.4-6.3c0.1-1.2,0.2-2.3,0.2-3.5C354.8,758,355.2,755.7,355.9,753.3z"/>
<path d="M593.9,599.3c0.7,0,1.3,0,2,0c0.7,2.1,1.4,4.2,2.1,6.3c0.4,1.2,0.8,2.3,1.2,3.5c0.8,3.1,0.9,4.3-0.2,7.2c-0.3,2-0.7,4-1,6
	c-0.3,0-0.7,0-1,0c-0.5-2.7-1-5.4-1.5-8.1c-0.1-0.8-0.3-1.5-0.4-2.3C594.2,607.6,593.7,603.6,593.9,599.3z"/>
<path d="M984.9,364.3c1.9,0.7,1.9,0.7,4,2c2.5,5.9,2.3,11.2,0,17c-0.3,0-0.7,0-1,0c-0.1-0.6-0.3-1.2-0.4-1.9
	c-0.2-0.8-0.4-1.6-0.5-2.4c-0.2-0.8-0.3-1.6-0.5-2.4c-0.5-2.4-0.5-2.4-1.5-5.3C984.9,369,984.9,366.6,984.9,364.3z"/>
<path d="M386.9,109.3c3.2,0.6,4.9,1.5,7.3,3.8c0.5,0.5,1,1,1.6,1.5c1.2,1.7,1.2,1.7,1.2,5.7c-3.5-0.3-5-1-7.8-3.3
	c-2.2-2.8-2.2-2.8-2.5-5.6C386.7,110.8,386.8,110,386.9,109.3z"/>
<path d="M1005.9,435.3c6.9,0,13.9,0,21,0c0,1,0,2,0,3c-2.2,0.2-4.4,0.4-6.6,0.6c-1.8,0.2-1.8,0.2-3.7,0.4c-3.7,0-6.2-0.5-9.6-2
	C1006.6,436.6,1006.2,436,1005.9,435.3z"/>
<path d="M996.9,432.3c0.9,0.1,0.9,0.1,1.8,0.2c4.8,0.5,9.7,1,14.5,1.4c1,0.1,1.9,0.2,2.9,0.3c3,0.2,5.9,0.2,8.9,0.2c0,0.3,0,0.7,0,1
	c-3.9,0.9-7.5,1.1-11.6,1c-4.4-0.1-4.4-0.1-8.6,0.6c-2.9,0.7-5.1-0.5-7.8-1.6C996.9,434.3,996.9,433.3,996.9,432.3z"/>
<path d="M347.9,320.3c0.3,1.3,0.7,2.6,1,4c0.7,0,1.3,0,2,0c0.3-0.7,0.7-1.3,1-2c-0.3,1.9-0.6,3.8-0.9,5.7c-0.2,1.1-0.3,2.1-0.5,3.2
	c-0.5,2.7-1,5.4-1.5,8.1c-0.3,0-0.7,0-1,0c-0.3-2-0.7-4-1-6c-1,1-2,2-3,3C345.2,331,346.5,325.7,347.9,320.3z"/>
<path d="M808.9,360.3c0.3,0,0.7,0,1,0c1.2,5.4,2.3,10.5,2,16c-1,0-2,0-3,0c-0.7-1.4-1.4-2.9-2.1-4.3c-0.4-0.8-0.8-1.6-1.2-2.4
	c-0.7-2.3-0.7-2.3,0.3-5.3c0.7-0.3,1.3-0.7,2-1C808.2,362.3,808.6,361.3,808.9,360.3z"/>
<path d="M378.9,208.3c0.3,0,0.7,0,1,0c0.4,7.5-0.7,13.8-3,21c-0.7,0-1.3,0-2,0c-0.5-6.9,1.1-13.4,3-20
	C378.2,209,378.6,208.6,378.9,208.3z"/>
<path d="M1061.9,371.3c0.3,0,0.7,0,1,0c0.1,3.9,0,7.2-1,11c-0.1,1.4-0.2,2.7-0.3,4.1c0,0.8-0.1,1.5-0.1,2.3
	c-0.1,1.2-0.1,1.2-0.1,2.4c0,0.8-0.1,1.6-0.1,2.4c-0.1,1.9-0.2,3.9-0.3,5.8c-4.3-6.4-2.3-17.6-1-25
	C1060.6,373.3,1061.2,372.3,1061.9,371.3z"/>
<path class="st9" d="M843.9,360.3c1.3,1,2.6,2,4,3c-1,5.4-2.2,10.1-5,15c-0.3,0-0.7,0-1,0C841.7,372,842.5,366.4,843.9,360.3z"/>
<path d="M828.9,349.3c2,2,2,2,2.2,5.5c0,1.4,0,2.8-0.1,4.1c0,0.7,0,1.4,0,2.1c0,1.7-0.1,3.5-0.1,5.2c-0.3-1.3-0.7-2.6-1-4
	c-1.3,0-2.6,0-4,0c0-4,0-7.9,0-12C826.9,350,827.9,349.6,828.9,349.3z"/>
<path d="M428.9,110.3c-0.3,3.3-1,4-3.6,6.3c-0.8,0.6-1.6,1.2-2.4,1.8c0-0.7,0-1.3,0-2c-3,2.5-3,2.5-6,5c-0.7-0.3-1.3-0.7-2-1
	c1.1-1.3,2.2-2.6,3.3-3.9c0.6-0.7,1.2-1.4,1.8-2.2C422.9,111.3,424.8,110.3,428.9,110.3z"/>
<path d="M369.9,249.3c0.3,0,0.7,0,1,0c0.2,5.5-0.3,9.8-2,15c-1,0-2,0-3,0c-0.1-8.6-0.1-8.6,1-12c0.7,0,1.3,0,2,0
	C369.2,251.3,369.6,250.3,369.9,249.3z"/>
<path d="M469.9,502.3c0.7,0.7,1.3,1.3,2,2c-0.5,3.3-0.5,3.3-1.4,7.1c-0.4,1.9-0.4,1.9-0.9,3.9c-0.2,1-0.5,2-0.7,3
	c-0.7-1.3-1.3-2.6-2-4c-0.7,1.3-1.3,2.6-2,4c-1-2-1-2-0.3-4.5c0.4-1,0.7-1.9,1.1-2.9c0.4-1,0.7-1.9,1.1-2.9
	C467.9,505.3,467.9,505.3,469.9,502.3z"/>
<path d="M373.9,222.3c0.3,0,0.7,0,1,0c0,2.3,0,4.6,0,7c0.7,0,1.3,0,2,0c-0.8,7.6-0.8,7.6-3,11c-0.7,0-1.3,0-2,0
	C371.7,234,372.5,228.4,373.9,222.3z"/>
<path d="M1043.9,423.3c1,0.3,2,0.7,3,1c0,1,0,2,0,3c-2,1.8-2,1.8-4.5,3.7c-1.3,0.9-1.3,0.9-2.5,1.9c-0.6,0.5-1.3,0.9-2,1.4
	c-0.7-0.3-1.3-0.7-2-1C1037.9,428.8,1039.7,425.9,1043.9,423.3z"/>
<path d="M887.9,176.3c1,0.3,2,0.7,3,1c0,4.6,0,9.2,0,14c-1,0-2,0-3,0C887.9,186.4,887.9,181.4,887.9,176.3z"/>
<path class="st10" d="M1111.9,513.3c0.3,0,0.7,0,1,0c1,4.8,1.3,9.1,1,14c-1.5,1.7-1.5,1.7-3,3
	C1109.4,518.8,1109.4,518.8,1111.9,513.3z"/>
<path class="st11" d="M769.9,364.3c0.3,0,0.7,0,1,0c0.3,2.3,0.3,2.3,0,5c-2.4,1.8-4,3-7,3c-0.3,0.7-0.7,1.3-1,2
	c-0.3-2.3-0.7-4.6-1-7c2-0.7,4-1.4,6-2c0.7,0.3,1.3,0.7,2,1C769.9,365.6,769.9,365,769.9,364.3z"/>
<path class="st12" d="M1001.9,563.3c5.3,0.5,8.6,2.3,13,5c0,0.7,0,1.3,0,2c-5.4-0.4-8.8-1.6-13-5
	C1001.9,564.6,1001.9,564,1001.9,563.3z"/>
<path d="M1036.9,297.3c1,0.3,2,0.7,3,1c0.6,2.4,0.6,2.4,1,5c-0.7,0.7-1.3,1.3-2,2c-2.6-0.4-2.6-0.4-5-1c-0.2-2.4-0.2-2.4,0-5
	C1034.9,298.6,1035.9,298,1036.9,297.3z"/>
<path d="M449.9,127.3c2.3,3.5,2.1,4.2,1.6,8.2c-0.1,0.9-0.2,1.8-0.3,2.7c-0.1,0.7-0.2,1.4-0.3,2.1c-1.3,0.3-2.6,0.7-4,1
	C447.3,136.3,447.7,131.9,449.9,127.3z"/>
<path d="M1014.9,298.3c2.1,0.9,2.1,0.9,4,2c-0.3,1.6-0.7,3.3-1,5c-1.9,0.6-1.9,0.6-4,1c-0.7-0.7-1.3-1.3-2-2c0.3-2.6,0.3-2.6,1-5
	C1013.6,299,1014.2,298.6,1014.9,298.3z"/>
<path d="M974.9,167.3c1.5,3,1.1,5.7,1.1,9c0,1,0,1,0,2.1c0,2.2,0,4.4,0,6.6c0,1.5,0,3,0,4.5c0,3.6,0,7.3,0,10.9c-0.7,0-1.3,0-2,0
	c-0.3-1-0.7-2-1-3c0.3-0.7,0.7-1.3,1-2c0.1-2,0.1-4,0.1-6.1c0-1.2,0-2.4,0-3.7c0-1.9,0-1.9,0-3.8c0-2.5,0-5-0.1-7.5
	c0-1.1,0-2.2,0-3.4C973.9,168.3,973.9,168.3,974.9,167.3z"/>
<path d="M450.9,103.3c2.4,0.3,2.4,0.3,5,1c1.4,1.9,1.4,1.9,2,4c-0.3,0.7-0.7,1.3-1,2c-4.8-0.8-4.8-0.8-7-3
	C450.3,105.2,450.3,105.2,450.9,103.3z"/>
<path d="M1062.9,415.3c2,2,2,2,2.3,4.3c0,0.9,0,1.8,0,2.7c0,0.9,0,1.8,0,2.7c-0.3,2.3-0.3,2.3-2.3,4.3c-0.7,0-1.3,0-2,0
	c0.1-2,0.3-3.9,0.4-5.9c0.1-1.1,0.2-2.2,0.2-3.3C1061.9,417.3,1061.9,417.3,1062.9,415.3z"/>
<path d="M743.9,348.3c1.5,0.3,3,0.6,4.4,0.9c1.2,0.2,1.2,0.2,2.5,0.5c0.7,0.2,1.4,0.4,2.1,0.6c0.3,0.7,0.7,1.3,1,2c-2,2-2,2-4,3
	c-2-0.9-4-1.9-6-3C743.9,351,743.9,349.7,743.9,348.3z"/>
<path d="M377.9,200.3c0.3,0,0.7,0,1,0c0.3,2,0.7,4,1,6c0.7-1.3,1.3-2.6,2-4c-0.3,3.3-0.7,6.6-1,10c-0.7-1-1.3-2-2-3
	c-1.5,6.4-1.5,6.4-3,13c-0.9-3.6-1.1-4.9-0.4-8.3c0.1-0.8,0.3-1.6,0.4-2.4c0.2-0.8,0.3-1.6,0.5-2.5c0.1-0.8,0.3-1.7,0.4-2.5
	C377.1,204.4,377.5,202.4,377.9,200.3z"/>
<path d="M658.9,728.3c3.3,3.3,4,6.8,4.1,11.4c0,0.9-0.1,1.7-0.1,2.6c-3-2.5-4.4-5.5-6-9c0-0.7,0-1.3,0-2c0.7,0,1.3,0,2,0
	C658.9,730.3,658.9,729.3,658.9,728.3z"/>
<path d="M601.9,634.3c0.7,0,1.3,0,2,0c0.5,1.3,1.1,2.5,1.6,3.8c0.3,0.7,0.6,1.4,0.9,2.1c0.6,2,0.6,2-0.4,5c-1.3,0-2.6,0-4,0
	C601.9,641.7,601.9,638,601.9,634.3z"/>
<path d="M1033.9,334.3c0,0.7,0,1.3,0,2c1.3,0.3,2.6,0.7,4,1c-0.3,0.7-0.7,1.3-1,2c-5.3,0-10.6,0-16,0c0-0.3,0-0.7,0-1
	c3.6,0,7.3,0,11,0c0-0.7,0-1.3,0-2c-3.3,0-6.6,0-10,0c0-0.3,0-0.7,0-1c1.6-0.2,3.2-0.3,4.9-0.5c0.9-0.1,1.8-0.2,2.7-0.3
	C1031.9,334.3,1031.9,334.3,1033.9,334.3z"/>
<path d="M503.9,171.3c2,1,2,1,2.9,3.3c0.3,0.9,0.5,1.8,0.8,2.8c0.3,0.9,0.5,1.8,0.8,2.8c0.2,0.7,0.4,1.4,0.6,2.2
	c-0.7-0.3-1.3-0.7-2-1c-1,1.5-1,1.5-2,3c-0.4-2-0.7-4-1.1-5.9c-0.2-1.1-0.4-2.2-0.6-3.3c-0.1-0.9-0.2-1.8-0.3-2.7
	C503.2,172,503.6,171.6,503.9,171.3z"/>
<path d="M653.9,720.3c4.9,4.2,4.9,4.2,5.3,8.3c-0.1,0.9-0.2,1.8-0.3,2.7c-3-1-3-1-4.2-3.3C653.9,725.3,653.7,723.1,653.9,720.3z"/>
<path d="M601.9,625.3c2.4,3.8,2.6,7.6,3,12c-0.3-1-0.7-2-1-3c-0.7,0-1.3,0-2,0c0,2,0,4,0,6c-1.9-2.8-2-4.1-1.7-7.5
	C600.7,630.3,601.2,627.8,601.9,625.3z"/>
<path class="st13" d="M1068.9,560.3c0.3,1,0.7,2,1,3c-3.6,3.3-6.1,4.5-11,5C1062,565,1064.9,562.5,1068.9,560.3z"/>
<path d="M811.9,372.3c2.7,2.7,2.8,4.9,3.6,8.6c0.3,1.2,0.5,2.4,0.8,3.6c0.3,1.4,0.3,1.4,0.6,2.8c-2.8-2.7-4.9-5.6-7-9
	c0-0.7,0-1.3,0-2c0.7,0,1.3,0,2,0C811.9,375,811.9,373.7,811.9,372.3z"/>
<path class="st14" d="M490.9,337.3c4,0,7.9,0,12,0c0.3,1,0.7,2,1,3c-4,0-7.9,0-12,0C491.6,339.3,491.2,338.3,490.9,337.3z"/>
<path d="M809.5,290.2c1.1,0,2.3,0,3.4,0.1c0,1,0,2,0,3c-3,0.7-5.9,1.3-9,2C805.1,290.3,805.1,290.3,809.5,290.2z"/>
<path d="M1066.9,437.3c6.8,0.8,6.8,0.8,9,3c-0.7,0-1.3,0-2,0c0.3,1,0.7,2,1,3c-3-1-5.9-2-9-3
	C1066.2,439.3,1066.6,438.3,1066.9,437.3z"/>
<path d="M330.9,319.3c-0.5,3.8-1.5,6.1-4,9c-1-0.3-2-0.7-3-1C326.7,319.3,326.7,319.3,330.9,319.3z"/>
<path d="M349.9,313.3c0.3,1,0.7,2,1,3c0.7,0,1.3,0,2,0c0.3-0.7,0.7-1.3,1-2c-0.8,6.6-0.8,6.6-3,10c-0.7,0-1.3,0-2,0
	C348.8,316.7,348.8,316.7,349.9,313.3z"/>
<path d="M1047.9,438.3c1.7,0.3,3.3,0.7,5,1c-0.3,1.3-0.7,2.6-1,4c-1.7,0.3-3.3,0.7-5,1c-0.3-1-0.7-2-1-3
	C1046.6,440.3,1047.2,439.3,1047.9,438.3z"/>
<path d="M829.9,386.3c0.7,0.7,1.3,1.3,2,2c0.7-0.3,1.3-0.7,2-1c0,1.3,0,2.6,0,4c-0.7,0-1.3,0-2,0c-0.3,1.6-0.7,3.3-1,5
	c-1,0.3-2,0.7-3,1C827.7,389.7,827.7,389.7,829.9,386.3z"/>
<path d="M807.9,295.3c2.5,0.5,2.5,0.5,5,1c0,1.6,0,3.3,0,5c-1.9,0.6-1.9,0.6-4,1c-1-1-1-1-1.1-4.1
	C807.9,297.3,807.9,296.3,807.9,295.3z"/>
<path d="M827.9,287.3c2.3,0.3,4.7,0.6,7,1c0.3,1,0.7,2,1,3c-3,0-5.9,0-9,0C826.9,288.3,826.9,288.3,827.9,287.3z"/>
<path d="M362.9,275.3c0.3,0,0.7,0,1,0c0.1,7.4,0.1,7.4-1,11c-1.3,0.3-2.6,0.7-4,1c0.3-1.4,0.6-2.9,0.9-4.3c0.2-0.8,0.3-1.6,0.5-2.4
	C360.9,278.3,360.9,278.3,362.9,275.3z"/>
<path d="M828.9,328.3c0,0.7,0,1.3,0,2c1,0.7,2,1.3,3,2c-3.6,1.2-6.4,1.1-10.2,1.1c-1.3,0-2.5,0-3.9,0c-1.5,0-1.5,0-3,0
	c0-0.3,0-0.7,0-1c4,0,7.9,0,12,0c0-0.7,0-1.3,0-2c-2.3,0-4.6,0-7,0c0-0.3,0-0.7,0-1C826.7,328.3,826.7,328.3,828.9,328.3z"/>
<path d="M1081.9,409.3c0,0.7,0,1.3,0,2c-3.3,0-6.6,0-10,0c0.3-1,0.7-2,1-3C1076.7,407,1078.3,407.9,1081.9,409.3z"/>
<path class="st15" d="M843.9,344.3c2.7,3.6,3.8,5.8,5,10c-1.7,0.3-3.3,0.7-5,1C843.9,351.7,843.9,348,843.9,344.3z"/>
<path d="M346.9,332.3c0.3,0,0.7,0,1,0c0,3.3,0,6.6,0,10c-1.3-0.3-2.6-0.7-4-1c-0.3-3.1-0.2-4.6,1.4-7.3
	C345.9,333.4,346.4,332.9,346.9,332.3z"/>
<path d="M1057.9,414.3c-0.5,3.8-2.2,5.5-5,8c-0.3,0-0.7,0-1,0c-0.4-4.5-0.4-4.5,1.3-6.8C1054.9,414.3,1054.9,414.3,1057.9,414.3z"/>
<path d="M1081.9,409.3c0.7,0.3,1.3,0.7,2,1c-0.3,1-0.7,2-1,3c-3.3,0.3-6.6,0.7-10,1c-0.7-1.3-1.3-2.6-2-4c3.6,0.3,7.3,0.7,11,1
	C1081.9,410.6,1081.9,410,1081.9,409.3z"/>
<path d="M1009.9,371.3c0.3,0,0.7,0,1,0c0.3,5,0.7,9.9,1,15c-1,0.3-2,0.7-3,1c0-1.7,0-3.5-0.1-5.2c0-1,0-1.9,0-2.9
	C1008.9,376.4,1009.3,374,1009.9,371.3z"/>
<path d="M1050.9,338.3c0.7,0.3,1.3,0.7,2,1c-0.3,0.3-0.7,0.7-1,1c1,0.7,2,1.3,3,2c-3.6,1.3-6.1,2-10,2c1-2.5,1.7-3.8,4-5.3
	C1049.6,338.8,1050.2,338.5,1050.9,338.3z"/>
<path d="M326.9,311.3c1,0.3,2,0.7,3,1c-1.3,2.3-2.6,4.6-4,7c-1,0-2,0-3,0C323.5,315.9,324.7,313.9,326.9,311.3z"/>
<path d="M431.9,302.3c0.7,0.3,1.3,0.7,2,1c-3.6,3.6-7.3,7.3-11,11c0-4.2,2.2-6.1,5-9C430.2,303.4,430.2,303.4,431.9,302.3z"/>
<path d="M829.9,293.3c1.3,0.7,2.6,1.3,4,2c-0.3,1.3-0.7,2.6-1,4c-1.7-0.3-3.3-0.7-5-1C828.8,294.4,828.8,294.4,829.9,293.3z"/>
<path d="M362.9,267.3c0.9,3,1,3.9,0,7c0.7,0,1.3,0,2,0c0.3-0.7,0.7-1.3,1-2c-0.3,2.3-0.7,4.6-1,7c-0.7-1-1.3-2-2-3
	c-0.7,1.6-1.3,3.3-2,5c-1.3-3.5-0.7-5.7,0.4-9.3c0.3-0.9,0.6-1.8,0.9-2.7C362.4,268.7,362.7,268,362.9,267.3z"/>
<path d="M378.9,208.3c0.3,0,0.7,0,1,0c0.2,10.6,0.2,10.6-1,15c-0.3,0-0.7,0-1,0C376.4,212.7,376.4,212.7,378.9,208.3z"/>
<path d="M443.9,67.3c2.6,0,5.3,0,8,0c-0.7,0.7-1.3,1.3-2,2c1.7,1,3.3,2,5,3c-1,0.5-1,0.5-2,1c-0.7-0.3-1.3-0.7-2-1
	c-0.3,0.7-0.7,1.3-1,2c-0.6-0.8-1.2-1.6-1.9-2.4C446,69.3,446,69.3,443.9,67.3z"/>
<path d="M1050.9,429.3c3.4,0.6,5.4,1.8,8,4c-1,0.3-2,0.7-3,1c0.3,0.7,0.7,1.3,1,2c-2.5-1.2-4-2-6-4
	C1050.9,431.3,1050.9,430.3,1050.9,429.3z"/>
<path d="M469.9,502.3c0.7,0.7,1.3,1.3,2,2c-0.2,2.4-0.2,2.4-0.9,5.1c-0.2,0.9-0.4,1.8-0.6,2.8c-0.2,0.7-0.3,1.4-0.5,2.1
	c-0.3,0-0.7,0-1,0c-0.1-0.8-0.3-1.6-0.4-2.4c-0.4-2.6-0.4-2.6-1.6-4.6C468.3,504.7,468.3,504.7,469.9,502.3z"/>
<path d="M973.9,401.3c0.7,0,1.3,0,2,0c-0.3,2.3-0.7,4.6-1,7c-1.3,0-2.6,0-4,0C971.9,406,972.9,403.7,973.9,401.3z"/>
<path d="M504.9,107.3c2.9,0.8,2.9,0.8,6,2c0.3,1,0.7,2,1,3c-2.6-0.3-5.3-0.7-8-1C504.2,110,504.6,108.7,504.9,107.3z"/>
<path d="M652.9,711.3c2.5,3.7,3,6.7,4,11c-0.7-0.3-1.3-0.7-2-1c-0.7,0.7-1.3,1.3-2,2c-0.3-1.7-0.7-3.3-1-5c0.7,0,1.3,0,2,0
	C653.6,716,653.2,713.7,652.9,711.3z"/>
<path d="M1069.9,358.3c-0.8,4.8-0.8,4.8-3,7c-0.3-0.7-0.7-1.3-1-2c-1,0.7-2,1.3-3,2C1065.3,358.3,1065.3,358.3,1069.9,358.3z"/>
<path d="M397.9,302.3c1.3,2.6,1.6,5.1,2,8c-0.3,1-0.7,2-1,3c-1-0.3-2-0.7-3-1c0.1-1.5,0.3-3,0.4-4.4c0.1-0.8,0.2-1.6,0.2-2.5
	C396.9,303.3,396.9,303.3,397.9,302.3z"/>
<path d="M590.9,746.3c1,0,2,0,3,0c1.4,2.7,1.1,5,1,8c-2-1.8-2-1.8-4-4C590.9,749,590.9,747.7,590.9,746.3z"/>
<path d="M455.9,546.3c1,3.1,1,4.9,0,8c0.7,0,1.3,0,2,0c0,2.3,0,4.6,0,7c-0.3,0-0.7,0-1,0c-0.3-1.7-0.7-3.3-1-5c-1,0.5-1,0.5-2,1
	C454.8,549.7,454.8,549.7,455.9,546.3z"/>
<path d="M347.9,320.3c0.3,1.3,0.7,2.6,1,4c0.7,0,1.3,0,2,0c0.3-0.7,0.7-1.3,1-2c-0.3,2.3-0.7,4.6-1,7c-0.7-1-1.3-2-2-3
	c-0.7,1.6-1.3,3.3-2,5C345.3,327.3,346.6,324.3,347.9,320.3z"/>
<path d="M457.9,547.3c0.7,0.7,1.3,1.3,2,2c-0.4,3.6-0.4,3.6-1,7c-0.3-0.7-0.7-1.3-1-2c-0.7,0-1.3,0-2,0
	C456.8,548.4,456.8,548.4,457.9,547.3z"/>
<path d="M1073.9,440.3c3.3,0,6.6,0,10,0c0,0.7,0,1.3,0,2c-2.6,0.7-5.3,1.3-8,2C1075.2,443,1074.6,441.7,1073.9,440.3z"/>
<path class="st16" d="M808.9,363.3c0,3,0,5.9,0,9c-3.1-3.1-3.4-3.9-4-8C807.9,363.3,807.9,363.3,808.9,363.3z"/>
<path d="M1045.9,319.3c2.5,1,2.5,1,5,2c-0.7,2.3-1.3,4.6-2,7c-0.3,0-0.7,0-1,0c-0.3-1.6-0.7-3.3-1-5c-1,0.5-1,0.5-2,1
	C1045.2,322.7,1045.6,321,1045.9,319.3z"/>
<path d="M380.9,196.3c0.3,0,0.7,0,1,0c-0.1,1.6-0.2,3.3-0.4,4.9c-0.1,1.4-0.1,1.4-0.2,2.8c-0.1,0.8-0.3,1.5-0.4,2.3
	c-1,0.5-1,0.5-2,1C378.6,199.9,378.6,199.9,380.9,196.3z"/>
<path d="M421.9,112.3c0.7,0.3,1.3,0.7,2,1c-2.3,2.6-4.6,5.3-7,8c-0.7-0.3-1.3-0.7-2-1C417.2,117.7,419.5,115,421.9,112.3z"/>
<path d="M968.9,393.3c0.3,0,0.7,0,1,0c1.4,7.4,1.4,7.4-0.4,10.5c-0.5,0.5-1,1-1.6,1.5C966.4,400.8,967.6,397.8,968.9,393.3z"/>
<path d="M748.9,340.3c0,0.7,0,1.3,0,2c-2.6,1.1-2.6,1.1-5.2,2.1c-2.1,0.9-2.1,0.9-4.8,2.9c0.1-1.8,0.1-1.8,1-4
	C743.1,341.3,745.1,340.3,748.9,340.3z"/>
<path d="M449.9,127.3c2.3,3.5,2.1,4.2,1.6,8.2c-0.1,0.9-0.2,1.8-0.3,2.7c-0.1,0.7-0.2,1.4-0.3,2.1c-0.3,0-0.7,0-1,0
	c-0.2-2-0.4-4-0.6-5.9c-0.1-1.1-0.2-2.2-0.3-3.3c0-0.9-0.1-1.8-0.1-2.7C449.2,128,449.6,127.6,449.9,127.3z"/>
<path d="M498.9,106.3c2,0,4,0,6,0c0,1.3,0,2.6,0,4c-1.7-0.3-3.3-0.7-5-1C499.6,108.3,499.2,107.3,498.9,106.3z"/>
<path d="M590.9,725.3c0.3,0,0.7,0,1,0c0.3,4.6,0.7,9.2,1,14c-1.3,0-2.6,0-4,0c0.7-0.3,1.3-0.7,2-1
	C590.9,734,590.9,729.7,590.9,725.3z"/>
<path d="M535.9,634.3c0.3,0,0.7,0,1,0c0,2.3,0,4.6,0,7c-1,0.3-2,0.7-3,1c-0.1-2.9-0.1-2.9,0-6C534.6,635.6,535.2,635,535.9,634.3z"
	/>
<path d="M1061.9,446.3c1.5,0.3,2.9,0.6,4.4,0.9c0.8,0.2,1.6,0.3,2.5,0.5c2.2,0.6,2.2,0.6,4.2,2.6c-1.7,0.3-3.3,0.7-5,1c0-1,0-2,0-3
	c-2,0-4,0-6,0C1061.9,447.6,1061.9,447,1061.9,446.3z"/>
<path d="M358.9,281.3c0.1,0.6,0.2,1.3,0.4,1.9c0.2,0.7,0.4,1.4,0.6,2.1c0.7,0.3,1.3,0.7,2,1c-0.3,2.3-0.7,4.6-1,7c-0.3,0-0.7,0-1,0
	c0-1.6,0-3.3,0-5c-0.7,0-1.3,0-2,0C358.2,286,358.6,283.7,358.9,281.3z"/>
<path d="M370.9,236.3c0.3,1.3,0.7,2.6,1,4c0.7,0,1.3,0,2,0c0.3-0.7,0.7-1.3,1-2c-0.3,2.6-0.7,5.3-1,8c-0.7-1.3-1.3-2.6-2-4
	c-0.7,0.7-1.3,1.3-2,2C370.2,241.7,370.6,239,370.9,236.3z"/>
<path class="st17" d="M780.9,589.3c1,0.3,2,0.7,3,1c-0.6,0.6-1.3,1.1-1.9,1.7c-2.3,2.5-2.7,4-3.1,7.3c-0.3,0-0.7,0-1,0
	c-0.4-6.5-0.4-6.5,1.5-8.9C779.9,590,780.4,589.7,780.9,589.3z"/>
<path d="M407.9,570.3c0.7,0,1.3,0,2,0c-0.3,3.6-0.7,7.3-1,11c-0.3,0-0.7,0-1,0c-0.2-1.6-0.4-3.3-0.6-4.9c-0.1-0.9-0.2-1.8-0.3-2.8
	c0-0.8-0.1-1.5-0.1-2.3C407.2,571,407.6,570.6,407.9,570.3z"/>
<path d="M996.9,432.3c2,0,4,0,6,0c0,1,0,2,0,3c-2,0-4,0-6,0C996.9,434.3,996.9,433.3,996.9,432.3z"/>
<path class="st10" d="M863.9,406.3c1.7,0,3.3,0,5,0c0.3,1.3,0.7,2.6,1,4c-1.7-0.3-3.3-0.7-5-1C864.6,408.3,864.2,407.3,863.9,406.3z
	"/>
<path d="M356.9,296.3c0.7,0.3,1.3,0.7,2,1c-0.3,2.3-0.7,4.6-1,7c-0.3-0.7-0.7-1.3-1-2c-0.7,0-1.3,0-2,0
	C355.8,297.4,355.8,297.4,356.9,296.3z"/>
<path d="M1030.9,433.3c0.7,0.7,1.3,1.3,2,2c-0.7,0.7-1.3,1.3-2,2c-1.3,0-2.6,0-4,0c0-0.7,0-1.3,0-2c-0.7-0.3-1.3-0.7-2-1
	C1027.8,433.7,1027.8,433.7,1030.9,433.3z"/>
<path class="st18" d="M843.9,360.3c1.3,1,2.6,2,4,3c-0.3,1.6-0.7,3.3-1,5c-0.7,0-1.3,0-2,0C844.6,365.7,844.2,363,843.9,360.3z"/>
<path d="M1041.9,327.3c0,3,0,3-1.3,4.4c-1.6,1.2-3.1,2.4-4.7,3.6c-0.7-0.7-1.3-1.3-2-2C1036.5,331.3,1039.2,329.3,1041.9,327.3z"/>
<path d="M817.9,306.3c2,0.5,2,0.5,4,1c0,1,0,2,0,3c-1.7-0.3-3.3-0.7-5-1C817.2,308.3,817.6,307.3,817.9,306.3z"/>
<path d="M369.9,249.3c0.3,0,0.7,0,1,0c0,2.6,0,5.3,0,8c-1-0.3-2-0.7-3-1C368.8,250.4,368.8,250.4,369.9,249.3z"/>
<path d="M512.9,208.3c0.7,0.3,1.3,0.7,2,1c-1.5,1.5-1.5,1.5-3,3c1,0.7,2,1.3,3,2c-2,0-4,0-6,0c0.3-1.9,0.3-1.9,1-4
	C510.9,209.6,511.9,209,512.9,208.3z"/>
<path d="M445.9,139.3c2,0.5,2,0.5,4,1c-0.3,2.3-0.7,4.6-1,7c-0.7-1.3-1.3-2.6-2-4c-1,0.5-1,0.5-2,1
	C445.2,142.7,445.6,141,445.9,139.3z"/>
<path d="M659.9,734.3c1.5,1,1.5,1,3,2c0.2,3.1,0.2,3.1,0,6c-1.5-1.2-1.5-1.2-3-3C659.7,736.6,659.7,736.6,659.9,734.3z"/>
<path class="st19" d="M1056.9,460.3c2.3,0.7,4.6,1.3,7,2c0,0.7,0,1.3,0,2c-1.7,0-3.3,0-5,0C1058.2,463,1057.6,461.7,1056.9,460.3z"
	/>
<path d="M368.9,244.3c0.3,1.3,0.7,2.6,1,4c0.7,0,1.3,0,2,0c0,2,0,4,0,6c-0.7-1.3-1.3-2.6-2-4c-0.7,0.7-1.3,1.3-2,2
	C368.2,249.7,368.6,247,368.9,244.3z"/>
<path d="M436.9,159.3c1,1.3,2,2.6,3,4c-1.4,1.5-1.4,1.5-3,3c-0.7,0-1.3,0-2,0C435.6,164,436.2,161.7,436.9,159.3z"/>
<path d="M1023.9,311.3c2,0.5,2,0.5,4,1c-0.3,1-0.7,2-1,3c-1.3-0.3-2.6-0.7-4-1C1023.2,313.3,1023.6,312.3,1023.9,311.3z"/>
<path d="M693.9,740.3c0.7,0,1.3,0,2,0c-0.3,0.7-0.7,1.3-1,2C694.6,741.6,694.2,741,693.9,740.3z"/>
<path class="st20" d="M594.9,113.3c0.7,0.7,1.3,1.3,2,2c-0.7,0-1.3,0-2,0C594.9,114.6,594.9,114,594.9,113.3z"/>
<path class="st21" d="M460-232"/>
<path class="st21" d="M460-232"/>
<path class="st22" d="M460-232"/>
<path class="st22" d="M460-232"/>
<path class="st22" d="M460-232"/>
<path class="st22" d="M460-232"/>
<path class="st22" d="M460-232"/>
</svg>
