<?xml version="1.0" encoding="UTF-8"?>
<svg version="1.1" xmlns="http://www.w3.org/2000/svg" width="468" height="304">
<path d="M0 0 C0 1.32 0 2.64 0 4 C-2.38564077 3.42415568 -4.66682784 2.77772405 -7 2 C-6.55296014 6.47883696 -6.55296014 6.47883696 -4 10 C-2.3501725 9.57781184 -0.70516335 9.13675575 0.9375 8.6875 C1.85402344 8.44386719 2.77054688 8.20023438 3.71484375 7.94921875 C4.46894531 7.63597656 5.22304687 7.32273437 6 7 C6.33 6.01 6.66 5.02 7 4 C8.32 4 9.64 4 11 4 C10.32829194 7.8063457 9.27253436 11.35206816 8 15 C15.83844507 11.98521343 19.0516862 8.33258277 23 1 C23.99 1.33 24.98 1.66 26 2 C25.67 4.31 25.34 6.62 25 9 C25.59167969 8.62746094 26.18335938 8.25492188 26.79296875 7.87109375 C27.58316406 7.39800781 28.37335938 6.92492187 29.1875 6.4375 C29.96480469 5.96183594 30.74210937 5.48617187 31.54296875 4.99609375 C34.51289644 3.79206901 35.99779973 3.96815569 39 5 C39.495 5.99 39.495 5.99 40 7 C41.051875 6.34 42.10375 5.68 43.1875 5 C46.26623937 3.2228415 48.38596328 2.56193494 52 3 C52.19622241 7.21878192 51.80230168 10.17010894 50 14 C50.94875 13.34 51.8975 12.68 52.875 12 C56 10 56 10 58 10 C58.25394531 9.38769531 58.50789063 8.77539062 58.76953125 8.14453125 C60.83484679 4.54498132 64.13043216 3.21575291 68 2 C70.56348527 1.96633321 72.48472408 2.37118102 75 3 C74.6875 6.375 74.6875 6.375 74 10 C70.79619983 12.13586678 69.98060033 12.23132175 66.3125 12.125 C65.50425781 12.10695313 64.69601563 12.08890625 63.86328125 12.0703125 C62.94095703 12.03550781 62.94095703 12.03550781 62 12 C62 13.32 62 14.64 62 16 C67.99319847 16.49943321 71.94262555 15.26140052 77 12 C78.36886951 10.70317626 79.7169291 9.38176866 81 8 C81.66 8 82.32 8 83 8 C82.78087133 11.83475164 82.05971606 12.94164113 79.25 15.6875 C73.09223014 20.06899009 67.45885368 20.98686372 60 20 C57.3125 18 57.3125 18 56 16 C54.9275 16.515625 53.855 17.03125 52.75 17.5625 C50.28522388 18.63240282 49.27867697 19.03572782 46.5625 18.6875 C46.046875 18.460625 45.53125 18.23375 45 18 C44.00564594 14.90645403 44.12159004 13.09720845 45 10 C44.20335937 10.59748047 44.20335937 10.59748047 43.390625 11.20703125 C41.26041667 12.8046875 39.13020833 14.40234375 37 16 C36.3090625 16.5671875 35.618125 17.134375 34.90625 17.71875 C33 19 33 19 30.25 18.6875 C29.5075 18.460625 28.765 18.23375 28 18 C28.66 16.02 29.32 14.04 30 12 C29.25234375 12.5775 28.5046875 13.155 27.734375 13.75 C26.74953125 14.4925 25.7646875 15.235 24.75 16 C23.77546875 16.7425 22.8009375 17.485 21.796875 18.25 C19 20 19 20 15 20 C15 19.34 15 18.68 15 18 C14.29875 18.33 13.5975 18.66 12.875 19 C9.69224674 20.10704461 7.34671266 20.29748557 4 20 C2 18 2 18 1.875 14.875 C1.91625 13.92625 1.9575 12.9775 2 12 C0.02 12.99 0.02 12.99 -2 14 C-1.94199219 14.68707031 -1.88398437 15.37414062 -1.82421875 16.08203125 C-1.68850092 18.79251012 -1.64821554 21.30732883 -2 24 C-4.25 26.0625 -4.25 26.0625 -7 27 C-7.8971875 27.3403125 -7.8971875 27.3403125 -8.8125 27.6875 C-13.65797019 28.37971003 -17.78747863 28.80834758 -22 26 C-21.835 25.195625 -21.67 24.39125 -21.5 23.5625 C-20.96808161 21.2715557 -20.96808161 21.2715557 -21 20 C-21.75925781 20.02320312 -22.51851562 20.04640625 -23.30078125 20.0703125 C-24.29464844 20.08835937 -25.28851563 20.10640625 -26.3125 20.125 C-27.79169922 20.15980469 -27.79169922 20.15980469 -29.30078125 20.1953125 C-32 20 -32 20 -35 18 C-35.51559204 13.50698369 -35.63686088 11.14634958 -33.4375 7.1875 C-30.40257814 4.46385218 -27.90510325 3.19138743 -24 2 C-20.0625 2.3125 -20.0625 2.3125 -17 3 C-17.3125 6.375 -17.3125 6.375 -18 10 C-21.20380017 12.13586678 -22.01939967 12.23132175 -25.6875 12.125 C-26.49574219 12.10695313 -27.30398437 12.08890625 -28.13671875 12.0703125 C-29.05904297 12.03550781 -29.05904297 12.03550781 -30 12 C-30 13.32 -30 14.64 -30 16 C-24.01306681 16.4989111 -20.08044617 15.20009713 -15 12 C-12.60063069 9.60063069 -12.7133711 8.785915 -12.5 5.5 C-12.22222222 1.22222222 -12.22222222 1.22222222 -10 -1 C-6.26183697 -2.60206987 -3.66390294 -1.41559886 0 0 Z M-27 7 C-27 7.66 -27 8.32 -27 9 C-25.35 8.67 -23.7 8.34 -22 8 C-22 7.34 -22 6.68 -22 6 C-24.9254644 5.7763932 -24.9254644 5.7763932 -27 7 Z M65 7 C65 7.66 65 8.32 65 9 C66.65 8.67 68.3 8.34 70 8 C70 7.34 70 6.68 70 6 C67.0745356 5.7763932 67.0745356 5.7763932 65 7 Z M-9 17 C-10.33617352 17.97528737 -11.6688751 18.95533319 -13 19.9375 C-14.11375 20.75541016 -14.11375 20.75541016 -15.25 21.58984375 C-15.8275 22.05519531 -16.405 22.52054688 -17 23 C-17 23.33 -17 23.66 -17 24 C-12.545 23.505 -12.545 23.505 -8 23 C-7.67 21.68 -7.34 20.36 -7 19 C-7.66 18.34 -8.32 17.68 -9 17 Z " fill="#A4163D" transform="translate(113,72)"/>
<path d="M0 0 C1.32 0 2.64 0 4 0 C6.89254322 8.67762965 0.97703151 21.76546365 -1.81640625 30.24609375 C-2.62812316 32.82054905 -3.32051256 35.28262695 -3.92578125 37.8984375 C-5.0489028 42.51546677 -6.80876985 46.80550527 -8.625 51.1875 C-11.1361602 57.34058679 -13.58810595 63.50522702 -15.91113281 69.73193359 C-36.63760538 125.2230215 -36.63760538 125.2230215 -48 136 C-52.3152479 137.34237605 -52.3152479 137.34237605 -55 136 C-54.56744677 128.19771915 -52.32663947 121.92151887 -49.3125 114.75 C-48.82773193 113.58194824 -48.34296387 112.41389648 -47.84350586 111.21044922 C-39.65355422 91.76917174 -30.4497529 72.82101144 -19.71875 54.6484375 C-18.81240306 53.09901504 -17.90615572 51.54953431 -17 50 C-16.2433606 48.73579224 -16.2433606 48.73579224 -15.47143555 47.44604492 C-11.41293851 40.41271995 -8.98479092 33.36600349 -6.8125 25.5625 C-6.48314453 24.42490234 -6.15378906 23.28730469 -5.81445312 22.11523438 C-3.710726 14.78355713 -1.80165376 7.41129098 0 0 Z M-26 76 C-25 78 -25 78 -25 78 Z M-27 78 C-26 80 -26 80 -26 80 Z M-28 80 C-38.57146968 97.61211313 -38.57146968 97.61211313 -42 116 C-40.24452217 112.37762856 -38.49665126 108.75163467 -36.75 105.125 C-36.25886719 104.11179687 -35.76773438 103.09859375 -35.26171875 102.0546875 C-29.02402686 91.35426604 -29.02402686 91.35426604 -28 80 Z M-44 116 C-43 118 -43 118 -43 118 Z M-45 118 C-44 120 -44 120 -44 120 Z M-46 120 C-45 122 -45 122 -45 122 Z " fill="#A4163D" transform="translate(85,10)"/>
<path d="M0 0 C2.46972151 -0.00485548 4.93939715 -0.01412308 7.40910339 -0.02391815 C30.50925535 -0.09614555 53.32647844 0.54849545 76.01078796 5.43256378 C76.34078796 6.75256378 76.67078796 8.07256378 77.01078796 9.43256378 C75.01078796 10.43256378 75.01078796 10.43256378 72.24980164 9.54608917 C70.64648987 8.9948941 70.64648987 8.9948941 69.01078796 8.43256378 C67.078206 8.10356097 65.13494608 7.83282204 63.18656921 7.61615753 C62.07346375 7.491763 60.96035828 7.36736847 59.81352234 7.23920441 C58.661745 7.117388 57.50996765 6.99557159 56.32328796 6.87006378 C55.22178406 6.74438019 54.12028015 6.61869659 52.98539734 6.48920441 C36.47832819 4.69065894 19.91800493 4.19394152 3.32328796 4.18256378 C1.95942459 4.18155167 1.95942459 4.18155167 0.56800842 4.1805191 C-44.52298508 4.23244098 -89.90451774 8.35084224 -134.48921204 14.99506378 C-135.74467834 15.18052765 -137.00014465 15.36599152 -138.2936554 15.5570755 C-146.1069464 16.78682279 -153.67845062 18.51988017 -161.31538391 20.54560089 C-164.89241476 21.40919426 -168.34388871 21.97454806 -171.98921204 22.43256378 C-171.98921204 21.44256378 -171.98921204 20.45256378 -171.98921204 19.43256378 C-165.20628738 16.4729081 -158.63387499 14.41539447 -151.36421204 13.05756378 C-150.27487366 12.85332794 -149.18553528 12.6490921 -148.06318665 12.4386673 C-128.17093245 8.89099565 -108.06756615 6.62548127 -87.98921204 4.43256378 C-86.99790283 4.32281219 -86.00659363 4.21306061 -84.98524475 4.09998322 C-56.66786708 0.99233012 -28.46360754 0.04802113 0 0 Z " fill="#A4163D" transform="translate(172.9892120361328,-0.43256378173828125)"/>
<path d="M0 0 C0.99 0 1.98 0 3 0 C2.47093874 5.93812044 0.68976406 10.61663449 -1.8125 16 C-2.20775879 16.86012695 -2.60301758 17.72025391 -3.01025391 18.60644531 C-10.7703073 35.27486057 -19.14522772 51.13791036 -30 66 C-30.66 66.99 -31.32 67.98 -32 69 C-30.9797876 68.98428955 -29.9595752 68.9685791 -28.90844727 68.95239258 C-5.59808789 68.62540564 17.16314403 68.6457932 40 74 C40 74.66 40 75.32 40 76 C33.98700691 75.55197306 28.00509803 75.00959827 22.02304077 74.24627686 C11.99699001 73.00542829 2.08737694 72.68992731 -8.00830078 72.73925781 C-10.65810256 72.75013589 -13.30724772 72.73920135 -15.95703125 72.7265625 C-17.67187647 72.72788193 -19.38672129 72.73043984 -21.1015625 72.734375 C-21.87875641 72.73032654 -22.65595032 72.72627808 -23.45669556 72.72210693 C-30.05258708 72.77813858 -36.92500729 73.24277026 -41.875 78.0625 C-45.97575359 81.96298423 -48.24580824 82.10655911 -54 82 C-54.495 79.525 -54.495 79.525 -55 77 C-51.35115828 74.21535763 -48.7677136 72.90333628 -44.25 72.0625 C-32.81399358 68.79751162 -26.01323714 52.46185712 -20.59375 42.75390625 C-14.33481018 31.35467485 -8.9058752 19.7367525 -3.88037109 7.74072266 C-3.33823975 6.44787354 -3.33823975 6.44787354 -2.78515625 5.12890625 C-2.46426025 4.35619385 -2.14336426 3.58348145 -1.81274414 2.78735352 C-1 1 -1 1 0 0 Z M-51 78 C-50.01 78.33 -49.02 78.66 -48 79 C-46.68 77.68 -45.36 76.36 -44 75 C-46.89508511 75 -48.59696473 76.48229352 -51 78 Z " fill="#A4163D" transform="translate(145,196)"/>
<path d="M0 0 C0 1.32 0 2.64 0 4 C-2.38564077 3.42415568 -4.66682784 2.77772405 -7 2 C-6.55296014 6.47883696 -6.55296014 6.47883696 -4 10 C-3.46890625 9.7834375 -2.9378125 9.566875 -2.390625 9.34375 C-1.68421875 9.0653125 -0.9778125 8.786875 -0.25 8.5 C0.79414063 8.08234375 0.79414063 8.08234375 1.859375 7.65625 C4 7 4 7 8 7 C7 10 7 10 4.93359375 11.16796875 C4.10988281 11.50441406 3.28617187 11.84085938 2.4375 12.1875 C1.61121094 12.53167969 0.78492188 12.87585938 -0.06640625 13.23046875 C-0.70449219 13.48441406 -1.34257812 13.73835938 -2 14 C-1.94199219 14.68707031 -1.88398438 15.37414062 -1.82421875 16.08203125 C-1.68850092 18.79251012 -1.64821554 21.30732883 -2 24 C-4.25 26.0625 -4.25 26.0625 -7 27 C-7.598125 27.226875 -8.19625 27.45375 -8.8125 27.6875 C-13.65797019 28.37971003 -17.78747863 28.80834758 -22 26 C-21.125 21.125 -21.125 21.125 -20 20 C-20.804375 19.71125 -21.60875 19.4225 -22.4375 19.125 C-25 18 -25 18 -26 16 C-26.515625 16.474375 -27.03125 16.94875 -27.5625 17.4375 C-30.7129897 19.45704468 -33.2953203 19.73056875 -37 20 C-37.99 19.67 -38.98 19.34 -40 19 C-41.03167966 16.66620039 -41.17185671 15.48791502 -40.3203125 13.0703125 C-36.92274789 7.54094265 -32.94489175 3.73444765 -27 1 C-24.43073876 0.55848162 -22.61581921 0.66606563 -20 1 C-19.67 2.65 -19.34 4.3 -19 6 C-20.5778125 5.87625 -20.5778125 5.87625 -22.1875 5.75 C-26.64416239 6.04224016 -27.93040324 6.84513666 -31 10 C-32.02464476 11.65162977 -33.02847246 13.31657729 -34 15 C-33.32453125 14.4225 -32.6490625 13.845 -31.953125 13.25 C-31.06109375 12.5075 -30.1690625 11.765 -29.25 11 C-28.36828125 10.2575 -27.4865625 9.515 -26.578125 8.75 C-24 7 -24 7 -20 7 C-19.875 12.75 -19.875 12.75 -21 15 C-15.68588506 13.07608351 -15.68588506 13.07608351 -12 9 C-11.83326446 7.00796011 -11.83326446 7.00796011 -12 4.9375 C-12 1 -12 1 -10 -1 C-6.26183697 -2.60206987 -3.66390294 -1.41559886 0 0 Z M-9 17 C-10.33617352 17.97528737 -11.6688751 18.95533319 -13 19.9375 C-14.11375 20.75541016 -14.11375 20.75541016 -15.25 21.58984375 C-15.8275 22.05519531 -16.405 22.52054688 -17 23 C-17 23.33 -17 23.66 -17 24 C-12.545 23.505 -12.545 23.505 -8 23 C-7.67 21.68 -7.34 20.36 -7 19 C-7.66 18.34 -8.32 17.68 -9 17 Z " fill="#A4163D" transform="translate(423,72)"/>
<path d="M0 0 C0 1.32 0 2.64 0 4 C-2.38564077 3.42415568 -4.66682784 2.77772405 -7 2 C-6.55296014 6.47883696 -6.55296014 6.47883696 -4 10 C-2.14563936 9.22963343 -0.29152167 8.45868202 1.5625 7.6875 C2.66078125 7.23503906 3.7590625 6.78257813 4.890625 6.31640625 C7.24809552 5.31833142 9.51974105 4.25560361 11.8125 3.125 C15.62300749 1.780115 18.09910621 2.12428915 22 3 C21.6875 6.375 21.6875 6.375 21 10 C17.79619983 12.13586678 16.98060033 12.23132175 13.3125 12.125 C12.50425781 12.10695313 11.69601563 12.08890625 10.86328125 12.0703125 C9.94095703 12.03550781 9.94095703 12.03550781 9 12 C9 13.32 9 14.64 9 16 C14.99319847 16.49943321 18.94262555 15.26140052 24 12 C25.36886951 10.70317626 26.7169291 9.38176866 28 8 C28.66 8 29.32 8 30 8 C29.78087133 11.83475164 29.05971606 12.94164113 26.25 15.6875 C21.59605031 18.9989642 18.090127 20.2814883 12.375 20.25 C10.96347656 20.25773437 10.96347656 20.25773437 9.5234375 20.265625 C7 20 7 20 4 18 C3.8125 14.375 3.8125 14.375 4 11 C2.02 11.99 0.04 12.98 -2 14 C-1.94199219 14.68707031 -1.88398438 15.37414062 -1.82421875 16.08203125 C-1.68850092 18.79251012 -1.64821554 21.30732883 -2 24 C-4.25 26.0625 -4.25 26.0625 -7 27 C-7.8971875 27.3403125 -7.8971875 27.3403125 -8.8125 27.6875 C-13.65797019 28.37971003 -17.78747863 28.80834758 -22 26 C-21.6823628 22.77347475 -21.31796069 21.32169408 -19.00390625 18.98046875 C-18.19824219 18.38878906 -17.39257812 17.79710938 -16.5625 17.1875 C-15.75941406 16.58292969 -14.95632812 15.97835937 -14.12890625 15.35546875 C-12 14 -12 14 -10 14 C-10.33 13.34 -10.66 12.68 -11 12 C-12.31169748 8.06490757 -12.27179147 5.14481996 -12 1 C-7.98716318 -3.01283682 -5.03280241 -1.94449184 0 0 Z M12 7 C12 7.66 12 8.32 12 9 C13.65 8.67 15.3 8.34 17 8 C17 7.34 17 6.68 17 6 C14.0745356 5.7763932 14.0745356 5.7763932 12 7 Z M-9 17 C-10.33617352 17.97528737 -11.6688751 18.95533319 -13 19.9375 C-14.11375 20.75541016 -14.11375 20.75541016 -15.25 21.58984375 C-15.8275 22.05519531 -16.405 22.52054688 -17 23 C-17 23.33 -17 23.66 -17 24 C-12.545 23.505 -12.545 23.505 -8 23 C-7.67 21.68 -7.34 20.36 -7 19 C-7.66 18.34 -8.32 17.68 -9 17 Z " fill="#A4163D" transform="translate(232,72)"/>
<path d="M0 0 C0.495 2.475 0.495 2.475 1 5 C-0.051875 4.9175 -1.10375 4.835 -2.1875 4.75 C-6.64416239 5.04224016 -7.93040324 5.84513666 -11 9 C-12.02464476 10.65162977 -13.02847246 12.31657729 -14 14 C-13.32453125 13.4225 -12.6490625 12.845 -11.953125 12.25 C-11.06109375 11.5075 -10.1690625 10.765 -9.25 10 C-8.36828125 9.2575 -7.4865625 8.515 -6.578125 7.75 C-4 6 -4 6 0 6 C0.125 11.75 0.125 11.75 -1 14 C3.1198241 12.36761686 5.93504465 11.21820311 9 8 C9.99 8 10.98 8 12 8 C11.7416116 11.48824341 10.73533264 12.24214247 8.0625 14.6875 C3.99960973 17.75539673 2.09437273 18.41586716 -3 18 C-4.875 16.5 -4.875 16.5 -6 15 C-6.515625 15.474375 -7.03125 15.94875 -7.5625 16.4375 C-10.7129897 18.45704468 -13.2953203 18.73056875 -17 19 C-17.99 18.67 -18.98 18.34 -20 18 C-20 17.34 -20 16.68 -20 16 C-20.515625 16.33 -21.03125 16.66 -21.5625 17 C-24.80521778 18.33034575 -27.52984772 18.19642371 -31 18 C-31.33 17.67 -31.66 17.34 -32 17 C-31.82364548 14.30917128 -31.38164079 11.67148554 -31 9 C-32.79325326 10.28946305 -34.58455278 11.58164352 -36.375 12.875 C-37.37273437 13.59429687 -38.37046875 14.31359375 -39.3984375 15.0546875 C-41.99469894 16.8994658 -41.99469894 16.8994658 -44 19 C-46.125 18.625 -46.125 18.625 -48 18 C-46.49299203 12.65697176 -44.21962115 7.53804169 -41 3 C-40.01 2.67 -39.02 2.34 -38 2 C-37.34 2.33 -36.68 2.66 -36 3 C-36 3.99 -36 4.98 -36 6 C-35.113125 5.484375 -34.22625 4.96875 -33.3125 4.4375 C-29.79976669 2.9131063 -28.55293493 2.85052105 -25 4 C-23.9673198 6.78823655 -23.95490707 7.8677274 -24.9375 10.75 C-25.4634375 11.86375 -25.4634375 11.86375 -26 13 C-20.21148189 10.95699361 -17.94020204 8.8267475 -14 4 C-9.55998626 0.49303262 -5.64698097 -0.46097804 0 0 Z " fill="#A4163D" transform="translate(331,73)"/>
<path d="M0 0 C0.78375 0.04125 1.5675 0.0825 2.375 0.125 C1.82191225 6.33217217 0.77795978 11.98879511 -0.99609375 17.953125 C-1.35303062 19.18286041 -1.35303062 19.18286041 -1.71717834 20.43743896 C-2.48979132 23.08608564 -3.27483357 25.73079375 -4.0625 28.375 C-4.32933594 29.27686035 -4.59617187 30.1787207 -4.87109375 31.10791016 C-8.25658678 42.53394915 -11.70737068 53.9430733 -15.49539185 65.24304199 C-16.11470233 67.09421929 -16.72043557 68.94992105 -17.32592773 70.80566406 C-17.89162476 72.44873535 -17.89162476 72.44873535 -18.46875 74.125 C-18.79037109 75.07375 -19.11199219 76.0225 -19.44335938 77 C-20.625 79.125 -20.625 79.125 -22.75976562 79.9375 C-23.37529297 79.999375 -23.99082031 80.06125 -24.625 80.125 C-25.81590926 76.55227221 -25.35694407 75.20723004 -24.4296875 71.59765625 C-24.1320752 70.43322998 -23.83446289 69.26880371 -23.52783203 68.0690918 C-23.18601378 66.77501829 -22.84337745 65.48116065 -22.5 64.1875 C-22.32837341 63.53125641 -22.15674683 62.87501282 -21.97991943 62.19888306 C-18.48028295 48.83483834 -14.63595187 35.56844216 -10.75 22.3125 C-10.31781158 20.8287236 -10.31781158 20.8287236 -9.87689209 19.31497192 C-9.05283524 16.49292166 -8.21949003 13.67379958 -7.3828125 10.85546875 C-7.13412415 10.00163605 -6.88543579 9.14780334 -6.62921143 8.26809692 C-4.20864603 0.20041172 -4.20864603 0.20041172 0 0 Z " fill="#A4163D" transform="translate(464.625,6.875)"/>
<path d="M0 0 C0.99 0.33 1.98 0.66 3 1 C-0.02232941 11.62508353 -3.92584607 21.73626607 -8 32 C-2.06 32 3.88 32 10 32 C10 32.66 10 33.32 10 34 C0.1 34.495 0.1 34.495 -10 35 C-10.99 37.97 -11.98 40.94 -13 44 C-14.76832057 48.42593933 -16.66100659 52.79601957 -18.56079102 57.16674805 C-19.43895205 59.19084688 -20.3066413 61.21922622 -21.17382812 63.24804688 C-21.73895488 64.55495943 -22.30468928 65.86160944 -22.87109375 67.16796875 C-23.37568115 68.33610107 -23.88026855 69.5042334 -24.40014648 70.70776367 C-26.03095702 74.06370448 -27.71449533 77.0478081 -30 80 C-30.99 80 -31.98 80 -33 80 C-32.50660446 73.02902581 -30.94616969 67.29019266 -28.375 60.8125 C-28.02179688 59.90282471 -27.66859375 58.99314941 -27.3046875 58.0559082 C-24.30412217 50.4654156 -20.8654524 43.18732556 -17 36 C-19.64 35.67 -22.28 35.34 -25 35 C-25 34.34 -25 33.68 -25 33 C-18.565 32.505 -18.565 32.505 -12 32 C-11.59007812 30.57816406 -11.18015625 29.15632813 -10.7578125 27.69140625 C-9.05075608 22.00355846 -7.00939287 16.47675769 -4.875 10.9375 C-4.51535156 9.98939453 -4.15570313 9.04128906 -3.78515625 8.06445312 C-1.13109756 1.13109756 -1.13109756 1.13109756 0 0 Z " fill="#A4163D" transform="translate(319,213)"/>
<path d="M0 0 C-0.12109375 2.72265625 -0.12109375 2.72265625 -1 6 C-3.04569782 7.81805626 -4.74413695 9.07331551 -7.0625 10.4375 C-7.68229736 10.81729004 -8.30209473 11.19708008 -8.94067383 11.58837891 C-19.23991105 17.71988639 -30.28649683 22.39424188 -42 25 C-42 24.01 -42 23.02 -42 22 C-41.01902344 21.6596875 -40.03804688 21.319375 -39.02734375 20.96875 C-31.74476682 18.37848013 -24.70887533 15.56515675 -17.875 11.9375 C-17.27292725 11.62167969 -16.67085449 11.30585938 -16.05053711 10.98046875 C-11.91341291 8.72185696 -8.4842204 6.14003449 -5 3 C-5 2.67 -5 2.34 -5 2 C-41.98996144 0.21256562 -82.41842639 13.55099739 -115.484375 29.3828125 C-119 31 -119 31 -121 31 C-121 30.01 -121 29.02 -121 28 C-92.8828912 13.33944201 -61.22843267 4.51488781 -30 -0.4375 C-28.96842773 -0.60169434 -27.93685547 -0.76588867 -26.87402344 -0.93505859 C-8.20962108 -3.64872048 -8.20962108 -3.64872048 0 0 Z " fill="#A4163D" transform="translate(392,197)"/>
<path d="M0 0 C0.99 0.33 1.98 0.66 3 1 C0.73903586 8.06709182 -1.90497836 14.92524193 -4.74609375 21.77734375 C-5.05160156 22.53917969 -5.35710937 23.30101562 -5.671875 24.0859375 C-6.09098145 25.1076001 -6.09098145 25.1076001 -6.51855469 26.14990234 C-7.2334873 28.2077905 -7.2334873 28.2077905 -6 31 C-1.42251491 28.1204024 -1.42251491 28.1204024 2 24 C2.99 24 3.98 24 5 24 C4.34 26.31 3.68 28.62 3 31 C8.10613191 27.97263027 8.10613191 27.97263027 11 23 C11.556875 23.185625 12.11375 23.37125 12.6875 23.5625 C15.39820835 24.07533672 17.32383562 23.56340303 20 23 C20.66 23.33 21.32 23.66 22 24 C22 24.66 22 25.32 22 26 C24.31 25.67 26.62 25.34 29 25 C28.505 26.485 28.505 26.485 28 28 C26 28.66666667 24 29.33333333 22 30 C21.401875 30.66 20.80375 31.32 20.1875 32 C17.30921906 34.63157115 14.82846413 34.72530768 11.0234375 35.1171875 C8.70159223 35.84826217 8.70159223 35.84826217 7.94140625 38.64453125 C7.63074219 39.75183594 7.32007813 40.85914063 7 42 C5.9038824 44.29524384 4.75612993 46.56642217 3.5625 48.8125 C2.96566406 49.95332031 2.36882812 51.09414063 1.75390625 52.26953125 C0 55 0 55 -3 56 C-2.29807915 51.06678166 -0.36469225 46.74025318 1.5625 42.1875 C1.89185547 41.39923828 2.22121094 40.61097656 2.56054688 39.79882812 C3.36958906 37.86416204 4.18423852 35.93184247 5 34 C4.21625 34.020625 3.4325 34.04125 2.625 34.0625 C0 34 0 34 -2 33 C-4.3494053 33.60760482 -6.68529088 34.27129528 -9 35 C-9.99 34.01 -10.98 33.02 -12 32 C-12.8353125 32.495 -12.8353125 32.495 -13.6875 33 C-16.30284522 34.1309601 -18.1806646 34.15662974 -21 34 C-22.03023161 30.72199032 -22.17153978 29.38596452 -20.75 26.1875 C-20.1725 25.465625 -19.595 24.74375 -19 24 C-18.01 24 -17.02 24 -16 24 C-16.66 26.31 -17.32 28.62 -18 31 C-10.61876209 27.70851465 -8.9800661 20.95671918 -6.1875 13.8125 C-5.22416578 11.42256807 -4.25940187 9.03321174 -3.29296875 6.64453125 C-2.8755542 5.58596924 -2.45813965 4.52740723 -2.02807617 3.43676758 C-1 1 -1 1 0 0 Z M12 30 C12.33 30.66 12.66 31.32 13 32 C15.03833424 30.7260411 17.03852126 29.38938077 19 28 C19 27.34 19 26.68 19 26 C15.86676575 26 14.31979216 28.04649081 12 30 Z " fill="#A4163D" transform="translate(349,224)"/>
<path d="M0 0 C0.59039062 0.34804687 1.18078125 0.69609375 1.7890625 1.0546875 C1.3853464 8.4337207 -0.53915058 13.79711479 -3.8359375 20.3671875 C-4.50774048 21.7437854 -4.50774048 21.7437854 -5.19311523 23.14819336 C-8.17847308 29.1952377 -11.36206246 35.05449008 -14.93359375 40.77734375 C-16.13723307 42.92328174 -16.6423909 44.68912753 -17.2109375 47.0546875 C-18.50197393 48.4290166 -19.8366084 49.76365107 -21.2109375 51.0546875 C-21.8709375 52.0446875 -22.5309375 53.0346875 -23.2109375 54.0546875 C-24.2009375 54.0546875 -25.1909375 54.0546875 -26.2109375 54.0546875 C-25.71823411 51.39408922 -25.11819132 49.92415584 -23.5234375 47.6796875 C-21.87939045 45.10784634 -21.87939045 45.10784634 -22.91015625 42.3203125 C-24.3095958 38.8070048 -25.95162561 35.52685291 -27.7109375 32.1796875 C-31.65311971 24.46492273 -33.92790629 17.80170668 -33.2109375 9.0546875 C-31.94483399 6.07934425 -31.14827043 4.58584283 -28.3359375 2.9921875 C-24.89506124 3.09338974 -23.57080876 4.63430672 -21.2109375 7.0546875 C-19.97353543 9.35271992 -19.11124073 11.5906997 -18.2109375 14.0546875 C-16.70386209 12.07332659 -15.2345365 10.09001818 -13.8515625 8.01953125 C-10.71985067 3.45391765 -6.25882455 -2.67603453 0 0 Z M-7.2109375 5.0546875 C-12.06513752 9.90888752 -14.84283431 15.63561629 -17.2109375 22.0546875 C-17.2109375 23.0446875 -17.2109375 24.0346875 -17.2109375 25.0546875 C-18.2009375 25.0546875 -19.1909375 25.0546875 -20.2109375 25.0546875 C-20.00984375 24.33410156 -19.80875 23.61351562 -19.6015625 22.87109375 C-19.14648764 19.59000398 -19.67214502 18.01337858 -20.9609375 14.9921875 C-21.30640625 14.15558594 -21.651875 13.31898438 -22.0078125 12.45703125 C-23.19642043 10.0836745 -24.55139516 8.11957782 -26.2109375 6.0546875 C-29.32878863 6.70113411 -29.32878863 6.70113411 -30.2109375 9.0546875 C-31.3326403 20.45866595 -26.00704292 30.50961177 -20.2109375 40.0546875 C-19.5509375 40.0546875 -18.8909375 40.0546875 -18.2109375 40.0546875 C-7.10608266 22.01092528 -7.10608266 22.01092528 -1.2109375 2.0546875 C-3.5033872 2.0546875 -5.4131136 3.82889848 -7.2109375 5.0546875 Z " fill="#A5163E" transform="translate(245.2109375,218.9453125)"/>
<path d="M0 0 C0.33 0.99 0.66 1.98 1 3 C0.030625 3.2475 -0.93875 3.495 -1.9375 3.75 C-2.948125 4.1625 -3.95875 4.575 -5 5 C-5.96877057 7.03243548 -5.96877057 7.03243548 -6 9 C-1.73052871 8.49770926 2.16836808 8.02851102 6 6 C6.33 5.01 6.66 4.02 7 3 C7.99 3 8.98 3 10 3 C9.34 5.31 8.68 7.62 8 10 C8.928125 9.360625 9.85625 8.72125 10.8125 8.0625 C14 6 14 6 17 5 C16.05322042 8.18462224 15.33558155 9.73697662 12.6875 11.8125 C9.8164371 13.08110919 8.09734106 13.4185596 5 13 C4.34 12.34 3.68 11.68 3 11 C2.34 11.33 1.68 11.66 1 12 C-0.62359433 12.07071404 -2.25001132 12.08419866 -3.875 12.0625 C-4.73867187 12.05347656 -5.60234375 12.04445312 -6.4921875 12.03515625 C-7.31976563 12.02355469 -8.14734375 12.01195312 -9 12 C-12.86773478 11.86669333 -12.86773478 11.86669333 -16.0625 12.625 C-19 13 -19 13 -22 11 C-22.37125 11.495 -22.7425 11.99 -23.125 12.5 C-25.74694393 14.59755514 -27.73842472 14.21743835 -31 14 C-31.38281159 8.76824163 -30.21854707 5.62197306 -28 1 C-27.01 1 -26.02 1 -25 1 C-25.875 7.75 -25.875 7.75 -27 10 C-24.43759659 8.06088391 -22.27961126 6.40264022 -20.4375 3.75 C-19.963125 3.1725 -19.48875 2.595 -19 2 C-17.68 2 -16.36 2 -15 2 C-15.33 4.31 -15.66 6.62 -16 9 C-11.99408947 6.88576944 -9.73239693 4.58038219 -7 1 C-4.53721199 -0.231394 -2.7204945 -0.07159196 0 0 Z " fill="#A4163D" transform="translate(162,243)"/>
<path d="M0 0 C0.99 0 1.98 0 3 0 C2.16009416 6.57729082 -2.0149316 10.9236997 -6 16 C-6.69222656 16.89589844 -7.38445312 17.79179688 -8.09765625 18.71484375 C-8.76667969 19.53082031 -9.43570312 20.34679687 -10.125 21.1875 C-10.72570312 21.92355469 -11.32640625 22.65960938 -11.9453125 23.41796875 C-14.72034342 25.55463705 -16.58643386 25.36405068 -20 25 C-21 24 -21 24 -21.09765625 20.18359375 C-21.09098089 18.60153318 -21.07901875 17.01948841 -21.0625 15.4375 C-21.05798828 14.63119141 -21.05347656 13.82488281 -21.04882812 12.99414062 C-21.03700518 10.99606244 -21.01906914 8.99802217 -21 7 C-18.525 7.495 -18.525 7.495 -16 8 C-16.33 11.63 -16.66 15.26 -17 19 C-13.16099204 15.27307987 -9.674858 11.35798331 -6.25 7.25 C-1.07432432 1.07432432 -1.07432432 1.07432432 0 0 Z " fill="#A4163D" transform="translate(388,67)"/>
<path d="M0 0 C2.3125 0.125 2.3125 0.125 5 1 C6.8125 4.0625 6.8125 4.0625 8 7 C9.65 5.02 11.3 3.04 13 1 C13.99 1.33 14.98 1.66 16 2 C15.25752466 6.82608972 12.38978244 10.61021756 9 14 C6.5546875 13.9296875 6.5546875 13.9296875 4 13 C2.3828125 10.8203125 2.3828125 10.8203125 1.125 8.125 C0.69445312 7.24070312 0.26390625 6.35640625 -0.1796875 5.4453125 C-1 3 -1 3 0 0 Z " fill="#A4163D" transform="translate(82,59)"/>
<path d="M0 0 C1.65 0 3.3 0 5 0 C5.45375 0.969375 5.9075 1.93875 6.375 2.9375 C7.65786221 6.07079582 7.65786221 6.07079582 10 7 C10.37125 5.824375 10.37125 5.824375 10.75 4.625 C12.15389099 1.67682892 13.00675737 1.0975223 16 0 C16.875 2 16.875 2 17 5 C15.4406357 8.11297449 13.58066406 10.65860281 11 13 C7.625 13.5 7.625 13.5 5 13 C4.15930585 11.39967863 3.32768495 9.79458829 2.5 8.1875 C1.80390625 6.84751953 1.80390625 6.84751953 1.09375 5.48046875 C0 3 0 3 0 0 Z " fill="#A4163D" transform="translate(102,56)"/>
<path d="M0 0 C0.33 0.66 0.66 1.32 1 2 C0.29296875 3.875 0.29296875 3.875 -0.8125 6 C-1.34810547 7.051875 -1.34810547 7.051875 -1.89453125 8.125 C-3 10 -3 10 -5 12 C-7.125 11.625 -7.125 11.625 -9 11 C-8.39622642 3.63396226 -8.39622642 3.63396226 -6.75 1 C-4.41516867 -0.33418933 -2.64213132 -0.21422686 0 0 Z " fill="#A4163D" transform="translate(442,95)"/>
<path d="M0 0 C1.65 0.33 3.3 0.66 5 1 C3.44499019 4.81684226 0.96404505 7.19195732 -2 10 C-3.06351675 6.61608307 -3.21442982 5.4195366 -1.5625 2.1875 C-1.046875 1.465625 -0.53125 0.74375 0 0 Z " fill="#A4163D" transform="translate(125,65)"/>
<path d="M0 0 C1.65 0.33 3.3 0.66 5 1 C3.28032649 4.02990095 1.70761694 6.76327296 -1 9 C-1.66 9 -2.32 9 -3 9 C-2.5020163 5.26512223 -2.12508244 3.18762365 0 0 Z " fill="#A4163D" transform="translate(401,62)"/>
<path d="M0 0 C0.99 0 1.98 0 3 0 C2.67 1.65 2.34 3.3 2 5 C1.01 5 0.02 5 -1 5 C-0.67 3.35 -0.34 1.7 0 0 Z " fill="#A4163D" transform="translate(354,241)"/>
<path d="M0 0 C0.99 0 1.98 0 3 0 C2.67 1.65 2.34 3.3 2 5 C1.01 5 0.02 5 -1 5 C-0.67 3.35 -0.34 1.7 0 0 Z " fill="#A4163D" transform="translate(333,241)"/>
<path d="M0 0 C0.99 0 1.98 0 3 0 C2.67 1.65 2.34 3.3 2 5 C1.01 5 0.02 5 -1 5 C-0.67 3.35 -0.34 1.7 0 0 Z " fill="#A4163D" transform="translate(172,239)"/>
</svg>
